<svg width="472" height="406" viewBox="0 0 472 406" fill="none" xmlns="http://www.w3.org/2000/svg">
<path d="M437.027 208.291C305.642 511.373 -94.1479 226.06 134.413 17.9809C132.502 32.8803 131.612 46.961 131.651 60.239C132.24 228.063 282.165 267.661 396.504 212.603L396.507 212.596C407.663 207.233 418.469 200.967 428.762 193.834C430.115 192.903 431.697 192.321 433.337 192.328C437.125 192.345 438.954 194.993 438.836 200.254C438.773 203.025 438.13 205.755 437.027 208.291Z" fill="#FFCE00"/>
<path d="M109.195 47.3082L131.653 60.227C132.243 228.055 282.17 267.654 396.511 212.595C289.12 474.326 -43.6927 230.278 109.195 47.3082Z" fill="#FFAE1F"/>
<path d="M245.292 315.96C244.799 317.165 243.818 318.125 242.312 318.762C235.434 321.674 220.396 316.839 208.713 307.948C197.036 299.063 193.14 289.492 200.005 286.575C202.841 285.375 207.063 285.49 211.869 286.67C210.069 290.944 214.445 298.302 223.565 305.241C230.429 310.465 238.445 314.288 245.292 315.96Z" fill="#FFCE00"/>
<path d="M142.926 255.855C142.082 256.075 141.182 256.163 140.251 256.1C136.008 255.814 132.784 252.501 133.044 248.706C133.179 246.73 134.228 245.011 135.805 243.858C138.756 243.003 141.64 242.943 144.468 243.576C143.356 243.675 142.231 243.888 141.098 244.216C139.522 245.368 138.472 247.087 138.337 249.063C138.134 252.025 140.058 254.697 142.926 255.855Z" fill="#FFCE00"/>
<path d="M409.95 215.135C405.91 216.503 402.925 220.418 400.337 225.287C400.284 225.556 400.242 225.825 400.209 226.091C398.798 224.706 398.372 222.496 398.862 220.094C401.45 215.226 404.434 211.31 408.475 209.942C410.329 209.552 412.067 209.831 413.344 210.893C414.81 212.108 415.378 214.111 415.108 216.349C415.017 216.255 414.923 216.169 414.819 216.085C413.542 215.024 411.805 214.745 409.95 215.135Z" fill="#FFCE00"/>
<path d="M367.524 268.409C361.187 275.173 357.518 282.466 357.101 288.081C351.31 283.537 354.624 271.42 364.73 260.627C370.647 254.309 377.611 249.816 383.676 247.929C391.203 246.707 397.477 252.215 397.308 259.43C394.806 256.568 390.853 254.995 386.471 255.711C380.406 257.598 373.442 262.091 367.524 268.409Z" fill="#FFCE00"/>
<path d="M101.363 188.078C103.746 197.027 107.992 203.993 112.538 207.316C105.609 209.822 97.0792 200.606 93.2746 186.332C91.0484 177.975 90.9258 169.695 92.5392 163.556C95.4926 156.529 103.495 154.123 109.531 158.082C105.775 158.689 102.344 161.209 100.628 165.302C99.0142 171.441 99.1367 179.72 101.363 188.078Z" fill="#FFCE00"/>
<path d="M98.3342 86.1672C97.6858 86.3997 96.9977 86.5021 96.2874 86.4542C93.0524 86.236 90.6448 82.9789 90.9044 79.1831C91.0396 77.207 91.8685 75.4732 93.0905 74.2974C95.3576 73.3961 97.5606 73.2896 99.7097 73.8766C98.8585 73.9935 97.9961 74.2244 97.126 74.5696C95.9039 75.7454 95.075 77.4792 94.94 79.4554C94.7376 82.4174 96.1626 85.0557 98.3342 86.1672Z" fill="#FFCE00"/>
<path d="M186.609 327.056C135.297 305.441 92.0654 263.402 73.0635 212.352C61.3709 180.939 59.6435 147.563 68.0683 115.833C77.5397 80.1621 99.3069 46.6313 132.765 16.1725C133.526 15.4804 134.633 15.3331 135.551 15.8089C136.463 16.2828 136.982 17.2752 136.851 18.2952C125.423 107.209 150.553 175.248 207.613 209.878C213.794 213.63 220.285 216.924 227.024 219.764C286.558 244.849 365.745 234.515 427.368 191.822C429.218 190.54 431.287 189.867 433.35 189.875C435.603 189.884 437.441 190.602 438.812 192.007C440.562 193.801 441.373 196.515 441.291 200.305C441.226 203.322 440.549 206.337 439.279 209.267C419.225 255.529 392.003 290.55 358.37 313.359C328.646 333.516 293.835 343.681 257.699 342.756C233.363 342.133 209.198 336.572 186.609 327.056ZM131.187 24.341C52.3996 99.363 63.6519 172.995 77.6638 210.639C96.1959 260.426 138.382 301.437 188.437 322.529C210.491 331.822 234.066 337.245 257.829 337.853C302.287 338.992 384.393 323.547 434.775 207.32C435.791 204.977 436.332 202.583 436.384 200.204C436.433 197.897 436.047 196.203 435.296 195.433C435.024 195.155 434.525 194.785 433.325 194.78C432.275 194.776 431.181 195.146 430.163 195.852C396.42 219.229 355.804 234.017 315.797 237.493C274.511 241.08 236.22 232.982 205.062 214.071C177.29 197.215 156.727 172.809 143.944 141.53C130.529 108.705 126.245 69.3086 131.187 24.341Z" fill="#371A45"/>
<path d="M188.893 165.906L166.358 176.436C162.752 178.121 160.661 181.967 161.239 185.901C165.914 217.738 199.911 263.707 230.155 246.623L260.578 229.816L188.893 165.906Z" fill="white"/>
<path d="M222.657 249.583C232.291 243.498 233.597 234.967 223.066 222.958L199.202 203.593C193.916 199.303 189.635 193.908 186.628 187.8C182.369 179.149 177.38 173.071 170.228 174.616" fill="white"/>
<path d="M206.079 250.169C204.529 249.642 202.973 248.998 201.417 248.237C179.644 237.594 162.747 207.718 159.579 186.142C158.901 181.524 161.393 176.914 165.64 174.929L188.175 164.399C188.777 164.118 189.489 164.223 189.985 164.664L261.67 228.574C262.071 228.933 262.275 229.464 262.214 229.999C262.154 230.534 261.837 231.007 261.366 231.268L230.942 248.074C223.26 252.414 214.745 253.115 206.079 250.169ZM188.588 167.872L167.046 177.938C164.119 179.306 162.401 182.48 162.868 185.657C165.927 206.487 182.734 235.405 202.88 245.253C212.237 249.826 221.133 249.801 229.322 245.175L257.706 229.495L188.588 167.872Z" fill="#371A45"/>
<path d="M222.121 251.155C221.774 251.037 221.464 250.805 221.253 250.471C220.763 249.695 220.995 248.67 221.771 248.179C225.933 245.55 228.193 242.65 228.678 239.312C229.289 235.105 227.012 230.007 221.909 224.159L198.156 204.883C192.742 200.49 188.241 194.838 185.139 188.535C180.387 178.884 175.896 175.092 170.58 176.24C169.682 176.434 168.798 175.864 168.605 174.968C168.411 174.071 168.982 173.187 169.88 172.993C179.045 171.013 184.68 180.077 188.122 187.067C191.014 192.942 195.209 198.211 200.253 202.304L224.116 221.669C224.189 221.728 224.257 221.793 224.318 221.864C230.238 228.613 232.74 234.476 231.968 239.787C231.343 244.083 228.51 247.851 223.546 250.987C223.103 251.266 222.58 251.312 222.121 251.155Z" fill="#371A45"/>
<g opacity="0.2">
<path d="M260.562 229.817L230.138 246.624C227.663 248.025 225.158 248.998 222.651 249.594C232.286 243.507 233.59 234.977 223.062 222.97L199.195 203.601C193.908 199.312 189.63 193.918 186.622 187.81C182.363 179.157 177.379 173.08 170.225 174.623L188.877 165.906L260.562 229.817Z" fill="#371A45"/>
</g>
<g opacity="0.2">
<path d="M184.55 183.728C201.088 215.016 160.261 210.537 165.672 177.31C157.941 178.286 157.031 187.658 174.487 219.634C186.151 236.488 198.452 248.168 211.972 249.937C199.626 240.903 214.562 223.766 225.928 228.726C217.945 213.069 186.023 198.707 184.55 183.728Z" fill="#371A45"/>
</g>
<path d="M262.638 151.353C269.851 140.543 274.329 143.737 283.064 154.982L262.638 151.353Z" fill="white"/>
<path d="M275.168 163.894L304.271 187.953L288.239 213.542L255.177 188.589L275.168 163.894Z" fill="white"/>
<g opacity="0.2">
<path d="M275.168 163.894L304.271 187.953L288.239 213.542L255.177 188.589L275.168 163.894Z" fill="#371A45"/>
</g>
<path d="M262.104 152.927C261.662 152.776 261.299 152.444 261.112 152.007C260.892 151.491 260.947 150.9 261.258 150.433C264.591 145.44 267.484 143.161 270.639 143.046C274.941 142.89 278.786 146.762 284.38 153.963C284.802 154.505 284.845 155.252 284.489 155.84C284.133 156.429 283.451 156.738 282.774 156.618L262.349 152.99C262.265 152.975 262.183 152.954 262.104 152.927ZM272.119 146.585C271.649 146.425 271.196 146.35 270.758 146.366C269.215 146.422 267.495 147.675 265.53 150.18L278.998 152.572C276.311 149.374 274.068 147.247 272.119 146.585Z" fill="#371A45"/>
<path d="M300.932 226.057C295.642 222.898 292.017 217.494 291.21 211.385C290.01 202.268 293.073 193.869 297.747 185.74L285.823 176.554L282.459 173.962L288.205 170.089L295.113 165.432L301.604 161.058C322.569 161.42 338.205 170.197 332.083 188.139C343.174 189.593 346.583 197.096 344.938 205.376C341.92 220.627 321.769 238.501 300.932 226.057Z" fill="white"/>
<path d="M306.264 230.363C304.171 229.652 302.103 228.692 300.078 227.483C294.354 224.065 290.423 218.13 289.562 211.606C288.514 203.661 290.432 195.55 295.593 186.18L281.442 175.278C281.019 174.953 280.779 174.444 280.796 173.911C280.813 173.377 281.086 172.885 281.529 172.586L300.675 159.682C300.958 159.492 301.293 159.392 301.634 159.398C316.223 159.649 327.02 163.717 332.035 170.852C335.164 175.305 335.898 180.669 334.226 186.818C340.715 188.173 345.031 191.865 346.471 197.35C348.768 206.105 343.16 218.222 333.424 225.534C325.037 231.834 315.422 233.476 306.264 230.363ZM285.296 174.052L298.761 184.425C299.419 184.932 299.601 185.847 299.187 186.567C293.801 195.938 291.849 203.525 292.858 211.168C293.587 216.696 296.924 221.729 301.784 224.631C311.455 230.405 322.259 229.766 331.429 222.879C340.146 216.332 345.23 205.72 343.255 198.195C342.026 193.509 338.086 190.601 331.865 189.787C331.371 189.722 330.933 189.44 330.671 189.017C330.408 188.594 330.349 188.076 330.51 187.605C332.512 181.735 332.11 176.742 329.314 172.763C325.046 166.69 315.141 163.045 302.095 162.73L285.296 174.052Z" fill="#371A45"/>
<path d="M297.204 187.32C297.044 187.265 296.89 187.185 296.746 187.078C296.011 186.53 295.86 185.489 296.409 184.754C301.796 177.54 307.008 172.841 312.345 170.388C318.614 167.506 325.191 167.734 331.894 171.063C332.716 171.471 333.05 172.468 332.641 173.29C332.232 174.111 331.231 174.446 330.413 174.038C319.387 168.56 309.723 172.478 299.073 186.739C298.63 187.332 297.868 187.545 297.204 187.32Z" fill="#371A45"/>
<path d="M311.643 191.661C311.187 191.506 310.802 191.155 310.621 190.669C310.301 189.809 310.738 188.852 311.599 188.531C319.195 185.698 326.218 185.025 332.472 186.529C333.363 186.744 333.913 187.641 333.698 188.533C333.482 189.425 332.584 189.974 331.692 189.76C326.093 188.413 319.723 189.047 312.759 191.644C312.385 191.783 311.993 191.78 311.643 191.661Z" fill="#371A45"/>
<path d="M309.7 230.376C306.752 229.374 304.391 227.613 302.818 225.19C300.287 221.291 300.154 216.224 302.446 210.922C304.639 205.85 308.826 201.123 314.236 197.613C319.647 194.103 325.67 192.205 331.197 192.269C336.974 192.336 341.549 194.52 344.08 198.42C346.612 202.32 346.744 207.387 344.452 212.689C342.26 217.76 338.072 222.487 332.663 225.997C327.252 229.507 321.229 231.406 315.702 231.342C313.514 231.316 311.498 230.987 309.7 230.376ZM336.108 196.378C334.644 195.88 332.98 195.612 331.156 195.591C326.277 195.534 320.911 197.242 316.045 200.399C311.178 203.556 307.433 207.76 305.497 212.237C303.661 216.486 303.7 220.443 305.607 223.381C307.515 226.318 311.114 227.967 315.743 228.02C320.622 228.076 325.988 226.369 330.854 223.212C335.72 220.055 339.466 215.85 341.401 211.373C343.238 207.125 343.199 203.168 341.291 200.23C340.136 198.45 338.359 197.143 336.108 196.378Z" fill="#371A45"/>
<path d="M342.466 213.47C342.254 213.397 342.053 213.281 341.877 213.119L323.332 196.049C322.657 195.427 322.614 194.376 323.237 193.701C323.859 193.027 324.911 192.983 325.586 193.604L344.131 210.674C344.806 211.296 344.848 212.347 344.226 213.022C343.766 213.521 343.07 213.675 342.466 213.47Z" fill="#371A45"/>
<path d="M335.915 222.522C335.719 222.455 335.532 222.35 335.366 222.207L311.779 201.875C311.084 201.276 311.007 200.227 311.607 199.532C312.207 198.837 313.257 198.76 313.952 199.358L337.539 219.69C338.234 220.289 338.311 221.338 337.711 222.033C337.254 222.562 336.538 222.733 335.915 222.522Z" fill="#371A45"/>
<path d="M324.682 229.861C324.48 229.792 324.288 229.683 324.118 229.533L303.568 211.375C302.881 210.767 302.817 209.717 303.425 209.03C304.034 208.342 305.083 208.279 305.772 208.885L326.322 227.043C327.009 227.651 327.073 228.701 326.465 229.388C326.007 229.906 325.298 230.071 324.682 229.861Z" fill="#371A45"/>
<g opacity="0.2">
<path d="M300.931 226.057C295.64 222.898 292.016 217.494 291.208 211.384C290.008 202.268 293.072 193.868 297.746 185.739L285.822 176.553L288.203 170.088L295.111 165.43L313.505 171.683C307.656 186.331 310.609 193.806 322.365 194.109C331.793 195.252 339.566 198.671 344.938 205.376C341.92 220.627 321.768 238.502 300.931 226.057Z" fill="#371A45"/>
</g>
<path d="M258.378 194.399L296.037 178.574L300.005 170.161L279.163 160.005L241.117 177.249L258.378 194.399Z" fill="white"/>
<g opacity="0.2">
<path d="M256.042 192.285L293.701 176.46L297.669 168.047L276.827 157.89L238.781 175.135L256.042 192.285Z" fill="#371A45"/>
</g>
<path d="M257.854 195.972C257.619 195.893 257.401 195.76 257.218 195.578L239.958 178.428C239.571 178.043 239.398 177.493 239.495 176.956C239.592 176.418 239.947 175.963 240.445 175.737L278.49 158.493C278.942 158.289 279.46 158.294 279.906 158.513L300.747 168.669C301.564 169.067 301.909 170.047 301.521 170.869L297.553 179.282C297.378 179.653 297.071 179.947 296.693 180.106L259.034 195.931C258.651 196.092 258.231 196.101 257.854 195.972ZM244.01 177.768L258.774 192.437L294.818 177.291L297.815 170.938L279.149 161.841L244.01 177.768Z" fill="#371A45"/>
<path d="M266.841 192.196C266.062 191.932 265.583 191.124 265.751 190.296L267.7 180.684C267.816 180.111 268.225 179.642 268.776 179.447L299.458 168.601C300.324 168.296 301.273 168.749 301.579 169.613C301.884 170.478 301.43 171.427 300.564 171.733L270.77 182.264L269.008 190.953C268.826 191.852 267.949 192.434 267.05 192.253C266.978 192.238 266.908 192.219 266.841 192.196Z" fill="#371A45"/>
<path d="M284.827 130.126L280.366 168.565C280.215 169.87 280.995 171.104 282.239 171.527L285.087 172.495L304.536 168.746C306.855 168.299 308.632 166.424 308.952 164.085L314.597 122.872L310.152 120.884C309.5 120.592 308.763 120.55 308.082 120.766L287.073 127.406C285.854 127.791 284.974 128.856 284.827 130.126Z" fill="#56BFDB"/>
<path d="M304.536 168.745L285.678 172.378L285.086 172.493L282.239 171.525C280.997 171.103 280.214 169.872 280.367 168.564L284.828 130.124C284.974 128.858 285.851 127.792 287.072 127.404L308.083 120.765C308.763 120.549 309.498 120.593 310.153 120.885L314.597 122.87L314.272 125.238L308.952 164.083C308.633 166.422 306.855 168.301 304.536 168.745Z" fill="#50D1EF"/>
<path d="M304.551 168.744L285.694 172.378L290.065 134.729C290.212 133.463 291.089 132.397 292.309 132.01L313.319 125.371C313.634 125.272 313.962 125.225 314.286 125.239L308.967 164.083C308.647 166.422 306.87 168.3 304.551 168.744Z" fill="#56A9F4"/>
<path d="M293.409 134.17L299.301 132.125C300.583 131.68 301.897 132.707 301.772 134.058L301.039 142.002C300.97 142.745 300.466 143.375 299.757 143.607L294.025 145.477C292.762 145.889 291.486 144.89 291.584 143.567L292.158 135.797C292.213 135.054 292.705 134.414 293.409 134.17Z" fill="#FDEAF6"/>
<path d="M284.548 174.066L281.7 173.097C279.729 172.427 278.473 170.441 278.712 168.373L283.173 129.934C283.396 128.017 284.729 126.402 286.57 125.82L307.579 119.181C308.65 118.842 309.804 118.909 310.829 119.366L315.274 121.354C315.947 121.655 316.341 122.363 316.241 123.093L310.596 164.307C310.178 167.354 307.868 169.792 304.846 170.375L285.398 174.124C285.114 174.179 284.821 174.159 284.548 174.066ZM309.362 122.355C309.109 122.269 308.835 122.266 308.579 122.347L287.57 128.987C286.976 129.175 286.546 129.695 286.475 130.314C286.475 130.314 286.475 130.314 286.475 130.314L282.014 168.753C281.953 169.278 282.272 169.783 282.773 169.953L285.204 170.779L304.219 167.113C305.84 166.801 307.079 165.493 307.303 163.86L312.779 123.878L309.47 122.398C309.434 122.382 309.398 122.368 309.362 122.355Z" fill="#371A45"/>
<path d="M284.686 173.671C284.147 173.487 283.787 172.949 283.851 172.358L288.108 133.166C288.272 131.659 289.303 130.364 290.735 129.865L314.184 121.696C314.835 121.469 315.545 121.814 315.771 122.462C315.997 123.112 315.653 123.822 315.003 124.048L291.554 132.217C291.026 132.4 290.646 132.878 290.586 133.433L286.328 172.626C286.254 173.309 285.639 173.804 284.955 173.73C284.862 173.72 284.772 173.7 284.686 173.671Z" fill="#371A45"/>
<path d="M292.571 146.257C292.288 146.161 292.019 146.017 291.777 145.827C291.067 145.272 290.684 144.405 290.75 143.507L291.324 135.737C291.404 134.663 292.114 133.74 293.132 133.386L299.024 131.341C299.894 131.039 300.846 131.197 301.572 131.765C302.297 132.332 302.679 133.218 302.594 134.134L301.861 142.078C301.762 143.152 301.035 144.062 300.009 144.397L294.277 146.267C293.714 146.451 293.116 146.443 292.571 146.257ZM300.237 132.904C300.024 132.832 299.792 132.832 299.568 132.91L293.677 134.955C293.676 134.955 293.676 134.955 293.676 134.955C293.285 135.091 293.013 135.445 292.982 135.858L292.408 143.628C292.382 143.978 292.526 144.303 292.802 144.519C293.078 144.736 293.428 144.798 293.763 144.688L299.495 142.818C299.889 142.69 300.168 142.34 300.206 141.927L300.94 133.983C300.973 133.626 300.83 133.294 300.547 133.073C300.451 132.998 300.346 132.941 300.237 132.904Z" fill="#371A45"/>
<path d="M294.816 138.624C295.604 138.722 296.331 138.098 296.439 137.231C296.547 136.364 295.996 135.582 295.208 135.484C294.42 135.387 293.693 136.01 293.585 136.877C293.477 137.744 294.028 138.526 294.816 138.624Z" fill="#371A45"/>
<path d="M296.339 141.222C296.388 142.069 295.803 142.791 295.033 142.836C294.264 142.881 293.6 142.231 293.551 141.384C293.503 140.538 294.087 139.815 294.857 139.77C295.627 139.726 296.29 140.376 296.339 141.222Z" fill="#371A45"/>
<path d="M308.414 146.534C307.587 144.404 307.197 142.265 307.447 140.115C307.653 138.341 308.749 136.809 310.357 136.029C316.053 133.264 321.768 134.65 324.305 140.028C326.648 144.996 325.59 150.993 321.719 154.898C320.062 156.571 318.086 157.785 316.129 158.272C313.641 158.893 311.05 157.732 309.765 155.517C308.675 153.637 308.297 151.55 308.691 149.239C308.846 148.33 308.748 147.394 308.414 146.534Z" fill="white"/>
<g opacity="0.2">
<path d="M323.509 149.681C321.852 151.353 319.875 152.567 317.918 153.055C315.43 153.675 312.839 152.515 311.554 150.299C310.463 148.419 310.086 146.332 310.479 144.021C310.634 143.112 310.537 142.175 310.203 141.316C309.622 139.822 309.264 138.324 309.184 136.82C308.234 137.659 307.606 138.82 307.455 140.113C307.205 142.264 307.595 144.403 308.423 146.533C308.756 147.393 308.854 148.33 308.699 149.239C308.306 151.55 308.683 153.637 309.774 155.517C311.059 157.732 313.65 158.892 316.138 158.272C318.095 157.785 320.071 156.57 321.729 154.898C323.832 152.775 325.097 150.034 325.445 147.177C324.908 148.075 324.264 148.919 323.509 149.681Z" fill="#371A45"/>
</g>
<path d="M312.418 159.701C310.741 159.131 309.263 157.964 308.326 156.35C307.026 154.109 306.597 151.623 307.051 148.961C307.155 148.351 307.09 147.719 306.863 147.135C305.876 144.592 305.526 142.233 305.795 139.923C306.067 137.582 307.501 135.568 309.63 134.534C313.035 132.881 316.558 132.536 319.564 133.558C319.599 133.57 319.634 133.582 319.669 133.595C322.366 134.545 324.489 136.523 325.807 139.318C328.447 144.915 327.278 151.646 322.898 156.065C321.006 157.975 318.744 159.331 316.528 159.883C315.145 160.228 313.722 160.144 312.418 159.701ZM318.49 136.703C316.319 135.965 313.691 136.254 311.08 137.521C309.979 138.056 309.237 139.097 309.097 140.304C308.892 142.063 309.175 143.904 309.962 145.931L309.962 145.931C310.406 147.075 310.533 148.314 310.328 149.516C310.003 151.419 310.289 153.109 311.202 154.682C312.129 156.279 313.99 157.093 315.727 156.66C317.359 156.253 319.068 155.212 320.538 153.729C323.938 150.298 324.847 145.076 322.8 140.736C321.869 138.762 320.404 137.376 318.562 136.728C318.538 136.719 318.515 136.711 318.49 136.703Z" fill="#371A45"/>
<path d="M294.596 265.046C290.07 268.974 281.595 269.962 268.887 264.15C264.825 262.291 261.629 258.949 259.931 254.818C257.779 249.572 256.785 244.382 256.249 239.211C255.918 236.001 253.695 233.306 250.592 232.418C228.071 225.986 213.06 218.952 213.417 210.675L234.623 196.338L251.117 185.186C287.995 197.056 298.017 201.13 292.736 243.2C299.688 249.749 300.519 259.908 294.596 265.046Z" fill="white"/>
<path d="M273.52 267.793C271.795 267.206 270.018 266.497 268.195 265.663C263.743 263.627 260.263 260.001 258.394 255.452C256.449 250.717 255.242 245.611 254.598 239.385C254.332 236.823 252.579 234.713 250.133 234.018C223.224 226.332 211.388 219.113 211.754 210.607C211.777 210.081 212.048 209.597 212.484 209.302L250.186 183.813C250.609 183.526 251.14 183.451 251.627 183.607C271.03 189.853 282.335 193.779 289.014 201.808C295.554 209.672 297.104 221.143 294.485 242.589C300.508 248.739 301.997 257.724 297.894 263.808C293.579 270.207 284.672 271.584 273.52 267.793ZM251.505 230.967C255.024 232.163 257.515 235.283 257.904 239.04C258.516 244.942 259.648 249.755 261.469 254.188C263.017 257.956 265.898 260.958 269.581 262.642C281.59 268.135 291.143 267.877 295.138 261.953C298.476 257.002 296.952 249.46 291.593 244.409C291.208 244.046 291.019 243.52 291.085 242.995C293.715 222.051 292.417 211.099 286.457 203.933C280.45 196.712 269.723 192.933 251.376 187.017L215.104 211.539C215.812 217.727 227.893 224.212 251.049 230.824C251.203 230.868 251.355 230.916 251.505 230.967Z" fill="#371A45"/>
<path d="M253.481 236.034C252.958 235.856 252.535 235.421 252.399 234.843C250.5 226.783 253.96 218.118 261.652 211.663C270.53 204.215 282.375 201.726 291.135 205.489C291.978 205.85 292.367 206.827 292.005 207.669C291.642 208.513 290.66 208.908 289.822 208.541C282.194 205.28 271.728 207.545 263.788 214.206C257.077 219.837 254.029 227.266 255.634 234.079C255.844 234.972 255.29 235.867 254.397 236.077C254.082 236.152 253.767 236.131 253.481 236.034Z" fill="#371A45"/>
<path d="M291.656 244.452C288.546 241.106 283.891 239.959 279.389 240.768C278.515 240.908 278.217 239.632 279.067 239.373C282.667 238.25 286.926 238.211 290.467 239.881C291.691 240.436 292.836 241.157 293.885 241.983C295.671 243.506 293.36 246.074 291.656 244.452Z" fill="#371A45"/>
<g opacity="0.2">
<path d="M294.597 265.045C290.07 268.973 281.595 269.962 268.887 264.149C264.825 262.29 261.628 258.948 259.93 254.816C257.778 249.57 256.784 244.379 256.248 239.208C255.917 235.998 253.694 233.303 250.591 232.414C228.069 225.982 213.056 218.947 213.413 210.67L234.62 196.332C252.284 200.174 266.435 214.033 273.878 246.997C275.205 252.862 278.954 257.941 284.267 260.765C287.31 262.383 290.836 263.77 294.597 265.045Z" fill="#371A45"/>
</g>
<path d="M237.824 209.454C234.6 216.601 226.703 221.994 219.006 224.615C213.792 226.392 208.669 226.896 205.16 225.809C203.532 225.308 202.203 224.071 201.715 222.439C201.401 221.376 201.627 220.716 202.463 220.04C202.742 219.814 203.049 219.634 203.371 219.488C203.627 219.369 203.889 219.27 204.161 219.191C212.461 216.748 221.475 211.231 230.539 205.516L237.824 209.454Z" fill="white"/>
<path d="M204.464 227.33C202.343 226.61 200.725 224.97 200.113 222.909C199.611 221.214 200.036 219.852 201.413 218.744C202.039 218.24 202.802 217.854 203.681 217.594C211.619 215.258 220.135 210.105 229.642 204.109C230.15 203.788 230.793 203.767 231.32 204.052L238.607 207.992C239.372 208.406 239.688 209.341 239.33 210.134C236.717 215.926 230.912 221.215 223.403 224.646C216.523 227.788 209.34 228.841 204.658 227.394C204.593 227.373 204.528 227.352 204.464 227.33ZM203.231 221.598C203.232 221.598 203.223 221.701 203.3 221.963C203.614 223.019 204.48 223.87 205.643 224.22C213.139 226.537 229.76 220.581 235.605 210.147L230.591 207.436C221.199 213.345 212.73 218.393 204.618 220.781C204.159 220.916 203.781 221.101 203.496 221.331C203.285 221.5 203.236 221.588 203.231 221.598Z" fill="#371A45"/>
<g opacity="0.2">
<path d="M237.812 209.453C234.588 216.6 226.691 221.993 218.993 224.614C212.989 223.315 207.593 221.7 203.358 219.487C203.613 219.368 203.875 219.269 204.148 219.19C212.447 216.747 221.462 211.23 230.527 205.515L237.812 209.453Z" fill="#371A45"/>
</g>
<path d="M235.331 212.419C234.536 212.745 233.745 213.042 232.967 213.304C205.846 222.545 186.974 196.33 196.708 173.589C197.323 172.148 198.054 170.725 198.905 169.325L229.927 170.374L230.618 175.759L233.378 197.203L235.316 212.322L235.331 212.419Z" fill="white"/>
<path d="M212.458 215.346C207.709 213.732 203.446 210.854 199.947 206.765C190.947 196.248 189.951 180.856 197.469 168.464C197.781 167.95 198.346 167.644 198.948 167.665L229.97 168.714C230.784 168.741 231.457 169.354 231.561 170.161L236.965 212.204C237.062 212.95 236.644 213.668 235.947 213.954C227.671 217.348 219.528 217.75 212.458 215.346ZM199.822 171.018C193.586 182.029 194.607 195.413 202.474 204.605C209.958 213.35 221.485 215.828 233.503 211.344L228.444 171.986L199.822 171.018Z" fill="#371A45"/>
<path d="M231.448 170.992C228.217 179.806 219.549 185.378 210.828 187.738C210.475 187.835 210.111 187.627 210.014 187.275C209.93 186.969 210.076 186.654 210.346 186.513C214.19 184.452 217.895 182.261 221.053 179.518C224.185 176.818 226.718 173.544 228.36 169.767C229.255 167.824 232.129 168.959 231.448 170.992Z" fill="#371A45"/>
<path d="M272.835 120.471C272.376 130.858 269.288 141.196 263.498 150.463C262.316 152.352 261.029 154.193 259.627 155.981C258.947 156.852 258.232 157.712 257.497 158.565C255.266 161.123 252.873 163.458 250.341 165.571C248.164 167.397 245.881 169.055 243.522 170.546C240.675 172.349 237.706 173.905 234.653 175.217C233.538 175.692 232.414 176.136 231.282 176.55C210.53 184.085 186.467 180.671 168.622 165.546C142.329 143.271 139.497 104.03 162.284 77.8995C166.677 72.8699 171.698 68.6812 177.136 65.3787C177.768 64.9868 178.414 64.6114 179.066 64.2499C180.805 63.2714 182.581 62.3794 184.388 61.5759C188.568 59.7191 192.918 58.3296 197.346 57.4114C201.772 56.4885 206.287 56.0371 210.795 56.0634C212.228 56.0709 213.661 56.125 215.095 56.2305C217.244 56.3897 219.384 56.6513 221.518 57.032C232.144 58.897 242.402 63.4959 251.159 70.9184C266.284 83.7308 273.643 102.156 272.835 120.471Z" fill="white"/>
<path d="M188.85 177.14C181.503 174.642 174.595 170.789 168.529 165.648C155.837 154.895 148.163 139.874 146.921 123.353C145.67 106.7 151.088 90.526 162.177 77.8096C166.507 72.8523 171.514 68.6306 177.061 65.2622C177.667 64.8865 178.3 64.5161 178.996 64.1305C180.728 63.1556 182.522 62.2542 184.328 61.4513C188.477 59.6088 192.846 58.2045 197.314 57.2779C201.74 56.3553 206.274 55.9009 210.791 55.9272C212.243 55.935 213.693 55.9914 215.1 56.0947C217.294 56.257 219.459 56.5274 221.537 56.8981C232.499 58.8215 242.77 63.6342 251.241 70.8142C265.892 83.2244 273.81 101.326 272.965 120.476C272.496 131.093 269.26 141.486 263.608 150.534C262.41 152.448 261.104 154.309 259.728 156.063C259.098 156.872 258.399 157.719 257.594 158.652C255.39 161.179 252.978 163.541 250.423 165.673C248.287 167.465 245.988 169.143 243.59 170.66C240.785 172.436 237.794 174.01 234.701 175.34C233.591 175.813 232.455 176.262 231.323 176.676C217.391 181.734 202.379 181.739 188.85 177.14ZM230.803 59.5496C227.774 58.52 224.661 57.7206 221.489 57.1641C219.42 56.7951 217.264 56.526 215.08 56.3643C213.679 56.2613 212.236 56.205 210.789 56.1975C206.291 56.1711 201.776 56.6238 197.369 57.5424C192.919 58.4654 188.569 59.8635 184.438 61.6984C182.64 62.4977 180.853 63.3953 179.128 64.3667C178.435 64.7503 177.806 65.1184 177.203 65.4923C171.679 68.8472 166.692 73.0509 162.381 77.9873C151.34 90.6487 145.945 106.753 147.191 123.333C148.427 139.781 156.067 154.736 168.705 165.442C185.866 179.986 209.825 184.194 231.231 176.422C232.358 176.01 233.49 175.562 234.595 175.091C237.674 173.767 240.652 172.2 243.445 170.431C245.833 168.921 248.122 167.25 250.25 165.466C252.793 163.343 255.196 160.991 257.39 158.475C258.192 157.546 258.887 156.702 259.515 155.897C260.886 154.149 262.185 152.297 263.378 150.39C269.006 141.383 272.228 131.034 272.694 120.464C273.536 101.398 265.653 83.376 251.066 71.0202C245.083 65.9485 238.196 62.0631 230.803 59.5496Z" fill="#371A45"/>
<path d="M168.629 165.542C186.475 180.67 210.543 184.084 231.294 176.546C232.428 176.134 233.551 175.69 234.664 175.214C237.718 173.903 240.685 172.346 243.534 170.545C245.892 169.051 248.177 167.395 250.353 165.57C252.887 163.457 255.278 161.122 257.512 158.563C258.244 157.708 258.96 156.85 259.642 155.98C261.044 154.191 262.328 152.347 263.511 150.459C269.301 141.191 272.392 130.854 272.849 120.464C273.102 114.758 272.561 109.037 271.239 103.48C270.573 113.385 267.505 123.2 261.981 132.041C260.802 133.933 259.514 135.773 258.113 137.562C257.434 138.433 256.719 139.29 255.982 140.145C253.749 142.704 251.357 145.039 248.828 147.152C246.648 148.977 244.367 150.634 242.009 152.128C239.16 153.928 236.188 155.486 233.138 156.797C232.021 157.272 230.898 157.716 229.765 158.129C209.013 165.667 184.95 162.253 167.1 147.124C156.685 138.302 149.956 126.816 147.037 114.542C145.763 133.333 153.109 152.395 168.629 165.542Z" fill="#D8D8D8"/>
<path d="M188.56 177.999C181.107 175.465 174.099 171.555 167.946 166.341C155.067 155.43 147.28 140.188 146.02 123.424C144.751 106.527 150.247 90.1174 161.497 77.2166C165.889 72.1885 170.968 67.9068 176.594 64.4898C177.205 64.1105 177.851 63.7328 178.561 63.34C180.312 62.3544 182.132 61.4399 183.964 60.6256C188.171 58.7566 192.602 57.3324 197.134 56.3926C201.621 55.4571 206.22 54.9962 210.8 55.0231C212.273 55.0308 213.743 55.088 215.171 55.193C217.395 55.3575 219.592 55.6316 221.7 56.0079C232.818 57.959 243.238 62.8406 251.831 70.1246C266.697 82.7172 274.731 101.084 273.874 120.517C273.398 131.289 270.115 141.835 264.38 151.015C263.165 152.957 261.841 154.843 260.445 156.623C259.807 157.442 259.099 158.3 258.284 159.245C256.045 161.811 253.598 164.207 251.007 166.37C248.842 168.186 246.509 169.888 244.077 171.426C241.232 173.228 238.199 174.825 235.062 176.173C233.935 176.654 232.783 177.109 231.637 177.528C217.506 182.659 202.283 182.664 188.56 177.999ZM230.513 60.409C227.529 59.3944 224.461 58.6066 221.335 58.0581C219.294 57.694 217.169 57.4289 215.016 57.2695C213.635 57.1679 212.213 57.1127 210.787 57.1053C206.352 57.0792 201.901 57.5253 197.557 58.4311C193.169 59.341 188.881 60.7193 184.809 62.528C183.037 63.3157 181.276 64.2003 179.575 65.1576C178.89 65.537 178.273 65.8978 177.683 66.2638C172.231 69.5745 167.317 73.7182 163.067 78.5844C152.187 91.061 146.87 106.93 148.098 123.266C149.316 139.471 156.843 154.204 169.294 164.752C186.209 179.089 209.824 183.234 230.925 175.572C232.035 175.166 233.152 174.725 234.244 174.26C237.276 172.956 240.211 171.411 242.963 169.668C245.318 168.179 247.574 166.532 249.67 164.774C252.179 162.68 254.547 160.362 256.71 157.882C257.499 156.968 258.185 156.136 258.804 155.342C260.156 153.618 261.437 151.792 262.613 149.912C268.158 141.038 271.332 130.841 271.792 120.427C272.621 101.643 264.854 83.887 250.483 71.7134C244.586 66.715 237.8 62.8861 230.513 60.409Z" fill="#371A45"/>
<path d="M188.363 178.584C180.838 176.026 173.762 172.079 167.549 166.812C154.542 155.794 146.679 140.401 145.406 123.47C144.124 106.406 149.674 89.8352 161.034 76.8084C165.468 71.732 170.596 67.4092 176.276 63.9589C176.891 63.5773 177.546 63.1946 178.264 62.7967C180.029 61.8035 181.867 60.8803 183.716 60.058C187.964 58.1709 192.438 56.7331 197.013 55.7845C201.542 54.8402 206.184 54.3749 210.809 54.4021C212.295 54.4099 213.779 54.4675 215.221 54.5737C217.467 54.7398 219.685 55.0166 221.814 55.3964C233.038 57.3662 243.559 62.2957 252.237 69.6506C267.25 82.3678 275.363 100.917 274.498 120.543C274.017 131.421 270.702 142.071 264.91 151.341C263.683 153.302 262.347 155.207 260.937 157.004C260.293 157.83 259.58 158.696 258.758 159.648C256.495 162.242 254.025 164.661 251.409 166.844C249.223 168.677 246.869 170.396 244.413 171.949C241.54 173.768 238.478 175.38 235.311 176.742C234.172 177.227 233.011 177.686 231.854 178.109C217.589 183.289 202.217 183.294 188.363 178.584ZM230.318 60.9948C227.363 59.9903 224.326 59.2104 221.231 58.6674C219.21 58.3066 217.106 58.0442 214.973 57.8863C213.608 57.7859 212.199 57.731 210.787 57.7237C206.396 57.698 201.989 58.1397 197.687 59.0365C193.342 59.9376 189.096 61.3022 185.065 63.0929C183.311 63.8727 181.567 64.7487 179.884 65.6962C179.204 66.0728 178.596 66.4283 178.014 66.789C172.612 70.0698 167.746 74.1721 163.539 78.9903C152.769 91.3406 147.506 107.048 148.721 123.218C149.926 139.256 157.377 153.838 169.7 164.278C186.445 178.47 209.826 182.574 230.718 174.988C231.817 174.586 232.924 174.149 234.005 173.688C237.006 172.399 239.911 170.868 242.636 169.143C244.967 167.669 247.201 166.039 249.276 164.298C251.761 162.224 254.105 159.929 256.247 157.474C257.027 156.57 257.706 155.746 258.319 154.96C259.659 153.252 260.927 151.444 262.092 149.583C267.58 140.799 270.722 130.706 271.177 120.399L271.177 120.399C271.997 101.807 264.31 84.2337 250.086 72.185C244.249 67.2371 237.53 63.4469 230.318 60.9948Z" fill="#371A45"/>
<path d="M270.074 136.195C248.17 175.197 194.976 180.997 173.115 142.818C158.241 116.843 172.652 82.2053 198.967 69.4976C218.12 60.2487 240.848 59.4538 263.273 84.7445C263.273 84.7445 271.435 97.4677 272.16 108.239C272.884 119.01 271.745 129.621 271.745 129.621L270.074 136.195Z" fill="#371A45"/>
<path d="M173.121 142.809C194.985 180.998 248.187 175.198 270.093 136.191L270.43 134.858C237.079 159.103 190.043 155.385 167.204 117.185C166.726 125.95 168.531 134.791 173.121 142.809Z" fill="#220F2D"/>
<path d="M197.577 173.623C184.243 169.09 173.346 159.921 165.887 146.898C158.352 133.739 156.883 117.857 161.751 102.178C167.156 84.7671 179.834 69.8085 195.665 62.1633C204.461 57.9158 213.141 55.6321 221.465 55.3753L221.635 55.3701L221.804 55.3996C233.031 57.3713 243.554 62.2995 252.231 69.6544C267.243 82.3714 275.357 100.921 274.491 120.546C274.011 131.424 270.696 142.074 264.904 151.344C263.677 153.305 262.34 155.21 260.931 157.007C260.287 157.832 259.573 158.699 258.751 159.651C256.489 162.245 254.019 164.663 251.403 166.847L251.191 166.997C235.842 176.189 217.782 179.048 201.64 174.84C200.263 174.481 198.907 174.075 197.577 173.623ZM221.394 58.701C213.591 58.9691 205.422 61.1398 197.109 65.1541C182.094 72.4053 170.062 86.6128 164.926 103.159C160.334 117.949 161.7 132.896 168.773 145.246C176.522 158.776 188.176 167.898 202.482 171.627C217.726 175.6 234.81 172.898 249.373 164.215C251.818 162.165 254.128 159.899 256.241 157.476C257.021 156.573 257.7 155.748 258.313 154.963C259.653 153.254 260.921 151.446 262.085 149.586C267.573 140.802 270.715 130.709 271.17 120.402L271.17 120.402C271.991 101.811 264.304 84.2375 250.08 72.1889C241.895 65.2508 231.98 60.5904 221.394 58.701Z" fill="#371A45"/>
<g opacity="0.5">
<path d="M190.588 87.608C190.588 87.608 216.222 77.1569 236.791 84.625C236.812 84.6328 236.834 84.6407 236.856 84.6485C241.183 86.224 244.991 88.9314 247.9 92.4564C251.747 97.118 253.702 100.892 255.292 104.281C260.123 114.591 260.426 120.33 260.426 120.33C263.837 112.122 264.3 104.382 260.362 95.755C259.972 94.9056 259.537 94.0441 259.063 93.174C258.954 92.9731 258.842 92.7766 258.726 92.58C258.73 92.576 258.726 92.5724 258.717 92.5691C257.63 90.8746 256.116 88.7016 254.2 86.3931C248.424 79.4269 239.007 71.212 226.654 71.0947C203.557 70.8752 189.22 86.9311 190.588 87.608Z" fill="white"/>
</g>
<g opacity="0.5">
<path d="M184.829 130.567C189.425 129.803 192.441 124.913 191.567 119.645C190.693 114.376 186.259 110.724 181.664 111.488C177.069 112.252 174.052 117.142 174.927 122.41C175.801 127.679 180.234 131.33 184.829 130.567Z" fill="white"/>
</g>
<g opacity="0.5">
<path d="M186.572 142.335C188.49 142.197 189.918 140.301 189.761 138.101C189.604 135.9 187.922 134.228 186.004 134.366C184.086 134.504 182.658 136.4 182.815 138.6C182.972 140.801 184.654 142.473 186.572 142.335Z" fill="white"/>
</g>
<path d="M267.531 177.212C267.693 177.688 267.75 178.163 267.706 178.627C267.433 181.525 263.325 184.125 258.152 186.27C252.461 199.131 244.897 207.938 235.313 212.335C234.541 212.695 233.758 213.021 232.964 213.317C230.921 211.833 226.377 208.095 224.098 201.618C224.069 201.537 224.042 201.462 224.016 201.384C220.001 189.561 227.125 179.266 227.946 178.12C228.836 177.339 229.726 176.558 230.615 175.777C237.661 169.597 244.706 163.416 251.753 157.232C253.424 155.769 255.415 154.717 257.565 154.163C263.381 152.666 274.899 149.906 277.566 150.782C279.286 151.349 279.743 152.403 279.743 152.403C280.463 155.232 278.236 156.51 275.084 157.299C284.503 159.803 282.253 176.185 267.531 177.212Z" fill="white"/>
<path d="M232.423 214.892C232.268 214.839 232.119 214.762 231.982 214.663C228.826 212.371 224.609 208.299 222.441 201.919C218.279 189.668 225.169 179.141 226.592 177.155C226.666 177.051 226.752 176.957 226.847 176.874L250.654 155.986C252.509 154.358 254.756 153.172 257.151 152.555C274.606 148.06 277.225 148.922 278.086 149.205C278.109 149.212 278.132 149.22 278.154 149.228C280.414 149.996 281.143 151.46 281.267 151.748C281.302 151.828 281.33 151.91 281.351 151.995C281.705 153.39 281.557 154.644 280.911 155.724C280.461 156.477 279.805 157.06 279.066 157.518C281.427 159.492 282.68 162.63 282.337 166.184C281.827 171.475 277.563 177.404 269.379 178.675C269.162 181.814 265.819 184.788 259.398 187.544C253.023 201.661 244.326 210.855 233.54 214.875C233.176 215.011 232.781 215.014 232.423 214.892ZM229.187 179.238C228.054 180.871 222.006 190.305 225.588 200.849C227.317 205.937 230.563 209.353 233.222 211.436C242.904 207.514 250.775 198.826 256.628 185.599C256.801 185.208 257.118 184.899 257.512 184.736C263.544 182.235 266.622 179.69 265.956 177.753C265.788 177.265 265.858 176.726 266.143 176.296C266.429 175.865 266.898 175.592 267.414 175.556C274.842 175.038 278.599 170.317 279.028 165.868C279.28 163.26 278.287 159.873 274.651 158.904C273.911 158.707 273.411 158.044 273.418 157.286C273.424 156.529 273.942 155.872 274.677 155.688C276.995 155.108 277.796 154.462 278.059 154.022C278.159 153.854 278.273 153.577 278.179 153.043C278.048 152.889 277.706 152.588 277.043 152.36C275.865 151.972 270.165 152.633 257.977 155.772C256.085 156.259 254.31 157.196 252.846 158.481L229.187 179.238Z" fill="#371A45"/>
<path d="M274.935 158.963L264.696 156.979C264.049 156.851 264.132 155.889 264.791 155.874L275.22 155.652C276.143 155.633 276.907 156.365 276.926 157.287C276.96 158.338 275.963 159.173 274.935 158.963Z" fill="#371A45"/>
<path d="M263.85 178.382C262.669 177.98 261.569 177.344 260.556 176.476C259.859 175.88 259.779 174.831 260.377 174.134C260.975 173.437 262.024 173.356 262.721 173.953C264.096 175.131 265.643 175.657 267.453 175.562C268.37 175.514 269.151 176.217 269.199 177.134C269.246 178.05 268.542 178.832 267.625 178.88C266.292 178.95 265.031 178.783 263.85 178.382Z" fill="#371A45"/>
<path d="M254.259 175.4C259.897 173.537 260.978 173.353 263.001 167.512C263.134 167.129 263.562 166.929 263.939 167.08C264.185 167.177 264.347 167.397 264.382 167.642C264.558 168.895 264.519 170.194 264.181 171.504C263.567 174.281 260.917 176.538 258.095 176.747C256.766 176.889 255.503 176.756 254.287 176.38C253.822 176.253 253.808 175.551 254.259 175.4Z" fill="#371A45"/>
<g opacity="0.2">
<path d="M258.15 186.259C252.458 199.123 244.892 207.931 235.307 212.329L235.322 212.426C234.526 212.752 233.735 213.049 232.957 213.311C220.789 217.405 210.644 212.81 210.644 212.81C199.873 207.917 196.251 197.606 195.576 195.538C193.174 188.173 194.375 181.795 195.081 179.002C197.509 179.742 200.403 180.409 203.697 180.762C210.33 181.473 215.942 180.629 219.868 179.678C221.534 179.172 223.2 178.666 224.866 178.16C219.951 180.806 215.258 183.576 212.592 187.465C210.37 190.698 210.78 195.014 213.549 197.794C216.974 201.239 220.502 202.206 224.089 201.61C227.151 201.102 230.253 199.445 233.368 197.209C243.55 189.904 253.852 176.396 263.243 176.399L267.706 178.614C267.432 181.513 263.324 184.113 258.15 186.259Z" fill="#371A45"/>
</g>
<path d="M247.98 275.639C249.624 278.912 247.687 281.708 244.333 282.535C241.538 283.257 238.786 283.01 236.158 282.55C228.384 280.98 220.805 277.13 215.405 271.238C210.044 265.397 211.256 258.771 220.129 259.245C222.841 259.421 225.398 260.109 227.822 261.061C228.107 261.173 228.248 261.495 228.135 261.781C228.034 262.037 227.765 262.176 227.504 262.122C224.055 261.462 218.338 260.421 215.555 262.76C213.816 264.583 216.324 267.614 217.715 269.15C222.839 274.301 229.801 277.787 236.783 279.661C239.572 280.326 244.429 281.292 246.554 279.035C247.163 278.337 247.23 277.172 246.939 276.017C246.776 275.371 247.698 275.05 247.98 275.639Z" fill="#371A45"/>
<path d="M352.645 198.823C355.405 197.263 358.566 199.125 359.016 202.176C359.635 206.144 357.253 209.963 353.891 211.893C349.663 214.348 344.722 211.699 346.241 206.604C346.417 206.019 347.296 206.127 347.338 206.723C347.421 207.74 347.694 208.712 348.21 209.306C349.352 210.576 350.992 210.045 352.297 209.2C355.289 207.494 358.789 199.872 352.95 199.887C352.354 199.932 352.124 199.095 352.645 198.823Z" fill="#371A45"/>
<path d="M348.124 234.803C346.401 243.586 338.887 252.37 330.691 255.963C327.544 257.313 323.266 258.026 320.365 255.557C317.436 253.074 317.635 248.655 318.638 245.39C320.522 239.314 324.644 234.167 329.529 230.212C331.975 228.29 334.683 226.643 337.664 225.691C338.312 225.489 338.688 226.432 338.067 226.722C331.558 230.029 326.361 235.794 323.129 242.267C321.73 245.251 319.842 250.469 322.504 253.04C324.338 254.511 327.28 253.788 329.45 252.938C334.691 250.757 339.253 246.648 342.734 242.149C344.512 239.826 346.033 237.286 347.052 234.525C347.268 233.895 348.243 234.136 348.124 234.803Z" fill="#371A45"/>
<path d="M149.844 179.042C156.386 185.148 159.861 196.163 158.566 205.012C157.978 209.446 154.992 214.624 149.753 213.751C141.484 212.046 136.872 199.863 136.088 192.378C135.753 189.287 135.79 186.122 136.563 183.09C136.743 182.432 137.727 182.61 137.652 183.294C137.008 190.561 139.148 198.015 142.93 204.179C144.721 206.943 148.151 211.303 151.745 210.406C153.966 209.629 154.911 206.753 155.34 204.464C156.267 198.867 155.197 192.827 153.223 187.497C152.193 184.761 150.843 182.128 149.04 179.804C148.619 179.288 149.341 178.588 149.844 179.042Z" fill="#371A45"/>
<path d="M176.972 234.4C179.341 235.161 180.847 237.983 180.14 240.473C179.311 243.789 175.602 245.634 172.391 244.943C169.145 244.378 166.468 240.948 167.586 237.673C167.992 236.46 168.832 235.475 169.846 234.946C170.124 234.801 170.467 234.908 170.612 235.186C170.712 235.377 170.692 235.6 170.579 235.767C169.601 237.125 169.421 238.841 170.362 240.128C171.948 242.474 176.274 242.239 177.437 239.609C178.118 238.16 177.564 236.5 176.38 235.328C175.967 234.914 176.432 234.203 176.972 234.4Z" fill="#371A45"/>
<path d="M138.469 121.941C141.605 123.522 142.079 128.165 139.799 130.747C138.18 132.814 134.773 133.208 132.749 131.424C130.028 129.216 129.936 124.544 132.772 122.493C133.255 122.153 133.88 122.726 133.596 123.233C132.902 124.716 133.01 126.307 133.574 127.502C134.816 130.113 137.57 129.661 138.398 127.003C138.811 125.709 138.696 124.109 137.759 122.776C137.42 122.322 137.975 121.685 138.469 121.941Z" fill="#371A45"/>
</svg>
