<svg width="16" height="16" viewBox="0 0 16 16" fill="none" xmlns="http://www.w3.org/2000/svg">
<path d="M12.9591 8.66668C12.8124 8.66668 12.6591 8.62001 12.5124 8.58668C12.2154 8.52123 11.9235 8.43434 11.6391 8.32668C11.3298 8.21417 10.9899 8.22001 10.6846 8.34308C10.3794 8.46616 10.1305 8.69777 9.98576 8.99335L9.83909 9.29335C9.18976 8.93213 8.59308 8.4835 8.06576 7.96001C7.54227 7.43269 7.09364 6.83601 6.73242 6.18668L7.01242 6.00001C7.308 5.85529 7.53961 5.60637 7.66269 5.30114C7.78576 4.99591 7.7916 4.65596 7.67909 4.34668C7.57324 4.06163 7.48638 3.76988 7.41909 3.47335C7.38576 3.32668 7.35909 3.17335 7.33909 3.02001C7.25813 2.55043 7.01217 2.12518 6.6455 1.82084C6.27884 1.5165 5.81555 1.35309 5.33909 1.36001H3.33909C3.05178 1.35732 2.76726 1.41656 2.5049 1.5337C2.24254 1.65085 2.0085 1.82314 1.81871 2.03887C1.62892 2.25459 1.48785 2.50868 1.40508 2.78382C1.32232 3.05897 1.29981 3.34872 1.33909 3.63335C1.69425 6.42627 2.96978 9.02127 4.96419 11.0084C6.95861 12.9956 9.55823 14.2617 12.3524 14.6067H12.6058C13.0974 14.6074 13.572 14.427 13.9391 14.1C14.15 13.9114 14.3185 13.6801 14.4334 13.4216C14.5483 13.163 14.6071 12.883 14.6058 12.6V10.6C14.5976 10.1369 14.429 9.69105 14.1286 9.33846C13.8283 8.98587 13.415 8.74843 12.9591 8.66668ZM13.2924 12.6667C13.2923 12.7613 13.272 12.8549 13.2329 12.9411C13.1939 13.0273 13.1369 13.1042 13.0658 13.1667C12.9913 13.231 12.9042 13.279 12.81 13.3077C12.7159 13.3364 12.6168 13.3452 12.5191 13.3333C10.0224 13.0132 7.70325 11.871 5.92757 10.0869C4.15189 8.30274 3.0207 5.97824 2.71242 3.48001C2.70181 3.38236 2.71111 3.28357 2.73976 3.18961C2.7684 3.09565 2.8158 3.00847 2.87909 2.93335C2.94156 2.86223 3.01846 2.80524 3.10468 2.76616C3.19089 2.72708 3.28443 2.7068 3.37909 2.70668H5.37909C5.53412 2.70323 5.68551 2.75393 5.80719 2.85006C5.92887 2.94619 6.01323 3.08173 6.04576 3.23335C6.07242 3.41557 6.10576 3.59557 6.14576 3.77335C6.22277 4.12478 6.32526 4.47013 6.45242 4.80668L5.51909 5.24001C5.43929 5.27663 5.36751 5.32864 5.30786 5.39308C5.24822 5.45751 5.20189 5.53309 5.17154 5.61548C5.14118 5.69786 5.1274 5.78543 5.13099 5.87316C5.13457 5.96089 5.15545 6.04704 5.19242 6.12668C6.15189 8.18185 7.80392 9.83388 9.85909 10.7933C10.0214 10.86 10.2034 10.86 10.3658 10.7933C10.4489 10.7636 10.5253 10.7176 10.5905 10.6581C10.6558 10.5986 10.7085 10.5267 10.7458 10.4467L11.1591 9.51335C11.5037 9.6366 11.8555 9.73901 12.2124 9.82001C12.3902 9.86001 12.5702 9.89335 12.7524 9.92001C12.904 9.95254 13.0396 10.0369 13.1357 10.1586C13.2318 10.2803 13.2825 10.4316 13.2791 10.5867L13.2924 12.6667Z" fill="white"/>
</svg>
