<svg width="232" height="154" viewBox="0 0 232 154" fill="none" xmlns="http://www.w3.org/2000/svg">
<path d="M142.358 64.2047L146.418 64.1188L148.478 64.0843C149.167 64.0698 149.859 64.0729 150.549 64.0673L150.686 64.0664L150.687 64.2047L150.704 67.6512L150.704 67.8058L150.549 67.8052L146.453 67.7858C145.088 67.7843 143.723 67.751 142.358 67.7353L142.272 67.7344L142.273 67.6512C142.279 67.0663 142.3 66.4848 142.314 65.9098L142.358 64.2047ZM142.358 64.2047L142.401 65.9461C142.415 66.5199 142.436 67.0873 142.442 67.6512L142.358 67.5671C143.723 67.5514 145.088 67.5182 146.453 67.5166L150.549 67.4972L150.394 67.6509L150.411 64.2044L150.549 64.3418C149.874 64.3362 149.201 64.3393 148.524 64.3248L146.489 64.2903L142.358 64.2047Z" fill="#EBEBEB"/>
<path d="M146.927 59.8593L150.987 59.7734L153.047 59.7389C153.736 59.7244 154.428 59.7275 155.118 59.7219L155.256 59.7207L155.256 59.859L155.273 63.3055L155.274 63.4601L155.118 63.4595L151.023 63.4401C149.658 63.4386 148.292 63.4053 146.927 63.3896L146.842 63.3887L146.843 63.3055C146.849 62.7206 146.869 62.1391 146.883 61.5641L146.927 59.8593ZM146.927 59.8593L146.971 61.6007C146.985 62.1745 147.005 62.7419 147.011 63.3058L146.927 63.2217C148.292 63.206 149.657 63.1728 151.022 63.1712L155.118 63.1518L154.964 63.3055L154.98 59.859L155.118 59.9964C154.443 59.9908 153.77 59.9939 153.093 59.9794L151.058 59.9449L146.927 59.8593Z" fill="#EBEBEB"/>
<path d="M137.788 59.8593L141.848 59.7734L143.909 59.7389C144.597 59.7244 145.289 59.7275 145.98 59.7219L146.117 59.7207L146.118 59.859L146.134 63.3055L146.135 63.4601L145.98 63.4595L141.884 63.4401C140.519 63.4386 139.154 63.4053 137.789 63.3896L137.703 63.3887L137.704 63.3055C137.71 62.7206 137.731 62.1391 137.745 61.5641L137.788 59.8593ZM137.788 59.8593L137.832 61.6007C137.846 62.1745 137.867 62.7419 137.873 63.3058L137.788 63.2217C139.153 63.206 140.519 63.1728 141.884 63.1712L145.979 63.1518L145.825 63.3055L145.842 59.859L145.98 59.9964C145.305 59.9908 144.632 59.9939 143.955 59.9794L141.92 59.9449L137.788 59.8593Z" fill="#EBEBEB"/>
<path d="M73.3546 64.2079L77.4146 64.122L79.4751 64.0875C80.1636 64.073 80.8556 64.0761 81.546 64.0706L81.6834 64.0693L81.684 64.2076L81.7007 67.6542L81.7013 67.8088L81.546 67.8081L77.4505 67.7887C76.0854 67.7872 74.72 67.7539 73.3549 67.7382L73.2695 67.7373L73.2705 67.6542C73.2763 67.0693 73.2971 66.4878 73.311 65.9127L73.3546 64.2079ZM73.3546 64.2079L73.3985 65.9494C73.4124 66.5232 73.4332 67.0905 73.439 67.6545L73.3546 67.5704C74.7197 67.5547 76.0851 67.5214 77.4502 67.5199L81.5457 67.5005L81.3914 67.6542L81.4081 64.2076L81.546 64.345C80.8711 64.3395 80.198 64.3425 79.5212 64.3281L77.4861 64.2936L73.3546 64.2079Z" fill="#EBEBEB"/>
<path d="M202.818 97.6767L206.878 97.5908L208.939 97.5563C209.628 97.5418 210.319 97.5449 211.01 97.5393L211.147 97.5381L211.148 97.6764L211.165 101.123L211.165 101.278L211.01 101.277L206.914 101.257C205.549 101.256 204.184 101.223 202.819 101.207L202.733 101.206L202.734 101.123C202.74 100.538 202.761 99.9565 202.775 99.3815L202.818 97.6767ZM202.818 97.6767L202.862 99.4181C202.876 99.9919 202.897 100.559 202.903 101.123L202.818 101.039C204.184 101.023 205.549 100.99 206.914 100.989L211.01 100.969L210.855 101.123L210.872 97.6764L211.01 97.8137C210.335 97.8082 209.662 97.8113 208.985 97.7968L206.95 97.7623L202.818 97.6767Z" fill="#EBEBEB"/>
<path d="M204.548 75.5957H172.368V119.938H204.548V75.5957Z" fill="#DBDBDB"/>
<path d="M206.107 73.9502H170.808V75.5955H206.107V73.9502Z" fill="#EBEBEB"/>
<path d="M217.208 73.9502H206.107V75.5955H217.208V73.9502Z" fill="#DBDBDB"/>
<path d="M215.451 75.5957H204.548V119.938H215.451V75.5957Z" fill="#EBEBEB"/>
<path d="M201.082 96.1173H175.833V81.9102H201.082V96.1173ZM175.911 96.0403H201.005V81.9872H175.911V96.0403Z" fill="#A6A6A6"/>
<path d="M189.85 86.0615H184.934V88.8748H189.85V86.0615Z" fill="#A6A6A6"/>
<path d="M191.341 88.7012H186.348V86.2354H191.341V88.7012ZM186.425 88.6242H191.264V86.3124H186.425V88.6242Z" fill="#A6A6A6"/>
<path d="M201.082 113.969H175.833V99.7617H201.082V113.969ZM175.911 113.892H201.005V99.8387H175.911V113.892Z" fill="#A6A6A6"/>
<path d="M189.85 103.913H184.934V106.726H189.85V103.913Z" fill="#A6A6A6"/>
<path d="M191.341 106.553H186.348V104.087H191.341V106.553ZM186.425 106.476H191.264V104.164H186.425V106.476Z" fill="#A6A6A6"/>
<path d="M34.563 100.365C34.563 100.365 39.9166 99.156 42.8513 96.4641C45.7859 93.7722 47.4248 88.9492 47.4248 88.9492C47.4248 88.9492 44.2733 89.524 41.4203 90.5194C40.9414 91.0298 40.0292 92.0813 39.6039 93.0767C39.6039 93.0767 39.5139 92.0252 39.5897 91.2484C38.8265 91.5989 38.1618 91.9858 37.6829 92.401C35.25 94.5209 34.563 100.365 34.563 100.365Z" fill="#FAD1A7"/>
<path d="M44.0816 91.2927C44.8117 90.7897 45.5547 90.3049 46.281 89.7973C46.3249 89.7669 46.2838 89.6985 46.2371 89.7262C44.8575 90.5467 43.4973 91.4236 42.1817 92.3417C41.7227 92.6621 41.2726 92.9953 40.8271 93.335C40.8584 93.2824 40.889 93.2297 40.9206 93.177C41.0811 92.9091 41.2506 92.6464 41.4198 92.3842C41.7601 91.8569 42.1322 91.3377 42.5563 90.8738C42.5721 90.8566 42.5452 90.831 42.53 90.8489C42.1137 91.3275 41.6973 91.8012 41.3165 92.3091C41.1355 92.5506 40.9682 92.8004 40.8077 93.056C40.7244 93.1887 40.644 93.3224 40.567 93.4585C40.5413 93.5038 40.5132 93.5497 40.4866 93.5962C39.7943 94.1374 39.1202 94.7016 38.4768 95.2988C38.08 95.6669 37.697 96.0491 37.327 96.4428C37.534 95.7978 37.7146 95.1455 37.955 94.5101C37.963 94.4885 37.9275 94.4793 37.9197 94.5011C37.6865 95.1673 37.4316 95.8369 37.2513 96.5213C36.8411 96.9623 36.4488 97.4197 36.0795 97.8953C36.086 97.8663 36.0919 97.8371 36.0987 97.8087C36.1593 97.5574 36.2227 97.3067 36.2902 97.0572C36.4207 96.5749 36.5627 96.096 36.726 95.6235C37.061 94.6545 37.4956 93.7068 38.1641 92.9186C38.1793 92.9008 38.153 92.8758 38.1378 92.8937C37.0919 94.1266 36.4788 95.6047 36.0875 97.1567C36.0303 97.3837 35.9762 97.6116 35.9242 97.8402C35.8967 97.9609 35.8645 98.0844 35.8441 98.2088C35.6823 98.4266 35.5236 98.6465 35.3714 98.8716C34.4419 100.249 33.7171 101.754 33.1062 103.295C32.4179 105.03 31.8831 106.822 31.3903 108.621C31.3807 108.656 31.4339 108.668 31.4451 108.634C32.4922 105.515 33.5615 102.351 35.3541 99.5628C35.7324 98.9742 36.142 98.4069 36.5766 97.8596C37.4573 97.8103 38.3463 97.6199 39.1803 97.3433C40.1027 97.0372 40.9728 96.6131 41.7895 96.0886C42.2609 95.7858 42.6903 95.4325 43.1267 95.0826C43.1471 95.0663 43.1243 95.0377 43.1038 95.0546C42.3797 95.6641 41.5095 96.1418 40.6499 96.533C39.7859 96.926 38.8771 97.2337 37.9491 97.4351C37.5538 97.5208 37.1529 97.5842 36.752 97.6384C37.2469 97.0313 37.7743 96.4505 38.3308 95.897C38.5115 95.7174 38.6986 95.5455 38.8842 95.3718C39.4989 94.9249 40.1806 94.572 40.8633 94.243C41.7403 93.8211 42.604 93.3738 43.4723 92.934C43.9619 92.6861 44.4488 92.432 44.9425 92.192C44.9635 92.1819 44.9444 92.1511 44.9233 92.1613C44.0436 92.5844 43.1499 92.9799 42.2615 93.3849C41.4257 93.7662 40.58 94.1488 39.7779 94.5975C39.7432 94.6169 39.7108 94.6379 39.6767 94.6576C40.4018 94.029 41.1523 93.4296 41.9206 92.8521C42.6302 92.3193 43.3501 91.7969 44.0816 91.2927Z" fill="white"/>
<path d="M43.7775 94.0417C43.342 94.2317 42.8987 94.4002 42.4678 94.6007C42.0245 94.8071 41.6044 95.0485 41.1837 95.2965C41.1652 95.3073 41.1825 95.3331 41.2011 95.3242C41.6279 95.1209 42.0604 94.9306 42.4832 94.7187C42.9163 94.5018 43.3441 94.2699 43.7883 94.0762C43.8094 94.0669 43.7991 94.0321 43.7775 94.0417Z" fill="white"/>
<path d="M17.1709 73.501C17.1709 73.501 18.6739 75.215 18.7711 77.9282C18.7884 78.4062 18.7129 79.0721 18.6572 79.8559C20.6534 80.9173 22.1509 82.8291 22.1509 82.8291C21.0168 82.1509 19.4603 81.8767 18.6204 81.9876C18.6489 82.5029 18.7101 83.0382 18.8249 83.5806C19.1958 83.5593 19.9116 83.6086 21.0957 84.0278C21.0957 84.0278 19.9339 83.9985 19.0482 84.4328C20.0025 87.4558 22.8394 90.5614 30.6727 91.8803C30.6727 91.8803 32.1841 86.5851 29.2853 80.9044C26.9378 76.3078 17.1709 73.501 17.1709 73.501Z" fill="#FAD1A7"/>
<path d="M33.3839 104.816C33.2478 103.525 33.077 102.237 32.8766 100.953C32.4757 98.3859 31.9563 95.8329 31.2968 93.3184C30.9859 92.1326 30.6132 90.9712 30.1662 89.8396C30.1953 89.6344 30.1906 89.4207 30.195 89.2153C30.2002 88.9655 30.2015 88.7157 30.1987 88.4659C30.1931 87.9663 30.1696 87.4677 30.1269 86.9696C30.0425 85.9865 29.8921 85.0018 29.6456 84.0455C29.5024 83.4898 29.3359 82.9428 29.1723 82.3931C29.1655 82.3706 29.1308 82.381 29.1373 82.4035C29.4145 83.3543 29.5738 84.3436 29.7158 85.3224C29.8565 86.292 29.9432 87.2709 29.979 88.2494C29.9889 88.5173 29.9939 88.7856 29.9942 89.0539C29.9942 89.1675 29.9892 89.2827 29.9849 89.3985C29.5992 88.4702 29.1643 87.5616 28.665 86.6783C27.8753 85.2809 26.9683 83.9528 25.9837 82.6844C25.9927 82.5397 25.949 82.3875 25.9194 82.2483C25.8825 82.074 25.8445 81.8999 25.8055 81.7262C25.7251 81.3699 25.6354 81.0157 25.5383 80.6633C25.3437 79.9565 25.0863 79.2733 24.8645 78.5757C24.8574 78.5535 24.8228 78.5637 24.8296 78.5862C25.0365 79.277 25.1739 79.9925 25.3325 80.6957C25.4111 81.0434 25.4875 81.3917 25.5645 81.7398C25.6029 81.9138 25.6403 82.0878 25.6762 82.2625C25.6787 82.2748 25.6809 82.2886 25.6833 82.3016C25.3669 81.9039 25.0439 81.5113 24.7136 81.1256C23.2176 79.3793 21.5775 77.7678 19.9269 76.1684C19.724 75.9716 19.5158 75.78 19.3101 75.5863C19.2931 75.5699 19.269 75.5958 19.2851 75.6124C20.8624 77.251 22.4158 78.9083 23.887 80.6433C24.2366 81.0557 24.5809 81.4731 24.919 81.8953C24.7411 81.7752 24.5614 81.6585 24.3844 81.543C23.9288 81.2457 23.4673 80.9568 22.9918 80.692C22.5164 80.4268 22.0375 80.1678 21.5491 79.9266C21.0467 79.6786 20.51 79.4769 20.0253 79.1963C20.0046 79.1843 19.9863 79.2194 20.0077 79.228C20.5073 79.4319 20.974 79.743 21.4371 80.0165C21.9141 80.298 22.3899 80.5817 22.8579 80.8774C23.3182 81.1681 23.7812 81.4549 24.2384 81.7506C24.6195 81.997 24.9948 82.2665 25.3898 82.4941C26.2933 83.6595 27.1425 84.8666 27.8994 86.1309C28.3764 86.9277 28.8076 87.7452 29.1964 88.5805C29.1027 88.5398 29.0084 88.5001 28.9156 88.4591C28.6764 88.3535 28.4373 88.2478 28.1985 88.1419C27.7379 87.9383 27.2748 87.7396 26.8127 87.5394C25.9345 87.159 25.0421 86.8095 24.1803 86.3921C23.6971 86.158 23.2217 85.9113 22.774 85.6144C22.7543 85.6015 22.7372 85.6332 22.7564 85.6462C24.3625 86.7488 26.1631 87.5253 27.9408 88.3085L28.7117 88.6482C28.9233 88.7415 29.1355 88.846 29.3536 88.9273C29.8779 90.0967 30.3212 91.3013 30.6784 92.5417C31.3918 95.0189 31.9353 97.5497 32.3829 100.087C32.8323 102.635 33.1355 105.199 33.3709 107.774C33.4003 108.096 33.4293 108.417 33.4658 108.738C33.4804 108.866 33.6712 108.866 33.67 108.733C33.6555 107.425 33.5209 106.115 33.3839 104.816Z" fill="white"/>
<path d="M28.6182 83.276C28.4747 82.4829 28.2625 81.7076 28.0478 80.9315C28.0416 80.909 28.007 80.9194 28.0129 80.9419C28.2108 81.7039 28.3528 82.4807 28.4967 83.2541C28.6433 84.0423 28.7729 84.8344 28.8843 85.6281C28.8861 85.6417 28.9072 85.642 28.9062 85.6275C28.8546 84.8378 28.7593 84.0546 28.6182 83.276Z" fill="white"/>
<path d="M25.2428 85.4272C24.7119 85.0529 24.1159 84.7693 23.5393 84.4727C23.2537 84.3257 22.9645 84.1862 22.6753 84.0467C22.3771 83.9029 22.0675 83.7827 21.7717 83.6349C21.7507 83.6244 21.7331 83.6562 21.7541 83.6666C22.0405 83.8098 22.3121 83.9829 22.5936 84.1357C22.8838 84.2931 23.1724 84.4536 23.4635 84.6091C24.0364 84.9153 24.5993 85.255 25.2007 85.5035C25.2527 85.5251 25.2889 85.4598 25.2428 85.4272Z" fill="white"/>
<path opacity="0.1" d="M34.6606 91.131C34.6606 91.131 39.6146 89.9529 41.8895 86.6438C44.0616 83.4837 44.7638 78.0968 44.8195 77.623C44.7301 78.0576 43.708 82.7657 40.3351 84.9587C37.7531 86.6391 35.2577 88.0199 34.6606 91.131Z" fill="white"/>
<path d="M39.2328 82.6084C38.3611 83.4443 37.7072 84.4275 37.4065 85.6037C37.4041 85.6139 37.4186 85.6191 37.422 85.6089C37.7941 84.5137 38.4085 83.4342 39.257 82.6355C39.274 82.6195 39.2495 82.5924 39.2328 82.6084Z" fill="white"/>
<path d="M34.6604 91.1311C34.6604 91.1311 39.6144 89.953 41.8892 86.6438C44.0613 83.4837 44.7635 78.0968 44.8192 77.6231C44.8239 77.6009 44.8248 77.5898 44.8248 77.5898C44.8248 77.5898 42.4494 80.9529 39.9519 81.8104C37.4543 82.6675 33.9443 85.6342 34.6604 91.1311Z" fill="#FAD1A7"/>
<path d="M43.9469 79.4442C43.4876 80.3414 43.0059 81.2318 42.4154 82.0517C41.8407 82.85 41.1484 83.5298 40.3775 84.1396C39.7047 84.6718 38.9933 85.1542 38.3118 85.6756C38.3171 85.6676 38.322 85.659 38.327 85.6513C38.4547 85.4622 38.5917 85.2786 38.7328 85.0993C39.0165 84.7384 39.3267 84.3977 39.6382 84.0611C40.2538 83.3961 40.8824 82.7438 41.4342 82.0237C41.7398 81.6251 42.0083 81.2007 42.2286 80.7495C42.2388 80.7285 42.2041 80.7171 42.1939 80.7378C41.3906 82.405 39.7858 83.4716 38.6403 84.8794C38.4773 85.0799 38.3235 85.2863 38.1825 85.5028C38.0832 85.6553 37.9619 85.8253 37.8973 86.0043C37.2743 86.5128 36.6983 87.0665 36.2071 87.7053C36.2485 87.3816 36.3194 87.0585 36.406 86.7478C36.5291 86.3061 36.6903 85.8909 36.9309 85.4985C36.9433 85.4785 36.9124 85.4585 36.9006 85.4785C36.6686 85.8678 36.4573 86.2867 36.3228 86.7197C36.2133 87.0715 36.1619 87.4235 36.1424 87.7848C36.1415 87.786 36.1406 87.787 36.1397 87.7882C35.8925 88.1187 35.6729 88.4667 35.4703 88.8246C35.491 88.7193 35.5108 88.6139 35.5318 88.5086C35.6302 88.017 35.7388 87.5267 35.8671 87.0422C36.127 86.0594 36.4778 85.1061 37.0587 84.2631C37.072 84.2437 37.0417 84.2237 37.0284 84.2431C36.4552 85.075 36.0206 86.0036 35.7081 86.9618C35.5504 87.446 35.4235 87.9382 35.3125 88.4347C35.2581 88.6774 35.2092 88.921 35.1625 89.1653C35.1383 89.2915 35.1108 89.4206 35.0904 89.5506C34.5843 90.6162 34.2283 91.7589 33.9477 92.8945C33.4426 94.9387 33.1274 97.0411 32.8913 99.1315C32.6436 101.326 32.514 103.545 32.5498 105.754C32.5545 106.032 32.5709 106.309 32.5863 106.585C32.5904 106.657 32.6977 106.667 32.7008 106.592C32.7494 105.498 32.7778 104.402 32.8431 103.309C32.9084 102.214 33.0036 101.122 33.1215 100.031C33.3526 97.8921 33.686 95.7555 34.1537 93.6541C34.5556 91.8507 35.0762 90.0354 36.066 88.4553C36.5622 87.6631 37.1558 86.9624 37.8534 86.3391C38.5478 85.7184 39.3075 85.1742 40.0397 84.5995C40.7682 84.0275 41.4685 83.4047 42.0461 82.6791C42.6694 81.8958 43.16 81.0174 43.6218 80.1332C43.7384 79.9095 43.8584 79.6875 43.9766 79.4645C43.9881 79.4439 43.9574 79.4235 43.9469 79.4442Z" fill="white"/>
<path d="M43.0914 80.1683C42.7737 80.8357 42.3914 81.4705 41.9877 82.0899C41.9781 82.1047 42.0004 82.1191 42.0106 82.105C42.4421 81.4988 42.8016 80.848 43.126 80.18C43.1363 80.159 43.1016 80.1473 43.0914 80.1683Z" fill="white"/>
<path d="M16.4806 88.9492C16.4806 88.9492 16.402 95.959 20.6117 97.9826C24.8208 100.009 27.078 98.3204 29.9384 98.9986C29.9384 98.9986 29.9356 98.998 29.9335 98.9949C29.8224 98.8277 27.7811 95.906 24.5341 95.1015C21.1939 94.2724 17.493 91.87 16.4806 88.9492Z" fill="#FAD1A7"/>
<path opacity="0.1" d="M16.4806 88.9492C16.4806 88.9492 16.402 95.959 20.6117 97.9826C24.8208 100.009 27.078 98.3204 29.9384 98.9986C29.9384 98.9986 29.9356 98.998 29.9335 98.9949C29.815 98.9374 27.7264 97.8972 25.1475 97.5892C22.4931 97.2711 17.4222 95.5487 16.4806 88.9492Z" fill="black"/>
<path d="M30.2154 99.1238C29.7131 98.6732 29.1513 98.2857 28.541 97.995C28.451 97.9522 28.3579 97.917 28.266 97.8782C28.2215 97.8225 28.1745 97.7689 28.1247 97.7172C27.9984 97.5859 27.867 97.4606 27.7284 97.3423C27.4639 97.1162 27.1821 96.9099 26.8818 96.734C26.1842 96.3259 25.4202 96.0401 24.7071 95.6609C24.6864 95.6499 24.6688 95.6819 24.6895 95.6927C25.0421 95.875 25.3833 96.0758 25.7261 96.2751C26.0595 96.4691 26.4007 96.6539 26.7252 96.8625C27.0166 97.0497 27.2972 97.2567 27.5583 97.4843C27.6322 97.5487 27.7037 97.6189 27.7745 97.6901C27.3102 97.5317 26.8332 97.4107 26.3519 97.3137C25.5813 97.1587 24.8018 97.0488 24.0328 96.8856C23.6548 96.8052 23.282 96.7051 22.9158 96.5853C22.5662 96.3053 22.2176 96.0268 21.8869 95.7235C21.4873 95.3566 21.1207 94.9581 20.7987 94.522C20.7848 94.5032 20.7535 94.5229 20.7678 94.5411C21.2871 95.2085 21.8443 95.8812 22.4935 96.4371C22.3123 96.3684 22.1326 96.2951 21.9553 96.215C20.525 95.5682 19.2524 94.5404 18.3683 93.2435C18.355 93.224 18.3237 93.2431 18.3373 93.2626C19.1079 94.3735 20.0857 95.3243 21.2392 96.0364C21.8173 96.3934 22.4274 96.6857 23.0729 96.9006C23.8147 97.1477 24.5837 97.2936 25.3515 97.4369C26.1029 97.577 26.8573 97.7199 27.5824 97.9654C28.2536 98.1924 28.8856 98.522 29.4535 98.9451C30.5371 99.7533 31.3751 100.859 31.9759 102.06C32.7724 103.651 33.1535 105.43 33.3651 107.185C33.374 107.26 33.4907 107.26 33.4854 107.182C33.2877 104.236 32.4968 101.17 30.2154 99.1238Z" fill="white"/>
<path d="M25.3306 96.8378C25.1203 96.5033 24.805 96.2523 24.4651 96.0567C24.0676 95.8282 23.7109 95.5815 23.4359 95.2088C23.422 95.19 23.3908 95.2097 23.405 95.2279C23.6593 95.5531 23.964 95.8199 24.3138 96.0382C24.6813 96.2677 25.0519 96.4925 25.3043 96.8538C25.3154 96.8704 25.3414 96.8547 25.3306 96.8378Z" fill="white"/>
<path d="M27.5635 104.297L27.755 108.152L28.3421 119.929H37.1729L37.76 108.152L37.9515 104.297H27.5635Z" fill="white"/>
<path d="M27.5635 104.297L27.755 108.152H37.76L37.9515 104.297H27.5635Z" fill="white"/>
<path d="M26.9445 106.365H38.5708V102.688H26.9445V106.365Z" fill="white"/>
<path d="M15.6895 119.937L40.7671 119.862L65.8448 119.835L116 119.783L166.155 119.834L191.233 119.861L216.311 119.937L191.233 120.012L166.155 120.039L116 120.091L65.8448 120.039L40.7671 120.012L15.6895 119.937Z" fill="#263238"/>
<path d="M116 131C166.258 131 207 130.552 207 130C207 129.448 166.258 129 116 129C65.7421 129 25 129.448 25 130C25 130.552 65.7421 131 116 131Z" fill="#EBEBEB"/>
<path d="M181.904 22.1992H50.0957V111.44H181.904V22.1992Z" fill="#F17C04"/>
<path d="M181.904 98.2764H50.0957V111.44H181.904V98.2764Z" fill="#EBEBEB"/>
<path d="M141.685 127.527H90.3154V131.801H141.685V127.527Z" fill="#DBDBDB"/>
<path d="M135.568 127.53H96.4321L97.4266 120.112L97.4758 119.762L97.5677 119.066L97.6138 118.717L97.7091 118.021L97.7221 117.913L97.7548 117.671L97.8501 116.975L97.8959 116.625L98.5919 111.442H133.408L134.065 116.331L134.097 116.566L134.206 117.377L134.235 117.612L134.278 117.913L134.347 118.423L134.377 118.658L134.485 119.472L134.518 119.704L135.568 127.53Z" fill="#EBEBEB"/>
<path d="M118.145 103.973C118.145 105.174 117.167 106.147 115.961 106.147C114.756 106.147 113.778 105.174 113.778 103.973C113.778 102.772 114.756 101.799 115.961 101.799C117.167 101.799 118.145 102.772 118.145 103.973Z" fill="#F17C04"/>
<path d="M134.278 117.913L97.8955 116.625L98.5915 111.442H133.408L134.278 117.913Z" fill="#DBDBDB"/>
<path d="M175.822 28.002H56.1777V92.0857H175.822V28.002Z" fill="white"/>
<path d="M175.822 28.002H56.1777V92.0857H175.822V28.002Z" fill="white"/>
<path d="M173.7 30.9023H56.1777V39.1897H173.7V30.9023Z" fill="#FFE4C7"/>
<path d="M62.9685 33.6729H60.1294V34.1275H62.9685V33.6729Z" fill="white"/>
<path d="M62.9685 35.71H60.1294V36.1646H62.9685V35.71Z" fill="white"/>
<path d="M62.9685 34.7031H60.1294V35.1577H62.9685V34.7031Z" fill="white"/>
<path d="M155.166 33.6973H90.73V36.1379H155.166V33.6973Z" fill="white"/>
<path d="M155.191 36.163H90.7051V33.6729H155.191V36.163H155.191Z" fill="white"/>
<path d="M155.192 33.6719H152.689V36.1633H155.192V33.6719Z" fill="#455A64"/>
<path d="M154.718 35.6013L154.492 35.772L154.072 35.2207L153.919 35.0189C153.95 35.0069 153.979 34.9903 154.007 34.9693C154.06 34.929 154.099 34.8766 154.123 34.8193L154.286 35.0334L154.718 35.6013Z" fill="white"/>
<path d="M154.272 34.3033C154.065 34.0338 153.677 33.9827 153.406 34.1897C153.135 34.3963 153.084 34.7829 153.292 35.0524C153.478 35.2948 153.811 35.3604 154.072 35.2212C154.102 35.2051 154.13 35.1873 154.158 35.166C154.208 35.1272 154.251 35.0826 154.286 35.0336C154.439 34.8195 154.441 34.5229 154.272 34.3033ZM154.007 34.9698C153.979 34.9908 153.949 35.0074 153.919 35.0194C153.769 35.0792 153.592 35.0357 153.489 34.9018C153.365 34.7404 153.395 34.5094 153.557 34.3859C153.719 34.2624 153.951 34.2928 154.075 34.4542C154.159 34.5627 154.172 34.7025 154.123 34.8198C154.099 34.8771 154.06 34.9295 154.007 34.9698Z" fill="white"/>
<path d="M91.3741 34.1768H91.2427V35.6579H91.3741V34.1768Z" fill="#C7C7C7"/>
<path d="M169.395 36.2329C169.274 36.3078 169.14 36.3651 168.994 36.4002C168.616 36.4923 168.237 36.4214 167.931 36.2323C167.632 36.0478 167.401 35.7503 167.311 35.3829C167.129 34.6387 167.586 33.8884 168.333 33.707C169.08 33.525 169.834 33.9808 170.016 34.725C170.163 35.3237 169.895 35.9262 169.395 36.2329Z" fill="#455A64"/>
<path d="M169.087 34.8956C169.087 35.1284 168.897 35.3172 168.663 35.3172C168.429 35.3172 168.239 35.1284 168.239 34.8956C168.239 34.6624 168.429 34.4736 168.663 34.4736C168.897 34.4736 169.087 34.6624 169.087 34.8956Z" fill="white"/>
<path d="M169.395 36.0591V36.2331C169.274 36.308 169.14 36.3653 168.994 36.4004C168.616 36.4925 168.237 36.4216 167.931 36.2325V36.0591C167.931 35.6575 168.259 35.3301 168.663 35.3301C169.068 35.3301 169.395 35.6575 169.395 36.0591Z" fill="white"/>
<path d="M164.572 36.4401H163.604V36.0988C163.604 36.0797 163.593 36.0621 163.575 36.0529C163.539 36.0347 163.504 36.0144 163.47 35.9922C163.453 35.9814 163.432 35.9799 163.415 35.9894L163.118 36.1604L162.634 35.326L162.932 35.1548C162.948 35.1458 162.957 35.127 162.956 35.1058C162.955 35.0864 162.955 35.0661 162.955 35.046C162.955 35.026 162.955 35.0063 162.956 34.9866C162.957 34.9653 162.948 34.9469 162.931 34.9373L162.634 34.7664L163.118 33.9317L163.415 34.1029C163.432 34.1125 163.453 34.1113 163.47 34.1002C163.503 34.0783 163.539 34.058 163.575 34.0395C163.593 34.0306 163.604 34.0127 163.604 33.9939V33.6523H164.572V33.9939C164.572 34.013 164.584 34.0306 164.602 34.0398C164.638 34.058 164.674 34.0786 164.707 34.1005C164.725 34.1122 164.746 34.1125 164.762 34.1029L165.059 33.9317L165.542 34.7664L165.245 34.9373C165.228 34.9466 165.219 34.9657 165.22 34.9869C165.221 35.0063 165.222 35.0263 165.222 35.046C165.222 35.0658 165.222 35.0858 165.22 35.1055C165.219 35.1264 165.228 35.1455 165.245 35.1548L165.542 35.326L165.059 36.1601L164.761 35.9894C164.744 35.9799 164.723 35.9814 164.706 35.9919C164.673 36.0141 164.638 36.0344 164.601 36.0529C164.583 36.0621 164.572 36.0797 164.572 36.0985V36.4401H164.572ZM163.845 36.2001H164.331V36.0988C164.331 35.9894 164.393 35.89 164.493 35.8391C164.522 35.8247 164.549 35.809 164.575 35.7917C164.669 35.7304 164.787 35.7273 164.883 35.7815L164.971 35.8327L165.214 35.4138L165.125 35.3624C165.03 35.3075 164.975 35.2044 164.98 35.0932L164.982 35.046L164.98 34.9992C164.975 34.8871 165.03 34.7839 165.125 34.7294L165.214 34.6783L164.971 34.2597L164.884 34.3102C164.787 34.3657 164.67 34.3614 164.577 34.3007C164.549 34.2831 164.522 34.2674 164.493 34.2529C164.394 34.2018 164.332 34.1023 164.332 33.993V33.8917H163.846V33.993C163.846 34.1026 163.784 34.2021 163.685 34.2526C163.656 34.2671 163.629 34.2828 163.602 34.3004C163.508 34.3614 163.39 34.3654 163.295 34.3099L163.206 34.2594L162.964 34.678L163.052 34.7288C163.147 34.783 163.203 34.8865 163.197 34.9986L163.196 35.0457L163.197 35.0932C163.203 35.2053 163.147 35.3085 163.053 35.3627L162.964 35.4138L163.206 35.8324L163.295 35.7812C163.389 35.7267 163.508 35.7298 163.602 35.7911C163.629 35.8086 163.656 35.8244 163.685 35.8385C163.784 35.8893 163.845 35.9888 163.845 36.0985V36.2001ZM164.088 35.7584C163.694 35.7584 163.373 35.4387 163.373 35.046C163.373 34.653 163.694 34.3333 164.088 34.3333C164.483 34.3333 164.804 34.653 164.804 35.046C164.804 35.4387 164.483 35.7584 164.088 35.7584ZM164.088 34.5733C163.827 34.5733 163.614 34.7852 163.614 35.046C163.614 35.3066 163.827 35.5185 164.088 35.5185C164.35 35.5185 164.563 35.3066 164.563 35.046C164.563 34.7855 164.35 34.5733 164.088 34.5733Z" fill="#455A64"/>
<path d="M84.8973 34.7021H65.3765V35.6308H84.8973V34.7021Z" fill="#455A64"/>
<path d="M175.822 28.002H56.1777V30.9021H175.822V28.002Z" fill="#FFC727"/>
<path d="M58.4929 29.4516C58.4929 29.8489 58.1697 30.1708 57.7706 30.1708C57.3716 30.1708 57.0483 29.8486 57.0483 29.4516C57.0483 29.0546 57.3719 28.7324 57.7706 28.7324C58.1697 28.7324 58.4929 29.0543 58.4929 29.4516Z" fill="#FFC727"/>
<path d="M61.4426 29.4516C61.4426 29.8489 61.1191 30.1708 60.7203 30.1708C60.3213 30.1708 59.998 29.8486 59.998 29.4516C59.998 29.0546 60.3216 28.7324 60.7203 28.7324C61.1191 28.7324 61.4426 29.0543 61.4426 29.4516Z" fill="#FFC727"/>
<path d="M64.3923 29.4516C64.3923 29.8489 64.0688 30.1708 63.67 30.1708C63.271 30.1708 62.9478 29.8486 62.9478 29.4516C62.9478 29.0546 63.271 28.7324 63.67 28.7324C64.0688 28.7324 64.3923 29.0543 64.3923 29.4516Z" fill="#FFC727"/>
<path d="M175.822 30.9023H173.7V92.0862H175.822V30.9023Z" fill="#DBDBDB"/>
<path d="M174.76 56.0247C174.457 56.0247 174.211 55.7804 174.211 55.4789V31.8719C174.211 31.5704 174.457 31.3262 174.76 31.3262C175.062 31.3262 175.308 31.5704 175.308 31.8719V55.4789C175.308 55.7804 175.062 56.0247 174.76 56.0247Z" fill="#A6A6A6"/>
<path d="M107.244 84.4414H126.501V69.7307H107.244V84.4414Z" fill="#FFE4C7"/>
<path opacity="0.6" d="M109.161 72.9471C108.927 74.1733 109.987 75.2282 111.219 74.9959C111.907 74.866 112.462 74.3137 112.592 73.6287C112.825 72.4026 111.766 71.3477 110.534 71.5802C109.846 71.7096 109.291 72.2621 109.161 72.9471Z" fill="white"/>
<path d="M113.597 81.2716H126.501L120.049 73.3545L113.597 81.2716Z" fill="#FFE4C7"/>
<path opacity="0.2" d="M113.597 81.2716H126.501L120.049 73.3545L113.597 81.2716Z" fill="black"/>
<path d="M107.244 81.2787H118.687L112.966 76.123L107.244 81.2787Z" fill="#FFE4C7"/>
<path opacity="0.1" d="M107.244 81.2787H118.687L112.966 76.123L107.244 81.2787Z" fill="black"/>
<path d="M126.501 81.2715H107.244V84.4408H126.501V81.2715Z" fill="#FFE4C7"/>
<path opacity="0.1" d="M126.501 81.2715H107.244V84.4408H126.501V81.2715Z" fill="black"/>
<path d="M76.0789 69.7295H61.6147V70.9412H76.0789V69.7295Z" fill="#A6A6A6"/>
<path d="M103.473 72.541H61.6147V73.7527H103.473V72.541Z" fill="#EBEBEB"/>
<path d="M103.473 75.207H61.6147V76.4187H103.473V75.207Z" fill="#EBEBEB"/>
<path d="M103.473 77.873H61.6147V79.0847H103.473V77.873Z" fill="#EBEBEB"/>
<path d="M103.473 80.5381H61.6147V81.7498H103.473V80.5381Z" fill="#EBEBEB"/>
<path d="M103.473 83.2041H61.6147V84.4158H103.473V83.2041Z" fill="#EBEBEB"/>
<path d="M126.5 45.6357H96.7842V48.8774H126.5V45.6357Z" fill="#FFC727"/>
<path d="M126.5 51.1133H96.7842V52.325H126.5V51.1133Z" fill="#EBEBEB"/>
<path d="M126.5 53.7783H96.7842V54.99H126.5V53.7783Z" fill="#EBEBEB"/>
<path d="M126.5 56.4443H96.7842V57.656H126.5V56.4443Z" fill="#EBEBEB"/>
<path d="M126.5 59.1104H96.7842V60.322H126.5V59.1104Z" fill="#EBEBEB"/>
<path d="M126.5 62.6562H96.7842V63.8679H126.5V62.6562Z" fill="#EBEBEB"/>
<path d="M126.5 65.3223H96.7842V66.5339H126.5V65.3223Z" fill="#EBEBEB"/>
<path d="M93.1442 45.6357H61.6147V66.4193H93.1442V45.6357Z" stroke="#DBDBDB" stroke-width="0.75" stroke-miterlimit="10" stroke-dasharray="2 2"/>
<path d="M77.3794 58.8603C78.9508 58.8603 80.2247 57.5919 80.2247 56.0273C80.2247 54.4627 78.9508 53.1943 77.3794 53.1943C75.808 53.1943 74.5342 54.4627 74.5342 56.0273C74.5342 57.5919 75.808 58.8603 77.3794 58.8603Z" fill="#46A7D7"/>
<path d="M77.6498 54.3428H77.1094V57.712H77.6498V54.3428Z" fill="white"/>
<path d="M79.0713 56.2969V55.7588H75.6875V56.2969H79.0713Z" fill="white"/>
<path d="M169.326 66.6934H130.381V84.4406H169.326V66.6934Z" stroke="#DBDBDB" stroke-width="0.75" stroke-miterlimit="10" stroke-dasharray="2 2"/>
<path d="M149.853 78.3994C151.424 78.3994 152.698 77.131 152.698 75.5664C152.698 74.0018 151.424 72.7334 149.853 72.7334C148.282 72.7334 147.008 74.0018 147.008 75.5664C147.008 77.131 148.282 78.3994 149.853 78.3994Z" fill="#46A7D7"/>
<path d="M150.123 73.8818H149.583V77.251H150.123V73.8818Z" fill="white"/>
<path d="M151.545 75.8359V75.2979H148.161V75.8359H151.545Z" fill="white"/>
<path d="M141.081 56.0146V56.3226H140.772" stroke="#DBDBDB" stroke-width="0.75" stroke-miterlimit="10"/>
<path d="M140.179 56.3223H130.986" stroke="#DBDBDB" stroke-width="0.75" stroke-miterlimit="10" stroke-dasharray="1.92 1.92"/>
<path d="M130.69 56.3226H130.381V56.0146" stroke="#DBDBDB" stroke-width="0.75" stroke-miterlimit="10"/>
<path d="M130.381 55.4243V46.2715" stroke="#DBDBDB" stroke-width="0.75" stroke-miterlimit="10" stroke-dasharray="1.92 1.92"/>
<path d="M130.381 45.976V45.668H130.69" stroke="#DBDBDB" stroke-width="0.75" stroke-miterlimit="10"/>
<path d="M131.283 45.668H140.476" stroke="#DBDBDB" stroke-width="0.75" stroke-miterlimit="10" stroke-dasharray="1.92 1.92"/>
<path d="M140.772 45.668H141.081V45.976" stroke="#DBDBDB" stroke-width="0.75" stroke-miterlimit="10"/>
<path d="M141.082 46.5664V55.7192" stroke="#DBDBDB" stroke-width="0.75" stroke-miterlimit="10" stroke-dasharray="1.92 1.92"/>
<path d="M130.39 45.668C131.292 46.5301 132.187 47.4057 133.082 48.2835L135.759 50.9323L138.423 53.6101L139.751 54.9594L141.073 56.322L139.724 55.021L138.381 53.7068L135.704 51.0577L133.04 48.3796C132.154 47.4815 131.269 46.5815 130.39 45.668Z" fill="#DBDBDB"/>
<path d="M141.073 45.668C140.194 46.5818 139.309 47.4815 138.423 48.3793L135.759 51.0574L133.082 53.7065L131.739 55.0207L130.39 56.3217L131.712 54.9591L133.04 53.6097L135.704 50.932L138.381 48.2832C139.276 47.4054 140.171 46.5298 141.073 45.668Z" fill="#DBDBDB"/>
<path d="M151.489 51.0219C151.489 51.9183 150.759 52.6487 149.853 52.6487C148.948 52.6487 148.218 51.9185 148.218 51.0219C148.218 50.1257 148.948 49.3955 149.853 49.3955C150.759 49.3955 151.489 50.1257 151.489 51.0219Z" fill="white" stroke="#FFE4C7"/>
<mask id="path-106-inside-1_648_65381" fill="white">
<path d="M150.056 49.7578H149.65V52.2868H150.056V49.7578Z"/>
</mask>
<path d="M150.056 49.7578H149.65V52.2868H150.056V49.7578Z" fill="white"/>
<path d="M149.65 49.7578V48.7578H148.65V49.7578H149.65ZM150.056 49.7578H151.056V48.7578H150.056V49.7578ZM150.056 52.2868V53.2868H151.056V52.2868H150.056ZM149.65 52.2868H148.65V53.2868H149.65V52.2868ZM149.65 50.7578H150.056V48.7578H149.65V50.7578ZM149.056 49.7578V52.2868H151.056V49.7578H149.056ZM150.056 51.2868H149.65V53.2868H150.056V51.2868ZM150.65 52.2868V49.7578H148.65V52.2868H150.65Z" fill="#FFE4C7" mask="url(#path-106-inside-1_648_65381)"/>
<mask id="path-108-inside-2_648_65381" fill="white">
<path d="M151.123 51.2241V50.8203H148.583V51.2241H151.123Z"/>
</mask>
<path d="M151.123 51.2241V50.8203H148.583V51.2241H151.123Z" fill="white"/>
<path d="M151.123 50.8203H152.123V49.8203H151.123V50.8203ZM151.123 51.2241V52.2241H152.123V51.2241H151.123ZM148.583 51.2241H147.583V52.2241H148.583V51.2241ZM148.583 50.8203V49.8203H147.583V50.8203H148.583ZM150.123 50.8203V51.2241H152.123V50.8203H150.123ZM151.123 50.2241H148.583V52.2241H151.123V50.2241ZM149.583 51.2241V50.8203H147.583V51.2241H149.583ZM148.583 51.8203H151.123V49.8203H148.583V51.8203Z" fill="#FFE4C7" mask="url(#path-108-inside-2_648_65381)"/>
<path d="M155.204 56.041V56.349H154.895" stroke="#FFE4C7" stroke-width="0.75" stroke-miterlimit="10"/>
<path d="M154.301 56.3486H145.109" stroke="#FFE4C7" stroke-width="0.75" stroke-miterlimit="10" stroke-dasharray="1.92 1.92"/>
<path d="M144.812 56.349H144.503V56.041" stroke="#FFE4C7" stroke-width="0.75" stroke-miterlimit="10"/>
<path d="M144.503 55.4507V46.2979" stroke="#FFE4C7" stroke-width="0.75" stroke-miterlimit="10" stroke-dasharray="1.92 1.92"/>
<path d="M144.503 46.0023V45.6943H144.812" stroke="#FFE4C7" stroke-width="0.75" stroke-miterlimit="10"/>
<path d="M145.405 45.6943H154.598" stroke="#FFE4C7" stroke-width="0.75" stroke-miterlimit="10" stroke-dasharray="1.92 1.92"/>
<path d="M154.895 45.6943H155.204V46.0023" stroke="#FFE4C7" stroke-width="0.75" stroke-miterlimit="10"/>
<path d="M155.204 46.5928V55.7456" stroke="#FFE4C7" stroke-width="0.75" stroke-miterlimit="10" stroke-dasharray="1.92 1.92"/>
<path d="M158.643 45.6953C159.544 46.5574 160.439 47.4331 161.334 48.3109L164.011 50.9596L166.675 53.6377L168.003 54.9871L169.325 56.3496L167.976 55.0487L166.633 53.7344L163.956 51.0853L161.292 48.4073C160.406 47.5088 159.521 46.6088 158.643 45.6953Z" fill="#DBDBDB"/>
<path d="M169.325 45.6953C168.447 46.6088 167.562 47.5088 166.676 48.4066L164.011 51.0847L161.334 53.7338L159.991 55.048L158.643 56.349L159.964 54.9864L161.292 53.6371L163.956 50.959L166.633 48.3102C167.528 47.4331 168.424 46.5574 169.325 45.6953Z" fill="#DBDBDB"/>
<path d="M169.335 56.0146V56.3226H169.025" stroke="#DBDBDB" stroke-width="0.75" stroke-miterlimit="10"/>
<path d="M168.432 56.3223H159.24" stroke="#DBDBDB" stroke-width="0.75" stroke-miterlimit="10" stroke-dasharray="1.92 1.92"/>
<path d="M158.943 56.3226H158.634V56.0146" stroke="#DBDBDB" stroke-width="0.75" stroke-miterlimit="10"/>
<path d="M158.634 55.4243V46.2715" stroke="#DBDBDB" stroke-width="0.75" stroke-miterlimit="10" stroke-dasharray="1.92 1.92"/>
<path d="M158.634 45.976V45.668H158.943" stroke="#DBDBDB" stroke-width="0.75" stroke-miterlimit="10"/>
<path d="M159.536 45.668H168.729" stroke="#DBDBDB" stroke-width="0.75" stroke-miterlimit="10" stroke-dasharray="1.92 1.92"/>
<path d="M169.025 45.668H169.335V45.976" stroke="#DBDBDB" stroke-width="0.75" stroke-miterlimit="10"/>
<path d="M169.334 46.5664V55.7192" stroke="#DBDBDB" stroke-width="0.75" stroke-miterlimit="10" stroke-dasharray="1.92 1.92"/>
<path d="M169.396 59.1104H130.381V63.868H169.396V59.1104Z" fill="#FFE4C7"/>
<path d="M173.389 62.1269C173.535 62.1534 174.216 62.2794 175.211 62.4657C175.664 61.8882 176.257 60.8327 176.339 59.216C176.351 58.948 176.729 60.5595 176.136 62.6388C178.059 62.997 180.676 63.4824 182.965 63.8853C183.155 63.0004 183.371 62.1888 183.371 62.1888C183.345 62.8445 183.388 63.4467 183.463 63.9749C183.775 64.0325 184.083 64.083 184.377 64.1341C184.536 62.7383 185.166 60.3636 185.166 60.3636C185.1 62.0758 185.42 63.503 185.68 64.3559C187.136 64.5964 188.098 64.7279 188.048 64.6494C186.254 61.7773 188.104 60.5891 187.839 58.2717C187.519 55.4947 185.289 54.7016 185.682 52.7184C185.998 51.1042 186.681 48.193 184.725 47.2311C184.725 47.2311 183.348 45.1345 180.554 45.7148C177.099 46.43 177.571 51.642 177.183 52.6239C176.63 54.0268 175.851 54.4269 175.062 56.0014C174.259 57.5941 174.845 58.8319 174.747 59.9841C174.644 61.1342 173.024 62.0647 173.389 62.1269Z" fill="#263238"/>
<path d="M188.172 64.3007C187.951 63.8039 187.766 63.288 187.695 62.766C187.609 62.2442 187.764 61.7496 187.95 61.2429C188.135 60.7393 188.341 60.2268 188.479 59.6829C188.611 59.1402 188.685 58.5593 188.591 57.9864C188.506 57.4138 188.272 56.8687 187.948 56.4051C187.63 55.9358 187.242 55.5369 186.87 55.1448C186.501 54.7493 186.134 54.3582 185.886 53.8906C185.63 53.4286 185.516 52.8912 185.538 52.3457C185.429 52.8795 185.482 53.4585 185.706 53.9756C185.925 54.4955 186.276 54.9415 186.627 55.3586C186.978 55.7781 187.334 56.1812 187.615 56.6226C187.893 57.0633 188.095 57.5432 188.163 58.0492C188.232 58.5541 188.191 59.074 188.069 59.5859C187.955 60.1002 187.773 60.6066 187.615 61.1339C187.538 61.3981 187.464 61.6683 187.427 61.9519C187.389 62.2362 187.414 62.5343 187.477 62.806C187.616 63.3515 187.862 63.8507 188.172 64.3007Z" fill="#263238"/>
<path d="M178.411 47.2783C178.057 47.8524 177.854 48.5042 177.653 49.143C177.463 49.7879 177.305 50.4402 177.154 51.0914L176.923 52.0622C176.845 52.3865 176.753 52.688 176.621 52.9769C176.361 53.5584 175.933 54.0331 175.459 54.5099C175.228 54.7532 174.992 55.007 174.787 55.2906C174.581 55.5734 174.404 55.8792 174.266 56.2014C174.138 56.5288 174.035 56.8531 173.959 57.1907C173.88 57.527 173.842 57.8781 173.848 58.2246C173.852 58.5724 173.896 58.9078 173.925 59.2343C173.955 59.5601 173.955 59.8894 173.922 60.2109C173.867 60.85 173.43 61.4263 172.849 61.7565C173.473 61.5122 173.995 60.9406 174.128 60.2433C174.193 59.9042 174.213 59.562 174.207 59.2207C174.204 58.8801 174.172 58.5499 174.187 58.229C174.209 57.5914 174.395 56.9529 174.646 56.3646C174.781 56.0757 174.939 55.7994 175.13 55.5435C175.32 55.2863 175.543 55.0501 175.776 54.8111C176.005 54.5696 176.244 54.3223 176.457 54.046C176.671 53.7703 176.861 53.4682 177 53.1442C177.137 52.8202 177.229 52.4767 177.296 52.149C177.369 51.8189 177.429 51.4896 177.488 51.1604C177.609 50.5031 177.721 49.8461 177.86 49.195C177.991 48.5424 178.147 47.8946 178.411 47.2783Z" fill="#263238"/>
<path d="M167.647 139.37C168.257 139.566 185.62 139.342 186.275 138.915C186.526 138.757 186.641 136.236 186.692 133.186C186.692 133.154 186.692 133.122 186.692 133.09C186.704 132.462 186.713 131.814 186.714 131.158C186.714 131.068 186.714 130.978 186.717 130.888C186.741 126.486 186.671 121.919 186.671 121.919L175.056 122.035L175.406 130.919L175.419 131.271L175.489 133.11L175.496 133.299C175.496 133.299 168.888 136.345 168.218 136.89C167.552 137.433 167.038 139.177 167.647 139.37Z" fill="#FFBE9D"/>
<path d="M172.865 134.482C172.909 134.469 172.933 134.455 172.936 134.442C172.936 134.442 172.909 134.456 172.865 134.482Z" fill="#46A7D7"/>
<path d="M167.648 139.37C168.256 139.565 185.619 139.343 186.275 138.915C186.498 138.774 186.615 136.767 186.674 134.181C183.492 134.842 171.162 137.325 170.825 136.275C170.692 135.863 171.746 135.149 172.413 134.747C170.591 135.612 168.572 136.601 168.216 136.892C167.553 137.434 167.037 139.176 167.648 139.37Z" fill="#263238"/>
<path d="M190.235 72.1191C190.235 72.1191 187.628 101.332 187.203 103.562C187.105 104.069 187.044 106.83 187.004 110.38C186.914 118.123 186.967 132.09 186.967 132.09H174.728C174.728 132.09 175.091 107.891 175.633 103.437C176.175 98.9811 179.638 72.1191 179.638 72.1191H190.235Z" fill="#263238"/>
<path d="M175.281 129.967C177.191 129.928 176.642 129.912 178.553 129.894C179.487 129.885 185.63 129.832 186.503 129.976C186.522 129.979 186.522 130.011 186.503 130.014C185.629 130.159 179.487 130.105 178.553 130.096C176.642 130.078 177.191 130.062 175.281 130.023C175.245 130.022 175.245 129.968 175.281 129.967Z" fill="#37474F"/>
<path d="M196.591 140.353C197.224 140.254 212.613 132.245 213.004 131.57C213.157 131.316 212.116 129.015 210.778 126.271C210.763 126.242 210.749 126.214 210.735 126.185C210.461 125.619 204.965 116.392 204.965 116.392L195.5 121.925L200.748 131.241L200.84 131.407C200.84 131.407 196.327 137.095 195.975 137.884C195.627 138.668 195.96 140.455 196.591 140.353Z" fill="#FFBE9D"/>
<path d="M196.592 140.352C197.225 140.254 212.613 132.246 213.004 131.568C213.135 131.353 212.395 129.64 211.342 127.438C209.137 129.101 198.486 137.064 197.708 136.236C197.545 136.061 197.667 135.648 197.884 135.205C196.95 136.433 196.118 137.562 195.974 137.883C195.628 138.667 195.961 140.453 196.592 140.352Z" fill="#263238"/>
<path d="M199.387 130.901L210.602 124C210.602 124 197.628 105.515 197.566 103.873C197.474 101.431 196.298 91.3557 195.311 83.198C195.311 83.198 197.183 78.7813 193.679 72.1094H179.627C179.627 72.1094 180.569 78.4582 182.181 82.4837C182.181 82.4837 183.409 82.8629 185.305 83.9039C185.305 83.9039 186.704 102.093 186.756 104.362C186.86 108.846 199.387 130.901 199.387 130.901Z" fill="#263238"/>
<path d="M198.701 128.323C200.319 127.312 199.841 127.579 201.47 126.587C202.268 126.101 207.511 122.915 208.334 122.592C208.353 122.585 208.369 122.613 208.354 122.625C207.679 123.195 202.381 126.29 201.575 126.76C199.926 127.721 200.389 127.428 198.73 128.37C198.699 128.388 198.671 128.342 198.701 128.323Z" fill="#37474F"/>
<path d="M181.648 82.2074C182.915 82.6414 184.137 83.2577 185.306 83.9036C185.352 83.9288 185.322 83.9997 185.272 83.9784C184.04 83.4514 182.783 82.9476 181.582 82.3537C181.488 82.3072 181.551 82.1742 181.648 82.2074Z" fill="#37474F"/>
<path d="M183.371 80.1809C183.248 79.4497 183.15 78.7164 183.087 77.9778C182.97 76.5992 182.964 75.2206 183.132 73.8466C183.138 73.8013 183.203 73.805 183.203 73.8506C183.201 75.759 183.252 77.6636 183.538 79.5538C183.676 80.4621 184.135 81.8296 183.181 81.9695C182.209 82.1118 181.581 79.8212 181.462 79.1947C181.131 77.4462 181.118 75.5584 181.257 73.7893C181.26 73.7468 181.335 73.7375 181.335 73.7831C181.325 75.2397 181.418 76.5209 181.541 77.8823C181.598 78.5143 182.109 82.0064 183.209 81.752C183.394 81.7095 183.488 81.5287 183.517 81.2521C183.552 80.9195 183.426 80.5117 183.371 80.1809Z" fill="#37474F"/>
<path d="M183.181 81.8463C183.28 82.0807 183.36 82.3249 183.428 82.5701C183.481 82.7607 183.553 82.9665 183.531 83.1652C183.527 83.2037 183.475 83.2074 183.455 83.1812C183.326 83.0182 183.271 82.7952 183.199 82.6021C183.115 82.3782 183.027 82.1558 182.95 81.9298C182.898 81.7798 183.119 81.7015 183.181 81.8463Z" fill="#37474F"/>
<path d="M182.001 59.974C181.512 62.2732 179.039 70.0595 176.596 71.8135C174.844 73.0714 168.83 74.2369 164.2 74.1817C162.594 74.1626 163.637 67.3752 165.148 66.5421C166.056 66.0419 172.817 66.3937 173.868 65.9788C174.654 65.6683 176.47 61.8236 179.742 58.3598C181.536 56.461 182.66 56.8808 182.001 59.974Z" fill="#FFBE9D"/>
<path d="M164.607 74.1843C163.689 74.1794 158.509 74.1578 157.363 73.7879C156.217 73.418 152.996 72.1161 153.191 71.2134C153.386 70.3103 154.36 70.6168 154.36 70.6168C154.36 70.6168 153.087 69.8526 153.367 68.9616C153.647 68.0708 155.146 68.5966 155.146 68.5966C155.146 68.5966 153.896 67.7169 154.239 66.8481C154.582 65.9795 156 66.7594 156 66.7594C156 66.7594 154.82 66.0082 155.405 65.4106C156.108 64.6921 158.127 66.322 159.423 66.6356C159.718 66.7067 165.492 67.6563 165.492 67.6563L164.607 74.1843Z" fill="#FFBE9D"/>
<path d="M155.877 66.6955C157.364 67.8906 158.222 68.1573 160.091 68.3741C160.128 68.3784 160.13 68.4336 160.091 68.4323C158.242 68.3858 157.117 68.206 155.815 66.7642C155.751 66.6937 155.806 66.6385 155.877 66.6955Z" fill="#263238"/>
<path d="M155.029 68.5001C156.683 69.607 157.611 69.9045 159.552 70.2748C159.579 70.28 159.573 70.3268 159.545 70.3237C157.611 70.1189 156.493 69.9138 154.986 68.5918C154.918 68.5321 154.954 68.4495 155.029 68.5001Z" fill="#263238"/>
<path d="M154.46 70.6326C156.138 71.5892 157.142 71.9592 159.072 72.0777C159.118 72.0805 159.118 72.147 159.072 72.1486C157.092 72.2179 155.836 71.7657 154.436 70.6865C154.34 70.6129 154.354 70.5725 154.46 70.6326Z" fill="#263238"/>
<path d="M166.938 67.1094C166.938 67.1094 164.954 65.4212 163.962 65.002C162.97 64.5828 158.697 64.3752 158.6 65.2915C158.474 66.4746 160.917 67.0783 162.152 67.2184C162.152 67.2184 161.859 69.955 163.518 70.7659C165.177 71.5769 166.938 67.1094 166.938 67.1094Z" fill="#FFBE9D"/>
<path d="M158.672 65.6285C159.339 66.7899 160.973 66.8694 162.161 67.0943C162.251 67.1112 162.269 67.1897 162.242 67.256C162.196 68.4113 162.469 70.0541 163.446 70.7906C163.475 70.8121 163.448 70.8555 163.416 70.8377C162.261 70.1893 161.86 68.597 161.992 67.3351C160.77 67.1235 159.135 66.972 158.661 65.6343C158.658 65.6266 158.668 65.6211 158.672 65.6285Z" fill="#263238"/>
<path d="M177.747 72.2113L174.759 64.5738C174.759 64.5738 177.049 61.0543 179.523 58.1554C181.997 55.2565 183.398 55.3095 182.369 59.9501C181.34 64.5908 179.613 70.0507 177.747 72.2113Z" fill="#46A7D7"/>
<path d="M177.747 72.2113L174.759 64.5738C174.759 64.5738 177.049 61.0543 179.523 58.1554C181.997 55.2565 183.398 55.3095 182.369 59.9501C181.34 64.5908 179.613 70.0507 177.747 72.2113Z" fill="#46A7D7"/>
<path opacity="0.1" d="M175.414 66.2492L177.746 72.2102C179.613 70.052 181.341 64.5903 182.369 59.9506C182.961 57.2897 182.751 56.1354 181.997 56.1862L175.414 66.2492Z" fill="black"/>
<path d="M175.726 64.251C176.197 65.2849 176.628 66.3291 177.026 67.3932C177.225 67.9273 177.418 68.4641 177.602 69.0034C177.791 69.5535 177.942 70.1141 178.117 70.6682C178.125 70.6956 178.083 70.7057 178.074 70.6793C177.696 69.6025 177.277 68.5365 176.88 67.4668C176.483 66.3996 176.085 65.3333 175.69 64.2661C175.682 64.2451 175.717 64.2307 175.726 64.251Z" fill="#263238"/>
<path d="M178.807 73.0578L194.347 72.881C194.347 72.881 189.461 59.5394 185.687 56.5068C183.97 55.1269 182.544 55.5739 181.451 56.7689C181.178 57.0673 178.034 62.4383 177.948 64.1689C177.871 65.6984 179.321 67.1815 179.321 67.1815L178.807 73.0578Z" fill="#46A7D7"/>
<path d="M184.31 56.1667C184.31 56.3974 184.122 56.5843 183.891 56.5843C183.659 56.5843 183.471 56.3974 183.471 56.1667C183.471 55.936 183.659 55.749 183.891 55.749C184.122 55.749 184.31 55.936 184.31 56.1667ZM181.274 60.2578C181.042 60.2578 180.855 60.4448 180.855 60.6755C180.855 60.9062 181.042 61.0931 181.274 61.0931C181.506 61.0931 181.694 60.9062 181.694 60.6755C181.694 60.4448 181.506 60.2578 181.274 60.2578ZM183.89 60.2578C183.659 60.2578 183.471 60.4448 183.471 60.6755C183.471 60.9062 183.659 61.0931 183.89 61.0931C184.122 61.0931 184.31 60.9062 184.31 60.6755C184.31 60.4448 184.122 60.2578 183.89 60.2578ZM186.507 60.2578C186.275 60.2578 186.088 60.4448 186.088 60.6755C186.088 60.9062 186.275 61.0931 186.507 61.0931C186.739 61.0931 186.927 60.9062 186.927 60.6755C186.927 60.4448 186.739 60.2578 186.507 60.2578ZM188.736 60.5224C188.715 60.5686 188.705 60.621 188.705 60.6764C188.705 60.8858 188.857 61.0552 189.058 61.086C188.953 60.8951 188.845 60.7072 188.736 60.5224ZM180.276 58.7298C180.316 58.6867 180.344 58.6374 180.36 58.5789C180.335 58.6282 180.307 58.6775 180.276 58.7298ZM182.582 58.031C182.351 58.031 182.163 58.218 182.163 58.4486C182.163 58.6793 182.351 58.8663 182.582 58.8663C182.814 58.8663 183.002 58.6793 183.002 58.4486C183.002 58.218 182.814 58.031 182.582 58.031ZM185.199 58.031C184.967 58.031 184.779 58.218 184.779 58.4486C184.779 58.6793 184.967 58.8663 185.199 58.8663C185.431 58.8663 185.618 58.6793 185.618 58.4486C185.618 58.218 185.431 58.031 185.199 58.031ZM187.4 58.4311C187.397 58.4372 187.397 58.4434 187.397 58.4496C187.397 58.6374 187.518 58.7914 187.688 58.8438C187.592 58.7021 187.496 58.5635 187.4 58.4311ZM178.658 64.7666C178.426 64.7666 178.238 64.9536 178.238 65.1843C178.238 65.415 178.426 65.6019 178.658 65.6019C178.889 65.6019 179.077 65.415 179.077 65.1843C179.077 64.9536 178.889 64.7666 178.658 64.7666ZM181.274 64.7666C181.042 64.7666 180.855 64.9536 180.855 65.1843C180.855 65.415 181.042 65.6019 181.274 65.6019C181.506 65.6019 181.694 65.415 181.694 65.1843C181.694 64.9536 181.506 64.7666 181.274 64.7666ZM183.89 64.7666C183.659 64.7666 183.471 64.9536 183.471 65.1843C183.471 65.415 183.659 65.6019 183.89 65.6019C184.122 65.6019 184.31 65.415 184.31 65.1843C184.31 64.9536 184.122 64.7666 183.89 64.7666ZM186.507 64.7666C186.275 64.7666 186.088 64.9536 186.088 65.1843C186.088 65.415 186.275 65.6019 186.507 65.6019C186.739 65.6019 186.927 65.415 186.927 65.1843C186.927 64.9536 186.739 64.7666 186.507 64.7666ZM189.123 64.7666C188.892 64.7666 188.704 64.9536 188.704 65.1843C188.704 65.415 188.892 65.6019 189.123 65.6019C189.355 65.6019 189.543 65.415 189.543 65.1843C189.543 64.9536 189.355 64.7666 189.123 64.7666ZM179.966 62.5401C179.734 62.5401 179.546 62.7271 179.546 62.9578C179.546 63.1885 179.734 63.3754 179.966 63.3754C180.198 63.3754 180.385 63.1885 180.385 62.9578C180.385 62.7271 180.198 62.5401 179.966 62.5401ZM182.582 62.5401C182.351 62.5401 182.163 62.7271 182.163 62.9578C182.163 63.1885 182.351 63.3754 182.582 63.3754C182.814 63.3754 183.002 63.1885 183.002 62.9578C183.002 62.7271 182.814 62.5401 182.582 62.5401ZM185.199 62.5401C184.967 62.5401 184.779 62.7271 184.779 62.9578C184.779 63.1885 184.967 63.3754 185.199 63.3754C185.431 63.3754 185.618 63.1885 185.618 62.9578C185.618 62.7271 185.431 62.5401 185.199 62.5401ZM187.815 62.5401C187.584 62.5401 187.396 62.7271 187.396 62.9578C187.396 63.1885 187.584 63.3754 187.815 63.3754C188.047 63.3754 188.235 63.1885 188.235 62.9578C188.235 62.7271 188.047 62.5401 187.815 62.5401ZM190.02 62.8878C190.014 62.9094 190.011 62.934 190.011 62.9587C190.011 63.1219 190.104 63.2605 190.24 63.3252C190.166 63.1774 190.091 63.0326 190.02 62.8878ZM181.274 69.2758C181.042 69.2758 180.855 69.4627 180.855 69.6934C180.855 69.9241 181.042 70.1111 181.274 70.1111C181.506 70.1111 181.694 69.9241 181.694 69.6934C181.694 69.4627 181.506 69.2758 181.274 69.2758ZM183.89 69.2758C183.659 69.2758 183.471 69.4627 183.471 69.6934C183.471 69.9241 183.659 70.1111 183.89 70.1111C184.122 70.1111 184.31 69.9241 184.31 69.6934C184.31 69.4627 184.122 69.2758 183.89 69.2758ZM186.507 69.2758C186.275 69.2758 186.088 69.4627 186.088 69.6934C186.088 69.9241 186.275 70.1111 186.507 70.1111C186.739 70.1111 186.927 69.9241 186.927 69.6934C186.927 69.4627 186.739 69.2758 186.507 69.2758ZM189.123 69.2758C188.892 69.2758 188.704 69.4627 188.704 69.6934C188.704 69.9241 188.892 70.1111 189.123 70.1111C189.355 70.1111 189.543 69.9241 189.543 69.6934C189.543 69.4627 189.355 69.2758 189.123 69.2758ZM191.74 69.2758C191.508 69.2758 191.32 69.4627 191.32 69.6934C191.32 69.9241 191.508 70.1111 191.74 70.1111C191.971 70.1111 192.159 69.9241 192.159 69.6934C192.159 69.4627 191.971 69.2758 191.74 69.2758ZM179.966 67.0489C179.734 67.0489 179.546 67.2359 179.546 67.4666C179.546 67.6973 179.734 67.8842 179.966 67.8842C180.198 67.8842 180.385 67.6973 180.385 67.4666C180.385 67.2359 180.198 67.0489 179.966 67.0489ZM182.582 67.0489C182.351 67.0489 182.163 67.2359 182.163 67.4666C182.163 67.6973 182.351 67.8842 182.582 67.8842C182.814 67.8842 183.002 67.6973 183.002 67.4666C183.002 67.2359 182.814 67.0489 182.582 67.0489ZM185.199 67.0489C184.967 67.0489 184.779 67.2359 184.779 67.4666C184.779 67.6973 184.967 67.8842 185.199 67.8842C185.431 67.8842 185.618 67.6973 185.618 67.4666C185.618 67.2359 185.431 67.0489 185.199 67.0489ZM187.815 67.0489C187.584 67.0489 187.396 67.2359 187.396 67.4666C187.396 67.6973 187.584 67.8842 187.815 67.8842C188.047 67.8842 188.235 67.6973 188.235 67.4666C188.235 67.2359 188.047 67.0489 187.815 67.0489ZM190.432 67.0489C190.2 67.0489 190.012 67.2359 190.012 67.4666C190.012 67.6973 190.2 67.8842 190.432 67.8842C190.663 67.8842 190.851 67.6973 190.851 67.4666C190.851 67.2359 190.663 67.0489 190.432 67.0489ZM179.966 71.5577C179.734 71.5577 179.546 71.7447 179.546 71.9754C179.546 72.2061 179.734 72.393 179.966 72.393C180.198 72.393 180.385 72.2061 180.385 71.9754C180.385 71.7447 180.198 71.5577 179.966 71.5577ZM182.582 71.5577C182.351 71.5577 182.163 71.7447 182.163 71.9754C182.163 72.2061 182.351 72.393 182.582 72.393C182.814 72.393 183.002 72.2061 183.002 71.9754C183.002 71.7447 182.814 71.5577 182.582 71.5577ZM185.199 71.5577C184.967 71.5577 184.779 71.7447 184.779 71.9754C184.779 72.2061 184.967 72.393 185.199 72.393C185.431 72.393 185.618 72.2061 185.618 71.9754C185.618 71.7447 185.431 71.5577 185.199 71.5577ZM187.815 71.5577C187.584 71.5577 187.396 71.7447 187.396 71.9754C187.396 72.2061 187.584 72.393 187.815 72.393C188.047 72.393 188.235 72.2061 188.235 71.9754C188.235 71.7447 188.047 71.5577 187.815 71.5577ZM190.432 71.5577C190.2 71.5577 190.012 71.7447 190.012 71.9754C190.012 72.2061 190.2 72.393 190.432 72.393C190.663 72.393 190.851 72.2061 190.851 71.9754C190.851 71.7447 190.663 71.5577 190.432 71.5577ZM193.048 71.5577C192.817 71.5577 192.629 71.7447 192.629 71.9754C192.629 72.2061 192.817 72.393 193.048 72.393C193.28 72.393 193.468 72.2061 193.468 71.9754C193.468 71.7447 193.28 71.5577 193.048 71.5577Z" fill="#46A7D7"/>
<path d="M181.721 66.3362C182.458 66.4341 183.197 66.5576 183.912 66.7634C184.268 66.8656 184.617 66.9839 184.965 67.1099C185.139 67.1727 185.313 67.2294 185.489 67.2855C185.669 67.343 185.863 67.3973 186.053 67.4093C186.07 67.4102 186.068 67.4358 186.051 67.4358C185.866 67.4351 185.689 67.4342 185.505 67.409C185.331 67.3852 185.157 67.3424 184.988 67.2953C184.626 67.1949 184.269 67.0779 183.908 66.9738C183.18 66.7637 182.452 66.554 181.711 66.3966C181.676 66.3895 181.687 66.3316 181.721 66.3362Z" fill="#46A7D7"/>
<path d="M179.868 66.9347C180.478 66.8916 181.099 66.8765 181.71 66.9023C182.018 66.9153 182.322 66.9461 182.627 66.9849C182.773 67.0034 182.918 67.0246 183.063 67.0474C183.223 67.0727 183.379 67.1192 183.539 67.142C183.556 67.1444 183.555 67.1703 183.538 67.1685C183.387 67.1515 183.232 67.1592 183.079 67.1512C182.927 67.1429 182.774 67.1333 182.621 67.125C182.315 67.1084 182.009 67.0948 181.703 67.0754C181.09 67.036 180.48 67.0031 179.866 66.9852C179.833 66.984 179.837 66.9371 179.868 66.9347Z" fill="#46A7D7"/>
<path d="M184.279 56.2799C184.256 56.5688 183.195 58.5813 181.906 58.7153C181.486 58.7581 181.148 56.486 181.148 56.486L181.085 56.324L180.199 54.0549L182.7 51.8654L183.064 51.5703C183.064 51.5703 183.266 52.2069 183.508 53.0025C183.52 53.0395 183.531 53.0761 183.543 53.1159C183.558 53.1605 183.572 53.2024 183.584 53.2446C183.622 53.3629 183.66 53.4839 183.695 53.6053C183.723 53.6974 183.75 53.787 183.775 53.8849C183.803 53.9826 183.828 54.0777 183.855 54.1754C184.108 55.1425 184.287 56.1574 184.279 56.2799Z" fill="#FFBE9D"/>
<path d="M183.508 53.0022C183.117 54.974 181.734 55.963 181.084 56.324L180.198 54.0549L182.699 51.8654L183.064 51.5703C183.064 51.5703 183.265 52.2069 183.508 53.0022Z" fill="#263238"/>
<path d="M176.634 49.8549C175.687 54.0225 178.088 55.0576 178.99 55.26C179.81 55.4436 182.624 55.9653 183.998 51.9176C185.372 47.8699 183.725 46.1139 181.873 45.5953C180.021 45.0763 177.581 45.6874 176.634 49.8549Z" fill="#FFBE9D"/>
<path d="M177.388 49.2686C177.489 49.2772 177.584 49.2683 177.685 49.2664C177.798 49.2646 177.889 49.2744 177.986 49.2067C178.039 49.1703 178.054 49.0785 178.023 49.0249C177.952 48.8996 177.812 48.8676 177.675 48.8645C177.526 48.8611 177.411 48.8965 177.294 48.9871C177.18 49.0755 177.255 49.2575 177.388 49.2686Z" fill="#263238"/>
<path d="M180.274 49.8428C180.177 49.8114 180.094 49.7665 180.002 49.7255C179.898 49.6793 179.81 49.6534 179.747 49.5533C179.713 49.4997 179.735 49.4092 179.785 49.3716C179.899 49.2838 180.04 49.3088 180.168 49.3593C180.306 49.4141 180.399 49.4914 180.471 49.6205C180.541 49.7455 180.401 49.8841 180.274 49.8428Z" fill="#263238"/>
<path d="M179.398 50.7356C179.402 50.7252 179.417 50.7541 179.414 50.7658C179.34 51.0473 179.303 51.3821 179.539 51.5349C179.547 51.5395 179.543 51.5537 179.533 51.5503C179.229 51.4348 179.282 50.9907 179.398 50.7356Z" fill="#263238"/>
<path d="M179.72 50.4968C180.186 50.5661 180.013 51.4891 179.581 51.4251C179.156 51.3619 179.329 50.4388 179.72 50.4968Z" fill="#263238"/>
<path d="M179.893 50.5788C179.964 50.6463 180.026 50.7531 180.122 50.7809C180.233 50.8129 180.336 50.7322 180.427 50.653C180.437 50.6447 180.443 50.6543 180.441 50.6666C180.411 50.844 180.308 51.0128 180.113 51.0035C179.935 50.9952 179.839 50.8154 179.828 50.6293C179.826 50.5951 179.864 50.5517 179.893 50.5788Z" fill="#263238"/>
<path d="M177.812 50.3773C177.812 50.3659 177.787 50.3869 177.786 50.3989C177.743 50.6869 177.646 51.0096 177.369 51.0583C177.36 51.0598 177.359 51.0743 177.368 51.0746C177.694 51.0866 177.818 50.6567 177.812 50.3773Z" fill="#263238"/>
<path d="M177.609 50.0328C177.153 49.9155 176.951 50.8327 177.374 50.9414C177.789 51.0486 177.992 50.1314 177.609 50.0328Z" fill="#263238"/>
<path d="M177.404 50.0516C177.321 50.0843 177.229 50.157 177.141 50.1437C177.039 50.1283 176.986 50.0128 176.943 49.9035C176.938 49.8921 176.929 49.8983 176.926 49.9103C176.883 50.0846 176.901 50.2799 177.062 50.3504C177.21 50.4148 177.356 50.2891 177.437 50.1237C177.452 50.0932 177.437 50.0384 177.404 50.0516Z" fill="#263238"/>
<path d="M178.99 53.0892C178.911 53.1471 178.829 53.2303 178.723 53.2244C178.621 53.2189 178.509 53.157 178.422 53.1086C178.413 53.1037 178.403 53.1123 178.407 53.1216C178.467 53.2426 178.615 53.3338 178.753 53.3295C178.887 53.3248 178.968 53.2214 179.016 53.1065C179.023 53.0898 179.002 53.0806 178.99 53.0892Z" fill="#263238"/>
<path d="M177.998 51.8208C177.998 51.8208 177.854 52.2354 177.814 52.4362C177.81 52.455 177.857 52.4738 177.925 52.4913C177.928 52.4929 177.93 52.4947 177.933 52.4932C178.278 52.6191 178.662 52.5677 178.936 52.321C178.954 52.3041 178.933 52.2782 178.912 52.2871C178.607 52.4288 178.303 52.4208 177.985 52.3635C177.982 52.305 178.256 51.6619 178.225 51.6532C178.116 51.6218 177.884 51.6536 177.746 51.6659C178.021 50.7939 178.435 49.9728 178.696 49.1005C178.705 49.0691 178.661 49.0506 178.646 49.0771C178.152 49.9069 177.812 50.9036 177.504 51.7968C177.465 51.9074 177.91 51.839 177.998 51.8208Z" fill="#263238"/>
<path d="M183.873 51.8992C182.802 51.7498 182.833 48.4262 182.842 48.0181C182.823 48.2746 182.719 49.6338 182.609 49.6773C182.582 49.6871 182.464 49.6498 182.278 49.5787L182.276 49.5781C182.291 49.4247 182.296 49.2574 182.287 49.0893C182.286 49.0132 182.242 49.2494 182.17 49.538C182.111 49.5149 182.047 49.4881 181.977 49.4623C182.016 49.1712 182.036 48.8081 181.983 48.4212C181.964 48.2903 181.87 48.8626 181.694 49.3529C180.973 49.0767 179.929 48.7037 178.931 48.5669C178.664 48.529 178.432 48.5084 178.226 48.497C178.266 48.0969 178.357 47.6753 178.318 47.764C178.201 48.0162 178.123 48.2722 178.072 48.4899C177.96 48.4847 177.857 48.4816 177.764 48.4813C177.795 47.913 178.16 47.0395 178.054 47.168C177.651 47.6666 177.447 48.2121 177.361 48.5025C176.966 48.537 176.851 48.6014 176.851 48.5004C176.851 48.318 177.238 46.7599 178.596 45.7287C180.072 44.6079 182.786 44.5688 184.095 46.6672C184.095 46.6672 185.255 47.6053 185.315 48.9291C185.376 50.2501 184.492 51.9845 183.873 51.8992Z" fill="#263238"/>
<path d="M183.656 53.456C183.582 53.4726 183.515 53.48 183.453 53.4797C183.378 53.4828 183.312 53.4739 183.252 53.4575C183.157 53.4354 183.08 53.3944 183.017 53.3451C182.959 53.3023 182.911 53.25 182.874 53.1998C182.777 53.0682 182.745 52.9401 182.745 52.9401L183.136 51.8412C183.136 51.8412 184.246 50.6464 184.802 51.0579C185.36 51.4706 184.4 53.2909 183.656 53.456Z" fill="#FFBE9D"/>
<path d="M184.514 51.573C184.526 51.5736 184.526 51.5897 184.516 51.5924C183.993 51.7249 183.669 52.1471 183.421 52.5968C183.593 52.4342 183.808 52.3615 184.029 52.5697C184.041 52.5805 184.026 52.599 184.012 52.5944C183.815 52.5232 183.664 52.5386 183.504 52.6818C183.392 52.7832 183.305 52.9193 183.217 53.0422C183.188 53.0832 183.112 53.0487 183.135 53C183.137 52.9963 183.139 52.9929 183.141 52.9892C183.215 52.3575 183.827 51.5438 184.514 51.573Z" fill="#263238"/>
<path d="M183.622 53.2696C183.586 53.3728 183.472 53.4273 183.369 53.3916C183.265 53.3555 183.21 53.2428 183.246 53.1396C183.283 53.0364 183.396 52.9819 183.499 53.0179C183.603 53.0537 183.658 53.1664 183.622 53.2696Z" fill="white"/>
<path d="M184.067 53.0285C184.042 53.1015 183.962 53.14 183.888 53.1148C183.815 53.0892 183.776 53.0094 183.802 52.9368C183.827 52.8638 183.907 52.8253 183.981 52.8505C184.054 52.8758 184.093 52.9556 184.067 53.0285Z" fill="white"/>
<path d="M160.762 54.7865L153.885 71.1602L189.816 86.1203L196.692 69.7466L160.762 54.7865Z" fill="white"/>
<path d="M189.818 86.1281L153.865 71.2228L153.809 71.1994L153.832 71.1433L160.694 54.7642L160.724 54.6934L160.795 54.7232L196.71 69.717L196.749 69.733L196.733 69.7712L189.818 86.1281ZM189.818 86.1281L196.656 69.7392L196.678 69.7934L160.735 54.8646L160.836 54.8233L153.944 71.1901L153.912 71.111L189.818 86.1281Z" fill="#263238"/>
<path d="M164.026 64.482C163.72 64.5273 163.402 64.5261 163.08 64.4712C162.248 64.3305 161.554 63.8645 161.107 63.2245C160.669 62.5998 160.467 61.8089 160.605 60.9985C160.886 59.3584 162.447 58.2549 164.094 58.5345C165.741 58.8127 166.849 60.3678 166.569 62.0085C166.343 63.3283 165.287 64.2991 164.026 64.482Z" fill="#EBEBEB"/>
<path d="M164.568 61.5503C164.367 62.0147 163.825 62.2285 163.358 62.028C162.892 61.8272 162.677 61.2878 162.879 60.8234C163.081 60.3589 163.622 60.1452 164.089 60.346C164.555 60.5465 164.77 61.0858 164.568 61.5503Z" fill="white"/>
<path d="M164.176 64.1348L164.026 64.4816C163.72 64.5269 163.402 64.5256 163.08 64.4708C162.248 64.3301 161.554 63.8641 161.107 63.224L161.257 62.8781C161.605 62.0773 162.541 61.7059 163.348 62.053C164.154 62.4004 164.524 63.3343 164.176 64.1348Z" fill="white"/>
<path d="M191.025 77.6472L159.113 64.3604L158.644 65.4782L190.555 78.7651L191.025 77.6472Z" fill="#EBEBEB"/>
<path d="M189.993 80.1061L158.081 66.8193L157.612 67.9372L189.523 81.224L189.993 80.1061Z" fill="#EBEBEB"/>
<path d="M188.96 82.5642L157.049 69.2773L156.579 70.3952L188.491 83.682L188.96 82.5642Z" fill="#EBEBEB"/>
<path d="M186.644 68.3625L168.991 61.0127L168.36 62.5153L186.012 69.8651L186.644 68.3625Z" fill="#EBEBEB"/>
<path d="M176.69 67.1471L167.944 63.5059L167.313 65.0085L176.058 68.6497L176.69 67.1471Z" fill="#DBDBDB"/>
<path d="M187.33 58.8425C190.248 64.19 193.081 68.539 192.403 71.0575C191.388 74.8308 185.759 81.4414 183.765 82.4723C182.904 82.917 178.398 76.9123 179.155 76.2069C180.063 75.3602 185.963 69.3444 186.056 68.7191C186.215 67.6461 185.549 65.4824 184.832 59.6787C184.277 55.1792 186.206 56.7838 187.33 58.8425Z" fill="#FFBE9D"/>
<path d="M181.754 75.0362C181.754 75.0362 179.996 74.8585 178.108 74.4522C177.055 74.2258 175.215 73.9976 174.365 74.1836C173.093 74.4618 167.953 76.4336 168.407 77.6847C168.817 78.8172 173.017 76.5648 173.017 76.5648C173.017 76.5648 168.577 78.4645 169.323 79.7378C170.069 81.0111 174.474 77.8381 174.474 77.8381C174.474 77.8381 169.957 79.8918 170.934 81.0838C171.673 81.9844 175.826 79.3343 175.826 79.3343C175.826 79.3343 171.955 81.1263 172.675 82.0851C173.47 83.1446 177.457 80.9381 177.457 80.9381C179.699 83.0688 182.541 83.4751 184.214 82.2286C184.484 82.0272 181.754 75.0362 181.754 75.0362Z" fill="#FFBE9D"/>
<path d="M174.51 75.8095C173.98 76.0137 173.443 76.2172 172.933 76.4677C172.423 76.7181 171.922 76.9866 171.438 77.2832C170.252 78.0107 169.623 78.6514 169.666 78.616C170.687 77.78 172.497 76.8551 173.007 76.6044C173.515 76.3543 174.011 76.079 174.52 75.8286C174.533 75.8221 174.522 75.8045 174.51 75.8095Z" fill="#263238"/>
<path d="M175.452 77.6248C174.787 77.9149 174.116 78.1786 173.464 78.498C172.815 78.8158 172.226 79.174 171.601 79.5356C171.553 79.5634 171.584 79.5803 171.633 79.5541C172.273 79.2178 172.89 78.956 173.533 78.627C174.175 78.2993 174.808 77.9442 175.46 77.6402C175.47 77.6353 175.462 77.6205 175.452 77.6248Z" fill="#263238"/>
<path d="M176.542 79.0384C175.503 79.4298 174.537 80.0117 173.605 80.6052C173.558 80.6347 173.6 80.6517 173.65 80.6243C174.616 80.085 175.371 79.6553 176.556 79.0741C176.574 79.0652 176.563 79.0301 176.542 79.0384Z" fill="#263238"/>
<path d="M193.253 70.975L185.727 67.6554C185.727 67.6554 184.859 63.5519 184.561 59.7595C184.262 55.9668 185.293 55.0212 187.85 59.0344C190.406 63.048 193.047 68.1325 193.253 70.975Z" fill="#46A7D7"/>
<path d="M80.6197 136.451H78.8729L64.8403 71.3921H50.0582L58.5054 136.451H56.7818L48.1372 69.8848H66.2607L80.6197 136.451Z" fill="#868686"/>
<path opacity="0.4" d="M80.6197 136.451H78.8729L64.8403 71.3921H50.0582L58.5054 136.451H56.7818L48.1372 69.8848H66.2607L80.6197 136.451Z" fill="black"/>
<path d="M67.0931 68.0879H47V69.8851H67.0931V68.0879Z" fill="#868686"/>
<path opacity="0.2" d="M67.0931 68.0879H47V69.8851H67.0931V68.0879Z" fill="black"/>
<path d="M66.253 70.124L59.1838 139.943H57.4599L64.3578 71.8319H49.5704L37.0953 139.943H35.3516L48.1382 70.124H66.253Z" fill="#868686"/>
<path d="M64.4172 85.1338H46.9438V86.8417H64.4172V85.1338Z" fill="#868686"/>
<path d="M61.6442 98.9785H44.1709V100.686H61.6442V98.9785Z" fill="#868686"/>
<path d="M60.2839 112.823H41.2153V114.531H60.2839V112.823Z" fill="#868686"/>
<path d="M59.2316 126.668H38.9409V128.376H59.2316V126.668Z" fill="#868686"/>
<g opacity="0.2">
<path d="M66.253 70.124L59.1838 139.943H57.4599L64.3578 71.8319H49.5704L37.0953 139.943H35.3516L48.1382 70.124H66.253Z" fill="black"/>
<path d="M64.4172 85.1338H46.9438V86.8417H64.4172V85.1338Z" fill="black"/>
<path d="M61.6442 98.9785H44.1709V100.686H61.6442V98.9785Z" fill="black"/>
<path d="M60.2839 112.823H41.2153V114.531H60.2839V112.823Z" fill="black"/>
<path d="M59.2316 126.668H38.9409V128.376H59.2316V126.668Z" fill="black"/>
</g>
<path d="M40.779 92.7656C40.779 92.7656 34.743 104.083 34.7411 104.09C34.3888 106.229 34.1181 108.11 34.0692 109.096C34.0683 109.101 34.0671 109.107 34.0686 109.112C34.0498 109.484 34.0631 109.726 34.1181 109.799C34.1221 109.805 34.1237 109.811 34.1286 109.814C34.6969 110.35 51.7776 113.652 52.4124 113.567C53.049 113.486 52.8551 111.675 52.2949 111.02C51.7297 110.365 45.7605 106.189 45.7605 106.189L51.6895 94.8594L40.779 92.7656Z" fill="#FFBE9D"/>
<path d="M35.8658 101.832C35.8658 101.832 34.7426 104.083 34.7411 104.09C34.3888 106.229 34.1181 108.11 34.0692 109.096C34.0683 109.101 34.0671 109.106 34.0686 109.112C34.0717 109.483 34.0887 109.731 34.1181 109.798C34.1221 109.805 34.1237 109.81 34.1286 109.814C34.6969 110.349 51.7776 113.652 52.4124 113.567C53.049 113.486 52.855 111.675 52.2948 111.02C51.7297 110.365 45.7605 106.188 45.7605 106.188L46.9223 103.901L35.8658 101.832Z" fill="#FFBE9D"/>
<path d="M46.8104 106.37C45.6993 105.992 44.277 105.964 43.2859 106.648C43.2475 106.675 43.2859 106.729 43.3246 106.722C44.5031 106.532 45.5883 106.457 46.7848 106.513C46.8692 106.517 46.8899 106.397 46.8104 106.37Z" fill="#263238"/>
<path d="M47.5624 106.984C46.4513 106.606 45.029 106.579 44.0379 107.263C43.9995 107.289 44.0379 107.343 44.0765 107.337C45.2551 107.146 46.3405 107.072 47.5367 107.128C47.6212 107.131 47.6419 107.012 47.5624 106.984Z" fill="#263238"/>
<path d="M48.3143 107.599C47.2032 107.221 45.7809 107.193 44.7898 107.877C44.7514 107.903 44.7898 107.957 44.8285 107.951C46.007 107.761 47.0922 107.686 48.2887 107.742C48.3731 107.745 48.3938 107.626 48.3143 107.599Z" fill="#263238"/>
<path d="M52.4127 113.568C51.777 113.653 34.6975 110.351 34.128 109.814C33.9081 109.613 34.2462 107.108 34.7421 104.091C34.7476 104.06 34.7529 104.028 34.7584 103.997L45.8013 106.005L45.7608 106.19C45.7608 106.19 51.7306 110.366 52.2946 111.022C52.8541 111.675 53.0481 113.486 52.4127 113.568Z" fill="#37474F"/>
<path d="M34.7571 103.995L34.7407 104.092C34.2473 107.108 33.9067 109.614 34.1279 109.814C34.3856 110.057 38.0704 110.876 42.0648 111.688C46.8446 112.658 52.0665 113.615 52.4132 113.57C53.0483 113.485 52.8525 111.675 52.2947 111.021C51.7302 110.365 45.761 106.19 45.761 106.19L45.8018 106.006L42.1192 105.336L34.7571 103.995Z" fill="#46A7D7"/>
<path opacity="0.1" d="M42.1193 105.336C42.08 107.227 42.0339 110.016 42.0648 111.689C46.8446 112.659 52.0665 113.616 52.4133 113.57C53.0483 113.486 52.8525 111.675 52.2948 111.021C51.7303 110.366 45.7611 106.19 45.7611 106.19L45.8019 106.007L42.1193 105.336Z" fill="black"/>
<path d="M34.0469 102.935L46.8381 104.606C46.8381 104.606 62.3818 81.1441 61.0306 74.0423C60.2873 70.1353 46.9436 63.9984 46.9436 63.9984L45.5937 61.2979H36.1834C36.1834 61.2979 32.3468 66.9287 35.1011 72.2183C36.9729 75.8124 47.2582 78.5545 47.6368 79.7098C48.1367 81.2335 34.0469 102.935 34.0469 102.935Z" fill="#455A64"/>
<path d="M47.3936 109.543C47.3936 109.543 47.4898 120.874 47.4894 120.882C47.4966 123.049 47.5414 124.949 47.6568 125.929C47.6565 125.934 47.6565 125.94 47.659 125.945C47.702 126.315 47.7552 126.551 47.8217 126.614C47.8269 126.619 47.8294 126.625 47.8344 126.628C48.4833 127.063 65.8778 127.512 66.4893 127.324C67.1037 127.139 66.6121 125.386 65.9511 124.832C65.2848 124.278 58.7053 121.14 58.7053 121.14L58.5011 109.815L47.3936 109.543Z" fill="#FFBE9D"/>
<path d="M47.4697 118.556C47.4697 118.556 47.4895 120.874 47.4892 120.882C47.4963 123.049 47.5412 124.949 47.6566 125.929C47.6563 125.934 47.6563 125.94 47.6587 125.945C47.7231 126.31 47.7812 126.552 47.8214 126.614C47.8267 126.619 47.8292 126.625 47.8341 126.628C48.4831 127.063 65.8775 127.512 66.4891 127.324C67.1034 127.139 66.6119 125.386 65.9508 124.832C65.2845 124.278 58.705 121.14 58.705 121.14L58.7174 118.779L47.4697 118.556Z" fill="white"/>
<path d="M59.7712 121.146C58.6128 120.956 57.2053 121.163 56.341 122C56.3076 122.032 56.3543 122.079 56.3915 122.067C57.5221 121.685 58.5803 121.434 59.7697 121.292C59.8535 121.282 59.8541 121.16 59.7712 121.146Z" fill="#263238"/>
<path d="M60.6146 121.629C59.4562 121.439 58.0487 121.645 57.1844 122.482C57.1507 122.515 57.1977 122.562 57.2349 122.549C58.3658 122.168 59.4237 121.916 60.6131 121.774C60.6969 121.764 60.6975 121.643 60.6146 121.629Z" fill="#263238"/>
<path d="M61.4582 122.11C60.2998 121.92 58.8923 122.127 58.0281 122.964C57.9946 122.996 58.0414 123.043 58.0785 123.031C59.2091 122.65 60.2673 122.398 61.4567 122.256C61.5405 122.246 61.5412 122.124 61.4582 122.11Z" fill="#263238"/>
<path d="M66.49 127.324C65.8772 127.513 48.4846 127.063 47.8338 126.627C47.5835 126.466 47.5015 123.938 47.4907 120.882C47.491 120.85 47.491 120.818 47.4913 120.786L58.7155 120.951L58.7062 121.141C58.7062 121.141 65.2864 124.278 65.9517 124.832C66.6112 125.385 67.1031 127.139 66.49 127.324Z" fill="#46A7D7"/>
<path d="M41.6433 73.2923C41.6458 73.3 46.8064 89.4971 46.8998 92.4755C46.9796 95.0143 46.653 121.07 46.653 121.07L59.7245 121.147C59.7245 121.147 58.6204 94.5763 58.4163 91.9297C58.0346 86.982 53.6813 73.3986 50.5679 61.2979H36.4756C36.4756 61.2979 36.5981 67.6349 39.4928 72.2183C39.4928 72.2183 40.8035 72.8223 41.6433 73.2923Z" fill="#455A64"/>
<path d="M51.3055 44.596C51.5805 48.5877 53.2592 56.5544 54.4397 57.7932C55.4233 58.8256 60.6338 62.808 63.6977 64.1214C64.8422 64.612 67.0261 57.5995 65.8439 56.9317C65.039 56.4771 59.7689 55.0452 59.2721 54.5151C58.3571 53.5394 55.7964 47.1225 53.8006 44.0314C52.6861 42.3054 51.1344 42.1135 51.3055 44.596Z" fill="#FFBE9D"/>
<path d="M62.3823 63.4711C63.1309 63.8959 67.3221 65.9555 68.4276 66.1902C69.5332 66.4249 72.7632 66.8708 73.0296 66.046C73.2959 65.2215 72.3608 65.0154 72.3608 65.0154C72.3608 65.0154 73.7547 64.9887 73.9471 64.1343C74.1392 63.2799 72.6738 63.0073 72.6738 63.0073C72.6738 63.0073 74.1033 62.8758 74.2338 62.01C74.3644 61.1442 72.8449 61.1159 72.8449 61.1159C72.8449 61.1159 74.1574 61.0564 73.9635 60.2978C73.7302 59.3855 71.3227 59.7674 70.1218 59.4172C69.849 59.3378 64.7101 57.4131 64.7101 57.4131L62.3823 63.4711Z" fill="#FFBE9D"/>
<path d="M72.975 61.1209C71.2037 61.3975 70.3809 61.2136 68.7606 60.5172C68.7291 60.5037 68.7015 60.5474 68.7334 60.5646C70.2578 61.3904 71.2566 61.7692 72.9932 61.2056C73.078 61.1782 73.0594 61.1077 72.975 61.1209Z" fill="#263238"/>
<path d="M72.8144 62.983C70.9497 63.1105 70.0555 62.9186 68.3043 62.3137C68.2796 62.3051 68.2623 62.346 68.2867 62.3568C69.9546 63.0935 70.9596 63.4487 72.8061 63.0778C72.8896 63.0609 72.8998 62.9771 72.8144 62.983Z" fill="#263238"/>
<path d="M72.273 64.9822C70.4587 64.9757 69.4689 64.8075 67.8449 64.003C67.8065 63.9839 67.775 64.0378 67.8118 64.0606C69.3878 65.0416 70.6211 65.2606 72.2671 65.037C72.3791 65.0219 72.3871 64.9825 72.273 64.9822Z" fill="#263238"/>
<path d="M64.1724 56.4708C64.1724 56.4708 66.2944 55.7371 67.2982 55.6195C68.3017 55.5018 72.2042 56.4344 72.0498 57.2848C71.8503 58.3832 69.4914 58.2868 68.3419 58.089C68.3419 58.089 67.8831 60.63 66.175 60.9257C64.4665 61.2211 64.1724 56.4708 64.1724 56.4708Z" fill="#FFBE9D"/>
<path d="M71.8956 57.5683C70.9884 58.4393 69.4964 58.083 68.3671 57.9743C68.2814 57.9659 68.2443 58.0319 68.2508 58.0987C67.9872 59.1508 67.3073 60.5587 66.233 60.9659C66.2014 60.9779 66.2141 61.0238 66.2475 61.0161C67.4595 60.7352 68.2406 59.4062 68.4552 58.2351C69.6115 58.3648 71.1235 58.6565 71.9043 57.5763C71.9089 57.5705 71.9015 57.5628 71.8956 57.5683Z" fill="#263238"/>
<path d="M64.4951 55.15L61.0823 63.2254C61.0823 63.2254 55.0373 59.831 54.151 57.9981C53.2645 56.1652 51.0469 47.5319 51.0735 44.6469C51.1001 41.7619 52.6028 42.0862 53.9859 44.1347C55.3689 46.1832 59.5588 53.2774 59.6958 53.3969C59.8332 53.5164 64.4951 55.15 64.4951 55.15Z" fill="#46A7D7"/>
<path d="M61.3526 58.4846C61.6257 57.9 61.8849 57.3093 62.1444 56.7182C62.2688 56.4346 62.3962 56.1518 62.5116 55.8641C62.6357 55.5546 62.7879 55.2466 62.8893 54.9297C62.8964 54.9075 62.8689 54.8939 62.8565 54.9143C62.6796 55.1964 62.5435 55.5112 62.3867 55.8053C62.2406 56.0782 62.1073 56.3585 61.9709 56.6363C61.6869 57.2156 61.4027 57.7947 61.1323 58.3805C60.5904 59.554 60.0837 60.7386 59.59 61.9327C59.5782 61.9613 59.6194 61.9813 59.6339 61.9533C60.2278 60.8063 60.806 59.6553 61.3526 58.4846Z" fill="#263238"/>
<path opacity="0.1" d="M57.0803 60.7036C55.7532 59.7673 54.5159 58.7509 54.1509 57.9963C53.2631 56.1637 51.0452 47.5305 51.073 44.6476C51.0885 43.2369 51.4504 42.5963 51.9825 42.5439C52.6444 44.6753 55.6728 55.2335 57.0803 60.7036Z" fill="black"/>
<path d="M51.8109 44.8936C50.92 44.9333 49.3337 43.5972 48.957 42.2688C48.9316 42.1777 49.2527 41.3535 49.5951 40.3334C49.8005 39.7137 50.0146 39.0188 50.1643 38.3705C50.1943 38.2371 54.0195 40.2909 54.0195 40.2909C54.0195 40.2909 53.305 41.558 53.0516 42.6896C53.0315 42.7844 53.0207 42.8744 53.0185 42.9618C53.017 42.9745 53.0173 42.9899 53.0142 43.0071C52.9802 43.5316 52.7646 44.8511 51.8109 44.8936Z" fill="#FFBE9D"/>
<path d="M53.0194 42.9618C53.0169 42.975 53.0163 42.991 53.0132 43.0067C52.8818 42.9947 52.7416 42.9704 52.5904 42.9331C50.1995 42.3313 50.2555 39.1915 50.3081 38.4043C51.0097 38.6735 54.0195 40.2905 54.0195 40.2905C54.0195 40.2905 53.3043 41.5585 53.0507 42.6904C53.0321 42.7847 53.02 42.8749 53.0194 42.9618Z" fill="#263238"/>
<path d="M49.4574 34.086C49.1382 35.5992 50.301 39.7852 51.4381 40.6402C53.0868 41.8799 55.5962 41.7897 56.6061 39.8594C57.5852 37.9886 55.9729 32.5601 54.7201 31.8025C52.875 30.6863 49.9292 31.8508 49.4574 34.086Z" fill="#FFBE9D"/>
<path d="M53.855 36.2628C53.8498 36.2527 53.8365 36.2822 53.8402 36.2936C53.9262 36.5736 53.9772 36.9084 53.7461 37.0713C53.739 37.0763 53.7437 37.0904 53.7529 37.0864C54.0539 36.9583 53.9815 36.5142 53.855 36.2628Z" fill="#263238"/>
<path d="M53.5217 36.0365C53.0565 36.1252 53.2687 37.0455 53.6999 36.9633C54.1243 36.8823 53.9118 35.962 53.5217 36.0365Z" fill="#263238"/>
<path d="M55.5234 35.9302C55.5231 35.9188 55.5488 35.9385 55.5513 35.9502C55.6079 36.2373 55.7214 36.5567 56.0023 36.5921C56.011 36.593 56.0134 36.6078 56.0035 36.6084C55.6775 36.6367 55.5312 36.2111 55.5234 35.9302Z" fill="#263238"/>
<path d="M55.7106 35.5742C56.1632 35.434 56.4112 36.3454 55.9921 36.4751C55.5794 36.6032 55.3311 35.6915 55.7106 35.5742Z" fill="#263238"/>
<path d="M53.0594 35.6993C53.1782 35.639 53.2775 35.5635 53.3885 35.4918C53.5138 35.4108 53.6221 35.359 53.6836 35.2164C53.7164 35.14 53.6694 35.027 53.5979 34.9879C53.4309 34.8973 53.2527 34.9586 53.0977 35.0498C52.9298 35.149 52.8255 35.2682 52.7584 35.4502C52.6928 35.6273 52.9032 35.7788 53.0594 35.6993Z" fill="#263238"/>
<path d="M55.9604 35.0286C55.8274 35.0372 55.7034 35.0228 55.5713 35.0178C55.4219 35.012 55.3025 35.0228 55.1763 34.9313C55.1085 34.8823 55.0912 34.7613 55.1327 34.6914C55.2295 34.5287 55.4142 34.4905 55.5942 34.4902C55.7897 34.4899 55.9403 34.5392 56.0916 34.6618C56.2385 34.7801 56.1358 35.0172 55.9604 35.0286Z" fill="#263238"/>
<path d="M54.201 38.9696C54.2848 39.0207 54.3745 39.0968 54.4806 39.0817C54.5821 39.0672 54.6888 38.9958 54.772 38.9394C54.7804 38.9339 54.7915 38.9412 54.7878 38.9511C54.7386 39.0774 54.5982 39.1818 54.4602 39.1889C54.3254 39.196 54.2357 39.0993 54.1769 38.9884C54.1682 38.9733 54.1886 38.9622 54.201 38.9696Z" fill="#263238"/>
<path d="M54.3052 38.0469C54.5226 38.2575 54.7893 38.3388 55.0556 38.3299C55.1747 38.3265 55.2953 38.3031 55.4101 38.2655C55.433 38.2597 55.4556 38.252 55.4754 38.2424C55.4958 38.235 55.514 38.2283 55.536 38.2184C55.5685 38.2061 55.5802 38.1744 55.5787 38.1414L55.5781 38.1393C55.5756 38.1288 55.5734 38.1205 55.5688 38.1106C55.5688 38.1106 55.5688 38.1106 55.5682 38.1085L55.562 38.0835C55.5174 37.8627 55.4188 37.5337 55.4188 37.5337C55.5085 37.5556 55.9616 37.6455 55.9289 37.5322C55.6526 36.5959 55.3458 35.5545 54.8725 34.681C54.8583 34.6515 54.8119 34.6696 54.8218 34.7004C55.0513 35.6109 55.4401 36.4748 55.6854 37.3856C55.5428 37.3662 55.308 37.3231 55.193 37.3517C55.1639 37.3677 55.3946 37.984 55.4067 38.0847C55.4067 38.0847 55.4076 38.089 55.4073 38.0955C55.0479 38.2273 54.7429 38.1799 54.3262 38.0145C54.3008 38.0037 54.2826 38.0281 54.3052 38.0469Z" fill="#263238"/>
<path d="M55.2543 38.1841C55.2543 38.1841 55.1194 38.4915 54.8738 38.6477C54.7835 38.7056 54.6805 38.7438 54.5623 38.7398C54.3198 38.7324 54.266 38.5245 54.2666 38.3363C54.2666 38.1814 54.3059 38.0391 54.3059 38.0391C54.3059 38.0391 54.7114 38.2738 55.2543 38.1841Z" fill="#263238"/>
<path d="M54.8738 38.6477C54.7835 38.7056 54.6805 38.7438 54.5623 38.7398C54.3198 38.7324 54.266 38.5245 54.2666 38.3363C54.5172 38.3049 54.7984 38.4152 54.8738 38.6477Z" fill="#FF99BA"/>
<path d="M50.1174 38.1357C50.1174 38.1357 48.2911 35.7395 48.2803 34.2454C48.2753 33.5699 49.1427 33.0239 49.1427 33.0239C49.1427 33.0239 48.7833 32.2391 49.4619 31.454C50.1771 30.6267 52.1179 30.5922 52.1179 30.5922C52.1179 30.5922 53.1752 28.6681 55.0139 29.1948C56.8525 29.7215 55.9137 31.8322 55.9137 31.8322C55.9137 31.8322 56.6573 32.6789 55.1521 33.5592C53.6865 34.4163 50.4673 34.0609 50.4673 34.0609C50.4673 34.0609 50.8908 35.6397 50.7608 37.3109C50.7129 37.9303 50.1174 38.1357 50.1174 38.1357Z" fill="#263238"/>
<path d="M52.4246 30.5841C52.0175 30.4566 51.5835 30.4434 51.16 30.4883C50.7845 30.5284 50.4025 30.6152 50.061 30.7794C49.4507 31.0726 48.9356 31.5971 48.9019 32.3021C48.8849 32.6567 49.0108 32.9881 49.2508 33.2483C49.2604 33.2588 49.2759 33.2415 49.2657 33.2311C48.8045 32.7712 48.9366 31.9667 49.3136 31.5017C49.7399 30.9756 50.4498 30.7187 51.1025 30.6226C51.5393 30.5582 51.9798 30.5823 52.4172 30.6232C52.4429 30.6254 52.449 30.5918 52.4246 30.5841Z" fill="#263238"/>
<path d="M56.3648 29.9105C56.1662 29.4343 55.7099 29.1627 55.2184 29.0613C54.6585 28.9458 54.0643 29.041 53.5548 29.2939C53.0354 29.552 52.6107 29.9625 52.2955 30.4446C52.2884 30.4553 52.3073 30.4674 52.3144 30.4569C52.8953 29.6068 53.8864 29.053 54.9341 29.1617C55.4028 29.2104 55.8863 29.3977 56.1446 29.8116C56.3821 30.192 56.3936 30.7064 56.2426 31.12C56.0561 31.631 55.6539 32.0449 55.2283 32.3705C55.2184 32.3779 55.2289 32.3933 55.2394 32.3862C55.6555 32.1038 56.0369 31.7603 56.268 31.3076C56.4867 30.8801 56.5526 30.3611 56.3648 29.9105Z" fill="#263238"/>
<path d="M55.5425 33.6028C54.8765 33.9754 54.1214 34.1535 53.3651 34.2172C52.5729 34.2841 51.7844 34.2468 50.9971 34.143C50.5403 34.0826 50.0855 34.0053 49.6327 33.9194C49.6181 33.9166 49.6144 33.9376 49.6283 33.9416C50.4351 34.1735 51.2545 34.3669 52.0947 34.4257C52.8773 34.4806 53.6497 34.4073 54.397 34.1636C54.8041 34.0312 55.1911 33.8458 55.5521 33.6163C55.5617 33.6108 55.5521 33.5975 55.5425 33.6028Z" fill="#263238"/>
<path d="M50.854 37.5057C50.854 37.5057 49.7385 36.2377 49.1502 36.6482C48.5621 37.0588 49.5062 38.9705 50.2709 39.1627C51.0356 39.3549 51.228 38.6536 51.228 38.6536L50.854 37.5057Z" fill="#FFBE9D"/>
<path d="M49.4346 37.1896C49.4228 37.1899 49.4222 37.2065 49.4327 37.2096C49.971 37.3611 50.2945 37.8071 50.5386 38.2796C50.3645 38.1065 50.1445 38.0252 49.9091 38.2346C49.8967 38.2457 49.9119 38.2651 49.9261 38.2605C50.1321 38.1924 50.2884 38.2121 50.4495 38.3649C50.5637 38.473 50.649 38.6162 50.7366 38.7459C50.7657 38.789 50.8461 38.7554 50.8229 38.7046C50.8213 38.7009 50.8192 38.6969 50.8173 38.6932C50.7585 38.0381 50.147 37.1785 49.4346 37.1896Z" fill="#263238"/>
<path d="M51.96 51.8149L78.6108 67.9707L89.3436 50.4181L62.6928 34.2623L51.96 51.8149Z" fill="#37474F"/>
<path d="M62.6312 39.4826C61.4579 40.7768 61.9525 42.8022 63.5917 43.4154C64.5073 43.7582 65.5727 43.5001 66.2278 42.7772C67.4008 41.483 66.9062 39.4579 65.2674 38.8444C64.3517 38.5016 63.2864 38.7594 62.6312 39.4826Z" fill="white"/>
<path d="M65.5254 54.8515L80.9228 64.1854L79.0009 50.0713L65.5254 54.8515Z" fill="#263238"/>
<path d="M57.9399 50.265L71.5942 58.5425L68.5287 48.252L57.9399 50.265Z" fill="#455A64"/>
<path d="M80.9213 64.1802L54.2705 48.0244L51.9581 51.8062L78.6089 67.962L80.9213 64.1802Z" fill="#455A64"/>
<path d="M34.8158 61.8687C34.8161 61.8672 52.4982 66.2669 52.4979 66.2682C52.4107 66.6131 54.9707 52.2326 52.4666 42.7752C52.2959 42.1305 49.67 40.8298 48.1626 41.6497C41.5574 45.2426 34.7595 62.0926 34.8158 61.8687Z" fill="#46A7D7"/>
<path d="M51.0297 46.4294C54.3074 50.1383 60.7592 56.7711 64.2813 56.549C68.0155 56.3137 72.349 51.6494 74.2743 50.1272C75.0912 49.4813 69.3299 44.5259 68.3156 44.9876C67.3183 45.4416 64.4907 48.5724 63.6809 48.7705C62.871 48.9685 57.1075 45.1173 53.217 43.2049C48.6445 40.9574 48.367 43.4165 51.0297 46.4294Z" fill="#FFBE9D"/>
<path d="M74.263 37.619C75.0762 37.8712 75.0787 38.7496 75.0787 38.7496C75.0787 38.7496 75.7314 38.559 76.3089 38.8633C76.9702 39.2119 76.7116 40.3974 76.7116 40.3974C76.7116 40.3974 77.4123 40.3407 77.9901 40.7233C78.5896 41.1203 78.4996 42.3535 78.4996 42.3535C78.4996 42.3535 79.1814 42.6578 79.4424 43.345C79.8888 44.52 78.7217 46.0468 77.9898 47.0244C77.2579 48.0023 74.2617 50.0936 73.7312 50.5497L67.186 45.8413C67.186 45.8413 68.3866 41.6993 70.4411 39.5828C71.2927 38.7056 73.3501 37.3356 74.263 37.619Z" fill="#FFBE9D"/>
<path d="M74.9447 38.7186C73.8051 39.4202 72.9359 40.4191 72.0113 41.3671C71.9908 41.388 72.0242 41.4201 72.0447 41.3985C72.9532 40.4449 74.0399 39.6835 74.9846 38.7679C75.0105 38.7429 74.9756 38.6995 74.9447 38.7186Z" fill="#263238"/>
<path d="M76.6139 40.3567C76.3609 40.523 76.1638 40.7722 75.9652 40.997C75.7515 41.2391 75.5424 41.4849 75.3367 41.734C74.9252 42.2327 74.525 42.7406 74.1402 43.2599C74.1231 43.283 74.1544 43.3147 74.1736 43.2916C74.5844 42.7954 75.0029 42.3054 75.4344 41.8267C75.6503 41.5874 75.8684 41.3497 76.088 41.1134C76.2922 40.8938 76.5264 40.6788 76.6776 40.4177C76.7002 40.3792 76.6519 40.3314 76.6139 40.3567Z" fill="#263238"/>
<path d="M78.4814 42.3742C78.2556 42.51 78.0895 42.7782 77.9283 42.9818C77.7458 43.2128 77.5618 43.4429 77.3765 43.6721C77.0059 44.1301 76.6353 44.5877 76.2489 45.0325C76.2298 45.0547 76.2629 45.0864 76.2823 45.0639C76.6771 44.6139 77.078 44.1695 77.469 43.7161C77.6607 43.4934 77.8516 43.2698 78.0409 43.045C78.2018 42.854 78.4251 42.6332 78.5052 42.392C78.5099 42.3782 78.4928 42.3674 78.4814 42.3742Z" fill="#263238"/>
<path d="M66.8211 45.8626L72.8454 52.6647C72.8454 52.6647 66.862 57.6463 63.0955 56.844C59.3288 56.0416 52.6868 49.1714 50.3624 45.9362C48.0381 42.7009 49.4075 41.1311 53.0416 42.956C56.6759 44.7809 63.1744 48.4008 63.4181 48.4562C63.6619 48.5117 66.8211 45.8626 66.8211 45.8626Z" fill="#46A7D7"/>
<path d="M68.2336 50.2668C67.82 49.7706 67.395 49.2843 66.97 48.7976C66.7658 48.5642 66.5638 48.3286 66.3522 48.1016C66.1246 47.8573 65.9102 47.5884 65.6661 47.3614C65.6491 47.3454 65.625 47.3645 65.638 47.3842C65.8183 47.6642 66.0457 47.9214 66.2452 48.1887C66.4305 48.437 66.6275 48.6769 66.8215 48.9187C67.2255 49.4226 67.6295 49.9262 68.0452 50.4205C68.8779 51.4107 69.736 52.3741 70.6083 53.3296C70.6294 53.3527 70.6649 53.3237 70.6461 53.2991C69.8585 52.2734 69.0617 51.2601 68.2336 50.2668Z" fill="#263238"/>
<path d="M68.3082 55.6416C67.5543 56.0947 66.7451 56.4637 65.8944 56.7126C65.0438 56.9534 64.143 57.0661 63.2524 56.9556C62.803 56.9041 62.3699 56.7501 61.9684 56.5635C61.5638 56.3771 61.1765 56.1603 60.7972 55.9324C60.0384 55.4759 59.3192 54.9625 58.6146 54.4321C57.2217 53.3498 55.8959 52.1856 54.6458 50.9456C54.0225 50.3237 53.4144 49.6871 52.8291 49.0304C52.25 48.3679 51.6917 47.6878 51.1655 46.9844C51.7217 47.6644 52.3079 48.3186 52.9133 48.9537C53.5143 49.5931 54.1348 50.2138 54.7708 50.8177C56.0409 52.0273 57.3612 53.1866 58.7556 54.2492C59.451 54.7817 60.1612 55.297 60.9067 55.7534C61.2792 55.9814 61.6593 56.1979 62.0525 56.383C62.4472 56.5663 62.85 56.7218 63.2765 56.7815C64.1346 56.91 65.0193 56.8197 65.8654 56.6051C66.7151 56.3953 67.5361 56.0627 68.3082 55.6416Z" fill="#263238"/>
<path d="M51.3823 47.7363C51.6948 47.9676 52.0084 48.1737 52.3298 48.3939C52.1424 48.3366 51.9716 48.2393 51.8086 48.1327C51.6518 48.0185 51.4974 47.8953 51.3823 47.7363Z" fill="#263238"/>
</svg>
