<svg width="212" height="124" viewBox="0 0 212 124" fill="none" xmlns="http://www.w3.org/2000/svg">
<path d="M132.775 44.0846L137.036 43.9944L139.198 43.9582C139.92 43.943 140.647 43.9462 141.371 43.9404L141.515 43.9395L141.516 44.0846L141.534 47.7015L141.534 47.8638L141.371 47.8631L137.073 47.8427C135.641 47.8411 134.208 47.8062 132.775 47.7897L132.686 47.7888L132.687 47.7015C132.693 47.0877 132.714 46.4774 132.729 45.874L132.775 44.0846ZM132.775 44.0846L132.821 45.9121C132.836 46.5143 132.857 47.1097 132.863 47.7015L132.775 47.6133C134.207 47.5968 135.64 47.5619 137.073 47.5602L141.371 47.5399L141.209 47.7012L141.226 44.0843L141.371 44.2284C140.663 44.2226 139.957 44.2258 139.246 44.2106L137.111 44.1744L132.775 44.0846Z" fill="#EBEBEB"/>
<path d="M137.57 39.5234L141.831 39.4332L143.993 39.397C144.716 39.3818 145.442 39.385 146.167 39.3792L146.311 39.3779L146.311 39.5231L146.329 43.14L146.33 43.3022L146.167 43.3016L141.869 43.2812C140.436 43.2796 139.003 43.2447 137.571 43.2282L137.481 43.2272L137.482 43.14C137.488 42.5262 137.51 41.9159 137.524 41.3124L137.57 39.5234ZM137.57 39.5234L137.616 41.3509C137.631 41.9531 137.653 42.5485 137.659 43.1403L137.57 43.0521C139.003 43.0356 140.436 43.0007 141.868 42.999L146.166 42.9787L146.004 43.14L146.022 39.5231L146.167 39.6672C145.458 39.6614 144.752 39.6646 144.042 39.6494L141.906 39.6132L137.57 39.5234Z" fill="#EBEBEB"/>
<path d="M127.979 39.5234L132.24 39.4332L134.402 39.397C135.125 39.3818 135.851 39.385 136.576 39.3792L136.72 39.3779L136.721 39.5231L136.738 43.14L136.739 43.3022L136.576 43.3016L132.278 43.2812C130.845 43.2796 129.412 43.2447 127.98 43.2282L127.89 43.2272L127.891 43.14C127.897 42.5262 127.919 41.9159 127.934 41.3124L127.979 39.5234ZM127.979 39.5234L128.026 41.3509C128.04 41.9531 128.062 42.5485 128.068 43.1403L127.979 43.0521C129.412 43.0356 130.845 43.0007 132.277 42.999L136.576 42.9787L136.414 43.14L136.431 39.5231L136.576 39.6672C135.868 39.6614 135.161 39.6646 134.451 39.6494L132.315 39.6132L127.979 39.5234Z" fill="#EBEBEB"/>
<path d="M60.3608 44.0878L64.6215 43.9977L66.7838 43.9615C67.5064 43.9463 68.2326 43.9495 68.9572 43.9437L69.1013 43.9424L69.102 44.0875L69.1195 47.7044L69.1202 47.8667L68.9572 47.866L64.6591 47.8457C63.2266 47.8441 61.7937 47.8092 60.3611 47.7927L60.2715 47.7917L60.2725 47.7044C60.2786 47.0906 60.3004 46.4804 60.315 45.8769L60.3608 44.0878ZM60.3608 44.0878L60.4069 45.9154C60.4215 46.5175 60.4432 47.1129 60.4494 47.7047L60.3608 47.6165C61.7933 47.6 63.2262 47.5651 64.6588 47.5635L68.9569 47.5431L68.7949 47.7044L68.8124 44.0875L68.9572 44.2317C68.2489 44.2259 67.5425 44.2291 66.8322 44.2139L64.6965 44.1777L60.3608 44.0878Z" fill="#EBEBEB"/>
<path d="M196.225 79.2099L200.486 79.1197L202.648 79.0835C203.371 79.0683 204.097 79.0716 204.821 79.0657L204.966 79.0645L204.966 79.2096L204.984 82.8265L204.984 82.9888L204.821 82.9881L200.523 82.9677C199.091 82.9661 197.658 82.9315 196.225 82.9147L196.136 82.9138L196.137 82.8265C196.143 82.2127 196.165 81.6024 196.179 80.999L196.225 79.2099ZM196.225 79.2099L196.271 81.0374C196.286 81.6396 196.307 82.235 196.314 82.8268L196.225 82.7386C197.658 82.7221 199.09 82.6872 200.523 82.6856L204.821 82.6652L204.659 82.8265L204.677 79.2096L204.821 79.3537C204.113 79.3479 203.407 79.3512 202.696 79.336L200.561 79.2998L196.225 79.2099Z" fill="#EBEBEB"/>
<path d="M198.04 56.0361H164.269V102.57H198.04V56.0361Z" fill="#DBDBDB"/>
<path d="M199.676 54.3096H162.632V56.0363H199.676V54.3096Z" fill="#EBEBEB"/>
<path d="M211.326 54.3096H199.676V56.0363H211.326V54.3096Z" fill="#DBDBDB"/>
<path d="M209.481 56.0361H198.04V102.57H209.481V56.0361Z" fill="#EBEBEB"/>
<path d="M194.402 77.5726H167.905V62.6631H194.402V77.5726ZM167.986 77.4918H194.321V62.7439H167.986V77.4918Z" fill="#A6A6A6"/>
<path d="M182.615 67.0186H177.456V69.9709H182.615V67.0186Z" fill="#A6A6A6"/>
<path d="M184.18 69.7889H178.939V67.2012H184.18V69.7889ZM179.021 69.7081H184.099V67.282H179.021V69.7081Z" fill="#A6A6A6"/>
<path d="M194.402 96.307H167.905V81.3975H194.402V96.307ZM167.986 96.2262H194.321V81.4783H167.986V96.2262Z" fill="#A6A6A6"/>
<path d="M182.615 85.7549H177.456V88.7072H182.615V85.7549Z" fill="#A6A6A6"/>
<path d="M184.18 88.5253H178.939V85.9375H184.18V88.5253ZM179.021 88.4445H184.099V86.0183H179.021V88.4445Z" fill="#A6A6A6"/>
<path d="M19.6504 82.0286C19.6504 82.0286 25.2687 80.7603 28.3484 77.9353C31.4282 75.1102 33.148 70.0488 33.148 70.0488C33.148 70.0488 29.8407 70.652 26.8467 71.6966C26.3442 72.2322 25.3869 73.3357 24.9405 74.3804C24.9405 74.3804 24.846 73.2769 24.9256 72.4617C24.1247 72.8296 23.4271 73.2355 22.9246 73.6712C20.3714 75.896 19.6504 82.0286 19.6504 82.0286Z" fill="#FAD1A7"/>
<path d="M29.6398 72.5082C30.4059 71.9803 31.1857 71.4716 31.9479 70.9389C31.994 70.9069 31.9508 70.8351 31.9018 70.8642C30.454 71.7253 29.0266 72.6455 27.646 73.6091C27.1642 73.9452 26.6919 74.2949 26.2244 74.6515C26.2572 74.5962 26.2893 74.5409 26.3224 74.4856C26.4909 74.2044 26.6688 73.9287 26.8464 73.6537C27.2035 73.1003 27.594 72.5553 28.0391 72.0686C28.0556 72.0505 28.0274 72.0236 28.0115 72.0424C27.5745 72.5447 27.1376 73.0418 26.738 73.5748C26.5481 73.8282 26.3724 74.0904 26.204 74.3586C26.1166 74.4979 26.0322 74.6382 25.9514 74.7811C25.9245 74.8286 25.8949 74.8768 25.867 74.9256C25.1405 75.4935 24.4331 76.0856 23.7579 76.7124C23.3414 77.0986 22.9395 77.4998 22.5513 77.9128C22.7684 77.236 22.958 76.5514 23.2103 75.8846C23.2187 75.862 23.1814 75.8523 23.1732 75.8752C22.9285 76.5743 22.661 77.277 22.4717 77.9953C22.0413 78.4581 21.6297 78.9381 21.242 79.4372C21.2489 79.4068 21.255 79.3761 21.2622 79.3463C21.3258 79.0826 21.3923 78.8195 21.4631 78.5577C21.6001 78.0515 21.7491 77.5489 21.9205 77.0531C22.2721 76.0362 22.7282 75.0416 23.4297 74.2145C23.4456 74.1957 23.418 74.1695 23.4021 74.1883C22.3045 75.4822 21.6611 77.0333 21.2505 78.6621C21.1904 78.9003 21.1336 79.1395 21.0791 79.3793C21.0502 79.506 21.0164 79.6356 20.995 79.7662C20.8252 79.9947 20.6587 80.2255 20.499 80.4618C19.5235 81.9073 18.7629 83.4869 18.1217 85.1037C17.3994 86.9247 16.8382 88.8056 16.321 90.6929C16.311 90.7301 16.3668 90.7427 16.3785 90.7071C17.4774 87.4335 18.5996 84.1133 20.4808 81.1871C20.8778 80.5694 21.3076 79.974 21.7637 79.3997C22.6879 79.348 23.6209 79.1482 24.4961 78.8579C25.4641 78.5367 26.3773 78.0916 27.2343 77.5411C27.7291 77.2234 28.1796 76.8526 28.6377 76.4855C28.6591 76.4683 28.6351 76.4383 28.6137 76.456C27.8537 77.0957 26.9405 77.597 26.0384 78.0075C25.1317 78.42 24.178 78.7429 23.2041 78.9543C22.7892 79.0441 22.3685 79.1107 21.9478 79.1676C22.4672 78.5305 23.0207 77.9209 23.6047 77.3401C23.7943 77.1516 23.9907 76.9713 24.1854 76.789C24.8305 76.32 25.5459 75.9495 26.2624 75.6043C27.1827 75.1615 28.0891 74.6922 29.0003 74.2306C29.5142 73.9704 30.0251 73.7038 30.5432 73.452C30.5653 73.4413 30.5452 73.409 30.5231 73.4197C29.5999 73.8638 28.662 74.2788 27.7297 74.7038C26.8526 75.104 25.965 75.5054 25.1233 75.9764C25.0869 75.9967 25.0528 76.0187 25.0171 76.0394C25.7781 75.3797 26.5656 74.7507 27.372 74.1446C28.1167 73.5855 28.8721 73.0373 29.6398 72.5082Z" fill="white"/>
<path d="M29.3207 75.3933C28.8636 75.5928 28.3984 75.7696 27.9462 75.98C27.481 76.1965 27.0402 76.45 26.5987 76.7102C26.5792 76.7215 26.5974 76.7486 26.6169 76.7392C27.0648 76.5259 27.5187 76.3262 27.9624 76.1038C28.4169 75.8762 28.8659 75.6328 29.332 75.4295C29.3541 75.4198 29.3434 75.3833 29.3207 75.3933Z" fill="white"/>
<path d="M1.39941 53.835C1.39941 53.835 2.97677 55.6337 3.07871 58.481C3.09689 58.9827 3.01768 59.6815 2.95924 60.5041C5.05406 61.6179 6.62558 63.6242 6.62558 63.6242C5.4355 62.9125 3.80198 62.6248 2.92061 62.7412C2.95048 63.2819 3.01476 63.8437 3.13519 64.4129C3.52442 64.3906 4.2756 64.4423 5.51828 64.8822C5.51828 64.8822 4.29898 64.8515 3.36957 65.3073C4.37105 68.4797 7.3482 71.7388 15.5687 73.1229C15.5687 73.1229 17.1548 67.566 14.1128 61.6044C11.6492 56.7805 1.39941 53.835 1.39941 53.835Z" fill="#FAD1A7"/>
<path d="M18.4137 86.6979C18.2709 85.3427 18.0917 83.9909 17.8813 82.6444C17.4606 79.9499 16.9155 77.2707 16.2234 74.6319C15.8972 73.3874 15.506 72.1686 15.0369 70.981C15.0674 70.7658 15.0626 70.5414 15.0671 70.3258C15.0726 70.0637 15.0739 69.8016 15.071 69.5394C15.0652 69.0152 15.0405 68.4919 14.9957 67.9692C14.9071 66.9375 14.7493 65.9041 14.4906 64.9005C14.3403 64.3174 14.1656 63.7433 13.9939 63.1664C13.9868 63.1428 13.9504 63.1537 13.9572 63.1773C14.2481 64.1751 14.4153 65.2134 14.5643 66.2406C14.712 67.2581 14.8029 68.2853 14.8405 69.3122C14.8509 69.5934 14.8561 69.8749 14.8564 70.1565C14.8564 70.2757 14.8512 70.3966 14.8467 70.5182C14.4419 69.544 13.9855 68.5904 13.4615 67.6634C12.6327 66.1969 11.6809 64.8032 10.6476 63.4721C10.6571 63.3202 10.6113 63.1605 10.5801 63.0144C10.5415 62.8315 10.5016 62.6489 10.4607 62.4666C10.3763 62.0926 10.2821 61.7209 10.1802 61.3511C9.97599 60.6093 9.7059 59.8924 9.47315 59.1603C9.46568 59.137 9.42932 59.1477 9.43647 59.1713C9.65364 59.8963 9.79777 60.6471 9.96431 61.385C10.0468 61.75 10.1269 62.1155 10.2078 62.4808C10.248 62.6634 10.2873 62.846 10.325 63.0293C10.3276 63.0422 10.3298 63.0568 10.3324 63.0704C10.0003 62.6531 9.66143 62.241 9.31473 61.8363C7.74484 60.0036 6.02367 58.3124 4.29146 56.6339C4.0785 56.4274 3.86003 56.2263 3.64415 56.023C3.6263 56.0059 3.60098 56.0331 3.61786 56.0505C5.27313 57.7701 6.90341 59.5094 8.44733 61.3301C8.81416 61.7629 9.17547 62.2009 9.53028 62.644C9.34362 62.518 9.15502 62.3955 8.96933 62.2742C8.49115 61.9623 8.00681 61.6591 7.50786 61.3812C7.00891 61.1029 6.50639 60.831 5.9938 60.578C5.46661 60.3178 4.90338 60.106 4.39469 59.8116C4.37294 59.799 4.35379 59.8358 4.37619 59.8449C4.90046 60.0588 5.39032 60.3853 5.87629 60.6723C6.37686 60.9678 6.87614 61.2655 7.3673 61.5758C7.85034 61.8809 8.33631 62.1818 8.81611 62.4921C9.21605 62.7507 9.60982 63.0335 10.0244 63.2724C10.9726 64.4955 11.8637 65.7622 12.6581 67.089C13.1586 67.9252 13.6112 68.7831 14.0192 69.6597C13.9209 69.617 13.8218 69.5753 13.7245 69.5323C13.4735 69.4215 13.2226 69.3106 12.972 69.1994C12.4886 68.9857 12.0026 68.7773 11.5176 68.5672C10.596 68.168 9.65948 67.8011 8.75507 67.3631C8.24801 67.1175 7.74906 66.8586 7.27932 66.547C7.25855 66.5334 7.24069 66.5667 7.26082 66.5803C8.94628 67.7374 10.8359 68.5523 12.7016 69.3743L13.5105 69.7308C13.7326 69.8287 13.9553 69.9383 14.1841 70.0236C14.7344 71.2509 15.1996 72.5151 15.5745 73.8167C16.3231 76.4164 16.8935 79.0724 17.3632 81.7351C17.8349 84.4085 18.153 87.1 18.4001 89.8025C18.4309 90.14 18.4614 90.4768 18.4997 90.8136C18.515 90.9477 18.7153 90.9477 18.714 90.8084C18.6987 89.436 18.5575 88.0613 18.4137 86.6979Z" fill="white"/>
<path d="M13.4124 64.0927C13.2617 63.2604 13.039 62.4468 12.8138 61.6323C12.8073 61.6087 12.7709 61.6197 12.7771 61.6433C12.9848 62.4429 13.1338 63.2581 13.2848 64.0697C13.4387 64.8969 13.5747 65.7282 13.6915 66.5612C13.6935 66.5754 13.7156 66.5757 13.7146 66.5605C13.6604 65.7318 13.5604 64.9098 13.4124 64.0927Z" fill="white"/>
<path d="M9.8703 66.3508C9.31324 65.9581 8.68768 65.6604 8.08258 65.3491C7.78295 65.195 7.47942 65.0485 7.1759 64.9021C6.86296 64.7512 6.538 64.6251 6.22766 64.47C6.20559 64.459 6.18708 64.4923 6.20916 64.5033C6.50976 64.6536 6.79479 64.8352 7.0902 64.9955C7.3947 65.1607 7.69757 65.3291 8.00304 65.4923C8.60425 65.8136 9.19507 66.1701 9.82615 66.431C9.88069 66.4536 9.91866 66.3851 9.8703 66.3508Z" fill="white"/>
<path opacity="0.1" d="M19.7534 72.3379C19.7534 72.3379 24.9523 71.1015 27.3396 67.6288C29.6191 64.3125 30.356 58.6592 30.4145 58.1621C30.3207 58.6182 29.2481 63.559 25.7084 65.8604C22.9987 67.6239 20.3799 69.073 19.7534 72.3379Z" fill="white"/>
<path d="M24.5512 63.3938C23.6364 64.271 22.9501 65.3028 22.6346 66.5372C22.632 66.5479 22.6472 66.5534 22.6508 66.5427C23.0413 65.3933 23.686 64.2604 24.5765 63.4223C24.5943 63.4054 24.5687 63.377 24.5512 63.3938Z" fill="white"/>
<path d="M19.7534 72.3376C19.7534 72.3376 24.9523 71.1013 27.3396 67.6285C29.6192 64.3122 30.3561 58.659 30.4145 58.1619C30.4194 58.1386 30.4203 58.127 30.4203 58.127C30.4203 58.127 27.9275 61.6563 25.3065 62.5561C22.6855 63.4557 19.0019 66.569 19.7534 72.3376Z" fill="#FAD1A7"/>
<path d="M29.4985 60.0725C29.0164 61.0141 28.511 61.9485 27.8912 62.809C27.2881 63.6468 26.5616 64.3601 25.7526 65.0001C25.0465 65.5586 24.2999 66.0648 23.5847 66.612C23.5903 66.6036 23.5955 66.5946 23.6007 66.5865C23.7347 66.3881 23.8785 66.1954 24.0266 66.0073C24.3242 65.6285 24.6498 65.271 24.9767 64.9177C25.6228 64.2198 26.2824 63.5352 26.8615 62.7795C27.1823 62.3613 27.464 61.9159 27.6952 61.4424C27.7059 61.4204 27.6695 61.4084 27.6588 61.4301C26.8158 63.1797 25.1316 64.299 23.9295 65.7765C23.7584 65.9869 23.5971 66.2035 23.4491 66.4307C23.3448 66.5907 23.2176 66.7691 23.1497 66.9569C22.4959 67.4906 21.8915 68.0717 21.376 68.7421C21.4195 68.4024 21.4938 68.0633 21.5847 67.7372C21.7139 67.2737 21.8831 66.838 22.1356 66.4262C22.1486 66.4052 22.1161 66.3842 22.1038 66.4052C21.8603 66.8137 21.6386 67.2533 21.4974 67.7078C21.3825 68.0769 21.3286 68.4464 21.3081 68.8255C21.3072 68.8268 21.3062 68.8278 21.3052 68.8291C21.0458 69.1759 20.8154 69.5411 20.6027 69.9167C20.6245 69.8062 20.6453 69.6956 20.6673 69.5851C20.7706 69.0692 20.8845 68.5546 21.0192 68.0462C21.2919 67.0148 21.66 66.0144 22.2697 65.1297C22.2836 65.1094 22.2518 65.0884 22.2379 65.1087C21.6363 65.9818 21.1802 66.9563 20.8524 67.9618C20.6868 68.47 20.5537 68.9865 20.4372 69.5075C20.38 69.7622 20.3287 70.0179 20.2797 70.2742C20.2544 70.4067 20.2255 70.5422 20.2041 70.6786C19.673 71.7969 19.2994 72.9961 19.0049 74.1879C18.4748 76.3331 18.144 78.5395 17.8963 80.7332C17.6363 83.0365 17.5003 85.365 17.5379 87.6832C17.5428 87.9745 17.56 88.265 17.5762 88.5556C17.5805 88.6306 17.6931 88.6416 17.6963 88.5624C17.7473 87.414 17.7772 86.2643 17.8457 85.1168C17.9142 83.9677 18.0142 82.8219 18.1378 81.6777C18.3803 79.4325 18.7303 77.1903 19.2211 74.9849C19.6428 73.0924 20.1892 71.1873 21.228 69.5292C21.7487 68.6978 22.3716 67.9625 23.1037 67.3083C23.8324 66.657 24.6297 66.0858 25.3981 65.4827C26.1626 64.8825 26.8976 64.2289 27.5036 63.4674C28.1578 62.6454 28.6726 61.7236 29.1573 60.7956C29.2797 60.5609 29.4056 60.3279 29.5296 60.0938C29.5416 60.0722 29.5095 60.0509 29.4985 60.0725Z" fill="white"/>
<path d="M28.6016 60.8329C28.2681 61.5336 27.8667 62.2 27.4429 62.8503C27.4328 62.8658 27.4562 62.881 27.4669 62.8661C27.92 62.2297 28.2973 61.5465 28.638 60.8451C28.6487 60.8232 28.6123 60.8109 28.6016 60.8329Z" fill="white"/>
<path d="M0.674423 70.0488C0.674423 70.0488 0.591969 77.4052 5.00981 79.5288C9.427 81.6553 11.7958 79.8833 14.7976 80.5951C14.7976 80.5951 14.7947 80.5944 14.7924 80.5912C14.6759 80.4157 12.5337 77.3496 9.12607 76.5053C5.62076 75.6352 1.73693 73.114 0.674423 70.0488Z" fill="#FAD1A7"/>
<path opacity="0.1" d="M0.674423 70.0488C0.674423 70.0488 0.591969 77.4052 5.00981 79.5288C9.427 81.6553 11.7958 79.8833 14.7976 80.5951C14.7976 80.5951 14.7947 80.5944 14.7924 80.5912C14.6681 80.5308 12.4762 79.4392 9.76981 79.116C6.98419 78.7821 1.66259 76.9746 0.674423 70.0488Z" fill="black"/>
<path d="M15.088 80.7255C14.5608 80.2526 13.9713 79.846 13.3308 79.5408C13.2363 79.4959 13.1386 79.4591 13.0422 79.4183C12.9955 79.3598 12.9461 79.3036 12.8939 79.2493C12.7614 79.1116 12.6234 78.98 12.478 78.8559C12.2004 78.6187 11.9047 78.4021 11.5895 78.2175C10.8575 77.7893 10.0556 77.4893 9.30738 77.0914C9.28563 77.0798 9.26713 77.1134 9.28888 77.1247C9.65895 77.3161 10.017 77.5268 10.3767 77.7359C10.7266 77.9396 11.0847 78.1335 11.4252 78.3523C11.731 78.5488 12.0255 78.7661 12.2995 79.0049C12.377 79.0725 12.452 79.1462 12.5264 79.2208C12.0391 79.0547 11.5385 78.9277 11.0334 78.8258C10.2248 78.6633 9.40671 78.5479 8.59969 78.3766C8.203 78.2922 7.81182 78.1872 7.42747 78.0614C7.06064 77.7676 6.69478 77.4754 6.34776 77.157C5.92834 76.7721 5.54366 76.3538 5.20572 75.8961C5.19111 75.8764 5.15833 75.8971 5.17326 75.9162C5.71831 76.6166 6.30296 77.3225 6.98435 77.9059C6.79412 77.8339 6.60551 77.7569 6.4195 77.6729C4.91843 76.9941 3.58291 75.9155 2.65513 74.5544C2.64117 74.534 2.60839 74.5541 2.62267 74.5744C3.43131 75.7403 4.45746 76.7381 5.66799 77.4854C6.27472 77.86 6.91488 78.1668 7.59238 78.3924C8.37083 78.6516 9.17785 78.8048 9.98358 78.9551C10.7721 79.1022 11.5639 79.2522 12.3248 79.5098C13.0292 79.748 13.6924 80.0939 14.2884 80.538C15.4256 81.3861 16.305 82.5465 16.9355 83.8065C17.7714 85.4766 18.1713 87.3435 18.3933 89.1853C18.4028 89.2642 18.5251 89.2642 18.5196 89.1821C18.3122 86.0904 17.4821 82.8727 15.088 80.7255Z" fill="white"/>
<path d="M9.96241 78.3266C9.74158 77.9754 9.41065 77.7119 9.05375 77.5066C8.63644 77.2666 8.262 77.0076 7.9733 76.6164C7.95868 76.5967 7.92588 76.6174 7.94082 76.6364C8.20777 76.9779 8.52765 77.2579 8.89495 77.4872C9.28075 77.7281 9.66981 77.9641 9.93481 78.3434C9.9465 78.3609 9.97378 78.3444 9.96241 78.3266Z" fill="white"/>
<path d="M12.3052 86.1553L12.5061 90.2008L13.1223 102.56H22.3897L23.0058 90.2008L23.2068 86.1553H12.3052Z" fill="white"/>
<path d="M12.3052 86.1553L12.5061 90.2008H23.0058L23.2068 86.1553H12.3052Z" fill="white"/>
<path d="M11.6554 88.3262H23.8564V84.4672H11.6554V88.3262Z" fill="white"/>
<path d="M105.114 114.181C157.857 114.181 200.613 113.711 200.613 113.131C200.613 112.552 157.857 112.082 105.114 112.082C52.3716 112.082 9.61523 112.552 9.61523 113.131C9.61523 113.711 52.3716 114.181 105.114 114.181Z" fill="#EBEBEB"/>
<path d="M174.276 0H35.9512V93.6525H174.276V0Z" fill="#F17C04"/>
<path d="M174.276 79.8389H35.9512V93.6533H174.276V79.8389Z" fill="#EBEBEB"/>
<path d="M132.068 110.535H78.1597V115.021H132.068V110.535Z" fill="#DBDBDB"/>
<path d="M125.65 110.539H84.5791L85.6228 102.753L85.6744 102.387L85.7708 101.656L85.8192 101.289L85.9192 100.559L85.9328 100.446L85.9672 100.192L86.0672 99.4614L86.1152 99.0942L86.8456 93.6553H123.383L124.072 98.7855L124.107 99.0325L124.22 99.8832L124.251 100.13L124.296 100.446L124.368 100.981L124.399 101.228L124.513 102.081L124.547 102.325L125.65 110.539Z" fill="#EBEBEB"/>
<path d="M107.365 85.8158C107.365 87.0761 106.339 88.0975 105.074 88.0975C103.808 88.0975 102.782 87.0761 102.782 85.8158C102.782 84.5556 103.808 83.5342 105.074 83.5342C106.339 83.5339 107.365 84.5556 107.365 85.8158Z" fill="#F17C04"/>
<path d="M124.295 100.446L86.1143 99.0942L86.8447 93.6553H123.382L124.295 100.446Z" fill="#DBDBDB"/>
<path d="M167.893 6.08984H42.334V73.3418H167.893V6.08984Z" fill="white"/>
<path d="M167.894 6.08887H42.3345V73.3408H167.894V6.08887Z" fill="white"/>
<path d="M165.667 9.13281H42.3345V17.8299H165.667V9.13281Z" fill="#FFE4C7"/>
<path d="M49.4614 12.041H46.4819V12.5181H49.4614V12.041Z" fill="white"/>
<path d="M49.4614 14.1787H46.4819V14.6558H49.4614V14.1787Z" fill="white"/>
<path d="M49.4614 13.123H46.4819V13.6001H49.4614V13.123Z" fill="white"/>
<path d="M146.217 12.0664H78.5952V14.6277H146.217V12.0664Z" fill="white"/>
<path d="M146.243 14.6543H78.5688V12.041H146.243V14.6543H146.243Z" fill="white"/>
<path d="M146.245 12.04H143.618V14.6556H146.245V12.04Z" fill="#455A64"/>
<path d="M145.748 14.0671L145.51 14.2462L145.07 13.6674L144.909 13.4556C144.941 13.443 144.972 13.4256 145.001 13.4036C145.057 13.3612 145.097 13.3062 145.123 13.2461L145.294 13.4708L145.748 14.0671Z" fill="white"/>
<path d="M145.28 12.704C145.062 12.4211 144.654 12.3674 144.37 12.5847C144.086 12.8016 144.032 13.2075 144.25 13.4904C144.446 13.7449 144.795 13.8137 145.07 13.6676C145.101 13.6508 145.131 13.632 145.16 13.6097C145.213 13.569 145.258 13.5221 145.294 13.4707C145.454 13.2459 145.457 12.9345 145.28 12.704ZM145.001 13.4037C144.972 13.4257 144.941 13.4432 144.909 13.4558C144.751 13.5185 144.565 13.4729 144.457 13.3323C144.327 13.1628 144.359 12.9203 144.529 12.7907C144.698 12.661 144.942 12.693 145.073 12.8624C145.16 12.9763 145.175 13.1231 145.123 13.2463C145.098 13.3064 145.057 13.3614 145.001 13.4037Z" fill="white"/>
<path d="M79.2713 12.5703H79.1333V14.1253H79.2713V12.5703Z" fill="#C7C7C7"/>
<path d="M161.149 14.7289C161.022 14.8075 160.881 14.8676 160.728 14.9045C160.332 15.0011 159.934 14.9268 159.613 14.7283C159.299 14.5347 159.057 14.2224 158.962 13.8368C158.771 13.0559 159.251 12.2685 160.035 12.0782C160.818 11.8871 161.609 12.3655 161.801 13.1464C161.955 13.7748 161.673 14.407 161.149 14.7289Z" fill="#455A64"/>
<path d="M160.825 13.3268C160.825 13.5712 160.626 13.7695 160.38 13.7695C160.135 13.7695 159.936 13.5712 159.936 13.3268C159.936 13.082 160.135 12.8838 160.38 12.8838C160.626 12.8838 160.825 13.082 160.825 13.3268Z" fill="white"/>
<path d="M161.149 14.5486V14.7313C161.022 14.8098 160.881 14.87 160.728 14.9069C160.331 15.0035 159.933 14.9292 159.612 14.7306V14.5486C159.612 14.1269 159.956 13.7832 160.381 13.7832C160.805 13.7832 161.149 14.1269 161.149 14.5486Z" fill="white"/>
<path d="M156.088 14.9451H155.072V14.5869C155.072 14.5669 155.06 14.5485 155.041 14.5388C155.004 14.5197 154.967 14.4984 154.931 14.4751C154.913 14.4638 154.891 14.4622 154.874 14.4722L154.561 14.6516L154.054 13.7759L154.366 13.5962C154.383 13.5869 154.393 13.5671 154.392 13.5448C154.391 13.5245 154.39 13.5031 154.39 13.4821C154.39 13.4611 154.391 13.4404 154.392 13.4197C154.393 13.3974 154.383 13.3781 154.366 13.368L154.054 13.1886L154.561 12.3127L154.873 12.4924C154.891 12.5024 154.913 12.5011 154.931 12.4895C154.966 12.4666 155.004 12.4452 155.042 12.4258C155.06 12.4165 155.072 12.3977 155.072 12.378V12.0195H156.088V12.378C156.088 12.398 156.1 12.4165 156.119 12.4261C156.157 12.4452 156.194 12.4669 156.229 12.4898C156.248 12.5021 156.27 12.5024 156.287 12.4924L156.599 12.3127L157.106 13.1886L156.794 13.368C156.777 13.3777 156.767 13.3978 156.768 13.4201C156.769 13.4404 156.77 13.4614 156.77 13.4821C156.77 13.5028 156.77 13.5238 156.768 13.5445C156.767 13.5665 156.777 13.5865 156.794 13.5962L157.106 13.7759L156.599 14.6512L156.286 14.4722C156.269 14.4622 156.247 14.4638 156.229 14.4748C156.194 14.498 156.157 14.5194 156.119 14.5388C156.1 14.5485 156.088 14.5669 156.088 14.5866V14.9451H156.088ZM155.325 14.6933H155.835V14.5869C155.835 14.4722 155.9 14.3678 156.004 14.3144C156.035 14.2993 156.063 14.2828 156.091 14.2647C156.19 14.2003 156.314 14.1971 156.414 14.254L156.507 14.3077L156.761 13.8681L156.668 13.8141C156.568 13.7566 156.51 13.6483 156.516 13.5316L156.518 13.4821L156.516 13.433C156.51 13.3153 156.569 13.2071 156.668 13.1499L156.761 13.0962L156.507 12.6569L156.415 12.7099C156.314 12.7681 156.19 12.7636 156.093 12.6999C156.064 12.6815 156.036 12.665 156.005 12.6498C155.901 12.5962 155.836 12.4918 155.836 12.377V12.2707H155.326V12.377C155.326 12.4921 155.261 12.5965 155.157 12.6495C155.127 12.6647 155.098 12.6812 155.07 12.6996C154.971 12.7636 154.847 12.7678 154.747 12.7096L154.655 12.6566L154.4 13.0959L154.493 13.1492C154.592 13.2061 154.651 13.3147 154.645 13.4324L154.643 13.4818L154.645 13.5316C154.651 13.6492 154.593 13.7575 154.493 13.8144L154.4 13.8681L154.655 14.3073L154.747 14.2537C154.846 14.1965 154.971 14.1997 155.069 14.264C155.098 14.2824 155.126 14.2989 155.156 14.3138C155.261 14.3671 155.325 14.4715 155.325 14.5866V14.6933ZM155.58 14.2298C155.166 14.2298 154.829 13.8942 154.829 13.4821C154.829 13.0697 155.166 12.7342 155.58 12.7342C155.995 12.7342 156.332 13.0697 156.332 13.4821C156.332 13.8942 155.995 14.2298 155.58 14.2298ZM155.58 12.986C155.305 12.986 155.082 13.2084 155.082 13.4821C155.082 13.7556 155.305 13.978 155.58 13.978C155.855 13.978 156.078 13.7556 156.078 13.4821C156.079 13.2087 155.855 12.986 155.58 12.986Z" fill="#455A64"/>
<path d="M72.4742 13.1221H51.9883V14.0966H72.4742V13.1221Z" fill="#455A64"/>
<path d="M167.894 6.08887H42.3345V9.13237H167.894V6.08887Z" fill="#FFC727"/>
<path d="M44.7646 7.61147C44.7646 8.0286 44.4253 8.3665 44.0063 8.3665C43.5874 8.3665 43.248 8.02828 43.248 7.61147C43.248 7.19467 43.5877 6.85645 44.0063 6.85645C44.4253 6.85645 44.7646 7.19435 44.7646 7.61147Z" fill="#FFC727"/>
<path d="M47.8603 7.61147C47.8603 8.0286 47.5207 8.3665 47.1021 8.3665C46.6831 8.3665 46.3438 8.02828 46.3438 7.61147C46.3438 7.19467 46.6834 6.85645 47.1021 6.85645C47.5207 6.85645 47.8603 7.19435 47.8603 7.61147Z" fill="#FFC727"/>
<path d="M50.9556 7.61147C50.9556 8.0286 50.6159 8.3665 50.1973 8.3665C49.7783 8.3665 49.439 8.02828 49.439 7.61147C49.439 7.19467 49.7783 6.85645 50.1973 6.85645C50.6159 6.85645 50.9556 7.19435 50.9556 7.61147Z" fill="#FFC727"/>
<path d="M167.894 9.13281H165.667V73.3416H167.894V9.13281Z" fill="#DBDBDB"/>
<path d="M166.779 35.4977C166.461 35.4977 166.204 35.2414 166.204 34.925V10.1509C166.204 9.83444 166.461 9.57812 166.779 9.57812C167.097 9.57812 167.354 9.83444 167.354 10.1509V34.925C167.354 35.2414 167.097 35.4977 166.779 35.4977Z" fill="#A6A6A6"/>
<path d="M95.9261 65.3193H116.135V49.8814H95.9261V65.3193Z" fill="#FFE4C7"/>
<path opacity="0.6" d="M97.9374 53.2575C97.6923 54.5443 98.8045 55.6513 100.097 55.4076C100.819 55.2712 101.401 54.6917 101.538 53.9728C101.783 52.6861 100.671 51.579 99.3788 51.823C98.6565 51.9588 98.0741 52.5387 97.9374 53.2575Z" fill="white"/>
<path d="M102.593 61.9931H116.134L109.364 53.6846L102.593 61.9931Z" fill="#FFE4C7"/>
<path opacity="0.2" d="M102.593 61.9931H116.134L109.364 53.6846L102.593 61.9931Z" fill="black"/>
<path d="M95.9258 62.0003H107.935L101.93 56.5898L95.9258 62.0003Z" fill="#FFE4C7"/>
<path opacity="0.1" d="M95.9258 62.0003H107.935L101.93 56.5898L95.9258 62.0003Z" fill="black"/>
<path d="M116.134 61.9941H95.9258V65.3202H116.134V61.9941Z" fill="#FFE4C7"/>
<path opacity="0.1" d="M116.134 61.9941H95.9258V65.3202H116.134V61.9941Z" fill="black"/>
<path d="M63.2197 49.8799H48.0405V51.1515H63.2197V49.8799Z" fill="#A6A6A6"/>
<path d="M91.9687 52.8311H48.0405V54.1026H91.9687V52.8311Z" fill="#EBEBEB"/>
<path d="M91.9687 55.6289H48.0405V56.9005H91.9687V55.6289Z" fill="#EBEBEB"/>
<path d="M91.9687 58.4268H48.0405V59.6983H91.9687V58.4268Z" fill="#EBEBEB"/>
<path d="M91.9687 61.2236H48.0405V62.4952H91.9687V61.2236Z" fill="#EBEBEB"/>
<path d="M91.9687 64.0215H48.0405V65.2931H91.9687V64.0215Z" fill="#EBEBEB"/>
<path d="M116.134 24.5947H84.9487V27.9967H116.134V24.5947Z" fill="#FFC727"/>
<path d="M116.134 30.3428H84.9487V31.6143H116.134V30.3428Z" fill="#EBEBEB"/>
<path d="M116.134 33.1396H84.9487V34.4112H116.134V33.1396Z" fill="#EBEBEB"/>
<path d="M116.134 35.9375H84.9487V37.2091H116.134V35.9375Z" fill="#EBEBEB"/>
<path d="M116.134 38.7354H84.9487V40.0069H116.134V38.7354Z" fill="#EBEBEB"/>
<path d="M116.134 42.4561H84.9487V43.7276H116.134V42.4561Z" fill="#EBEBEB"/>
<path d="M116.134 45.2539H84.9487V46.5255H116.134V45.2539Z" fill="#EBEBEB"/>
<path d="M81.1287 24.5947H48.0405V46.4058H81.1287V24.5947Z" stroke="#DBDBDB" stroke-width="0.75" stroke-miterlimit="10" stroke-dasharray="2 2"/>
<path d="M64.5845 38.4734C66.2336 38.4734 67.5705 37.1424 67.5705 35.5004C67.5705 33.8584 66.2336 32.5273 64.5845 32.5273C62.9355 32.5273 61.5986 33.8584 61.5986 35.5004C61.5986 37.1424 62.9355 38.4734 64.5845 38.4734Z" fill="#46A7D7"/>
<path d="M64.8684 33.7334H64.3013V37.2692H64.8684V33.7334Z" fill="white"/>
<path d="M66.3599 35.7844V35.2197H62.8088V35.7844H66.3599Z" fill="white"/>
<path d="M161.077 46.6943H120.207V65.319H161.077V46.6943Z" stroke="#DBDBDB" stroke-width="0.75" stroke-miterlimit="10" stroke-dasharray="2 2"/>
<path d="M140.642 58.9803C142.291 58.9803 143.628 57.6492 143.628 56.0072C143.628 54.3653 142.291 53.0342 140.642 53.0342C138.993 53.0342 137.656 54.3653 137.656 56.0072C137.656 57.6492 138.993 58.9803 140.642 58.9803Z" fill="#46A7D7"/>
<path d="M140.926 54.2402H140.358V57.776H140.926V54.2402Z" fill="white"/>
<path d="M142.417 56.2903V55.7256H138.866V56.2903H142.417Z" fill="white"/>
<path d="M131.437 35.4863V35.8097H131.112" stroke="#DBDBDB" stroke-width="0.75" stroke-miterlimit="10"/>
<path d="M130.49 35.8096H120.843" stroke="#DBDBDB" stroke-width="0.75" stroke-miterlimit="10" stroke-dasharray="1.92 1.92"/>
<path d="M120.532 35.8097H120.208V35.4863" stroke="#DBDBDB" stroke-width="0.75" stroke-miterlimit="10"/>
<path d="M120.208 34.8671V25.2617" stroke="#DBDBDB" stroke-width="0.75" stroke-miterlimit="10" stroke-dasharray="1.92 1.92"/>
<path d="M120.208 24.9513V24.6279H120.532" stroke="#DBDBDB" stroke-width="0.75" stroke-miterlimit="10"/>
<path d="M121.155 24.6279H130.802" stroke="#DBDBDB" stroke-width="0.75" stroke-miterlimit="10" stroke-dasharray="1.92 1.92"/>
<path d="M131.112 24.6279H131.437V24.9513" stroke="#DBDBDB" stroke-width="0.75" stroke-miterlimit="10"/>
<path d="M131.438 25.5713V35.1766" stroke="#DBDBDB" stroke-width="0.75" stroke-miterlimit="10" stroke-dasharray="1.92 1.92"/>
<path d="M120.217 24.6279C121.163 25.5326 122.103 26.4516 123.042 27.3728L125.851 30.1525L128.648 32.9627L130.041 34.3787L131.428 35.8087L130.013 34.4434L128.603 33.0642L125.794 30.2841L122.998 27.4736C122.068 26.5311 121.14 25.5866 120.217 24.6279Z" fill="#DBDBDB"/>
<path d="M131.428 24.6279C130.506 25.5869 129.577 26.5311 128.647 27.4733L125.851 30.2838L123.042 33.0638L121.633 34.443L120.217 35.8084L121.604 34.3784L122.998 32.9623L125.794 30.1522L128.603 27.3725C129.542 26.4513 130.482 25.5323 131.428 24.6279Z" fill="#DBDBDB"/>
<path d="M142.383 30.2472C142.383 31.2016 141.606 31.9791 140.642 31.9791C139.678 31.9791 138.901 31.2018 138.901 30.2472C138.901 29.2929 139.678 28.5156 140.642 28.5156C141.606 28.5156 142.383 29.2929 142.383 30.2472Z" fill="white" stroke="#FFE4C7"/>
<mask id="path-105-inside-1_690_13603" fill="white">
<path d="M140.854 28.9209H140.429V31.5759H140.854V28.9209Z"/>
</mask>
<path d="M140.854 28.9209H140.429V31.5759H140.854V28.9209Z" fill="white"/>
<path d="M140.429 28.9209V27.9209H139.429V28.9209H140.429ZM140.854 28.9209H141.854V27.9209H140.854V28.9209ZM140.854 31.5759V32.5759H141.854V31.5759H140.854ZM140.429 31.5759H139.429V32.5759H140.429V31.5759ZM140.429 29.9209H140.854V27.9209H140.429V29.9209ZM139.854 28.9209V31.5759H141.854V28.9209H139.854ZM140.854 30.5759H140.429V32.5759H140.854V30.5759ZM141.429 31.5759V28.9209H139.429V31.5759H141.429Z" fill="#FFE4C7" mask="url(#path-105-inside-1_690_13603)"/>
<mask id="path-107-inside-2_690_13603" fill="white">
<path d="M141.974 30.4601V30.0361H139.308V30.4601H141.974Z"/>
</mask>
<path d="M141.974 30.4601V30.0361H139.308V30.4601H141.974Z" fill="white"/>
<path d="M141.974 30.0361H142.974V29.0361H141.974V30.0361ZM141.974 30.4601V31.4601H142.974V30.4601H141.974ZM139.308 30.4601H138.308V31.4601H139.308V30.4601ZM139.308 30.0361V29.0361H138.308V30.0361H139.308ZM140.974 30.0361V30.4601H142.974V30.0361H140.974ZM141.974 29.4601H139.308V31.4601H141.974V29.4601ZM140.308 30.4601V30.0361H138.308V30.4601H140.308ZM139.308 31.0361H141.974V29.0361H139.308V31.0361Z" fill="#FFE4C7" mask="url(#path-107-inside-2_690_13603)"/>
<path d="M146.257 35.5127V35.836H145.933" stroke="#FFE4C7" stroke-width="0.75" stroke-miterlimit="10"/>
<path d="M145.31 35.8359H135.664" stroke="#FFE4C7" stroke-width="0.75" stroke-miterlimit="10" stroke-dasharray="1.92 1.92"/>
<path d="M135.352 35.836H135.027V35.5127" stroke="#FFE4C7" stroke-width="0.75" stroke-miterlimit="10"/>
<path d="M135.027 34.8934V25.2881" stroke="#FFE4C7" stroke-width="0.75" stroke-miterlimit="10" stroke-dasharray="1.92 1.92"/>
<path d="M135.027 24.9776V24.6543H135.352" stroke="#FFE4C7" stroke-width="0.75" stroke-miterlimit="10"/>
<path d="M135.974 24.6543H145.621" stroke="#FFE4C7" stroke-width="0.75" stroke-miterlimit="10" stroke-dasharray="1.92 1.92"/>
<path d="M145.933 24.6543H146.257V24.9776" stroke="#FFE4C7" stroke-width="0.75" stroke-miterlimit="10"/>
<path d="M146.257 25.5977V35.203" stroke="#FFE4C7" stroke-width="0.75" stroke-miterlimit="10" stroke-dasharray="1.92 1.92"/>
<path d="M149.865 24.6572C150.811 25.5619 151.751 26.4809 152.69 27.4021L155.499 30.1818L158.295 32.9923L159.688 34.4083L161.076 35.8383L159.66 34.473L158.251 33.0938L155.441 30.3137L152.645 27.5032C151.716 26.5604 150.787 25.6159 149.865 24.6572Z" fill="#DBDBDB"/>
<path d="M161.076 24.6572C160.154 25.6159 159.225 26.5604 158.295 27.5026L155.499 30.3131L152.69 33.0931L151.281 34.4723L149.865 35.8377L151.252 34.4077L152.646 32.9916L155.442 30.1812L158.251 27.4014C159.19 26.4809 160.13 25.5619 161.076 24.6572Z" fill="#DBDBDB"/>
<path d="M161.086 35.4873V35.8107H160.762" stroke="#DBDBDB" stroke-width="0.75" stroke-miterlimit="10"/>
<path d="M160.14 35.8105H150.493" stroke="#DBDBDB" stroke-width="0.75" stroke-miterlimit="10" stroke-dasharray="1.92 1.92"/>
<path d="M150.181 35.8107H149.856V35.4873" stroke="#DBDBDB" stroke-width="0.75" stroke-miterlimit="10"/>
<path d="M149.856 34.868V25.2627" stroke="#DBDBDB" stroke-width="0.75" stroke-miterlimit="10" stroke-dasharray="1.92 1.92"/>
<path d="M149.856 24.9523V24.6289H150.181" stroke="#DBDBDB" stroke-width="0.75" stroke-miterlimit="10"/>
<path d="M150.803 24.6289H160.45" stroke="#DBDBDB" stroke-width="0.75" stroke-miterlimit="10" stroke-dasharray="1.92 1.92"/>
<path d="M160.762 24.6289H161.086V24.9523" stroke="#DBDBDB" stroke-width="0.75" stroke-miterlimit="10"/>
<path d="M161.086 25.5723V35.1776" stroke="#DBDBDB" stroke-width="0.75" stroke-miterlimit="10" stroke-dasharray="1.92 1.92"/>
<path d="M161.15 38.7354H120.206V43.7282H161.15V38.7354Z" fill="#FFE4C7"/>
<path d="M165.341 41.9003C165.494 41.9281 166.209 42.0603 167.253 42.2559C167.728 41.6498 168.351 40.5421 168.437 38.8455C168.45 38.5643 168.847 40.2554 168.224 42.4375C170.242 42.8135 172.988 43.3229 175.391 43.7456C175.59 42.817 175.817 41.9653 175.817 41.9653C175.789 42.6535 175.835 43.2854 175.913 43.8397C176.241 43.9002 176.564 43.9532 176.873 44.0068C177.039 42.542 177.701 40.0499 177.701 40.0499C177.631 41.8467 177.967 43.3445 178.24 44.2395C179.768 44.492 180.778 44.63 180.725 44.5476C178.842 41.5335 180.784 40.2865 180.505 37.8545C180.17 34.9403 177.829 34.108 178.242 32.0267C178.574 30.3327 179.29 27.2775 177.237 26.2681C177.237 26.2681 175.792 24.0679 172.861 24.6769C169.234 25.4274 169.73 30.897 169.323 31.9275C168.742 33.3998 167.925 33.8197 167.097 35.472C166.255 37.1434 166.869 38.4425 166.766 39.6517C166.658 40.8586 164.958 41.8351 165.341 41.9003Z" fill="#263238"/>
<path d="M180.854 44.1808C180.622 43.6595 180.429 43.1181 180.355 42.5702C180.264 42.0226 180.427 41.5035 180.622 40.9718C180.816 40.4434 181.032 39.9055 181.177 39.3347C181.316 38.7652 181.393 38.1556 181.294 37.5544C181.205 36.9535 180.959 36.3814 180.62 35.8949C180.286 35.4023 179.879 34.9837 179.488 34.5723C179.102 34.1572 178.716 33.7467 178.456 33.2561C178.187 32.7712 178.068 32.2072 178.091 31.6348C177.976 32.1949 178.032 32.8026 178.267 33.3453C178.497 33.8909 178.865 34.3589 179.233 34.7966C179.601 35.2368 179.975 35.6599 180.27 36.1231C180.562 36.5856 180.774 37.0892 180.845 37.6203C180.918 38.1501 180.875 38.6957 180.747 39.2329C180.627 39.7727 180.436 40.304 180.27 40.8574C180.189 41.1347 180.112 41.4182 180.073 41.7159C180.033 42.0142 180.059 42.3271 180.125 42.6122C180.271 43.1846 180.529 43.7086 180.854 44.1808Z" fill="#263238"/>
<path d="M170.611 26.3174C170.24 26.9199 170.027 27.6038 169.816 28.2742C169.616 28.951 169.45 29.6356 169.292 30.3189L169.05 31.3377C168.968 31.6781 168.872 31.9945 168.733 32.2977C168.46 32.908 168.011 33.4061 167.514 33.9064C167.271 34.1618 167.023 34.4281 166.808 34.7258C166.592 35.0225 166.406 35.3435 166.262 35.6816C166.127 36.0252 166.019 36.3655 165.939 36.7198C165.856 37.0728 165.816 37.4413 165.823 37.8049C165.827 38.1698 165.873 38.5218 165.903 38.8644C165.935 39.2064 165.935 39.5519 165.9 39.8894C165.843 40.5601 165.384 41.1648 164.774 41.5113C165.429 41.255 165.977 40.6551 166.117 39.9233C166.185 39.5674 166.206 39.2083 166.2 38.8502C166.196 38.4927 166.163 38.1462 166.178 37.8094C166.202 37.1403 166.397 36.4703 166.66 35.8529C166.802 35.5497 166.967 35.2598 167.169 34.9912C167.368 34.7213 167.602 34.4734 167.846 34.2226C168.087 33.9691 168.337 33.7096 168.561 33.4197C168.785 33.1304 168.985 32.8133 169.13 32.4732C169.274 32.1332 169.37 31.7728 169.441 31.4289C169.518 31.0824 169.581 30.7369 169.643 30.3913C169.77 29.7016 169.888 29.0121 170.033 28.3288C170.171 27.6439 170.335 26.9642 170.611 26.3174Z" fill="#263238"/>
<path d="M159.315 122.963C159.954 123.169 178.176 122.934 178.863 122.485C179.127 122.32 179.248 119.674 179.301 116.473C179.301 116.44 179.302 116.406 179.302 116.373C179.314 115.713 179.323 115.034 179.324 114.346C179.324 114.251 179.324 114.156 179.327 114.061C179.353 109.442 179.279 104.649 179.279 104.649L167.09 104.771L167.457 114.095L167.471 114.464L167.545 116.394L167.552 116.592C167.552 116.592 160.618 119.788 159.913 120.361C159.215 120.931 158.676 122.761 159.315 122.963Z" fill="#FFBE9D"/>
<path d="M164.791 117.833C164.837 117.819 164.862 117.806 164.865 117.792C164.865 117.792 164.837 117.806 164.791 117.833Z" fill="#46A7D7"/>
<path d="M159.316 122.963C159.954 123.168 178.175 122.935 178.864 122.486C179.098 122.339 179.221 120.232 179.282 117.518C175.943 118.212 163.003 120.818 162.649 119.716C162.51 119.283 163.617 118.533 164.316 118.112C162.404 119.019 160.286 120.057 159.912 120.363C159.216 120.932 158.675 122.76 159.316 122.963Z" fill="#263238"/>
<path d="M183.019 52.3867C183.019 52.3867 180.283 83.0439 179.837 85.3837C179.734 85.9164 179.67 88.8141 179.628 92.5387C179.534 100.665 179.59 115.322 179.59 115.322H166.746C166.746 115.322 167.127 89.927 167.695 85.2531C168.264 80.5767 171.899 52.3867 171.899 52.3867H183.019Z" fill="#263238"/>
<path d="M167.327 113.095C169.331 113.053 168.755 113.037 170.76 113.018C171.741 113.008 178.187 112.953 179.103 113.103C179.123 113.107 179.123 113.141 179.103 113.144C178.186 113.295 171.741 113.239 170.76 113.23C168.755 113.211 169.331 113.195 167.327 113.153C167.289 113.152 167.289 113.095 167.327 113.095Z" fill="#37474F"/>
<path d="M189.69 123.994C190.353 123.89 206.504 115.486 206.914 114.777C207.074 114.511 205.982 112.096 204.577 109.216C204.562 109.186 204.548 109.156 204.533 109.126C204.245 108.532 198.477 98.8486 198.477 98.8486L188.544 104.656L194.052 114.432L194.149 114.606C194.149 114.606 189.412 120.576 189.043 121.403C188.678 122.226 189.027 124.101 189.69 123.994Z" fill="#FFBE9D"/>
<path d="M189.691 123.995C190.355 123.892 206.503 115.487 206.914 114.777C207.051 114.55 206.275 112.753 205.17 110.442C202.855 112.187 191.679 120.544 190.862 119.675C190.69 119.491 190.819 119.058 191.046 118.593C190.066 119.882 189.193 121.066 189.042 121.403C188.679 122.226 189.028 124.1 189.691 123.995Z" fill="#263238"/>
<path d="M192.623 114.074L204.393 106.832C204.393 106.832 190.777 87.4329 190.712 85.7098C190.616 83.1475 189.382 72.5738 188.346 64.0128C188.346 64.0128 190.31 59.3777 186.633 52.376H171.886C171.886 52.376 172.875 59.0387 174.567 63.2632C174.567 63.2632 175.855 63.6611 177.845 64.7536C177.845 64.7536 179.313 83.8415 179.368 86.2227C179.477 90.9289 192.623 114.074 192.623 114.074Z" fill="#263238"/>
<path d="M191.903 111.368C193.601 110.307 193.099 110.588 194.809 109.546C195.646 109.037 201.148 105.693 202.012 105.354C202.032 105.346 202.049 105.375 202.033 105.389C201.325 105.987 195.765 109.235 194.919 109.728C193.189 110.737 193.674 110.428 191.933 111.417C191.9 111.436 191.871 111.388 191.903 111.368Z" fill="#37474F"/>
<path d="M174.007 62.9733C175.336 63.4287 176.619 64.0755 177.845 64.7533C177.893 64.7798 177.862 64.8542 177.81 64.8319C176.517 64.2788 175.198 63.75 173.937 63.1268C173.838 63.078 173.905 62.9384 174.007 62.9733Z" fill="#37474F"/>
<path d="M175.814 60.8464C175.686 60.079 175.583 59.3094 175.517 58.5343C175.394 57.0875 175.387 55.6408 175.564 54.1989C175.57 54.1514 175.638 54.1552 175.638 54.2031C175.637 56.2058 175.689 58.2046 175.99 60.1883C176.134 61.1415 176.617 62.5766 175.615 62.7233C174.595 62.8727 173.936 60.4688 173.811 59.8114C173.464 57.9764 173.45 55.9954 173.596 54.1387C173.599 54.0941 173.678 54.0844 173.678 54.1323C173.667 55.6608 173.765 57.0055 173.894 58.4341C173.954 59.0974 174.49 62.7621 175.645 62.4951C175.839 62.4505 175.937 62.2608 175.967 61.9705C176.004 61.6215 175.872 61.1935 175.814 60.8464Z" fill="#37474F"/>
<path d="M175.615 62.5943C175.719 62.8403 175.803 63.0968 175.875 63.3541C175.93 63.5543 176.006 63.7703 175.983 63.9789C175.978 64.0193 175.924 64.0232 175.903 63.9957C175.768 63.8246 175.71 63.5905 175.634 63.3878C175.546 63.1527 175.454 62.9192 175.372 62.6819C175.318 62.5244 175.55 62.4423 175.615 62.5943Z" fill="#37474F"/>
<path d="M174.379 39.6406C173.865 42.0535 171.271 50.2247 168.707 52.0655C166.868 53.3855 160.556 54.6086 155.698 54.5507C154.012 54.5307 155.107 47.4078 156.693 46.5334C157.645 46.0085 164.74 46.3776 165.843 45.9422C166.668 45.6164 168.574 41.5816 172.007 37.9466C173.89 35.9539 175.07 36.3944 174.379 39.6406Z" fill="#FFBE9D"/>
<path d="M156.125 54.5538C155.161 54.5486 149.725 54.526 148.522 54.1378C147.319 53.7496 143.939 52.3833 144.144 51.436C144.349 50.4883 145.371 50.8099 145.371 50.8099C145.371 50.8099 144.035 50.0079 144.329 49.0728C144.622 48.1381 146.195 48.6898 146.195 48.6898C146.195 48.6898 144.884 47.7667 145.244 46.8549C145.604 45.9434 147.092 46.7618 147.092 46.7618C147.092 46.7618 145.854 45.9734 146.468 45.3464C147.206 44.5923 149.324 46.3028 150.684 46.6318C150.993 46.7065 157.054 47.703 157.054 47.703L156.125 54.5538Z" fill="#FFBE9D"/>
<path d="M146.963 46.6947C148.524 47.9489 149.424 48.2288 151.386 48.4563C151.424 48.4608 151.426 48.5187 151.386 48.5174C149.445 48.4686 148.264 48.2798 146.898 46.7668C146.831 46.6928 146.889 46.6349 146.963 46.6947Z" fill="#263238"/>
<path d="M146.074 48.5887C147.809 49.7504 148.784 50.0626 150.82 50.4512C150.849 50.4567 150.842 50.5058 150.813 50.5026C148.783 50.2876 147.609 50.0723 146.029 48.685C145.957 48.6223 145.994 48.5357 146.074 48.5887Z" fill="#263238"/>
<path d="M145.475 50.8264C147.237 51.8304 148.29 52.2186 150.316 52.343C150.364 52.3459 150.364 52.4157 150.316 52.4173C148.238 52.4901 146.92 52.0156 145.451 50.883C145.35 50.8057 145.364 50.7634 145.475 50.8264Z" fill="#263238"/>
<path d="M158.571 47.1286C158.571 47.1286 156.489 45.357 155.448 44.9171C154.407 44.4772 149.923 44.2593 149.821 45.2209C149.689 46.4625 152.253 47.096 153.549 47.2431C153.549 47.2431 153.241 50.1149 154.982 50.966C156.723 51.817 158.571 47.1286 158.571 47.1286Z" fill="#FFBE9D"/>
<path d="M149.896 45.5749C150.596 46.7938 152.311 46.8772 153.557 47.1132C153.652 47.131 153.671 47.2134 153.643 47.2829C153.595 48.4953 153.881 50.2194 154.907 50.9922C154.937 51.0149 154.909 51.0604 154.875 51.0417C153.662 50.3613 153.242 48.6902 153.381 47.3659C152.098 47.1439 150.383 46.9849 149.884 45.5811C149.881 45.573 149.892 45.5672 149.896 45.5749Z" fill="#263238"/>
<path d="M169.914 52.4842L166.779 44.4692C166.779 44.4692 169.182 40.7756 171.778 37.7334C174.375 34.6912 175.845 34.7468 174.765 39.6169C173.685 44.4869 171.872 50.2168 169.914 52.4842Z" fill="#46A7D7"/>
<path d="M169.914 52.4842L166.779 44.4692C166.779 44.4692 169.182 40.7756 171.778 37.7334C174.375 34.6912 175.845 34.7468 174.765 39.6169C173.685 44.4869 171.872 50.2168 169.914 52.4842Z" fill="#46A7D7"/>
<path opacity="0.1" d="M167.465 46.2272L169.913 52.4829C171.872 50.2181 173.686 44.4863 174.765 39.6172C175.386 36.8248 175.165 35.6134 174.374 35.6667L167.465 46.2272Z" fill="black"/>
<path d="M167.793 44.1304C168.288 45.2155 168.74 46.3112 169.157 47.4279C169.367 47.9884 169.568 48.5518 169.762 49.1178C169.96 49.6951 170.119 50.2833 170.302 50.8648C170.311 50.8936 170.267 50.9043 170.257 50.8765C169.861 49.7465 169.421 48.6278 169.004 47.5052C168.588 46.3852 168.17 45.2662 167.755 44.1462C167.747 44.1242 167.784 44.109 167.793 44.1304Z" fill="#263238"/>
<path d="M171.027 53.3713L187.336 53.1858C187.336 53.1858 182.208 39.1846 178.247 36.0021C176.445 34.554 174.948 35.023 173.802 36.2771C173.516 36.5903 170.216 42.2268 170.125 44.043C170.045 45.6481 171.566 47.2045 171.566 47.2045L171.027 53.3713Z" fill="#46A7D7"/>
<path d="M176.802 35.6453C176.802 35.8874 176.605 36.0836 176.362 36.0836C176.118 36.0836 175.921 35.8874 175.921 35.6453C175.921 35.4032 176.118 35.207 176.362 35.207C176.604 35.207 176.802 35.4032 176.802 35.6453ZM173.616 39.9388C173.372 39.9388 173.175 40.135 173.175 40.377C173.175 40.6191 173.372 40.8153 173.616 40.8153C173.859 40.8153 174.056 40.6191 174.056 40.377C174.056 40.135 173.859 39.9388 173.616 39.9388ZM176.361 39.9388C176.118 39.9388 175.921 40.135 175.921 40.377C175.921 40.6191 176.118 40.8153 176.361 40.8153C176.604 40.8153 176.801 40.6191 176.801 40.377C176.801 40.135 176.604 39.9388 176.361 39.9388ZM179.107 39.9388C178.864 39.9388 178.667 40.135 178.667 40.377C178.667 40.6191 178.864 40.8153 179.107 40.8153C179.35 40.8153 179.547 40.6191 179.547 40.377C179.547 40.135 179.35 39.9388 179.107 39.9388ZM181.447 40.2164C181.424 40.2649 181.414 40.3198 181.414 40.378C181.414 40.5978 181.573 40.7756 181.784 40.8079C181.674 40.6075 181.56 40.4103 181.447 40.2164ZM172.568 38.3352C172.611 38.29 172.64 38.2383 172.656 38.1768C172.63 38.2286 172.601 38.2803 172.568 38.3352ZM174.988 37.6018C174.745 37.6018 174.548 37.798 174.548 38.0401C174.548 38.2822 174.745 38.4784 174.988 38.4784C175.232 38.4784 175.429 38.2822 175.429 38.0401C175.429 37.798 175.232 37.6018 174.988 37.6018ZM177.734 37.6018C177.491 37.6018 177.294 37.798 177.294 38.0401C177.294 38.2822 177.491 38.4784 177.734 38.4784C177.978 38.4784 178.175 38.2822 178.175 38.0401C178.175 37.798 177.978 37.6018 177.734 37.6018ZM180.044 38.0217C180.041 38.0282 180.041 38.0346 180.041 38.0411C180.041 38.2383 180.168 38.3999 180.346 38.4548C180.246 38.3061 180.145 38.1607 180.044 38.0217ZM170.87 44.6705C170.627 44.6705 170.43 44.8667 170.43 45.1088C170.43 45.3509 170.627 45.5471 170.87 45.5471C171.113 45.5471 171.31 45.3509 171.31 45.1088C171.31 44.8667 171.113 44.6705 170.87 44.6705ZM173.616 44.6705C173.372 44.6705 173.175 44.8667 173.175 45.1088C173.175 45.3509 173.372 45.5471 173.616 45.5471C173.859 45.5471 174.056 45.3509 174.056 45.1088C174.056 44.8667 173.859 44.6705 173.616 44.6705ZM176.361 44.6705C176.118 44.6705 175.921 44.8667 175.921 45.1088C175.921 45.3509 176.118 45.5471 176.361 45.5471C176.604 45.5471 176.801 45.3509 176.801 45.1088C176.802 44.8667 176.604 44.6705 176.361 44.6705ZM179.107 44.6705C178.864 44.6705 178.667 44.8667 178.667 45.1088C178.667 45.3509 178.864 45.5471 179.107 45.5471C179.35 45.5471 179.547 45.3509 179.547 45.1088C179.547 44.8667 179.35 44.6705 179.107 44.6705ZM181.853 44.6705C181.61 44.6705 181.413 44.8667 181.413 45.1088C181.413 45.3509 181.61 45.5471 181.853 45.5471C182.096 45.5471 182.293 45.3509 182.293 45.1088C182.293 44.8667 182.096 44.6705 181.853 44.6705ZM172.243 42.3339C172 42.3339 171.803 42.5301 171.803 42.7722C171.803 43.0143 172 43.2105 172.243 43.2105C172.486 43.2105 172.683 43.0143 172.683 42.7722C172.683 42.5301 172.486 42.3339 172.243 42.3339ZM174.988 42.3339C174.745 42.3339 174.548 42.5301 174.548 42.7722C174.548 43.0143 174.745 43.2105 174.988 43.2105C175.232 43.2105 175.429 43.0143 175.429 42.7722C175.429 42.5301 175.232 42.3339 174.988 42.3339ZM177.734 42.3339C177.491 42.3339 177.294 42.5301 177.294 42.7722C177.294 43.0143 177.491 43.2105 177.734 43.2105C177.978 43.2105 178.175 43.0143 178.175 42.7722C178.175 42.5301 177.978 42.3339 177.734 42.3339ZM180.48 42.3339C180.237 42.3339 180.04 42.5301 180.04 42.7722C180.04 43.0143 180.237 43.2105 180.48 43.2105C180.723 43.2105 180.92 43.0143 180.92 42.7722C180.92 42.5301 180.723 42.3339 180.48 42.3339ZM182.794 42.6988C182.788 42.7214 182.784 42.7473 182.784 42.7731C182.784 42.9444 182.882 43.0899 183.025 43.1578C182.947 43.0026 182.869 42.8507 182.794 42.6988ZM173.616 49.4025C173.372 49.4025 173.175 49.5987 173.175 49.8408C173.175 50.0829 173.372 50.2791 173.616 50.2791C173.859 50.2791 174.056 50.0829 174.056 49.8408C174.056 49.5987 173.859 49.4025 173.616 49.4025ZM176.361 49.4025C176.118 49.4025 175.921 49.5987 175.921 49.8408C175.921 50.0829 176.118 50.2791 176.361 50.2791C176.604 50.2791 176.801 50.0829 176.801 49.8408C176.802 49.5987 176.604 49.4025 176.361 49.4025ZM179.107 49.4025C178.864 49.4025 178.667 49.5987 178.667 49.8408C178.667 50.0829 178.864 50.2791 179.107 50.2791C179.35 50.2791 179.547 50.0829 179.547 49.8408C179.547 49.5987 179.35 49.4025 179.107 49.4025ZM181.853 49.4025C181.61 49.4025 181.413 49.5987 181.413 49.8408C181.413 50.0829 181.61 50.2791 181.853 50.2791C182.096 50.2791 182.293 50.0829 182.293 49.8408C182.293 49.5987 182.096 49.4025 181.853 49.4025ZM184.599 49.4025C184.356 49.4025 184.158 49.5987 184.158 49.8408C184.158 50.0829 184.356 50.2791 184.599 50.2791C184.842 50.2791 185.039 50.0829 185.039 49.8408C185.039 49.5987 184.842 49.4025 184.599 49.4025ZM172.243 47.0656C172 47.0656 171.803 47.2618 171.803 47.5039C171.803 47.746 172 47.9422 172.243 47.9422C172.486 47.9422 172.683 47.746 172.683 47.5039C172.683 47.2618 172.486 47.0656 172.243 47.0656ZM174.988 47.0656C174.745 47.0656 174.548 47.2618 174.548 47.5039C174.548 47.746 174.745 47.9422 174.988 47.9422C175.232 47.9422 175.429 47.746 175.429 47.5039C175.429 47.2618 175.232 47.0656 174.988 47.0656ZM177.734 47.0656C177.491 47.0656 177.294 47.2618 177.294 47.5039C177.294 47.746 177.491 47.9422 177.734 47.9422C177.978 47.9422 178.175 47.746 178.175 47.5039C178.175 47.2618 177.978 47.0656 177.734 47.0656ZM180.48 47.0656C180.237 47.0656 180.04 47.2618 180.04 47.5039C180.04 47.746 180.237 47.9422 180.48 47.9422C180.723 47.9422 180.92 47.746 180.92 47.5039C180.92 47.2618 180.723 47.0656 180.48 47.0656ZM183.226 47.0656C182.983 47.0656 182.786 47.2618 182.786 47.5039C182.786 47.746 182.983 47.9422 183.226 47.9422C183.469 47.9422 183.666 47.746 183.666 47.5039C183.666 47.2618 183.469 47.0656 183.226 47.0656ZM172.243 51.7973C172 51.7973 171.803 51.9935 171.803 52.2356C171.803 52.4777 172 52.6739 172.243 52.6739C172.486 52.6739 172.683 52.4777 172.683 52.2356C172.683 51.9935 172.486 51.7973 172.243 51.7973ZM174.988 51.7973C174.745 51.7973 174.548 51.9935 174.548 52.2356C174.548 52.4777 174.745 52.6739 174.988 52.6739C175.232 52.6739 175.429 52.4777 175.429 52.2356C175.429 51.9935 175.232 51.7973 174.988 51.7973ZM177.734 51.7973C177.491 51.7973 177.294 51.9935 177.294 52.2356C177.294 52.4777 177.491 52.6739 177.734 52.6739C177.978 52.6739 178.175 52.4777 178.175 52.2356C178.175 51.9935 177.978 51.7973 177.734 51.7973ZM180.48 51.7973C180.237 51.7973 180.04 51.9935 180.04 52.2356C180.04 52.4777 180.237 52.6739 180.48 52.6739C180.723 52.6739 180.92 52.4777 180.92 52.2356C180.92 51.9935 180.723 51.7973 180.48 51.7973ZM183.226 51.7973C182.983 51.7973 182.786 51.9935 182.786 52.2356C182.786 52.4777 182.983 52.6739 183.226 52.6739C183.469 52.6739 183.666 52.4777 183.666 52.2356C183.666 51.9935 183.469 51.7973 183.226 51.7973ZM185.972 51.7973C185.729 51.7973 185.532 51.9935 185.532 52.2356C185.532 52.4777 185.729 52.6739 185.972 52.6739C186.215 52.6739 186.412 52.4777 186.412 52.2356C186.412 51.9935 186.215 51.7973 185.972 51.7973Z" fill="#46A7D7"/>
<path d="M174.085 46.3177C174.858 46.4204 175.633 46.5501 176.384 46.766C176.757 46.8733 177.123 46.9974 177.489 47.1296C177.671 47.1955 177.854 47.255 178.038 47.3138C178.228 47.3743 178.431 47.4312 178.63 47.4438C178.648 47.4447 178.647 47.4716 178.629 47.4716C178.435 47.4709 178.249 47.47 178.056 47.4435C177.872 47.4186 177.691 47.3736 177.512 47.3242C177.133 47.2188 176.758 47.096 176.379 46.9867C175.615 46.7663 174.852 46.5462 174.073 46.381C174.037 46.3736 174.048 46.3128 174.085 46.3177Z" fill="#46A7D7"/>
<path d="M172.141 46.9457C172.78 46.9004 173.433 46.8846 174.074 46.9118C174.396 46.9253 174.715 46.9577 175.036 46.9984C175.189 47.0178 175.341 47.0401 175.494 47.064C175.661 47.0905 175.825 47.1393 175.993 47.1632C176.01 47.1658 176.009 47.193 175.992 47.191C175.833 47.1733 175.67 47.1813 175.51 47.1729C175.35 47.1642 175.19 47.1542 175.029 47.1455C174.708 47.128 174.387 47.1138 174.066 47.0934C173.423 47.052 172.782 47.0175 172.138 46.9987C172.103 46.9974 172.107 46.9483 172.141 46.9457Z" fill="#46A7D7"/>
<path d="M176.768 35.7647C176.744 36.0679 175.631 38.1799 174.278 38.3205C173.837 38.3654 173.483 35.981 173.483 35.981L173.417 35.811L172.487 33.4297L175.111 31.1319L175.494 30.8223C175.494 30.8223 175.705 31.4904 175.96 32.3253C175.972 32.3641 175.984 32.4025 175.996 32.4442C176.012 32.4911 176.027 32.535 176.04 32.5793C176.079 32.7034 176.119 32.8305 176.156 32.9578C176.185 33.0545 176.214 33.1485 176.24 33.2513C176.269 33.3538 176.295 33.4537 176.324 33.5561C176.59 34.5711 176.777 35.6361 176.768 35.7647Z" fill="#FFBE9D"/>
<path d="M175.96 32.3249C175.55 34.3943 174.098 35.4321 173.416 35.811L172.486 33.4297L175.111 31.1319L175.494 30.8223C175.494 30.8223 175.705 31.4904 175.96 32.3249Z" fill="#263238"/>
<path d="M168.747 29.0215C167.753 33.3951 170.272 34.4815 171.219 34.6938C172.079 34.8865 175.032 35.434 176.474 31.1862C177.917 26.9383 176.188 25.0956 174.245 24.5513C172.301 24.0066 169.74 24.6479 168.747 29.0215Z" fill="#FFBE9D"/>
<path d="M169.538 28.4059C169.644 28.415 169.743 28.4056 169.849 28.4037C169.968 28.4017 170.064 28.4121 170.166 28.3409C170.221 28.3028 170.237 28.2064 170.204 28.1501C170.13 28.0185 169.983 27.9849 169.839 27.9817C169.683 27.9781 169.562 28.0153 169.439 28.1104C169.32 28.2032 169.398 28.3943 169.538 28.4059Z" fill="#263238"/>
<path d="M172.566 29.0089C172.465 28.9759 172.377 28.9287 172.28 28.8857C172.171 28.8372 172.079 28.81 172.013 28.7049C171.978 28.6487 172.001 28.5536 172.052 28.5141C172.173 28.422 172.321 28.4482 172.455 28.5012C172.6 28.5588 172.697 28.6399 172.773 28.7754C172.846 28.9067 172.699 29.0522 172.566 29.0089Z" fill="#263238"/>
<path d="M171.647 29.9447C171.651 29.9337 171.667 29.9641 171.663 29.9764C171.586 30.272 171.547 30.6235 171.795 30.7838C171.803 30.7887 171.799 30.8036 171.789 30.8C171.469 30.6787 171.525 30.2125 171.647 29.9447Z" fill="#263238"/>
<path d="M171.985 29.6941C172.474 29.7669 172.292 30.736 171.839 30.6687C171.393 30.6024 171.574 29.6334 171.985 29.6941Z" fill="#263238"/>
<path d="M172.166 29.7804C172.241 29.8512 172.306 29.9634 172.406 29.9925C172.523 30.0262 172.631 29.9414 172.727 29.8583C172.737 29.8496 172.744 29.8596 172.742 29.8726C172.71 30.0588 172.602 30.236 172.397 30.2263C172.21 30.2176 172.11 30.0287 172.098 29.8334C172.096 29.7975 172.136 29.7519 172.166 29.7804Z" fill="#263238"/>
<path d="M169.983 29.5699C169.982 29.5579 169.956 29.5799 169.955 29.5925C169.91 29.8948 169.808 30.2337 169.517 30.2848C169.508 30.2864 169.507 30.3016 169.517 30.3019C169.859 30.3145 169.989 29.8631 169.983 29.5699Z" fill="#263238"/>
<path d="M169.77 29.2081C169.291 29.0849 169.079 30.0479 169.522 30.162C169.959 30.2745 170.171 29.3116 169.77 29.2081Z" fill="#263238"/>
<path d="M169.554 29.2283C169.467 29.2625 169.371 29.3389 169.278 29.325C169.171 29.3088 169.115 29.1875 169.07 29.0727C169.065 29.0608 169.056 29.0672 169.053 29.0799C169.007 29.2629 169.026 29.4679 169.196 29.5419C169.35 29.6095 169.504 29.4776 169.589 29.3039C169.604 29.2719 169.589 29.2144 169.554 29.2283Z" fill="#263238"/>
<path d="M171.219 32.4146C171.136 32.4754 171.05 32.5627 170.938 32.5565C170.831 32.5507 170.714 32.4857 170.622 32.435C170.613 32.4298 170.602 32.4388 170.607 32.4485C170.67 32.5756 170.825 32.6713 170.97 32.6668C171.111 32.6619 171.195 32.5533 171.246 32.4327C171.253 32.4152 171.231 32.4055 171.219 32.4146Z" fill="#263238"/>
<path d="M170.177 31.084C170.177 31.084 170.026 31.5191 169.984 31.7298C169.98 31.7496 170.029 31.7693 170.101 31.7877C170.104 31.7893 170.105 31.7912 170.109 31.7896C170.472 31.9218 170.874 31.8679 171.162 31.6089C171.181 31.5912 171.158 31.564 171.136 31.5734C170.816 31.7221 170.497 31.7137 170.164 31.6536C170.161 31.5921 170.449 30.9172 170.415 30.9082C170.302 30.8752 170.058 30.9085 169.913 30.9214C170.202 30.0064 170.636 29.1447 170.91 28.2293C170.919 28.1963 170.873 28.1769 170.858 28.2047C170.339 29.0755 169.982 30.1215 169.659 31.0588C169.618 31.1749 170.085 31.1031 170.177 31.084Z" fill="#263238"/>
<path d="M176.343 31.1667C175.218 31.0099 175.251 27.522 175.261 27.0937C175.241 27.363 175.132 28.7894 175.017 28.8349C174.988 28.8453 174.864 28.8062 174.669 28.7315L174.666 28.7309C174.683 28.5699 174.688 28.3944 174.679 28.2179C174.678 28.1381 174.631 28.386 174.556 28.6888C174.494 28.6646 174.427 28.6365 174.353 28.6093C174.394 28.3039 174.415 27.9228 174.359 27.5168C174.34 27.3794 174.241 27.98 174.056 28.4946C173.3 28.2046 172.204 27.8132 171.156 27.6697C170.876 27.6299 170.632 27.6083 170.416 27.5963C170.459 27.1765 170.554 26.734 170.513 26.8271C170.391 27.0918 170.309 27.3604 170.255 27.5889C170.138 27.5834 170.029 27.5802 169.932 27.5798C169.965 26.9835 170.347 26.0668 170.236 26.2016C169.813 26.7249 169.599 27.2973 169.508 27.6021C169.094 27.6384 168.973 27.7059 168.973 27.5999C168.973 27.4085 169.38 25.7733 170.805 24.6912C172.353 23.5149 175.202 23.4739 176.576 25.676C176.576 25.676 177.794 26.6606 177.856 28.0498C177.92 29.4361 176.992 31.2562 176.343 31.1667Z" fill="#263238"/>
<path d="M176.116 32.8005C176.038 32.818 175.968 32.8258 175.902 32.8254C175.824 32.8287 175.754 32.8193 175.691 32.8022C175.592 32.7789 175.51 32.7359 175.445 32.6841C175.384 32.6392 175.334 32.5842 175.294 32.5315C175.193 32.3934 175.159 32.2589 175.159 32.2589L175.569 31.1052C175.569 31.1052 176.735 29.8509 177.318 30.2829C177.904 30.7162 176.896 32.6272 176.116 32.8005Z" fill="#FFBE9D"/>
<path d="M177.016 30.824C177.028 30.8247 177.028 30.8415 177.018 30.8444C176.469 30.9835 176.129 31.4268 175.868 31.8989C176.049 31.7281 176.274 31.6518 176.507 31.8704C176.52 31.8817 176.504 31.9011 176.489 31.8963C176.283 31.8216 176.124 31.8378 175.956 31.9881C175.838 32.0945 175.747 32.2374 175.655 32.3664C175.624 32.4094 175.544 32.3732 175.569 32.3221C175.57 32.3183 175.573 32.3147 175.575 32.3108C175.652 31.6476 176.295 30.7933 177.016 30.824Z" fill="#263238"/>
<path d="M176.08 32.6049C176.042 32.7133 175.923 32.7705 175.814 32.733C175.705 32.6952 175.648 32.5768 175.685 32.4685C175.723 32.3602 175.842 32.3029 175.951 32.3408C176.06 32.3783 176.118 32.4966 176.08 32.6049Z" fill="white"/>
<path d="M176.547 32.3523C176.52 32.4289 176.436 32.4693 176.359 32.4428C176.282 32.416 176.242 32.3322 176.268 32.2559C176.295 32.1793 176.379 32.1388 176.456 32.1654C176.533 32.1919 176.574 32.2756 176.547 32.3523Z" fill="white"/>
<path d="M152.09 34.1977L144.873 51.3809L182.58 67.0806L189.796 49.8975L152.09 34.1977Z" fill="white"/>
<path d="M182.582 67.0885L144.852 51.4462L144.792 51.4217L144.817 51.3629L152.018 34.174L152.049 34.0996L152.124 34.131L189.815 49.866L189.856 49.8828L189.839 49.9229L182.582 67.0885ZM182.582 67.0885L189.758 49.8893L189.782 49.9462L152.062 34.2793L152.168 34.236L144.935 51.412L144.901 51.3289L182.582 67.0885Z" fill="#263238"/>
<path d="M155.515 44.371C155.194 44.4185 154.86 44.4172 154.523 44.3597C153.649 44.2119 152.92 43.7229 152.452 43.0512C151.993 42.3957 151.781 41.5657 151.925 40.7153C152.22 38.9941 153.858 37.836 155.587 38.1295C157.315 38.4213 158.477 40.0533 158.184 41.7751C157.947 43.1602 156.838 44.179 155.515 44.371Z" fill="#EBEBEB"/>
<path d="M156.084 41.2937C155.873 41.7814 155.304 42.0058 154.814 41.7953C154.325 41.5844 154.099 41.0182 154.311 40.5306C154.523 40.043 155.091 39.8186 155.581 40.0294C156.071 40.2399 156.296 40.8061 156.084 41.2937Z" fill="white"/>
<path d="M155.673 44.0049L155.515 44.3688C155.194 44.4164 154.86 44.4151 154.523 44.3575C153.649 44.2098 152.92 43.7208 152.452 43.0491L152.609 42.6861C152.974 41.8457 153.957 41.4559 154.803 41.8202C155.65 42.1848 156.037 43.1648 155.673 44.0049Z" fill="white"/>
<path d="M183.848 58.1878L150.359 44.2441L149.866 45.4173L183.355 59.361L183.848 58.1878Z" fill="#EBEBEB"/>
<path d="M182.765 60.7689L149.276 46.8252L148.783 47.9983L182.272 61.942L182.765 60.7689Z" fill="#EBEBEB"/>
<path d="M181.682 63.348L148.193 49.4043L147.7 50.5775L181.189 64.5212L181.682 63.348Z" fill="#EBEBEB"/>
<path d="M179.251 48.4446L160.726 40.7314L160.063 42.3084L178.588 50.0215L179.251 48.4446Z" fill="#EBEBEB"/>
<path d="M168.805 47.1698L159.627 43.3486L158.965 44.9256L168.142 48.7468L168.805 47.1698Z" fill="#DBDBDB"/>
<path d="M179.971 38.4546C183.034 44.0664 186.006 48.6304 185.295 51.2734C184.23 55.2333 178.323 62.1707 176.23 63.2526C175.327 63.7193 170.597 57.4177 171.392 56.6775C172.345 55.7889 178.537 49.4757 178.634 48.8195C178.802 47.6934 178.102 45.4227 177.35 39.3321C176.767 34.6101 178.792 36.2941 179.971 38.4546Z" fill="#FFBE9D"/>
<path d="M174.119 55.4499C174.119 55.4499 172.275 55.2634 170.293 54.837C169.188 54.5995 167.257 54.36 166.365 54.5552C165.03 54.8471 159.636 56.9164 160.112 58.2293C160.543 59.4178 164.95 57.0541 164.95 57.0541C164.95 57.0541 160.291 59.0477 161.074 60.384C161.856 61.7202 166.48 58.3903 166.48 58.3903C166.48 58.3903 161.739 60.5456 162.765 61.7965C163.54 62.7416 167.898 59.9605 167.898 59.9605C167.898 59.9605 163.836 61.8411 164.591 62.8473C165.426 63.9592 169.61 61.6436 169.61 61.6436C171.963 63.8796 174.945 64.306 176.701 62.9979C176.984 62.7865 174.119 55.4499 174.119 55.4499Z" fill="#FFBE9D"/>
<path d="M166.517 56.2616C165.961 56.4759 165.397 56.6896 164.862 56.9524C164.327 57.2152 163.801 57.497 163.294 57.8083C162.048 58.5718 161.388 59.2441 161.434 59.2069C162.505 58.3297 164.405 57.359 164.94 57.0959C165.473 56.8334 165.994 56.5445 166.528 56.2817C166.541 56.2749 166.53 56.2565 166.517 56.2616Z" fill="#263238"/>
<path d="M167.505 58.1668C166.807 58.4713 166.103 58.748 165.419 59.0832C164.738 59.4168 164.12 59.7927 163.464 60.1721C163.414 60.2012 163.446 60.219 163.498 60.1915C164.169 59.8386 164.817 59.5638 165.492 59.2186C166.165 58.8747 166.829 58.502 167.514 58.183C167.524 58.1778 167.516 58.1623 167.505 58.1668Z" fill="#263238"/>
<path d="M168.649 59.6507C167.559 60.0616 166.546 60.6721 165.567 61.295C165.518 61.326 165.562 61.3438 165.614 61.315C166.629 60.7491 167.42 60.2982 168.664 59.6882C168.683 59.6789 168.672 59.642 168.649 59.6507Z" fill="#263238"/>
<path d="M186.187 51.1869L178.288 47.7032C178.288 47.7032 177.377 43.3968 177.065 39.4169C176.752 35.4367 177.834 34.4444 180.516 38.656C183.199 42.868 185.97 48.2039 186.187 51.1869Z" fill="#46A7D7"/>
<path d="M67.9839 119.9H66.1507L51.4244 51.6248H35.9114L44.7763 119.9H42.9675L33.8955 50.043H52.9151L67.9839 119.9Z" fill="#868686"/>
<path opacity="0.4" d="M67.9839 119.9H66.1507L51.4244 51.6248H35.9114L44.7763 119.9H42.9675L33.8955 50.043H52.9151L67.9839 119.9Z" fill="black"/>
<path d="M53.7886 48.1572H32.7021V50.0433H53.7886V48.1572Z" fill="#868686"/>
<path opacity="0.2" d="M53.7886 48.1572H32.7021V50.0433H53.7886V48.1572Z" fill="black"/>
<path d="M52.9068 50.2949L45.4881 123.566H43.6789L50.9178 52.0872H35.3993L22.3075 123.566H20.4775L33.8963 50.2949H52.9068Z" fill="#868686"/>
<path d="M50.9802 66.0469H32.6431V67.8392H50.9802V66.0469Z" fill="#868686"/>
<path d="M48.0701 80.5752H29.7329V82.3675H48.0701V80.5752Z" fill="#868686"/>
<path d="M46.6421 95.1055H26.6309V96.8978H46.6421V95.1055Z" fill="#868686"/>
<path d="M45.538 109.634H24.2441V111.426H45.538V109.634Z" fill="#868686"/>
<g opacity="0.2">
<path d="M52.9068 50.2949L45.4881 123.566H43.6789L50.9178 52.0872H35.3993L22.3075 123.566H20.4775L33.8963 50.2949H52.9068Z" fill="black"/>
<path d="M50.9802 66.0469H32.6431V67.8392H50.9802V66.0469Z" fill="black"/>
<path d="M48.0701 80.5752H29.7329V82.3675H48.0701V80.5752Z" fill="black"/>
<path d="M46.6421 95.1055H26.6309V96.8978H46.6421V95.1055Z" fill="black"/>
<path d="M45.538 109.634H24.2441V111.426H45.538V109.634Z" fill="black"/>
</g>
<path d="M26.1736 74.0557C26.1736 74.0557 19.8392 85.9323 19.8373 85.9404C19.4675 88.1846 19.1835 90.1585 19.1322 91.1935C19.1312 91.199 19.1299 91.2045 19.1315 91.2103C19.1117 91.6008 19.1257 91.8542 19.1835 91.9308C19.1877 91.9372 19.1893 91.9434 19.1945 91.9469C19.7908 92.509 37.7161 95.9747 38.3822 95.8858C39.0503 95.8005 38.8467 93.9002 38.2588 93.213C37.6657 92.5249 31.4014 88.1422 31.4014 88.1422L37.6235 76.253L26.1736 74.0557Z" fill="#FFBE9D"/>
<path d="M21.0177 83.5703C21.0177 83.5703 19.839 85.9321 19.8374 85.9402C19.4676 88.1844 19.1836 90.1583 19.1323 91.1933C19.1313 91.1988 19.13 91.2043 19.1316 91.2101C19.1349 91.5996 19.1527 91.8595 19.1836 91.9306C19.1878 91.9371 19.1894 91.9432 19.1946 91.9467C19.7909 92.5088 37.7162 95.9745 38.3823 95.8856C39.0504 95.8003 38.8469 93.9 38.259 93.2128C37.6659 92.5247 31.4015 88.142 31.4015 88.142L32.6208 85.7414L21.0177 83.5703Z" fill="#FFBE9D"/>
<path d="M32.5031 88.3333C31.337 87.937 29.8444 87.9076 28.8043 88.6252C28.764 88.653 28.8043 88.7095 28.8448 88.7031C30.0817 88.5033 31.2205 88.4251 32.4761 88.4833C32.5647 88.4878 32.5865 88.3617 32.5031 88.3333Z" fill="#263238"/>
<path d="M33.2921 88.978C32.1261 88.5814 30.6334 88.5523 29.5933 89.2698C29.5531 89.2976 29.5933 89.3542 29.6339 89.3477C30.8707 89.148 32.0098 89.0698 33.2652 89.1283C33.3538 89.1321 33.3755 89.0064 33.2921 88.978Z" fill="#263238"/>
<path d="M34.0812 89.6233C32.9151 89.2271 31.4225 89.1976 30.3824 89.9152C30.3421 89.943 30.3824 89.9996 30.423 89.9931C31.6598 89.7934 32.7986 89.7151 34.0542 89.7736C34.1429 89.7775 34.1646 89.6518 34.0812 89.6233Z" fill="#263238"/>
<path d="M38.3826 95.8871C37.7155 95.9763 19.7915 92.5109 19.1939 91.9472C18.9631 91.7368 19.3179 89.107 19.8383 85.9417C19.8441 85.9087 19.8497 85.8757 19.8555 85.8428L31.4443 87.9499L31.4018 88.1445C31.4018 88.1445 37.6668 92.5265 38.2586 93.2153C38.8458 93.9005 39.0494 95.8008 38.3826 95.8871Z" fill="#37474F"/>
<path d="M19.8541 85.8408L19.8369 85.943C19.3191 89.1074 18.9617 91.7371 19.1938 91.9476C19.4642 92.2029 23.3312 93.0614 27.5231 93.9141C32.5392 94.9322 38.0192 95.9368 38.3831 95.8887C39.0496 95.7998 38.8441 93.9002 38.2588 93.2136C37.6664 92.5258 31.402 88.1438 31.402 88.1438L31.4449 87.9512L27.5802 87.2475L19.8541 85.8408Z" fill="#46A7D7"/>
<path opacity="0.1" d="M27.5805 87.2471C27.5392 89.232 27.4909 92.1588 27.5233 93.9139C32.5395 94.9321 38.0195 95.9367 38.3834 95.8885C39.0499 95.7997 38.8444 93.9001 38.2591 93.2135C37.6666 92.5257 31.4023 88.1437 31.4023 88.1437L31.4452 87.9511L27.5805 87.2471Z" fill="black"/>
<path d="M19.1089 84.7284L32.5325 86.4825C32.5325 86.4825 48.8447 61.8607 47.4267 54.4077C46.6466 50.3076 32.6432 43.8673 32.6432 43.8673L31.2265 41.0332H21.3511C21.3511 41.0332 17.3247 46.9424 20.2152 52.4935C22.1795 56.2653 32.9734 59.143 33.3707 60.3554C33.8953 61.9544 19.1089 84.7284 19.1089 84.7284Z" fill="#455A64"/>
<path d="M33.1147 91.6621C33.1147 91.6621 33.2157 103.553 33.2154 103.562C33.2228 105.836 33.2699 107.83 33.391 108.858C33.3907 108.864 33.3907 108.869 33.3933 108.875C33.4384 109.263 33.4942 109.511 33.564 109.577C33.5695 109.583 33.5721 109.589 33.5773 109.592C34.2584 110.048 52.5128 110.52 53.1546 110.323C53.7993 110.128 53.2835 108.288 52.5897 107.707C51.8905 107.126 44.9857 103.833 44.9857 103.833L44.7714 91.9475L33.1147 91.6621Z" fill="#FFBE9D"/>
<path d="M33.1948 101.121C33.1948 101.121 33.2156 103.554 33.2153 103.562C33.2227 105.837 33.2698 107.83 33.3909 108.859C33.3906 108.865 33.3906 108.87 33.3932 108.876C33.4607 109.259 33.5217 109.513 33.5639 109.578C33.5694 109.584 33.572 109.589 33.5772 109.592C34.2583 110.049 52.5127 110.521 53.1545 110.323C53.7992 110.129 53.2834 108.289 52.5896 107.707C51.8904 107.126 44.9856 103.833 44.9856 103.833L44.9986 101.355L33.1948 101.121Z" fill="white"/>
<path d="M46.105 103.839C44.8892 103.64 43.4122 103.856 42.5052 104.735C42.4701 104.769 42.5191 104.818 42.5581 104.805C43.7446 104.404 44.8552 104.14 46.1033 103.991C46.1913 103.981 46.192 103.853 46.105 103.839Z" fill="#263238"/>
<path d="M46.9899 104.346C45.7741 104.147 44.2971 104.363 43.3901 105.242C43.3547 105.276 43.404 105.325 43.443 105.312C44.6298 104.912 45.7401 104.647 46.9882 104.498C47.0762 104.488 47.0769 104.361 46.9899 104.346Z" fill="#263238"/>
<path d="M47.8755 104.851C46.6597 104.651 45.1827 104.868 44.2757 105.747C44.2406 105.781 44.2896 105.83 44.3286 105.817C45.5151 105.417 46.6257 105.152 47.8738 105.003C47.9618 104.993 47.9625 104.865 47.8755 104.851Z" fill="#263238"/>
<path d="M53.1559 110.322C52.5128 110.52 34.2603 110.048 33.5773 109.591C33.3147 109.421 33.2286 106.769 33.2173 103.561C33.2176 103.528 33.2176 103.495 33.2179 103.461L44.997 103.634L44.9873 103.833C44.9873 103.833 51.8927 107.125 52.591 107.707C53.2831 108.287 53.7993 110.128 53.1559 110.322Z" fill="#46A7D7"/>
<path d="M27.0804 53.6206C27.083 53.6287 32.4988 70.6266 32.5968 73.7522C32.6806 76.4166 32.3378 103.76 32.3378 103.76L46.0555 103.841C46.0555 103.841 44.8969 75.9569 44.6827 73.1794C44.2821 67.9871 39.7136 53.7322 36.4462 41.0332H21.6572C21.6572 41.0332 21.7858 47.6836 24.8236 52.4935C24.8236 52.4935 26.1991 53.1274 27.0804 53.6206Z" fill="#455A64"/>
<path d="M37.2212 23.5036C37.5098 27.6926 39.2715 36.0532 40.5103 37.3532C41.5426 38.4367 47.0106 42.616 50.226 43.9942C51.4272 44.5091 53.719 37.1499 52.4783 36.4491C51.6336 35.9721 46.103 34.4694 45.5816 33.9131C44.6214 32.8891 41.9341 26.155 39.8396 22.9111C38.67 21.0997 37.0417 20.8984 37.2212 23.5036Z" fill="#FFBE9D"/>
<path d="M48.8462 43.3107C49.6318 43.7564 54.0302 45.9178 55.1904 46.1641C56.3506 46.4104 59.7403 46.8785 60.0198 46.0129C60.2993 45.1476 59.318 44.9313 59.318 44.9313C59.318 44.9313 60.7808 44.9032 60.9827 44.0066C61.1843 43.11 59.6465 42.8239 59.6465 42.8239C59.6465 42.8239 61.1466 42.6859 61.2836 41.7773C61.4206 40.8687 59.826 40.839 59.826 40.839C59.826 40.839 61.2034 40.7766 60.9999 39.9805C60.7551 39.0231 58.2285 39.4239 56.9683 39.0564C56.682 38.973 51.289 36.9531 51.289 36.9531L48.8462 43.3107Z" fill="#FFBE9D"/>
<path d="M59.9627 40.8433C58.1039 41.1335 57.2404 40.9405 55.54 40.2097C55.5069 40.1955 55.478 40.2414 55.5114 40.2595C57.1112 41.1261 58.1594 41.5236 59.9819 40.9321C60.0708 40.9034 60.0513 40.8294 59.9627 40.8433Z" fill="#263238"/>
<path d="M59.7947 42.7974C57.8378 42.9312 56.8994 42.7298 55.0616 42.095C55.0357 42.0859 55.0175 42.1289 55.0431 42.1402C56.7935 42.9134 57.8482 43.2861 59.7859 42.8969C59.8736 42.8791 59.8843 42.7912 59.7947 42.7974Z" fill="#263238"/>
<path d="M59.2263 44.896C57.3223 44.8892 56.2835 44.7127 54.5792 43.8685C54.539 43.8484 54.5059 43.905 54.5445 43.9289C56.1985 44.9584 57.4928 45.1882 59.2201 44.9536C59.3376 44.9377 59.3461 44.8963 59.2263 44.896Z" fill="#263238"/>
<path d="M50.7251 35.9636C50.7251 35.9636 52.952 35.1936 54.0054 35.0702C55.0585 34.9467 59.154 35.9254 58.992 36.8179C58.7827 37.9705 56.3071 37.8693 55.1007 37.6618C55.1007 37.6618 54.6193 40.3284 52.8267 40.6387C51.0338 40.9487 50.7251 35.9636 50.7251 35.9636Z" fill="#FFBE9D"/>
<path d="M58.8298 37.1153C57.8777 38.0294 56.312 37.6554 55.1268 37.5413C55.0369 37.5326 54.9979 37.6017 55.0047 37.6719C54.7282 38.776 54.0146 40.2535 52.8872 40.6808C52.8541 40.6934 52.8674 40.7416 52.9025 40.7335C54.1743 40.4387 54.994 39.044 55.2193 37.8151C56.4328 37.9512 58.0195 38.2573 58.8389 37.1237C58.8438 37.1176 58.836 37.1095 58.8298 37.1153Z" fill="#263238"/>
<path d="M51.063 34.5801L47.4814 43.0548C47.4814 43.0548 41.1376 39.4925 40.2075 37.5689C39.2771 35.6454 36.9499 26.5854 36.9778 23.5577C37.0057 20.53 38.5827 20.8704 40.0341 23.0202C41.4856 25.17 45.8826 32.6148 46.0264 32.7403C46.1706 32.8657 51.063 34.5801 51.063 34.5801Z" fill="#46A7D7"/>
<path d="M47.7655 38.0796C48.0521 37.4661 48.3242 36.8462 48.5965 36.2259C48.727 35.9282 48.8608 35.6315 48.9819 35.3296C49.112 35.0047 49.2717 34.6815 49.3782 34.3489C49.3857 34.3256 49.3568 34.3114 49.3438 34.3327C49.1581 34.6288 49.0153 34.9592 48.8507 35.2678C48.6975 35.5542 48.5576 35.8483 48.4144 36.1399C48.1164 36.7479 47.8181 37.3556 47.5343 37.9703C46.9656 39.2018 46.4339 40.445 45.9158 41.6981C45.9034 41.7282 45.9466 41.7492 45.9619 41.7198C46.5851 40.5161 47.1919 39.3082 47.7655 38.0796Z" fill="#263238"/>
<path opacity="0.1" d="M43.2816 40.4081C41.8889 39.4254 40.5904 38.3588 40.2074 37.5669C39.2757 35.6437 36.9481 26.5836 36.9773 23.5582C36.9936 22.0778 37.3734 21.4055 37.9317 21.3506C38.6264 23.5873 41.8045 34.6675 43.2816 40.4081Z" fill="black"/>
<path d="M37.7514 23.816C36.8164 23.8577 35.1518 22.4556 34.7564 21.0615C34.7297 20.9658 35.0667 20.1009 35.4261 19.0303C35.6416 18.38 35.8663 17.6508 36.0234 16.9704C36.0549 16.8304 40.0692 18.9857 40.0692 18.9857C40.0692 18.9857 39.3193 20.3155 39.0534 21.503C39.0323 21.6026 39.021 21.6969 39.0187 21.7887C39.0171 21.802 39.0174 21.8182 39.0142 21.8363C38.9785 22.3867 38.7522 23.7714 37.7514 23.816Z" fill="#FFBE9D"/>
<path d="M39.0195 21.7887C39.0169 21.8026 39.0162 21.8194 39.013 21.8358C38.875 21.8232 38.728 21.7977 38.5692 21.7586C36.0602 21.127 36.1189 17.832 36.1741 17.0059C36.9104 17.2884 40.069 18.9853 40.069 18.9853C40.069 18.9853 39.3184 20.316 39.0523 21.5039C39.0328 21.6028 39.0201 21.6975 39.0195 21.7887Z" fill="#263238"/>
<path d="M35.2814 12.475C34.9464 14.063 36.1666 18.456 37.36 19.3533C39.0902 20.6543 41.7236 20.5595 42.7835 18.5339C43.8109 16.5706 42.119 10.8737 40.8043 10.0786C38.8679 8.9072 35.7764 10.1293 35.2814 12.475Z" fill="#FFBE9D"/>
<path d="M39.8968 14.761C39.8912 14.7503 39.8773 14.7814 39.8812 14.7933C39.9714 15.0872 40.025 15.4387 39.7824 15.6098C39.775 15.615 39.7798 15.6298 39.7896 15.6256C40.1056 15.4911 40.0296 15.0248 39.8968 14.761Z" fill="#263238"/>
<path d="M39.5465 14.5231C39.0581 14.6162 39.2809 15.5824 39.7336 15.496C40.1792 15.411 39.9561 14.4448 39.5465 14.5231Z" fill="#263238"/>
<path d="M41.6475 14.4108C41.6471 14.3989 41.6741 14.4196 41.6767 14.4318C41.7361 14.7332 41.8553 15.0685 42.1502 15.1057C42.1593 15.1067 42.1619 15.1222 42.1515 15.1228C41.8092 15.1526 41.6556 14.7057 41.6475 14.4108Z" fill="#263238"/>
<path d="M41.844 14.0368C42.3191 13.8897 42.5795 14.8465 42.1395 14.9826C41.7063 15.1171 41.4455 14.16 41.844 14.0368Z" fill="#263238"/>
<path d="M39.0618 14.1687C39.1865 14.1053 39.2908 14.0261 39.4074 13.9507C39.5389 13.8657 39.6526 13.8114 39.7172 13.6617C39.7516 13.5815 39.7022 13.4628 39.6272 13.4217C39.4519 13.3267 39.2648 13.391 39.1021 13.4867C38.9257 13.5908 38.8163 13.716 38.7458 13.9071C38.677 14.093 38.8978 14.2521 39.0618 14.1687Z" fill="#263238"/>
<path d="M42.1063 13.4646C41.9667 13.4737 41.8365 13.4585 41.6978 13.4533C41.5409 13.4472 41.4156 13.4585 41.2831 13.3625C41.212 13.311 41.1938 13.184 41.2373 13.1106C41.3389 12.9398 41.5328 12.8997 41.7218 12.8994C41.9271 12.8991 42.0852 12.9508 42.244 13.0795C42.3983 13.2037 42.2905 13.4527 42.1063 13.4646Z" fill="#263238"/>
<path d="M40.2599 17.6001C40.3479 17.6538 40.4421 17.7336 40.5535 17.7178C40.66 17.7026 40.7721 17.6276 40.8594 17.5684C40.8682 17.5626 40.8799 17.5703 40.876 17.5807C40.8244 17.7133 40.6769 17.8229 40.5321 17.8303C40.3905 17.8378 40.2963 17.7362 40.2346 17.6198C40.2255 17.604 40.2469 17.5923 40.2599 17.6001Z" fill="#263238"/>
<path d="M40.3691 16.632C40.5974 16.8531 40.8772 16.9384 41.1567 16.929C41.2817 16.9255 41.4083 16.9009 41.5287 16.8615C41.5527 16.8553 41.5764 16.8472 41.5972 16.8372C41.6186 16.8295 41.6378 16.8223 41.6608 16.812C41.6949 16.7991 41.7073 16.7658 41.7056 16.7312L41.705 16.7289C41.7024 16.7179 41.7001 16.7092 41.6952 16.6989C41.6952 16.6989 41.6952 16.6989 41.6946 16.6966L41.6881 16.6704C41.6414 16.4387 41.5378 16.0935 41.5378 16.0935C41.6319 16.1164 42.1075 16.2108 42.0731 16.0919C41.7832 15.1092 41.4612 14.0164 40.9645 13.0997C40.9496 13.0687 40.9009 13.0878 40.9113 13.1201C41.1521 14.0756 41.5602 14.9822 41.8176 15.938C41.668 15.9176 41.4216 15.8724 41.3008 15.9024C41.2703 15.9192 41.5125 16.566 41.5251 16.6717C41.5251 16.6717 41.5261 16.6762 41.5258 16.683C41.1486 16.8214 40.8285 16.7716 40.3912 16.598C40.3646 16.5867 40.3454 16.6122 40.3691 16.632Z" fill="#263238"/>
<path d="M41.3656 16.7763C41.3656 16.7763 41.224 17.099 40.9661 17.263C40.8713 17.3238 40.7631 17.3639 40.6391 17.3597C40.3845 17.3519 40.328 17.1336 40.3286 16.9361C40.3286 16.7734 40.3699 16.624 40.3699 16.624C40.3699 16.624 40.7956 16.8704 41.3656 16.7763Z" fill="#263238"/>
<path d="M40.9661 17.2631C40.8713 17.3239 40.7631 17.364 40.6391 17.3598C40.3845 17.352 40.328 17.1337 40.3286 16.9362C40.5917 16.9032 40.8869 17.019 40.9661 17.2631Z" fill="#FF99BA"/>
<path d="M35.9739 16.7249C35.9739 16.7249 34.0573 14.2102 34.0459 12.6422C34.0407 11.9333 34.951 11.3603 34.951 11.3603C34.951 11.3603 34.5738 10.5367 35.286 9.71277C36.0365 8.84458 38.0732 8.80838 38.0732 8.80838C38.0732 8.80838 39.1828 6.78918 41.1124 7.3419C43.042 7.89462 42.0567 10.1097 42.0567 10.1097C42.0567 10.1097 42.8371 10.9982 41.2575 11.922C39.7194 12.8216 36.341 12.4486 36.341 12.4486C36.341 12.4486 36.7854 14.1054 36.6491 15.8593C36.5988 16.5093 35.9739 16.7249 35.9739 16.7249Z" fill="#263238"/>
<path d="M38.3952 8.799C37.968 8.66518 37.5126 8.65129 37.0682 8.69848C36.6741 8.7405 36.2731 8.83165 35.9148 9.00393C35.2743 9.31164 34.7338 9.8621 34.6984 10.602C34.6805 10.974 34.8126 11.3218 35.0646 11.5949C35.0746 11.6059 35.0909 11.5878 35.0801 11.5768C34.5961 11.0942 34.7347 10.25 35.1305 9.7619C35.5778 9.20982 36.3228 8.94025 37.0078 8.8394C37.4661 8.77185 37.9284 8.79706 38.3874 8.84005C38.4144 8.84231 38.4209 8.80708 38.3952 8.799Z" fill="#263238"/>
<path d="M42.5304 8.09258C42.322 7.59287 41.8432 7.30778 41.3273 7.20144C40.7398 7.08023 40.1162 7.18011 39.5815 7.44548C39.0365 7.71634 38.5907 8.1472 38.26 8.65305C38.2525 8.66437 38.2723 8.67697 38.2798 8.66598C38.8894 7.77388 39.9295 7.19271 41.029 7.30681C41.5208 7.35788 42.0282 7.5544 42.2993 7.98882C42.5486 8.38801 42.5606 8.9278 42.4022 9.36189C42.2064 9.89813 41.7844 10.3325 41.3377 10.6742C41.3273 10.682 41.3384 10.6981 41.3494 10.6907C41.786 10.3943 42.1863 10.0339 42.4288 9.55874C42.6583 9.1101 42.7275 8.56546 42.5304 8.09258Z" fill="#263238"/>
<path d="M41.6673 11.9671C40.9684 12.3582 40.176 12.545 39.3823 12.6119C38.5509 12.6821 37.7235 12.6429 36.8973 12.534C36.4178 12.4707 35.9406 12.3895 35.4654 12.2994C35.4501 12.2964 35.4462 12.3184 35.4608 12.3226C36.3074 12.566 37.1674 12.769 38.0491 12.8307C38.8704 12.8883 39.681 12.8114 40.4653 12.5557C40.8925 12.4167 41.2986 12.2221 41.6774 11.9813C41.6875 11.9755 41.6774 11.9616 41.6673 11.9671Z" fill="#263238"/>
<path d="M36.7471 16.0639C36.7471 16.0639 35.5765 14.7331 34.9591 15.164C34.342 15.5949 35.3327 17.6011 36.1352 17.8028C36.9377 18.0045 37.1396 17.2685 37.1396 17.2685L36.7471 16.0639Z" fill="#FFBE9D"/>
<path d="M35.2578 15.7325C35.2455 15.7329 35.2448 15.7503 35.2559 15.7535C35.8209 15.9126 36.1606 16.3809 36.4169 16.8769C36.234 16.6952 36.0031 16.6098 35.756 16.8297C35.743 16.8413 35.7589 16.8617 35.7738 16.8568C35.9901 16.7854 36.1541 16.8061 36.3233 16.9664C36.4432 17.0799 36.5328 17.2303 36.6247 17.3664C36.6552 17.4117 36.7397 17.3765 36.7153 17.3231C36.7137 17.3192 36.7114 17.315 36.7095 17.3111C36.6478 16.6234 36.0057 15.7209 35.2578 15.7325Z" fill="#263238"/>
<path d="M37.9081 31.0796L65.8765 48.0342L77.1399 29.6138L49.1715 12.6592L37.9081 31.0796Z" fill="#37474F"/>
<path d="M49.1069 18.1368C47.8756 19.495 48.3947 21.6205 50.1149 22.2641C51.0758 22.6238 52.1938 22.3529 52.8813 21.5943C54.1123 20.2361 53.5932 18.1109 51.8734 17.467C50.9125 17.1073 49.7945 17.3778 49.1069 18.1368Z" fill="white"/>
<path d="M52.144 34.2665L68.3027 44.0619L66.2857 29.25L52.144 34.2665Z" fill="#263238"/>
<path d="M44.1836 29.4525L58.5129 38.1392L55.2959 27.3398L44.1836 29.4525Z" fill="#455A64"/>
<path d="M68.3014 44.0551L40.333 27.1006L37.9063 31.0693L65.8747 48.0239L68.3014 44.0551Z" fill="#455A64"/>
<path d="M19.9169 41.6313C19.9172 41.6297 38.4735 46.247 38.4732 46.2483C38.3816 46.6103 41.0682 31.5188 38.4404 21.5938C38.2612 20.9173 35.5054 19.5523 33.9235 20.4127C26.9918 24.1832 19.8578 41.8663 19.9169 41.6313Z" fill="#46A7D7"/>
<path d="M36.9316 25.4278C40.3714 29.3201 47.1421 36.2808 50.8383 36.0478C54.7572 35.8008 59.3049 30.9059 61.3253 29.3085C62.1827 28.6307 56.1365 23.4303 55.0721 23.9148C54.0255 24.3912 51.0581 27.6769 50.2082 27.8847C49.3583 28.0925 43.3099 24.0509 39.227 22.044C34.4284 19.6854 34.1372 22.266 36.9316 25.4278Z" fill="#FFBE9D"/>
<path d="M61.3135 16.1824C62.167 16.4471 62.1696 17.3689 62.1696 17.3689C62.1696 17.3689 62.8545 17.1688 63.4606 17.4882C64.1547 17.8541 63.8833 19.0982 63.8833 19.0982C63.8833 19.0982 64.6185 19.0387 65.2249 19.4402C65.8541 19.8568 65.7596 21.151 65.7596 21.151C65.7596 21.151 66.4751 21.4704 66.7491 22.1915C67.2175 23.4246 65.9927 25.0268 65.2246 26.0527C64.4566 27.079 61.3122 29.2737 60.7555 29.7524L53.8867 24.8112C53.8867 24.8112 55.1466 20.4645 57.3028 18.2433C58.1965 17.3227 60.3555 15.885 61.3135 16.1824Z" fill="#FFBE9D"/>
<path d="M62.029 17.336C60.833 18.0723 59.9208 19.1205 58.9505 20.1154C58.9291 20.1374 58.9642 20.171 58.9856 20.1484C59.939 19.1477 61.0794 18.3487 62.0708 17.3877C62.0981 17.3615 62.0614 17.316 62.029 17.336Z" fill="#263238"/>
<path d="M63.7804 19.0543C63.5148 19.2288 63.3081 19.4903 63.0996 19.7263C62.8753 19.9803 62.6559 20.2383 62.44 20.4998C62.0082 21.0231 61.5882 21.5561 61.1843 22.101C61.1665 22.1253 61.1993 22.1586 61.2194 22.1343C61.6505 21.6136 62.0897 21.0993 62.5426 20.597C62.7692 20.3459 62.998 20.0964 63.2285 19.8485C63.4428 19.618 63.6885 19.3924 63.8473 19.1183C63.871 19.0779 63.8203 19.0278 63.7804 19.0543Z" fill="#263238"/>
<path d="M65.741 21.1731C65.504 21.3156 65.3297 21.5972 65.1605 21.8108C64.969 22.0532 64.7759 22.2947 64.5814 22.5352C64.1925 23.0158 63.8036 23.4961 63.3982 23.9629C63.378 23.9861 63.4128 24.0194 63.4332 23.9958C63.8474 23.5236 64.2682 23.0572 64.6785 22.5814C64.8797 22.3477 65.08 22.113 65.2787 21.8771C65.4475 21.6767 65.6819 21.4449 65.766 21.1918C65.7708 21.1773 65.753 21.166 65.741 21.1731Z" fill="#263238"/>
<path d="M53.5035 24.8326L59.8256 31.971C59.8256 31.971 53.5464 37.1989 49.5937 36.3569C45.6407 35.5149 38.6703 28.305 36.2311 24.9098C33.7919 21.5146 35.229 19.8672 39.0427 21.7823C42.8567 23.6974 49.6765 27.4963 49.9323 27.5545C50.1881 27.6126 53.5035 24.8326 53.5035 24.8326Z" fill="#46A7D7"/>
<path d="M54.9856 29.4547C54.5516 28.934 54.1056 28.4236 53.6595 27.9129C53.4453 27.6679 53.2333 27.4206 53.0113 27.1824C52.7723 26.9261 52.5474 26.6439 52.2912 26.4057C52.2734 26.3889 52.2481 26.4089 52.2617 26.4296C52.4509 26.7234 52.6895 26.9933 52.8989 27.2739C53.0934 27.5344 53.3002 27.7862 53.5037 28.0399C53.9277 28.5687 54.3516 29.0972 54.7879 29.616C55.6618 30.6552 56.5623 31.6662 57.4778 32.6689C57.4999 32.6931 57.5372 32.6627 57.5174 32.6369C56.6909 31.5605 55.8547 30.4971 54.9856 29.4547Z" fill="#263238"/>
<path d="M55.0634 35.095C54.2723 35.5705 53.4231 35.9577 52.5303 36.2189C51.6376 36.4717 50.6923 36.59 49.7577 36.4739C49.286 36.4199 48.8315 36.2583 48.4102 36.0625C47.9856 35.8669 47.5791 35.6394 47.1811 35.4002C46.3848 34.9211 45.6301 34.3823 44.8906 33.8257C43.4288 32.6899 42.0374 31.4681 40.7256 30.1668C40.0715 29.5142 39.4333 28.8461 38.8191 28.157C38.2114 27.4617 37.6254 26.748 37.0732 26.0098C37.6569 26.7235 38.2721 27.41 38.9074 28.0765C39.5381 28.7475 40.1893 29.3988 40.8568 30.0327C42.1897 31.302 43.5752 32.5186 45.0386 33.6337C45.7684 34.1926 46.5137 34.7333 47.2961 35.2124C47.6869 35.4516 48.0859 35.6788 48.4985 35.873C48.9127 36.0654 49.3354 36.2286 49.783 36.2913C50.6835 36.4261 51.612 36.3314 52.4998 36.1061C53.3916 35.886 54.2531 35.5369 55.0634 35.095Z" fill="#263238"/>
<path d="M37.3008 26.7988C37.6288 27.0417 37.9581 27.258 38.2955 27.4892C38.0987 27.429 37.9194 27.3269 37.7483 27.215C37.5836 27.095 37.4216 26.9657 37.3008 26.7988Z" fill="#263238"/>
</svg>
