<svg width="32" height="32" viewBox="0 0 32 32" fill="none" xmlns="http://www.w3.org/2000/svg">
<path d="M28.4816 3.84003H3.52156C2.46236 3.84003 1.60156 4.70083 1.60156 5.76003V23.04C1.60156 24.0992 2.46236 24.96 3.52156 24.96H13.4544L13.24 25.4976C12.904 26.336 12.104 26.88 11.2016 26.88H9.92156C9.56636 26.88 9.28156 27.1648 9.28156 27.52C9.28156 27.872 9.56636 28.16 9.92156 28.16H22.0816C22.4336 28.16 22.7216 27.872 22.7216 27.52C22.7216 27.1648 22.4336 26.88 22.0816 26.88H20.8016C19.896 26.88 19.096 26.336 18.7632 25.5008L18.5456 24.96H28.4816C29.5376 24.96 30.4016 24.0992 30.4016 23.04V5.76003C30.4016 4.70083 29.5376 3.84003 28.4816 3.84003ZM13.8992 26.88C14.1136 26.6112 14.2928 26.3072 14.4272 25.9744L14.8336 24.96H17.1664L17.5728 25.9744C17.7072 26.3072 17.8864 26.6112 18.104 26.88H13.8992ZM29.1216 23.04C29.1216 23.392 28.8336 23.68 28.4816 23.68H3.52156C3.16636 23.68 2.88156 23.392 2.88156 23.04V21.76H29.1216V23.04ZM15.3616 12.4256V13.76C15.3616 14.112 15.6464 14.4 16.0016 14.4C16.3536 14.4 16.6416 14.112 16.6416 13.76V12.4256L18.4208 14.2048L16.8848 17.28H15.1152L13.5792 14.2048L15.3616 12.4256ZM15.0416 10.24V8.32003H16.9616V10.24H15.0416ZM16.9168 18.56L18.0688 20.48H13.9312L15.0832 18.56H16.9168ZM29.1216 20.48H19.5632L18.0112 17.8912L19.7744 14.3648C19.896 14.1184 19.848 13.8208 19.6528 13.6256L17.544 11.52H17.6016C17.9536 11.52 18.2416 11.232 18.2416 10.88V10.24C21.5632 11.2128 24.0016 14.2848 24.0016 17.92C24.0016 18.272 24.2864 18.56 24.6416 18.56C24.9936 18.56 25.2816 18.272 25.2816 17.92C25.2816 14.5152 23.4352 11.5328 20.696 9.92003H26.5616C26.9136 9.92003 27.2016 9.63203 27.2016 9.28003C27.2016 8.92483 26.9136 8.64003 26.5616 8.64003H18.2416V7.68003C18.2416 7.32483 17.9536 7.04003 17.6016 7.04003H14.4016C14.0464 7.04003 13.7616 7.32483 13.7616 7.68003V8.64003H5.44156C5.08636 8.64003 4.80156 8.92483 4.80156 9.28003C4.80156 9.63203 5.08636 9.92003 5.44156 9.92003H11.3072C8.56476 11.5328 6.72156 14.5152 6.72156 17.92C6.72156 18.272 7.00636 18.56 7.36156 18.56C7.71356 18.56 8.00156 18.272 8.00156 17.92C8.00156 14.2848 10.4368 11.2128 13.7616 10.24V10.88C13.7616 11.232 14.0464 11.52 14.4016 11.52H14.456L12.3472 13.6256C12.152 13.8208 12.104 14.1184 12.2288 14.3648L13.992 17.8912L12.4368 20.48H2.88156V5.76003C2.88156 5.40803 3.16636 5.12003 3.52156 5.12003H28.4816C28.8336 5.12003 29.1216 5.40803 29.1216 5.76003V20.48Z" fill="#121212"/>
</svg>
