<svg width="32" height="32" viewBox="0 0 32 32" fill="none" xmlns="http://www.w3.org/2000/svg">
<path d="M18.9115 24H16.0002L10.0002 20.6934L2.67285 23.388L4.67419 27.3507L9.38885 25.382C13.8002 28.016 16.4849 29.3334 17.4435 29.3334C18.4022 29.3334 22.3655 27.5554 29.3335 24" stroke="white" stroke-linecap="round" stroke-linejoin="round"/>
<path d="M19.3287 17.9926V14.8793C20.062 14.5746 21.024 14.1293 21.5767 13.5766C22.4158 12.7375 22.9872 11.6684 23.2187 10.5045C23.4502 9.34061 23.3314 8.13422 22.8773 7.03787C22.4231 5.94151 21.6541 5.00445 20.6674 4.34516C19.6807 3.68588 18.5207 3.33398 17.334 3.33398C16.1473 3.33398 14.9873 3.68588 14.0006 4.34516C13.0139 5.00445 12.2448 5.94151 11.7907 7.03787C11.3366 8.13422 11.2178 9.34061 11.4493 10.5045C11.6808 11.6684 12.2522 12.7375 13.0913 13.5766C13.644 14.1293 14.6007 14.5746 15.334 14.8786C15.338 15.1019 15.338 16.1399 15.334 17.9919L19.3287 17.9926Z" stroke="white" stroke-linejoin="round"/>
<path d="M8.00065 14.0003L8.66732 13.3337M26.6673 14.0003L26.0007 13.3337M10.0007 3.33366L9.33398 2.66699M24.6673 3.33366L25.334 2.66699M27.334 8.00033H26.6673M8.00065 8.00033H7.33398" stroke="white" stroke-linecap="round"/>
</svg>
