<svg width="797" height="467" viewBox="0 0 797 467" fill="none" xmlns="http://www.w3.org/2000/svg">
<rect x="75.4219" width="647.163" height="462.262" rx="18.4555" fill="#B4B5B7"/>
<rect x="75.6064" y="0.184555" width="646.794" height="461.893" rx="18.2709" stroke="white" stroke-opacity="0.28" stroke-width="0.36911"/>
<g filter="url(#filter0_d_582_35593)">
<rect x="77.3711" y="2.01025" width="644.245" height="458" rx="16.9791" fill="#242424"/>
<rect x="77.5556" y="2.19481" width="643.876" height="457.631" rx="16.7945" stroke="black" stroke-width="0.36911"/>
</g>
<rect x="79.3203" y="4.01904" width="639.366" height="454.223" rx="15.9157" fill="black"/>
<g filter="url(#filter1_i_582_35593)">
<path d="M79.9707 432.114H718.037V442.225C718.037 450.701 711.166 457.572 702.69 457.572H95.318C86.8419 457.572 79.9707 450.701 79.9707 442.225V432.114Z" fill="#191919"/>
</g>
<g filter="url(#filter2_i_582_35593)">
<path d="M0.697266 455.985H797C797 455.985 771.693 466.785 716.02 466.785C660.346 466.785 137.351 466.785 81.6772 466.785C26.0035 466.785 0.697266 455.985 0.697266 455.985Z" fill="url(#paint0_linear_582_35593)"/>
</g>
<g filter="url(#filter3_ii_582_35593)">
<path d="M0.697266 443.061C0.697266 442.908 0.820578 442.785 0.972693 442.785H796.724C796.876 442.785 797 442.908 797 443.061V455.985H0.697266V443.061Z" fill="url(#paint1_linear_582_35593)"/>
</g>
<g filter="url(#filter4_diiiii_582_35593)">
<path d="M333.896 442.785H463.799V443.8C463.799 448.542 459.955 452.385 455.214 452.385H342.481C337.74 452.385 333.896 448.542 333.896 443.8V442.785Z" fill="url(#paint2_linear_582_35593)"/>
</g>
<defs>

<linearGradient id="paint0_linear_582_35593" x1="398.848" y1="455.985" x2="398.848" y2="466.785" gradientUnits="userSpaceOnUse">
<stop stop-color="#ACADAF"/>
<stop offset="1" stop-color="#212224"/>
</linearGradient>
<linearGradient id="paint1_linear_582_35593" x1="0.697263" y1="449.585" x2="797" y2="449.585" gradientUnits="userSpaceOnUse">
<stop stop-color="#68696B"/>
<stop offset="0.00792923" stop-color="#E5E6E8"/>
<stop offset="0.0324663" stop-color="#A0A1A3"/>
<stop offset="0.100415" stop-color="#DDDEE0"/>
<stop offset="0.89504" stop-color="#DDDEE0"/>
<stop offset="0.971809" stop-color="#A0A1A3"/>
<stop offset="0.992735" stop-color="#E5E6E8"/>
<stop offset="1" stop-color="#68696B"/>
</linearGradient>
<linearGradient id="paint2_linear_582_35593" x1="333.896" y1="447.585" x2="463.799" y2="447.585" gradientUnits="userSpaceOnUse">
<stop stop-color="#C6C7CC"/>
<stop offset="0.515625" stop-color="#CACBCD"/>
<stop offset="1" stop-color="#C6C7CC"/>
</linearGradient>
</defs>
</svg>
