<svg width="16" height="16" viewBox="0 0 16 16" fill="none" xmlns="http://www.w3.org/2000/svg">
<path d="M13.3584 13.33H2.64844C2.08506 13.3293 1.54494 13.1052 1.14657 12.7069C0.748195 12.3085 0.524099 11.7684 0.523438 11.205V4.79498C0.524099 4.2316 0.748195 3.69148 1.14657 3.29311C1.54494 2.89474 2.08506 2.67064 2.64844 2.66998H13.3584C13.9218 2.67064 14.4619 2.89474 14.8603 3.29311C15.2587 3.69148 15.4828 4.2316 15.4834 4.79498V11.205C15.4828 11.7684 15.2587 12.3085 14.8603 12.7069C14.4619 13.1052 13.9218 13.3293 13.3584 13.33ZM2.64844 3.41998C2.28376 3.41998 1.93403 3.56485 1.67617 3.82271C1.4183 4.08057 1.27344 4.43031 1.27344 4.79498V11.205C1.27344 11.5697 1.4183 11.9194 1.67617 12.1773C1.93403 12.4351 2.28376 12.58 2.64844 12.58H13.3584C13.7231 12.58 14.0728 12.4351 14.3307 12.1773C14.5886 11.9194 14.7334 11.5697 14.7334 11.205V4.79498C14.7334 4.43031 14.5886 4.08057 14.3307 3.82271C14.0728 3.56485 13.7231 3.41998 13.3584 3.41998H2.64844Z" fill="white"/>
<path d="M7.99832 9.51999C7.53572 9.52072 7.08548 9.37064 6.71582 9.09249L0.878325 4.67749C0.83708 4.64855 0.802092 4.61158 0.775451 4.56881C0.748809 4.52604 0.731061 4.47834 0.723265 4.42856C0.715469 4.37878 0.717786 4.32794 0.730078 4.27907C0.742369 4.2302 0.764383 4.18432 0.794804 4.14415C0.825225 4.10398 0.86343 4.07035 0.907136 4.04527C0.950843 4.0202 0.999154 4.00419 1.04919 3.9982C1.09922 3.99221 1.14994 3.99637 1.19833 4.01042C1.24672 4.02448 1.29178 4.04814 1.33082 4.07999L7.16832 8.49999C7.40804 8.67894 7.69918 8.77562 7.99832 8.77562C8.29747 8.77562 8.5886 8.67894 8.82832 8.49999L14.6658 4.07999C14.7049 4.04814 14.7499 4.02448 14.7983 4.01042C14.8467 3.99637 14.8974 3.99221 14.9475 3.9982C14.9975 4.00419 15.0458 4.0202 15.0895 4.04527C15.1332 4.07035 15.1714 4.10398 15.2018 4.14415C15.2323 4.18432 15.2543 4.2302 15.2666 4.27907C15.2789 4.32794 15.2812 4.37878 15.2734 4.42856C15.2656 4.47834 15.2478 4.52604 15.2212 4.56881C15.1946 4.61158 15.1596 4.64855 15.1183 4.67749L9.28082 9.09249C8.91117 9.37064 8.46093 9.52072 7.99832 9.51999Z" fill="white"/>
<path d="M1.03961 12.285C0.963557 12.2851 0.889264 12.2621 0.826593 12.219C0.763922 12.1759 0.715836 12.1148 0.688715 12.0437C0.661594 11.9727 0.65672 11.895 0.674741 11.8211C0.692761 11.7473 0.732824 11.6806 0.789614 11.63L5.38961 7.5275C5.46387 7.46119 5.56143 7.4271 5.66083 7.43273C5.76022 7.43836 5.85331 7.48324 5.91961 7.5575C5.98592 7.63176 6.02001 7.72931 6.01438 7.82871C6.00875 7.9281 5.96387 8.02119 5.88961 8.0875L1.28961 12.19C1.2213 12.2522 1.13196 12.2861 1.03961 12.285ZM14.9546 12.285C14.8623 12.2861 14.7729 12.2522 14.7046 12.19L10.1046 8.0875C10.0304 8.02119 9.98547 7.9281 9.97985 7.82871C9.97422 7.72931 10.0083 7.63176 10.0746 7.5575C10.1409 7.48324 10.234 7.43836 10.3334 7.43273C10.4328 7.4271 10.5304 7.46119 10.6046 7.5275L15.2021 11.63C15.2589 11.6806 15.299 11.7473 15.317 11.8211C15.335 11.895 15.3301 11.9727 15.303 12.0437C15.2759 12.1148 15.2278 12.1759 15.1651 12.219C15.1025 12.2621 15.0282 12.2851 14.9521 12.285H14.9546Z" fill="white"/>
</svg>
