<svg width="32" height="32" viewBox="0 0 32 32" fill="none" xmlns="http://www.w3.org/2000/svg">
<g clip-path="url(#clip0_2035_1625)">
<path fill-rule="evenodd" clip-rule="evenodd" d="M21.5014 11.8253V1.66699C21.5014 1.26917 21.3433 0.887637 21.062 0.606332C20.7807 0.325027 20.3992 0.166992 20.0014 0.166992H6.05469C5.65686 0.166992 5.27533 0.325027 4.99403 0.606332C4.71272 0.887637 4.55469 1.26917 4.55469 1.66699V30.3337C4.55469 30.7315 4.71272 31.113 4.99403 31.3943C5.27533 31.6756 5.65686 31.8337 6.05469 31.8337H20.0014C20.3992 31.8337 20.7807 31.6756 21.062 31.3943C21.3433 31.113 21.5014 30.7315 21.5014 30.3337V21.8233C21.5014 21.6907 21.4487 21.5635 21.3549 21.4698C21.2611 21.376 21.134 21.3233 21.0014 21.3233C20.8687 21.3233 20.7416 21.376 20.6478 21.4698C20.554 21.5635 20.5014 21.6907 20.5014 21.8233V30.3337C20.5014 30.4663 20.4487 30.5934 20.3549 30.6872C20.2611 30.781 20.134 30.8337 20.0014 30.8337H6.05469C5.92208 30.8337 5.7949 30.781 5.70113 30.6872C5.60737 30.5934 5.55469 30.4663 5.55469 30.3337V1.66699C5.55469 1.53438 5.60737 1.40721 5.70113 1.31344C5.7949 1.21967 5.92208 1.16699 6.05469 1.16699H20.0014C20.067 1.16695 20.1321 1.17985 20.1927 1.20496C20.2534 1.23007 20.3086 1.2669 20.355 1.31334C20.4014 1.35978 20.4383 1.41492 20.4634 1.4756C20.4885 1.53628 20.5014 1.60132 20.5014 1.66699V11.8253C20.5014 11.9579 20.554 12.0851 20.6478 12.1789C20.7416 12.2726 20.8687 12.3253 21.0014 12.3253C21.134 12.3253 21.2611 12.2726 21.3549 12.1789C21.4487 12.0851 21.5014 11.9579 21.5014 11.8253Z" fill="#fff"/>
<path fill-rule="evenodd" clip-rule="evenodd" d="M7.4724 29.0267H9.10173C9.23434 29.0267 9.36152 28.974 9.45528 28.8802C9.54905 28.7864 9.60173 28.6593 9.60173 28.5267C9.60173 28.3941 9.54905 28.2669 9.45528 28.1731C9.36152 28.0793 9.23434 28.0267 9.10173 28.0267H7.4724C7.33979 28.0267 7.21261 28.0793 7.11884 28.1731C7.02508 28.2669 6.9724 28.3941 6.9724 28.5267C6.9724 28.6593 7.02508 28.7864 7.11884 28.8802C7.21261 28.974 7.33979 29.0267 7.4724 29.0267ZM7.4724 20.522H11.8821C12.0147 20.522 12.1418 20.4693 12.2356 20.3755C12.3294 20.2818 12.3821 20.1546 12.3821 20.022C12.3821 19.8894 12.3294 19.7622 12.2356 19.6684C12.1418 19.5747 12.0147 19.522 11.8821 19.522H7.4724C7.34295 19.5267 7.22038 19.5815 7.13047 19.6747C7.04056 19.768 6.99032 19.8925 6.99032 20.022C6.99032 20.1515 7.04056 20.276 7.13047 20.3693C7.22038 20.4625 7.34295 20.5173 7.4724 20.522ZM7.4724 22.559H11.8821C12.0147 22.559 12.1418 22.5063 12.2356 22.4125C12.3294 22.3188 12.3821 22.1916 12.3821 22.059C12.3821 21.9264 12.3294 21.7992 12.2356 21.7054C12.1418 21.6117 12.0147 21.559 11.8821 21.559H7.4724C7.33979 21.559 7.21261 21.6117 7.11884 21.7054C7.02508 21.7992 6.9724 21.9264 6.9724 22.059C6.9724 22.1916 7.02508 22.3188 7.11884 22.4125C7.21261 22.5063 7.33979 22.559 7.4724 22.559ZM7.4724 24.5957H11.8821C12.0147 24.5957 12.1418 24.543 12.2356 24.4492C12.3294 24.3554 12.3821 24.2283 12.3821 24.0957C12.3821 23.9631 12.3294 23.8359 12.2356 23.7421C12.1418 23.6483 12.0147 23.5957 11.8821 23.5957H7.4724C7.33979 23.5957 7.21261 23.6483 7.11884 23.7421C7.02508 23.8359 6.9724 23.9631 6.9724 24.0957C6.9724 24.2283 7.02508 24.3554 7.11884 24.4492C7.21261 24.543 7.33979 24.5957 7.4724 24.5957ZM16.9577 29.0267H18.5871C18.7197 29.0267 18.8468 28.974 18.9406 28.8802C19.0344 28.7864 19.0871 28.6593 19.0871 28.5267C19.0871 28.3941 19.0344 28.2669 18.9406 28.1731C18.8468 28.0793 18.7197 28.0267 18.5871 28.0267H16.9577C16.8283 28.0314 16.7057 28.0861 16.6158 28.1794C16.5259 28.2726 16.4757 28.3971 16.4757 28.5267C16.4757 28.6562 16.5259 28.7807 16.6158 28.8739C16.7057 28.9672 16.8283 29.0219 16.9577 29.0267ZM12.2151 29.0267H13.8444C13.977 29.0267 14.1042 28.974 14.198 28.8802C14.2917 28.7864 14.3444 28.6593 14.3444 28.5267C14.3444 28.3941 14.2917 28.2669 14.198 28.1731C14.1042 28.0793 13.977 28.0267 13.8444 28.0267H12.2151C12.0825 28.0267 11.9553 28.0793 11.8615 28.1731C11.7677 28.2669 11.7151 28.3941 11.7151 28.5267C11.7151 28.6593 11.7677 28.7864 11.8615 28.8802C11.9553 28.974 12.0825 29.0267 12.2151 29.0267ZM12.5984 3.91699H13.4611C13.5937 3.91699 13.7208 3.86431 13.8146 3.77055C13.9084 3.67678 13.9611 3.5496 13.9611 3.41699C13.9611 3.28438 13.9084 3.15721 13.8146 3.06344C13.7208 2.96967 13.5937 2.91699 13.4611 2.91699H12.5984C12.4658 2.91699 12.3386 2.96967 12.2448 3.06344C12.1511 3.15721 12.0984 3.28438 12.0984 3.41699C12.0984 3.5496 12.1511 3.67678 12.2448 3.77055C12.3386 3.86431 12.4658 3.91699 12.5984 3.91699ZM22.9694 17.872C22.9616 17.8642 22.9561 17.8546 22.9533 17.844C22.9504 17.8334 22.9505 17.8222 22.9534 17.8117C23.1062 17.1002 23.0783 16.3619 22.8722 15.664C22.666 14.9662 22.2883 14.3312 21.7734 13.817C20.9596 13.0015 19.8555 12.5422 18.7034 12.54C18.5004 12.5385 18.3015 12.5974 18.1321 12.7093C17.9627 12.8211 17.8304 12.9808 17.752 13.1681C17.6736 13.3553 17.6526 13.5617 17.6918 13.7608C17.731 13.96 17.8286 14.1431 17.9721 14.2867C18.3971 14.714 18.8511 15.168 18.8511 15.168C18.9078 15.2247 18.9529 15.2921 18.9836 15.3663C19.0143 15.4404 19.0301 15.5199 19.0301 15.6002C19.0301 15.6804 19.0143 15.7599 18.9836 15.8341C18.9529 15.9082 18.9078 15.9756 18.8511 16.0323L17.8177 17.0657C17.761 17.1224 17.6937 17.1675 17.6195 17.1982C17.5454 17.2289 17.466 17.2447 17.3857 17.2447C17.3055 17.2447 17.226 17.2289 17.1519 17.1982C17.0778 17.1675 17.0104 17.1224 16.9537 17.0657L16.0734 16.1853C15.9294 16.0411 15.7456 15.9431 15.5456 15.9038C15.3456 15.8646 15.1384 15.8859 14.9505 15.965C14.7627 16.0442 14.6027 16.1775 14.4911 16.348C14.3794 16.5186 14.3211 16.7185 14.3237 16.9223C14.3284 18.073 14.7882 19.1751 15.6027 19.988C16.1175 20.5032 16.7531 20.8812 17.4515 21.0875C18.15 21.2939 18.889 21.322 19.6011 21.1693C19.6108 21.1672 19.6209 21.1675 19.6304 21.1703C19.64 21.1731 19.6487 21.1783 19.6557 21.1853L19.6567 21.186C20.4027 21.9293 22.8384 24.3647 24.3727 25.899C24.8119 26.3382 25.4076 26.5849 26.0287 26.5849C26.6498 26.5849 27.2455 26.3382 27.6847 25.899C27.9022 25.6815 28.0747 25.4234 28.1924 25.1393C28.31 24.8552 28.3706 24.5507 28.3706 24.2432C28.3706 23.9356 28.31 23.6311 28.1924 23.347C28.0747 23.0629 27.9022 22.8048 27.6847 22.5873L22.9694 17.872ZM22.2621 18.579L26.9774 23.2943C27.229 23.546 27.3704 23.8873 27.3704 24.2432C27.3704 24.599 27.229 24.9403 26.9774 25.192C26.8528 25.3166 26.7049 25.4155 26.5422 25.4829C26.3794 25.5503 26.2049 25.5851 26.0287 25.5851C25.8525 25.5851 25.6781 25.5503 25.5153 25.4829C25.3525 25.4155 25.2046 25.3166 25.0801 25.192C23.5083 23.6196 21.9358 22.0481 20.3624 20.4773C20.237 20.3522 20.0822 20.2605 19.9123 20.2107C19.7423 20.1608 19.5625 20.1544 19.3894 20.192C18.8408 20.309 18.2717 20.2869 17.7338 20.1278C17.1959 19.9687 16.7064 19.6776 16.3097 19.281C15.6812 18.6531 15.3267 17.802 15.3237 16.9137V16.9103C15.3237 16.9003 15.3297 16.891 15.3391 16.887C15.3436 16.8852 15.3486 16.8847 15.3534 16.8857C15.3581 16.8866 15.3626 16.8889 15.3661 16.8923L16.2464 17.7727C16.396 17.9223 16.5736 18.0409 16.769 18.1219C16.9645 18.2029 17.174 18.2445 17.3856 18.2445C17.5971 18.2445 17.8066 18.2029 18.0021 18.1219C18.1975 18.0409 18.3751 17.9223 18.5247 17.7727L19.5584 16.7393C19.8604 16.4372 20.0301 16.0274 20.0301 15.6002C20.0301 15.1729 19.8604 14.7632 19.5584 14.461C19.5584 14.461 19.1051 14.0077 18.6801 13.5807L18.6791 13.5797C18.6758 13.5764 18.6735 13.5722 18.6726 13.5676C18.6717 13.563 18.6722 13.5583 18.6741 13.554C18.6759 13.5498 18.6789 13.5462 18.6827 13.5437C18.6866 13.5412 18.6911 13.5399 18.6957 13.54H18.7001C19.5571 13.543 20.4131 13.871 21.0664 14.5243C21.4631 14.9207 21.7542 15.4101 21.913 15.9479C22.0719 16.4857 22.0934 17.0547 21.9757 17.603C21.9377 17.7766 21.944 17.9571 21.9941 18.1276C22.0441 18.2982 22.1363 18.4534 22.2621 18.579ZM12.3821 6.77533C12.3822 6.62208 12.3521 6.47031 12.2935 6.32871C12.2349 6.1871 12.149 6.05844 12.0406 5.95007C11.9323 5.84171 11.8036 5.75578 11.662 5.6972C11.5204 5.63861 11.3686 5.60853 11.2154 5.60866H7.95573C7.64631 5.60866 7.34956 5.73158 7.13077 5.95037C6.91198 6.16916 6.78906 6.46591 6.78906 6.77533V10.0467C6.78893 10.1999 6.81902 10.3517 6.8776 10.4933C6.93619 10.6349 7.02212 10.7635 7.13048 10.8719C7.23884 10.9803 7.3675 11.0662 7.50911 11.1248C7.65072 11.1834 7.80248 11.2135 7.95573 11.2133H11.2154C11.5248 11.2133 11.8216 11.0904 12.0404 10.8716C12.2591 10.6528 12.3821 10.3561 12.3821 10.0467V6.77533ZM11.3821 6.77533V10.0467C11.3821 10.0909 11.3645 10.1333 11.3332 10.1645C11.302 10.1958 11.2596 10.2133 11.2154 10.2133H7.95573C7.91153 10.2133 7.86913 10.1958 7.83788 10.1645C7.80662 10.1333 7.78906 10.0909 7.78906 10.0467V6.77533C7.78906 6.73112 7.80662 6.68873 7.83788 6.65747C7.86913 6.62622 7.91153 6.60866 7.95573 6.60866H11.2154C11.2596 6.60866 11.302 6.62622 11.3332 6.65747C11.3645 6.68873 11.3821 6.73112 11.3821 6.77533ZM12.3821 13.3707C12.3822 13.2174 12.3522 13.0656 12.2936 12.924C12.235 12.7824 12.1491 12.6537 12.0407 12.5453C11.9324 12.4369 11.8037 12.351 11.6621 12.2924C11.5204 12.2339 11.3687 12.2038 11.2154 12.204H7.95573C7.80247 12.2038 7.65068 12.2339 7.50906 12.2924C7.36743 12.351 7.23875 12.4369 7.13038 12.5453C7.02201 12.6537 6.93608 12.7824 6.87751 12.924C6.81894 13.0656 6.78889 13.2174 6.78906 13.3707V16.642C6.78906 16.9514 6.91198 17.2482 7.13077 17.4669C7.34956 17.6857 7.64631 17.8087 7.95573 17.8087H11.2154C11.5248 17.8087 11.8216 17.6857 12.0404 17.4669C12.2591 17.2482 12.3821 16.9514 12.3821 16.642V13.3707ZM11.3821 13.3707V16.642C11.3821 16.6862 11.3645 16.7286 11.3332 16.7598C11.302 16.7911 11.2596 16.8087 11.2154 16.8087H7.95573C7.91153 16.8087 7.86913 16.7911 7.83788 16.7598C7.80662 16.7286 7.78906 16.6862 7.78906 16.642V13.3707C7.78906 13.3265 7.80662 13.2841 7.83788 13.2528C7.86913 13.2216 7.91153 13.204 7.95573 13.204H11.2154C11.2596 13.204 11.302 13.2216 11.3332 13.2528C11.3645 13.2841 11.3821 13.3265 11.3821 13.3707ZM19.2707 6.77533C19.2708 6.62209 19.2407 6.47034 19.1821 6.32876C19.1235 6.18717 19.0376 6.05852 18.9292 5.95017C18.8209 5.84182 18.6922 5.75589 18.5506 5.69729C18.409 5.63869 18.2573 5.60857 18.1041 5.60866H14.8441C14.5347 5.60884 14.2381 5.73181 14.0193 5.95056C13.8005 6.16932 13.6776 6.46596 13.6774 6.77533V10.0467C13.6776 10.356 13.8005 10.6527 14.0193 10.8714C14.2381 11.0902 14.5347 11.2131 14.8441 11.2133H18.1041C18.4135 11.2133 18.7102 11.0904 18.929 10.8716C19.1478 10.6528 19.2707 10.3561 19.2707 10.0467V6.77533ZM18.2707 6.77533V10.0467C18.2707 10.0909 18.2532 10.1333 18.2219 10.1645C18.1907 10.1958 18.1483 10.2133 18.1041 10.2133H14.8441C14.7999 10.2133 14.7575 10.1958 14.7261 10.1647C14.6949 10.1333 14.6775 10.0909 14.6774 10.0467V6.77533C14.6774 6.73112 14.695 6.68873 14.7262 6.65747C14.7575 6.62622 14.7999 6.60866 14.8441 6.60866H18.1041C18.126 6.60861 18.1477 6.6129 18.1679 6.62126C18.1881 6.62962 18.2065 6.64189 18.222 6.65738C18.2375 6.67286 18.2498 6.69125 18.2581 6.71149C18.2665 6.73173 18.2708 6.75343 18.2707 6.77533Z" fill="#fff"/>
</g>
<defs>
<clipPath id="clip0_2035_1625">
<rect width="32" height="32" fill="#313131"/>
</clipPath>
</defs>
</svg>
