<svg width="56" height="56" viewBox="0 0 56 56" fill="none" xmlns="http://www.w3.org/2000/svg">
<g clip-path="url(#clip0_2012_1276)">
<path fill-rule="evenodd" clip-rule="evenodd" d="M37.6254 20.6943V2.91724C37.6254 2.22104 37.3489 1.55336 36.8566 1.06108C36.3643 0.568798 35.6966 0.292236 35.0004 0.292236H10.5938C9.89756 0.292236 9.22988 0.568798 8.73759 1.06108C8.24531 1.55336 7.96875 2.22104 7.96875 2.91724V53.0839C7.96875 53.7801 8.24531 54.4478 8.73759 54.9401C9.22988 55.4323 9.89756 55.7089 10.5938 55.7089H35.0004C35.6966 55.7089 36.3643 55.4323 36.8566 54.9401C37.3489 54.4478 37.6254 53.7801 37.6254 53.0839V38.1908C37.6254 37.9588 37.5332 37.7362 37.3691 37.5721C37.205 37.408 36.9825 37.3158 36.7504 37.3158C36.5183 37.3158 36.2958 37.408 36.1317 37.5721C35.9676 37.7362 35.8754 37.9588 35.8754 38.1908V53.0839C35.8754 53.316 35.7832 53.5385 35.6191 53.7026C35.455 53.8667 35.2325 53.9589 35.0004 53.9589H10.5938C10.3617 53.9589 10.1391 53.8667 9.97503 53.7026C9.81094 53.5385 9.71875 53.316 9.71875 53.0839V2.91724C9.71875 2.68517 9.81094 2.46261 9.97503 2.29852C10.1391 2.13442 10.3617 2.04224 10.5938 2.04224H35.0004C35.1153 2.04216 35.2292 2.06474 35.3354 2.10869C35.4415 2.15263 35.538 2.21708 35.6193 2.29835C35.7006 2.37961 35.765 2.4761 35.809 2.5823C35.8529 2.68849 35.8755 2.80231 35.8754 2.91724V20.6943C35.8754 20.9264 35.9676 21.1489 36.1317 21.313C36.2958 21.4771 36.5183 21.5693 36.7504 21.5693C36.9825 21.5693 37.205 21.4771 37.3691 21.313C37.5332 21.1489 37.6254 20.9264 37.6254 20.6943Z" fill="#F17C04"/>
<path fill-rule="evenodd" clip-rule="evenodd" d="M13.0708 50.7967H15.9222C16.1542 50.7967 16.3768 50.7045 16.5409 50.5404C16.705 50.3763 16.7972 50.1537 16.7972 49.9217C16.7972 49.6896 16.705 49.467 16.5409 49.3029C16.3768 49.1388 16.1542 49.0467 15.9222 49.0467H13.0708C12.8388 49.0467 12.6162 49.1388 12.4521 49.3029C12.288 49.467 12.1958 49.6896 12.1958 49.9217C12.1958 50.1537 12.288 50.3763 12.4521 50.5404C12.6162 50.7045 12.8388 50.7967 13.0708 50.7967ZM13.0708 35.9135H20.7878C21.0198 35.9135 21.2424 35.8213 21.4065 35.6572C21.5706 35.4931 21.6628 35.2705 21.6628 35.0385C21.6628 34.8064 21.5706 34.5839 21.4065 34.4198C21.2424 34.2557 21.0198 34.1635 20.7878 34.1635H13.0708C12.8443 34.1718 12.6298 34.2676 12.4725 34.4308C12.3151 34.5939 12.2272 34.8118 12.2272 35.0385C12.2272 35.2652 12.3151 35.483 12.4725 35.6462C12.6298 35.8094 12.8443 35.9052 13.0708 35.9135ZM13.0708 39.4782H20.7878C21.0198 39.4782 21.2424 39.3861 21.4065 39.222C21.5706 39.0579 21.6628 38.8353 21.6628 38.6032C21.6628 38.3712 21.5706 38.1486 21.4065 37.9845C21.2424 37.8204 21.0198 37.7282 20.7878 37.7282H13.0708C12.8388 37.7282 12.6162 37.8204 12.4521 37.9845C12.288 38.1486 12.1958 38.3712 12.1958 38.6032C12.1958 38.8353 12.288 39.0579 12.4521 39.222C12.6162 39.3861 12.8388 39.4782 13.0708 39.4782ZM13.0708 43.0424H20.7878C21.0198 43.0424 21.2424 42.9502 21.4065 42.7861C21.5706 42.622 21.6628 42.3995 21.6628 42.1674C21.6628 41.9353 21.5706 41.7128 21.4065 41.5487C21.2424 41.3846 21.0198 41.2924 20.7878 41.2924H13.0708C12.8388 41.2924 12.6162 41.3846 12.4521 41.5487C12.288 41.7128 12.1958 41.9353 12.1958 42.1674C12.1958 42.3995 12.288 42.622 12.4521 42.7861C12.6162 42.9502 12.8388 43.0424 13.0708 43.0424ZM29.6702 50.7967H32.5215C32.7536 50.7967 32.9761 50.7045 33.1402 50.5404C33.3043 50.3763 33.3965 50.1537 33.3965 49.9217C33.3965 49.6896 33.3043 49.467 33.1402 49.3029C32.9761 49.1388 32.7536 49.0467 32.5215 49.0467H29.6702C29.4436 49.0549 29.2291 49.1507 29.0718 49.3139C28.9145 49.4771 28.8265 49.695 28.8265 49.9217C28.8265 50.1483 28.9145 50.3662 29.0718 50.5294C29.2291 50.6926 29.4436 50.7884 29.6702 50.7967ZM21.3705 50.7967H24.2218C24.4539 50.7967 24.6765 50.7045 24.8406 50.5404C25.0046 50.3763 25.0968 50.1537 25.0968 49.9217C25.0968 49.6896 25.0046 49.467 24.8406 49.3029C24.6765 49.1388 24.4539 49.0467 24.2218 49.0467H21.3705C21.1384 49.0467 20.9159 49.1388 20.7518 49.3029C20.5877 49.467 20.4955 49.6896 20.4955 49.9217C20.4955 50.1537 20.5877 50.3763 20.7518 50.5404C20.9159 50.7045 21.1384 50.7967 21.3705 50.7967ZM22.0413 6.85474H23.551C23.7831 6.85474 24.0056 6.76255 24.1697 6.59845C24.3338 6.43436 24.426 6.2118 24.426 5.97974C24.426 5.74767 24.3338 5.52511 24.1697 5.36102C24.0056 5.19692 23.7831 5.10474 23.551 5.10474H22.0413C21.8093 5.10474 21.5867 5.19692 21.4226 5.36102C21.2585 5.52511 21.1663 5.74767 21.1663 5.97974C21.1663 6.2118 21.2585 6.43436 21.4226 6.59845C21.5867 6.76255 21.8093 6.85474 22.0413 6.85474ZM40.1906 31.276C40.177 31.2624 40.1672 31.2455 40.1623 31.227C40.1574 31.2084 40.1575 31.1889 40.1626 31.1704C40.43 29.9254 40.3812 28.6333 40.0204 27.4121C39.6597 26.1909 38.9986 25.0795 38.0976 24.1797C36.6735 22.7526 34.7412 21.9488 32.7251 21.945C32.3698 21.9424 32.0218 22.0455 31.7254 22.2412C31.4289 22.437 31.1973 22.7164 31.0601 23.0441C30.9229 23.3718 30.8863 23.7329 30.9548 24.0815C31.0234 24.4301 31.1941 24.7504 31.4453 25.0017C32.189 25.7495 32.9835 26.544 32.9835 26.544C33.0829 26.6433 33.1617 26.7612 33.2154 26.891C33.2692 27.0207 33.2969 27.1598 33.2969 27.3003C33.2969 27.4407 33.2692 27.5798 33.2154 27.7096C33.1617 27.8394 33.0829 27.9573 32.9835 28.0566L31.1752 29.8649C31.0759 29.9642 30.9581 30.043 30.8284 30.0968C30.6986 30.1506 30.5596 30.1782 30.4192 30.1782C30.2788 30.1782 30.1397 30.1506 30.01 30.0968C29.8803 30.043 29.7624 29.9642 29.6632 29.8649L28.1226 28.3243C27.8705 28.0719 27.549 27.9004 27.1989 27.8317C26.8489 27.7631 26.4863 27.8003 26.1576 27.9388C25.8289 28.0773 25.5489 28.3106 25.3535 28.6091C25.1581 28.9075 25.0561 29.2574 25.0607 29.6141C25.0689 31.6278 25.8736 33.5565 27.2989 34.979C28.1998 35.8805 29.3121 36.5421 30.5343 36.9032C31.7566 37.2643 33.0498 37.3135 34.296 37.0463C34.313 37.0426 34.3307 37.0432 34.3474 37.0481C34.3641 37.053 34.3794 37.062 34.3917 37.0743L34.3934 37.0755C35.6989 38.3763 39.9613 42.6381 42.6464 45.3232C43.415 46.0918 44.4575 46.5236 45.5444 46.5236C46.6314 46.5236 47.6738 46.0918 48.4424 45.3232C48.823 44.9427 49.1248 44.491 49.3308 43.9938C49.5367 43.4966 49.6427 42.9637 49.6427 42.4255C49.6427 41.8874 49.5367 41.3545 49.3308 40.8573C49.1248 40.3601 48.823 39.9083 48.4424 39.5278L40.1906 31.276ZM38.9528 32.5132L47.2046 40.7651C47.6449 41.2055 47.8923 41.8028 47.8923 42.4255C47.8923 43.0483 47.6449 43.6456 47.2046 44.086C46.9866 44.3041 46.7278 44.4771 46.4429 44.5951C46.1581 44.7131 45.8528 44.7739 45.5444 44.7739C45.2361 44.7739 44.9308 44.7131 44.6459 44.5951C44.361 44.4771 44.1022 44.3041 43.8843 44.086C41.1337 41.3344 38.3817 38.5841 35.6283 35.8353C35.4089 35.6164 35.1381 35.4559 34.8406 35.3687C34.5431 35.2815 34.2285 35.2702 33.9256 35.336C32.9656 35.5407 31.9696 35.5021 31.0283 35.2237C30.087 34.9452 29.2303 34.4358 28.5362 33.7417C27.4362 32.643 26.8159 31.1536 26.8107 29.5989V29.5931C26.8107 29.5756 26.8212 29.5592 26.8375 29.5522C26.8454 29.5491 26.8541 29.5483 26.8625 29.5499C26.8709 29.5516 26.8786 29.5556 26.8848 29.5616L28.4253 31.1022C28.6871 31.364 28.9979 31.5716 29.34 31.7133C29.682 31.855 30.0486 31.9279 30.4189 31.9279C30.7891 31.9279 31.1557 31.855 31.4978 31.7133C31.8398 31.5716 32.1506 31.364 32.4124 31.1022L34.2213 29.2938C34.7499 28.765 35.0469 28.048 35.0469 27.3003C35.0469 26.5526 34.7499 25.8355 34.2213 25.3067C34.2213 25.3067 33.428 24.5134 32.6843 23.7662L32.6825 23.7644C32.6767 23.7586 32.6728 23.7513 32.6712 23.7433C32.6697 23.7353 32.6706 23.727 32.6738 23.7195C32.6769 23.7121 32.6822 23.7058 32.689 23.7014C32.6957 23.6971 32.7036 23.6948 32.7117 23.695H32.7193C34.219 23.7002 35.717 24.2742 36.8603 25.4176C37.5546 26.1111 38.064 26.9676 38.342 27.9088C38.62 28.8499 38.6577 29.8458 38.4517 30.8052C38.3851 31.1091 38.3962 31.4248 38.4837 31.7233C38.5713 32.0218 38.7326 32.2935 38.9528 32.5132ZM21.6628 11.8568C21.663 11.5886 21.6103 11.323 21.5078 11.0752C21.4053 10.8274 21.2549 10.6023 21.0653 10.4126C20.8756 10.223 20.6505 10.0726 20.4027 9.9701C20.1549 9.86758 19.8893 9.81492 19.6211 9.81515H13.9167C13.3752 9.81515 12.8559 10.0303 12.473 10.4131C12.0901 10.796 11.875 11.3153 11.875 11.8568V17.5817C11.8748 17.8498 11.9274 18.1154 12.0299 18.3632C12.1325 18.611 12.2828 18.8362 12.4725 19.0258C12.6621 19.2155 12.8873 19.3659 13.1351 19.4684C13.3829 19.5709 13.6485 19.6235 13.9167 19.6233H19.6211C20.1626 19.6233 20.6819 19.4082 21.0648 19.0253C21.4476 18.6424 21.6628 18.1231 21.6628 17.5817V11.8568ZM19.9128 11.8568V17.5817C19.9128 17.659 19.882 17.7332 19.8273 17.7879C19.7726 17.8426 19.6984 17.8733 19.6211 17.8733H13.9167C13.8393 17.8733 13.7651 17.8426 13.7104 17.7879C13.6557 17.7332 13.625 17.659 13.625 17.5817V11.8568C13.625 11.7795 13.6557 11.7053 13.7104 11.6506C13.7651 11.5959 13.8393 11.5652 13.9167 11.5652H19.6211C19.6984 11.5652 19.7726 11.5959 19.8273 11.6506C19.882 11.7053 19.9128 11.7795 19.9128 11.8568ZM21.6628 23.3987C21.6631 23.1304 21.6105 22.8648 21.508 22.617C21.4055 22.3691 21.2551 22.1439 21.0654 21.9543C20.8758 21.7646 20.6506 21.6143 20.4028 21.5118C20.1549 21.4093 19.8893 21.3567 19.6211 21.357H13.9167C13.6485 21.3567 13.3828 21.4093 13.135 21.5118C12.8871 21.6143 12.662 21.7646 12.4723 21.9543C12.2827 22.1439 12.1323 22.3691 12.0298 22.617C11.9273 22.8648 11.8747 23.1304 11.875 23.3987V29.1235C11.875 29.665 12.0901 30.1843 12.473 30.5672C12.8559 30.95 13.3752 31.1652 13.9167 31.1652H19.6211C20.1626 31.1652 20.6819 30.95 21.0648 30.5672C21.4476 30.1843 21.6628 29.665 21.6628 29.1235V23.3987ZM19.9128 23.3987V29.1235C19.9128 29.2008 19.882 29.275 19.8273 29.3297C19.7726 29.3844 19.6984 29.4152 19.6211 29.4152H13.9167C13.8393 29.4152 13.7651 29.3844 13.7104 29.3297C13.6557 29.275 13.625 29.2008 13.625 29.1235V23.3987C13.625 23.3213 13.6557 23.2471 13.7104 23.1924C13.7651 23.1377 13.8393 23.107 13.9167 23.107H19.6211C19.6984 23.107 19.7726 23.1377 19.8273 23.1924C19.882 23.2471 19.9128 23.3213 19.9128 23.3987ZM33.7179 11.8568C33.7181 11.5887 33.6654 11.3231 33.5628 11.0753C33.4603 10.8275 33.3099 10.6024 33.1203 10.4128C32.9307 10.2232 32.7055 10.0728 32.4577 9.97025C32.21 9.8677 31.9444 9.815 31.6763 9.81515H25.9713C25.4299 9.81546 24.9107 10.0307 24.5279 10.4135C24.1451 10.7963 23.9299 11.3154 23.9296 11.8568V17.5817C23.9299 18.123 24.1451 18.6422 24.5279 19.025C24.9107 19.4078 25.4299 19.623 25.9713 19.6233H31.6763C32.2177 19.6233 32.737 19.4082 33.1199 19.0253C33.5028 18.6424 33.7179 18.1231 33.7179 17.5817V11.8568ZM31.9679 11.8568V17.5817C31.9679 17.659 31.9372 17.7332 31.8825 17.7879C31.8278 17.8426 31.7536 17.8733 31.6763 17.8733H25.9713C25.8939 17.8732 25.8197 17.8426 25.7648 17.7882C25.7103 17.7332 25.6797 17.659 25.6796 17.5817V11.8568C25.6796 11.7795 25.7103 11.7053 25.765 11.6506C25.8197 11.5959 25.8939 11.5652 25.9713 11.5652H31.6763C31.7146 11.5651 31.7525 11.5726 31.788 11.5872C31.8234 11.6018 31.8556 11.6233 31.8827 11.6504C31.9098 11.6775 31.9312 11.7097 31.9459 11.7451C31.9605 11.7805 31.968 11.8185 31.9679 11.8568Z" fill="#F17C04"/>
</g>
<defs>
<clipPath id="clip0_2012_1276">
<rect width="56" height="56" fill="white"/>
</clipPath>
</defs>
</svg>
