<svg width="32" height="32" viewBox="0 0 32 32" fill="none" xmlns="http://www.w3.org/2000/svg">
<path d="M19.3729 29.7555C18.9738 29.8569 18.5716 29.9391 18.1663 30.0022C17.4305 30.1092 16.6894 30.1751 15.9463 30.1995C15.1713 30.2218 14.3959 30.1714 13.6303 30.0489C12.8196 29.9301 12.0213 29.7386 11.2449 29.4769C9.81556 28.9962 8.47911 28.2742 7.29361 27.3422C6.07333 26.3794 5.03365 25.2077 4.22294 23.8815C3.38255 22.5078 2.77966 21.0023 2.43961 19.4282C2.10578 17.7802 2.01928 16.0917 2.18294 14.4182L2.18628 14.3809C2.31571 16.653 3.05017 18.8493 4.31361 20.7422C5.29585 22.1982 6.59075 23.4166 8.10383 24.3085C9.61691 25.2004 11.31 25.7433 13.0596 25.8975C13.3765 25.9242 13.6965 25.9375 14.0196 25.9375C15.4503 25.9383 16.8687 25.6729 18.2023 25.1549C18.223 25.1592 18.2434 25.1646 18.2636 25.1709C18.3503 25.2013 18.4297 25.2494 18.497 25.312C18.5642 25.3747 18.6178 25.4505 18.6543 25.5349C18.9563 26.1495 19.2496 26.7689 19.5476 27.3855C19.5569 27.4073 19.5672 27.4291 19.5783 27.4509C19.7307 27.7646 19.8825 28.0791 20.0336 28.3942C20.1188 28.5128 20.1783 28.6479 20.2085 28.7908C20.2387 28.9336 20.2389 29.0812 20.2089 29.2242C20.0789 29.6069 19.7069 29.6695 19.3729 29.7555Z" stroke="white" stroke-linecap="round" stroke-linejoin="round"/>
<path d="M7.0532 14.4751L6.9892 14.9464C6.80762 16.5703 7.03639 18.2138 7.65453 19.7264C8.25815 21.1926 9.22382 22.4817 10.4612 23.4731C11.4738 24.287 12.6556 24.8641 13.9201 25.1623C15.1845 25.4605 16.4997 25.4721 17.7692 25.1964C17.9093 25.1532 18.0568 25.1394 18.2025 25.1557M23.9239 5.66307C23.9233 5.9826 23.8652 6.29941 23.7525 6.5984C23.5823 7.06066 23.2755 7.46026 22.873 7.74422C22.4705 8.02817 21.9911 8.18308 21.4985 8.1884C21.0933 8.18896 20.6949 8.08396 20.3425 7.88374V7.88507C19.2308 7.2365 17.9921 6.8358 16.7112 6.7104C15.1187 6.5594 13.5157 6.85658 12.0832 7.5684C11.3824 7.91369 10.73 8.34941 10.1425 8.8644C9.58452 9.3533 9.08678 9.90699 8.65987 10.5137C7.83363 11.6967 7.28469 13.0507 7.05387 14.4751C7.11326 13.2066 7.36108 11.954 7.7892 10.7584C8.57761 8.44748 10.0616 6.43702 12.0376 5.00272C14.0137 3.56843 16.385 2.78053 18.8265 2.74707C19.067 2.74707 19.3056 2.75485 19.5425 2.7704C20.3415 2.8211 21.1328 2.9563 21.9032 3.17374H21.9072C22.0836 3.22351 22.2583 3.27751 22.4312 3.33574C22.5619 3.4024 22.6916 3.47218 22.8205 3.54507L22.8252 3.5484C23.1666 3.7849 23.4452 4.1011 23.6367 4.4696C23.8283 4.8381 23.9264 5.24776 23.9239 5.66307Z" stroke="white" stroke-linecap="round" stroke-linejoin="round"/>
<path d="M29.1265 20.2359C28.9058 20.9607 28.6281 21.6669 28.2958 22.3478C28.2278 22.4874 28.1571 22.6261 28.0838 22.7639C27.9816 22.9576 27.8749 23.1487 27.7638 23.3372C27.6118 23.5469 27.4805 23.7708 27.3718 24.0058L27.3825 23.9712C27.4514 23.7814 27.5158 23.5896 27.5758 23.3959C27.956 22.1603 28.1488 20.8746 28.1478 19.5818C28.1558 16.9428 27.3437 14.3665 25.8238 12.2092C24.4863 10.3051 22.6257 8.82936 20.4671 7.96052C20.4258 7.9343 20.384 7.90896 20.3418 7.88452L20.3425 7.88385C20.6949 8.08384 21.0933 8.18861 21.4985 8.18785C21.9909 8.1824 22.4701 8.02743 22.8725 7.74348C23.2749 7.45953 23.5816 7.06001 23.7518 6.59785C23.8647 6.2989 23.923 5.98208 23.9238 5.66252C23.9264 5.24721 23.8276 4.83755 23.636 4.46905C23.4444 4.10055 23.1659 3.78435 22.8245 3.54785C22.9996 3.64652 23.1725 3.74896 23.3431 3.85518C24.5298 4.59601 25.5905 5.52168 26.4851 6.59718C27.4755 7.78677 28.2617 9.13236 28.8118 10.5792C29.4007 12.175 29.7152 13.859 29.7418 15.5599C29.7866 17.1414 29.5793 18.7199 29.1265 20.2359Z" stroke="white" stroke-linecap="round" stroke-linejoin="round"/>
<path d="M24.1444 29.2506C24.2751 29.5226 24.4004 29.9306 24.6671 30.092C24.8682 30.1799 25.0896 30.2111 25.3071 30.182L29.2464 30.1806C29.3595 30.1763 29.4697 30.1435 29.5667 30.0853C29.6638 30.0272 29.7446 29.9455 29.8018 29.8478C29.8589 29.7501 29.8905 29.6396 29.8937 29.5265C29.8968 29.4134 29.8714 29.3013 29.8198 29.2006L29.0731 27.7353L27.5518 24.7533C27.4672 24.618 27.4034 24.4708 27.3624 24.3166C27.3624 24.3166 27.3071 24.2253 27.3824 23.9706C27.4518 23.7813 27.5164 23.5897 27.5764 23.396C27.9567 22.1601 28.1495 20.8743 28.1484 19.5813C28.1564 16.9425 27.3443 14.3665 25.8244 12.2093C24.4871 10.305 22.6265 8.82899 20.4678 7.95996C20.5633 8.01774 20.6576 8.07774 20.7504 8.13996C21.8589 8.88177 22.7942 9.85414 23.4924 10.9906C24.3268 12.3555 24.8084 13.9065 24.8938 15.504C24.9725 16.9431 24.7307 18.3817 24.1858 19.716C23.6682 20.9748 22.8835 22.1062 21.8858 23.032C21.7345 23.1416 21.6169 23.2915 21.5464 23.4646C21.4979 23.624 21.5062 23.7953 21.5698 23.9493L24.1444 29.2506Z" stroke="white" stroke-linecap="round" stroke-linejoin="round"/>
</svg>
