<svg width="56" height="56" viewBox="0 0 56 56" fill="none" xmlns="http://www.w3.org/2000/svg">
<path fill-rule="evenodd" clip-rule="evenodd" d="M19.8307 28C24.3428 28 27.9974 24.3454 27.9974 19.8333C27.9974 15.3212 24.3428 11.6666 19.8307 11.6666C15.3186 11.6666 11.6641 15.3212 11.6641 19.8333C11.6641 24.3454 15.3186 28 19.8307 28ZM25.6641 19.8333C25.6641 23.0567 23.0541 25.6666 19.8307 25.6666C16.6073 25.6666 13.9974 23.0567 13.9974 19.8333C13.9974 16.6099 16.6073 14 19.8307 14C23.0541 14 25.6641 16.6099 25.6641 19.8333ZM4.66406 44.3333V37.8C4.66406 32.8346 14.7688 30.3333 19.8307 30.3333C23.198 30.3333 28.7967 31.4401 32.1681 33.6429C34.5711 32.9931 37.2066 32.6666 39.0807 32.6666C41.2483 32.6666 44.1569 33.1032 46.5581 33.9858C47.7565 34.4264 48.9028 35.0046 49.77 35.754C50.6433 36.5086 51.3307 37.5288 51.3307 38.8111V44.3333H4.66406ZM6.9974 37.8C6.9974 37.4297 7.16722 36.9233 7.89127 36.2653C8.62966 35.5944 9.76615 34.9429 11.2054 34.3752C14.0861 33.239 17.5868 32.6666 19.8307 32.6666C22.0747 32.6666 25.5754 33.239 28.4561 34.3752C29.8953 34.9429 31.0318 35.5944 31.7702 36.2653C32.4942 36.9233 32.6641 37.4297 32.6641 37.8V42H6.9974V37.8ZM34.2428 35.5474C36.0074 35.1825 37.778 35 39.0807 35C41.0016 35 43.6347 35.3972 45.753 36.1758C46.8143 36.566 47.6724 37.0253 48.2444 37.5196C48.8105 38.0087 48.9974 38.4381 48.9974 38.8111V42H34.9974V37.8C34.9974 36.9822 34.7233 36.2313 34.2428 35.5474ZM45.4974 23.9166C45.4974 27.4618 42.6259 30.3333 39.0807 30.3333C35.5356 30.3333 32.6641 27.4618 32.6641 23.9166C32.6641 20.3714 35.5356 17.5 39.0807 17.5C42.6259 17.5 45.4974 20.3714 45.4974 23.9166ZM39.0807 28C41.3373 28 43.1641 26.1732 43.1641 23.9166C43.1641 21.6601 41.3373 19.8333 39.0807 19.8333C36.8242 19.8333 34.9974 21.6601 34.9974 23.9166C34.9974 26.1732 36.8242 28 39.0807 28Z" fill="#F17C04"/>
</svg>
