<svg width="32" height="32" viewBox="0 0 32 32" fill="none" xmlns="http://www.w3.org/2000/svg">
<path d="M26.8951 17.6374L26.9439 11.0129C26.9444 10.8975 26.9211 10.7831 26.8753 10.6763C26.8295 10.5696 26.7621 10.4725 26.6771 10.3908C26.592 10.309 26.4908 10.2441 26.3795 10.1999C26.2682 10.1557 26.1488 10.1329 26.0282 10.133L18.2243 10.1421C18.2117 9.80903 18.1722 9.47743 18.106 9.15024L18.0688 8.97553L16.5895 8.54492C16.5593 8.47014 16.5273 8.39652 16.4934 8.32407L16.6175 8.10205H21.4009V7.50376H16.9518L17.2214 7.02115L17.171 6.9487H18.7682L20.0229 5.79535H26.2094C26.286 6.10106 26.477 6.36925 26.7463 6.54908C27.0156 6.72891 27.3445 6.80787 27.6706 6.77099C27.9967 6.7341 28.2973 6.58394 28.5154 6.34897C28.7336 6.114 28.854 5.81057 28.854 5.4962C28.854 5.18184 28.7336 4.8784 28.5154 4.64344C28.2973 4.40847 27.9967 4.2583 27.6706 4.22142C27.3445 4.18453 27.0156 4.26349 26.7463 4.44332C26.477 4.62315 26.286 4.89135 26.2094 5.19706H19.7715L18.5167 6.3504H16.7137C16.2729 5.83568 15.7514 5.38962 15.1676 5.02818L15.0001 4.92417L13.746 5.68081L13.7051 5.66328L13.4317 4.26045L13.2407 4.21195C12.106 3.92777 10.9139 3.92939 9.78015 4.21663L9.58609 4.26629L9.34137 5.66036C9.29316 5.68023 9.24525 5.70125 9.19795 5.72287L7.92768 4.99078L7.76261 5.0977C7.01026 5.58326 6.36847 6.20974 5.87599 6.93933L5.76523 7.10292L6.56864 8.27614C6.51494 8.3889 6.46553 8.50342 6.42065 8.61852L4.98195 8.92819L4.94106 9.11632C4.84707 9.54912 4.79983 9.99004 4.80009 10.4321H4.83274C4.67112 10.5938 4.58075 10.8089 4.58039 11.0327V12.0609L2.04747 9.63573L0 11.5966L4.59837 15.9991H4.58036V23.1447C4.58034 23.1915 4.58432 23.2382 4.59227 23.2843C4.62608 23.4901 4.73576 23.6775 4.90145 23.8126C5.06713 23.9476 5.27786 24.0214 5.49546 24.0205H12.2632L11.0581 26.9045H19.8126L18.608 24.0205H21.3159C21.5494 24.9553 22.0497 25.8096 22.7609 26.488C23.4721 27.1663 24.3662 27.6421 25.3435 27.8622C26.3207 28.0823 27.3426 28.038 28.2951 27.7343C29.2476 27.4306 30.0932 26.8794 30.7375 26.1423C31.3818 25.4052 31.7994 24.5112 31.9437 23.56C32.0881 22.6088 31.9534 21.6379 31.5549 20.7558C31.1563 19.8736 30.5095 19.1148 29.6867 18.5642C28.8638 18.0135 27.8973 17.6927 26.8951 17.6374ZM27.5096 4.81086C27.6512 4.81086 27.7896 4.85105 27.9074 4.92636C28.0251 5.00167 28.1168 5.1087 28.171 5.23394C28.2252 5.35917 28.2394 5.49697 28.2117 5.62991C28.1841 5.76286 28.1159 5.88498 28.0158 5.98082C27.9157 6.07667 27.7882 6.14195 27.6493 6.16839C27.5104 6.19483 27.3665 6.18126 27.2357 6.12939C27.1049 6.07752 26.9931 5.98967 26.9144 5.87697C26.8358 5.76426 26.7938 5.63176 26.7938 5.49621C26.794 5.31449 26.8695 5.14026 27.0037 5.01177C27.1379 4.88327 27.3198 4.81102 27.5096 4.81086ZM6.89816 9.1292L6.954 8.96911C7.02379 8.76939 7.10801 8.57455 7.20604 8.38601L7.28568 8.23235L6.51308 7.10353C6.90583 6.5619 7.39167 6.08797 7.94996 5.70189L9.17111 6.40594L9.32609 6.3294C9.45943 6.26396 9.59674 6.20376 9.7368 6.15002L9.89974 6.08809L10.1353 4.74836C11.0417 4.54816 11.9836 4.54716 12.8904 4.74544L13.1534 6.0928L13.3124 6.15414C13.421 6.19621 13.5275 6.24159 13.6319 6.29028L13.7881 6.36273L14.9925 5.63648C15.5752 6.02273 16.0829 6.50363 16.4925 7.05742L15.7943 8.30713L15.863 8.44385C15.9355 8.58871 16 8.73712 16.0561 8.88848L16.1089 9.03046L17.5275 9.44296C17.5668 9.67462 17.5916 9.90832 17.6017 10.1428L15.0615 10.1458C14.9872 9.30827 14.5869 8.52807 13.94 7.95983C13.2932 7.39159 12.4469 7.07678 11.569 7.07781C10.6911 7.07883 9.84561 7.39562 9.20018 7.96537C8.55475 8.53511 8.15647 9.31624 8.08428 10.1539L5.49545 10.1569C5.47545 10.1569 5.45671 10.1614 5.43701 10.1626C5.44683 9.91592 5.47297 9.6701 5.51529 9.42659L6.89816 9.1292ZM14.4216 10.1465L8.72393 10.1532C8.79227 9.47569 9.12149 8.84679 9.64751 8.38891C10.1735 7.93104 10.8587 7.67695 11.5696 7.67613C12.2805 7.6753 12.9663 7.92778 13.4935 8.38443C14.0207 8.84107 14.3515 9.4692 14.4216 10.1465ZM7.96125 16.144L7.60039 16.4894L1.68644 10.8276L2.04745 10.4818L7.96125 16.144ZM8.27905 16.6856L8.81593 18.0761L7.36301 17.5625L8.27905 16.6856ZM1.24472 11.2507L7.15848 16.9123L6.79716 17.2582L0.883672 11.5966L1.24472 11.2507ZM6.79716 18.1042L6.87665 18.0281L9.8723 19.0881L8.76554 16.22L8.84491 16.144L5.20527 12.6592V11.0328C5.20543 10.9591 5.2361 10.8885 5.29057 10.8365C5.34503 10.7844 5.41882 10.7552 5.49576 10.7552L26.0285 10.7313C26.0667 10.7313 26.1045 10.7384 26.1397 10.7524C26.175 10.7663 26.207 10.7868 26.234 10.8127C26.261 10.8385 26.2824 10.8692 26.297 10.9029C26.3116 10.9367 26.3191 10.9729 26.319 11.0094L26.2701 17.6372C25.1996 17.6971 24.1716 18.0595 23.3161 18.6786C22.4607 19.2977 21.8162 20.1458 21.4641 21.1155H5.20528V16.5801L6.79716 18.1042ZM18.8899 26.3062H11.9814L12.9362 24.0205H17.9352L18.8899 26.3062ZM18.3581 23.4222H5.49547C5.41927 23.42 5.34681 23.3901 5.29288 23.3385C5.23895 23.287 5.20762 23.2176 5.20528 23.1447V21.7138H21.2855C21.1551 22.2744 21.1269 22.8524 21.2021 23.4222L18.3581 23.4222ZM26.5805 27.4011C25.6322 27.4011 24.7053 27.1319 23.9168 26.6275C23.1284 26.1231 22.5138 25.4062 22.1509 24.5675C21.788 23.7287 21.6931 22.8058 21.8781 21.9153C22.063 21.0249 22.5196 20.207 23.1901 19.565C23.8606 18.923 24.7149 18.4858 25.645 18.3087C26.575 18.1315 27.539 18.2224 28.4151 18.5698C29.2912 18.9172 30.04 19.5055 30.5669 20.2603C31.0938 21.0151 31.375 21.9026 31.3751 22.8105C31.3736 24.0275 30.8681 25.1943 29.9692 26.0549C29.0704 26.9155 27.8517 27.3996 26.5805 27.4011ZM24.3073 8.10206V7.50376H25.0417V8.10206H24.3073ZM22.5006 8.10206V7.50376H23.235V8.10206H22.5006ZM11.5615 11.9541H8.92578V14.4776H11.5615V11.9541ZM10.9366 13.8793H9.55069V12.5524H10.9366V13.8793ZM16.2981 15.087H12.7442V18.4892H16.2981L16.2981 15.087ZM15.6732 17.8909H13.3691V15.6853H15.6732L15.6732 17.8909ZM19.7739 17.3604H22.492V11.9541H16.8452V14.5565H19.7739L19.7739 17.3604ZM17.4701 13.9582V12.5524H21.8671V16.7621H20.3988V13.9582H17.4701ZM13.6581 19.6507H14.521V20.249H13.6581L13.6581 19.6507ZM15.3491 19.6507H16.2121V20.249H15.3492L15.3491 19.6507ZM10.2436 19.6507H11.1069V20.249H10.2436L10.2436 19.6507ZM12.7979 20.249H11.9347V19.6507H12.7979L12.7979 20.249ZM11.2243 22.2122H12.0876V22.8105H11.2243L11.2243 22.2122ZM12.9154 22.2122H13.7783V22.8105H12.9154L12.9154 22.2122ZM7.80989 22.2122H8.67312V22.8105H7.80987L7.80989 22.2122ZM9.50095 22.2122H10.3642V22.8105H9.50096L9.50095 22.2122ZM26.6315 18.9502C25.5584 18.9513 24.5297 19.36 23.7709 20.0864C23.0122 20.8128 22.5854 21.7978 22.5842 22.8251V23.1242H30.6791V22.8251C30.6778 21.7977 30.251 20.8128 29.4921 20.0864C28.7333 19.3599 27.7045 18.9513 26.6315 18.9502ZM27.4438 22.5259L27.9832 22.0597L27.5646 21.6157L26.5114 22.5259H23.2231C23.296 21.8026 23.6199 21.1235 24.143 20.5969L24.7174 21.1698L25.1684 20.755L24.6104 20.1984C25.1457 19.8183 25.7864 19.5979 26.4521 19.5649V20.3501H27.077V19.5892C27.8453 19.6849 28.557 20.0276 29.0953 20.5612C29.6337 21.0947 29.9668 21.7874 30.0401 22.5259H27.4438ZM28.3021 21.1593L29.0819 20.5686L29.4695 21.0384L28.6896 21.6291L28.3021 21.1593Z" fill="white"/>
</svg>
