<svg width="232" height="129" viewBox="0 0 232 129" fill="none" xmlns="http://www.w3.org/2000/svg">
<path d="M34.0732 14.3192H32.0541C31.9241 14.3192 31.8188 14.2144 31.8188 14.0849V12.0752C31.8188 11.9457 31.9241 11.8409 32.0541 11.8409H34.0732C34.2032 11.8409 34.3084 11.9457 34.3084 12.0752V14.0849C34.3084 14.2144 34.2032 14.3192 34.0732 14.3192Z" fill="white"/>
<path d="M37.4106 14.3192H35.3915C35.2615 14.3192 35.1562 14.2144 35.1562 14.0849V12.0752C35.1562 11.9457 35.2615 11.8409 35.3915 11.8409H37.4106C37.5406 11.8409 37.6459 11.9457 37.6459 12.0752V14.0849C37.6459 14.2144 37.5406 14.3192 37.4106 14.3192Z" fill="white"/>
<path d="M40.7354 14.3192H38.7167C38.5867 14.3192 38.4814 14.2144 38.4814 14.0849V12.0752C38.4814 11.9457 38.5867 11.8409 38.7167 11.8409H40.7354C40.8655 11.8409 40.9707 11.9457 40.9707 12.0752V14.0849C40.9707 14.2144 40.8655 14.3192 40.7354 14.3192Z" fill="white"/>
<path d="M203.683 101.36H201.664C201.533 101.36 201.428 101.255 201.428 101.126V99.1162C201.428 98.9867 201.533 98.882 201.664 98.882H203.683C203.813 98.882 203.918 98.9867 203.918 99.1162V101.126C203.918 101.255 203.813 101.36 203.683 101.36Z" fill="#DCF1FC"/>
<path d="M207.02 101.36H205.001C204.871 101.36 204.766 101.255 204.766 101.126V99.1162C204.766 98.9867 204.871 98.882 205.001 98.882H207.02C207.15 98.882 207.255 98.9867 207.255 99.1162V101.126C207.255 101.255 207.15 101.36 207.02 101.36Z" fill="#DCF1FC"/>
<path d="M210.345 101.36H208.326C208.196 101.36 208.091 101.255 208.091 101.126V99.1162C208.091 98.9867 208.196 98.882 208.326 98.882H210.345C210.475 98.882 210.58 98.9867 210.58 99.1162V101.126C210.58 101.255 210.475 101.36 210.345 101.36Z" fill="#DCF1FC"/>
<path d="M49.7231 100.002H47.704C47.574 100.002 47.4688 99.8969 47.4688 99.7674V97.7577C47.4688 97.6282 47.574 97.5234 47.704 97.5234H49.7231C49.8531 97.5234 49.9584 97.6282 49.9584 97.7577V99.7674C49.9584 99.8965 49.8528 100.002 49.7231 100.002Z" fill="#DCF1FC"/>
<path d="M53.0605 100.002H51.0414C50.9114 100.002 50.8062 99.8969 50.8062 99.7674V97.7577C50.8062 97.6282 50.9114 97.5234 51.0414 97.5234H53.0605C53.1905 97.5234 53.2958 97.6282 53.2958 97.7577V99.7674C53.2958 99.8965 53.1905 100.002 53.0605 100.002Z" fill="#DCF1FC"/>
<path d="M56.3853 100.002H54.3666C54.2366 100.002 54.1313 99.8969 54.1313 99.7674V97.7577C54.1313 97.6282 54.2366 97.5234 54.3666 97.5234H56.3853C56.5154 97.5234 56.6206 97.6282 56.6206 97.7577V99.7674C56.6206 99.8965 56.5154 100.002 56.3853 100.002Z" fill="#DCF1FC"/>
<path d="M139.952 121.304H92.0087C87.8306 121.304 84.4438 117.933 84.4438 113.773V7.53134C84.4438 3.3718 87.8306 0 92.0087 0H139.952C144.13 0 147.517 3.3718 147.517 7.53134V113.773C147.517 117.933 144.13 121.304 139.952 121.304Z" fill="#F17C04"/>
<path d="M139.716 119.58H92.2575C88.5979 119.58 85.6313 116.627 85.6313 112.983V7.65898C85.6313 4.01554 88.5979 1.06213 92.2575 1.06213H139.716C143.376 1.06213 146.342 4.01554 146.342 7.65898V112.983C146.342 116.627 143.376 119.58 139.716 119.58Z" fill="white"/>
<path d="M143.677 7.45262V112.655C143.677 115.122 141.668 117.122 139.19 117.122H92.7686C90.2904 117.122 88.2812 115.122 88.2812 112.655V7.45262C88.2812 4.98533 90.2904 2.98511 92.7686 2.98511H100.51C100.939 2.98511 101.332 3.22676 101.524 3.60916L102.346 5.24285C102.721 5.99673 103.494 6.46874 104.335 6.46874H127.623C128.464 6.46874 129.237 5.99673 129.612 5.24285L130.434 3.60916C130.626 3.22676 131.019 2.98511 131.449 2.98511H139.19C141.668 2.98511 143.677 4.98498 143.677 7.45262Z" fill="#F5F5F5"/>
<path d="M125.753 4.55703H106.996C106.56 4.55703 106.206 4.20497 106.206 3.77071C106.206 3.33644 106.56 2.98438 106.996 2.98438H125.753C126.189 2.98438 126.543 3.33644 126.543 3.77071C126.543 4.20497 126.189 4.55703 125.753 4.55703Z" fill="#868686"/>
<path d="M136.317 113.47H94.5784C92.9385 113.47 91.6094 112.147 91.6094 110.514V95.8419C91.6094 94.2092 92.9385 92.886 94.5784 92.886H136.317C137.957 92.886 139.286 94.2092 139.286 95.8419V110.514C139.286 112.147 137.957 113.47 136.317 113.47Z" stroke="#FFC727" stroke-width="0.644472" stroke-miterlimit="10" stroke-linecap="round" stroke-linejoin="round" stroke-dasharray="1.83 1.83"/>
<path d="M134.194 62.9582H113.489C112.306 62.9582 111.347 62.0036 111.347 60.8261V50.638C111.347 49.4605 112.306 48.5059 113.489 48.5059H134.194C135.377 48.5059 136.335 49.4605 136.335 50.638V60.8261C136.335 62.0036 135.377 62.9582 134.194 62.9582Z" stroke="#FFC727" stroke-width="0.644472" stroke-miterlimit="10" stroke-linecap="round" stroke-linejoin="round" stroke-dasharray="1.83 1.83"/>
<path d="M138.664 89.462H95.9017C94.4925 89.462 93.3501 88.3247 93.3501 86.9217V68.9652C93.3501 67.5623 94.4925 66.4249 95.9017 66.4249H138.664C140.074 66.4249 141.216 67.5623 141.216 68.9652V86.9217C141.216 88.3247 140.074 89.462 138.664 89.462Z" fill="#FDFAF2"/>
<path d="M139.289 67.0981V85.0648C139.289 86.4653 138.148 87.5977 136.741 87.5977H94.1603C92.7535 87.5977 91.6125 86.4653 91.6125 85.0648V67.0981C91.6125 65.6976 92.7535 64.5616 94.1603 64.5616H136.741C138.148 64.5616 139.289 65.6976 139.289 67.0981Z" fill="#FFE4C7"/>
<path d="M108.092 85.7254H95.5474C94.596 85.7254 93.825 84.9577 93.825 84.0105V71.5213C93.825 70.5745 94.596 69.8065 95.5474 69.8065H108.092C109.044 69.8065 109.815 70.5741 109.815 71.5213V84.0105C109.815 84.9577 109.044 85.7254 108.092 85.7254Z" fill="white"/>
<path d="M122.967 71.8208H111.919C111.618 71.8208 111.375 71.5785 111.375 71.2793C111.375 70.9801 111.618 70.7378 111.919 70.7378H122.967C123.267 70.7378 123.511 70.9801 123.511 71.2793C123.511 71.5785 123.267 71.8208 122.967 71.8208Z" fill="white"/>
<path d="M117.932 73.9834H111.919C111.618 73.9834 111.375 73.741 111.375 73.4419C111.375 73.1427 111.618 72.9004 111.919 72.9004H117.932C118.233 72.9004 118.476 73.1427 118.476 73.4419C118.476 73.7407 118.233 73.9834 117.932 73.9834Z" fill="white"/>
<path d="M136.416 73.9834H120.144C119.844 73.9834 119.6 73.741 119.6 73.4419C119.6 73.1427 119.844 72.9004 120.144 72.9004H136.416C136.717 72.9004 136.96 73.1427 136.96 73.4419C136.96 73.7407 136.716 73.9834 136.416 73.9834Z" fill="white"/>
<path d="M121.223 76.1455H111.919C111.618 76.1455 111.375 75.9032 111.375 75.604C111.375 75.3049 111.618 75.0625 111.919 75.0625H121.223C121.523 75.0625 121.767 75.3049 121.767 75.604C121.767 75.9032 121.523 76.1455 121.223 76.1455Z" fill="white"/>
<path d="M129.118 76.1455H123.269C122.969 76.1455 122.725 75.9032 122.725 75.604C122.725 75.3049 122.969 75.0625 123.269 75.0625H129.118C129.419 75.0625 129.662 75.3049 129.662 75.604C129.662 75.9032 129.418 76.1455 129.118 76.1455Z" fill="white"/>
<path d="M136.418 76.1455H131.031C130.731 76.1455 130.488 75.9032 130.488 75.604C130.488 75.3049 130.731 75.0625 131.031 75.0625H136.418C136.718 75.0625 136.962 75.3049 136.962 75.604C136.962 75.9032 136.718 76.1455 136.418 76.1455Z" fill="white"/>
<path d="M136.418 78.308H111.919C111.618 78.308 111.375 78.0656 111.375 77.7665C111.375 77.4673 111.618 77.225 111.919 77.225H136.418C136.718 77.225 136.962 77.4673 136.962 77.7665C136.962 78.0656 136.718 78.308 136.418 78.308Z" fill="white"/>
<path d="M125.402 80.4697H111.919C111.618 80.4697 111.375 80.2274 111.375 79.9282C111.375 79.6291 111.618 79.3867 111.919 79.3867H125.402C125.702 79.3867 125.946 79.6291 125.946 79.9282C125.946 80.2274 125.702 80.4697 125.402 80.4697Z" fill="white"/>
<path d="M136.423 80.4697H127.582C127.281 80.4697 127.038 80.2274 127.038 79.9282C127.038 79.6291 127.281 79.3867 127.582 79.3867H136.423C136.724 79.3867 136.967 79.6291 136.967 79.9282C136.967 80.2274 136.723 80.4697 136.423 80.4697Z" fill="white"/>
<path d="M119.841 82.6322H111.919C111.618 82.6322 111.375 82.3899 111.375 82.0907C111.375 81.7916 111.618 81.5492 111.919 81.5492H119.841C120.141 81.5492 120.385 81.7916 120.385 82.0907C120.385 82.3899 120.141 82.6322 119.841 82.6322Z" fill="white"/>
<path d="M129.903 82.6322H121.981C121.681 82.6322 121.438 82.3899 121.438 82.0907C121.438 81.7916 121.681 81.5492 121.981 81.5492H129.903C130.204 81.5492 130.447 81.7916 130.447 82.0907C130.447 82.3899 130.204 82.6322 129.903 82.6322Z" fill="white"/>
<path d="M136.416 82.6322H131.819C131.518 82.6322 131.275 82.3899 131.275 82.0907C131.275 81.7916 131.518 81.5492 131.819 81.5492H136.416C136.716 81.5492 136.96 81.7916 136.96 82.0907C136.96 82.3899 136.716 82.6322 136.416 82.6322Z" fill="white"/>
<path d="M122.967 84.7947H111.919C111.618 84.7947 111.375 84.5523 111.375 84.2532C111.375 83.954 111.618 83.7117 111.919 83.7117H122.967C123.267 83.7117 123.511 83.954 123.511 84.2532C123.511 84.552 123.267 84.7947 122.967 84.7947Z" fill="white"/>
<path d="M136.417 71.8209H125.369C125.068 71.8209 124.825 71.5786 124.825 71.2794C124.825 70.9803 125.068 70.7379 125.369 70.7379H136.417C136.717 70.7379 136.961 70.9803 136.961 71.2794C136.961 71.5786 136.717 71.8209 136.417 71.8209Z" fill="white"/>
<path d="M139.292 67.0981V67.853H91.6157V67.0981C91.6157 65.6976 92.7567 64.5616 94.1634 64.5616H136.745C138.151 64.5616 139.292 65.6976 139.292 67.0981Z" fill="#F17C04"/>
<path d="M130.319 66.2665C130.319 66.5915 130.055 66.8546 129.728 66.8546C129.402 66.8546 129.138 66.5915 129.138 66.2665C129.138 65.942 129.402 65.6785 129.728 65.6785C130.055 65.6785 130.319 65.942 130.319 66.2665Z" fill="#DEE3FC"/>
<path d="M133.344 66.2665C133.344 66.5915 133.08 66.8546 132.753 66.8546C132.427 66.8546 132.163 66.5915 132.163 66.2665C132.163 65.942 132.427 65.6785 132.753 65.6785C133.08 65.6785 133.344 65.942 133.344 66.2665Z" fill="#DEE3FC"/>
<path d="M136.357 66.2665C136.357 66.5915 136.092 66.8546 135.766 66.8546C135.44 66.8546 135.175 66.5915 135.175 66.2665C135.175 65.942 135.44 65.6785 135.766 65.6785C136.092 65.6788 136.357 65.942 136.357 66.2665Z" fill="#DEE3FC"/>
<path d="M106.368 62.958H96.9323C95.533 62.958 94.3984 61.8284 94.3984 60.4353V51.0414C94.3984 49.6483 95.533 48.5187 96.9323 48.5187H106.368C107.767 48.5187 108.902 49.6479 108.902 51.0414V60.4353C108.902 61.8288 107.767 62.958 106.368 62.958Z" stroke="#F17C04" stroke-width="0.644472" stroke-miterlimit="10"/>
<path d="M99.3911 53.65L97.3015 55.7303L99.4077 57.8268" stroke="#F17C04" stroke-width="0.644472" stroke-miterlimit="10" stroke-linecap="round" stroke-linejoin="round"/>
<path d="M103.905 53.65L105.995 55.7303L103.889 57.8268" stroke="#F17C04" stroke-width="0.644472" stroke-miterlimit="10" stroke-linecap="round" stroke-linejoin="round"/>
<path d="M102.646 53.65L100.689 57.8268" stroke="#F17C04" stroke-width="0.644472" stroke-miterlimit="10" stroke-linecap="round" stroke-linejoin="round"/>
<path d="M139.289 13.2754V42.6508C139.289 44.2453 137.992 45.5365 136.391 45.5365H94.5111C92.913 45.5365 91.6125 44.2453 91.6125 42.6508V13.2754C91.6125 11.6809 92.913 10.3898 94.5111 10.3898H136.391C137.992 10.3898 139.289 11.6809 139.289 13.2754Z" fill="#FFE4C7"/>
<path d="M129.635 26.5502C133.451 26.5502 136.544 23.4704 136.544 19.6712C136.544 15.872 133.451 12.7921 129.635 12.7921C125.819 12.7921 122.725 15.872 122.725 19.6712C122.725 23.4704 125.819 26.5502 129.635 26.5502Z" fill="#FFFCF2"/>
<path d="M119.637 45.5366H94.5111C92.913 45.5366 91.6125 44.2454 91.6125 42.6509V38.026L102.608 19.0645C103.182 18.0732 104.62 18.0732 105.194 19.0645L113.497 33.38L119.662 44.0126C119.96 44.5206 119.914 45.0991 119.637 45.5366Z" fill="white"/>
<path d="M130.465 45.5362H106.438L113.489 33.3797L117.287 26.8287C117.805 25.9362 119.098 25.9362 119.615 26.8287L130.465 45.5362Z" fill="#FFFCF2"/>
<path d="M178.136 100.121H159.613V127.836H178.136V100.121Z" fill="#F5F5F5"/>
<path d="M178.145 127.836H185.238V100.121H178.145V127.836Z" fill="#F5F5F5"/>
<path d="M184.369 101.185H179.161V102.07H184.369V101.185Z" fill="#F5F5F5"/>
<path d="M184.369 103.086H179.161V103.97H184.369V103.086Z" fill="#F5F5F5"/>
<path d="M184.369 104.986H179.161V105.87H184.369V104.986Z" fill="#F5F5F5"/>
<path d="M184.369 106.886H179.161V107.77H184.369V106.886Z" fill="#F5F5F5"/>
<path d="M184.369 108.786H179.161V109.67H184.369V108.786Z" fill="#F5F5F5"/>
<path d="M184.369 110.686H179.161V111.571H184.369V110.686Z" fill="#F5F5F5"/>
<path d="M184.369 112.587H179.161V113.471H184.369V112.587Z" fill="#F5F5F5"/>
<path d="M184.369 114.486H179.161V115.371H184.369V114.486Z" fill="#F5F5F5"/>
<path d="M184.369 116.386H179.161V117.271H184.369V116.386Z" fill="#F5F5F5"/>
<path d="M184.369 118.287H179.161V119.171H184.369V118.287Z" fill="#F5F5F5"/>
<path d="M184.369 120.187H179.161V121.071H184.369V120.187Z" fill="#F5F5F5"/>
<path d="M184.369 122.087H179.161V122.971H184.369V122.087Z" fill="#F5F5F5"/>
<path d="M184.369 123.987H179.161V124.871H184.369V123.987Z" fill="#F5F5F5"/>
<path d="M184.369 125.887H179.161V126.772H184.369V125.887Z" fill="#F5F5F5"/>
<path d="M156.606 127.836H166.02C166.02 127.836 166.546 126.167 165.406 124.099C165.406 124.099 164.648 124.704 162.379 124.295C162.379 124.295 161.431 125.096 160.777 125.409C160.12 125.726 156.352 126.462 156.606 127.836Z" fill="#46A7D7"/>
<path d="M157.258 101.408C157.866 105.02 160.672 117.24 161.878 124.46C164.083 124.647 165.141 124.395 165.702 124.266C165.592 121.749 165.375 115.727 165.4 113.086C165.442 108.623 165.653 102.738 163.679 99.5081L157.044 100.028C157.084 100.377 157.121 100.661 157.153 100.863C157.185 101.058 157.222 101.238 157.258 101.408Z" fill="#263238"/>
<path d="M139.581 127.836H148.995C148.995 127.836 149.521 126.167 148.381 124.099C148.381 124.099 147.623 124.704 145.354 124.295C145.354 124.295 144.407 125.096 143.752 125.409C143.095 125.726 139.327 126.462 139.581 127.836Z" fill="#46A7D7"/>
<path d="M145.069 124.249C146.868 124.692 148.171 124.649 148.788 124.579C149.288 121.678 150.079 115.293 150.791 112.3C151.895 107.648 152.976 101.251 152.225 98.9685L145.698 97.3365C145.676 97.5422 145.144 117.122 145.069 124.249Z" fill="#263238"/>
<path d="M171.047 90.6755C170.916 89.3914 170.765 88.4534 170.765 88.4534L163.473 90.2303L157.278 91.6354C154.981 92.1448 152.207 92.7579 149.762 93.3082C147.017 93.9291 145.195 96.0045 145.796 98.7406L146.484 102.059C150.323 102.007 168.37 100.285 169.914 99.5085C171.658 98.6316 172.183 95.5314 171.047 90.6755Z" fill="#263238"/>
<path d="M181.947 90.6752C181.816 89.3911 181.187 88.0132 181.187 88.0132L174.372 90.23L168.178 91.6351C165.881 92.1445 163.107 92.7576 160.662 93.3079C157.917 93.9288 156.095 96.0042 156.696 98.7403L157.384 102.059C161.222 102.007 177.266 101.45 180.814 99.5083C182.526 98.571 183.083 95.5311 181.947 90.6752Z" fill="#263238"/>
<path d="M161.526 80.2701C161.526 80.2701 164.765 78.8135 165.657 80.2744C166.145 81.0741 165.807 82.5596 164.703 83.1833C163.598 83.807 157.355 86.4356 151.464 87.9013C151.464 87.9013 151.212 87.0854 150.806 86.2281C150.806 86.2281 153.449 85.1366 156.077 83.2994C158.705 81.4618 161.526 80.2701 161.526 80.2701Z" fill="#DBDBDB"/>
<path d="M162.345 70.2007L159.569 81.2393C159.569 81.2393 159.856 84.0301 162.687 82.6603C165.518 81.2904 167.393 72.4962 167.393 72.4962L162.345 70.2007Z" fill="#FFBE9D"/>
<path d="M167.031 76.3743C166.687 76.2917 166.36 76.2014 166.044 76.1069C165.72 76.0127 165.412 75.9143 165.119 75.812C162.482 74.9117 161.056 73.8304 161.056 73.8304C161.885 70.2413 162.885 67.8312 163.773 66.243C163.797 66.2039 163.82 66.1682 163.84 66.1252C163.864 66.086 163.888 66.0465 163.911 66.0074C164.389 65.2171 165.076 64.5529 165.842 64.0064C165.921 63.9514 165.996 63.9002 166.075 63.8452L166.403 69.6085L166.458 70.2022L167.031 76.3743Z" fill="#46A7D7"/>
<path d="M167.043 76.3745C166.699 76.2919 166.372 76.2016 166.055 76.1071C165.732 76.0129 165.424 75.9145 165.131 75.8122C165.685 71.9299 166.186 69.4908 166.186 69.4908L166.47 70.2024L167.043 76.3745Z" fill="#DCF1FC"/>
<path d="M183.435 66.4082C183.368 68.1146 183.068 70.8546 182.807 73.6066C182.724 74.4793 182.645 75.356 182.578 76.2012C182.531 76.7279 181.733 79.5388 181.701 80.0422C181.559 82.4481 180.375 84.2486 181.496 87.9125C181.765 88.7892 181.832 89.2414 181.832 89.603C181.832 89.8546 181.504 90.1181 181.374 90.1886C180.904 90.4599 179.98 90.6486 178.858 90.7862H178.854C176.647 91.0536 173.67 91.1048 171.873 91.1048C169.46 91.1048 165.839 90.7234 165.381 90.1181C164.962 89.5639 165.349 88.7578 165.547 87.6451C166.435 82.6248 166.119 80.0066 166.064 76.3822C166.064 76.2919 166.06 76.2012 166.06 76.107C165.969 70.5166 165.598 65.7323 165.859 64.0066C165.938 63.9515 166.013 63.9004 166.092 63.8453C166.475 63.5857 166.85 63.3539 167.213 63.1493C167.245 63.1334 167.285 63.1102 167.324 63.0865C167.435 63.0237 167.549 62.9648 167.656 62.9056C167.695 62.8819 167.739 62.8622 167.782 62.8428C168.6 62.4455 169.792 62.0212 170.475 61.7852C170.562 61.7576 170.641 61.7301 170.708 61.7104C171.352 61.6712 172.051 61.6631 172.805 61.6829C173.46 61.7026 174.463 61.789 175.553 61.9305C175.557 61.9305 175.557 61.9305 175.557 61.9305C176.789 62.0878 178.136 62.3196 179.206 62.6106C179.206 62.6106 179.217 62.6145 179.226 62.6184C179.427 62.6812 180.734 63.1687 182.097 64.6193C182.55 65.0991 183.016 65.6886 183.435 66.4082Z" fill="#46A7D7"/>
<path d="M181.491 87.9127C181.759 88.7893 181.826 89.2416 181.826 89.6032C181.826 89.8547 181.499 90.1182 181.368 90.1888C180.898 90.4601 179.974 90.6488 178.853 90.7864C179.315 90.7313 180.112 90.0015 180.112 89.3435C180.112 88.8828 179.512 85.77 179.678 83.7613C179.844 81.7565 180.172 78.5642 179.548 76.0087C178.92 73.4533 178.332 70.092 178.332 70.092L181.85 72.2069C181.85 72.2069 182.304 72.8398 182.802 73.6064C182.719 74.4791 182.64 75.3558 182.573 76.201C182.526 76.728 180.369 84.2488 181.491 87.9127Z" fill="#DCF1FC"/>
<path d="M166.009 51.6334C166.009 51.6334 166.314 55.297 167.534 55.5432C168.754 55.7894 168.455 54.2326 168.455 54.2326L168.284 52.4931L166.009 51.6334Z" fill="#FFBE9D"/>
<path d="M171.628 64.9106C169.239 64.6277 170.131 62.3159 170.459 61.7854C170.546 61.7579 170.956 61.6319 170.988 61.6125C170.992 61.6086 170.996 61.6086 170.996 61.6086C171.075 61.5458 171.134 61.4513 171.181 61.3335C171.414 60.7242 171.308 59.5093 171.3 59.4306C171.3 59.4267 171.3 59.4267 171.3 59.4267V59.2066C171.339 59.0613 171.379 58.9237 171.41 58.7939L172.666 57.811L175.324 55.7314C175.324 55.7314 174.617 59.2105 175.186 61.4044C175.229 61.5695 175.316 61.8016 175.537 61.9311C175.537 61.935 175.541 61.9311 175.541 61.9311C175.612 61.9783 175.699 62.0097 175.806 62.0253C176.457 62.3315 175.549 65.3745 171.628 64.9106Z" fill="#FFBE9D"/>
<path d="M173.738 57.942C173.738 57.942 173.716 60.264 171.185 61.3318C171.42 60.7257 171.311 59.5104 171.304 59.4321L172.365 58.6031L173.738 57.942Z" fill="#FFBE9D"/>
<path d="M166.597 52.1552C166.597 52.1552 167.149 59.7564 169.21 60.4023C169.21 60.4023 171.837 60.6485 173.723 58.123C174.266 57.3956 174.953 57.2319 175.177 56.3532C175.541 54.9258 176.055 52.2934 175.4 50.707C174.466 48.4475 166.685 46.6537 166.597 52.1552Z" fill="#FFBE9D"/>
<path d="M175.43 49.4525C175.396 48.0717 173.992 47.5556 173.992 47.5556C172.595 46.9044 169.691 47.1855 166.697 47.8505C165.995 48.0064 165.114 47.5775 164.623 47.9161C164.031 48.3253 164.621 50.195 164.621 50.195C165.776 53.6773 170.026 52.5449 171.303 52.1152C171.607 53.0116 171.567 54.2583 172.325 54.901C172.756 55.2672 173.506 55.2778 174.269 55.1511C174.362 55.3289 174.715 55.4852 174.787 55.7293C175.027 56.5435 174.992 57.816 174.985 58.7981L175.345 58.6228C175.392 58.3571 179.12 49.5664 175.43 49.4525Z" fill="#181818"/>
<path d="M168.69 54.7151C168.798 55.3463 168.485 55.9259 167.991 56.0095C167.498 56.0931 167.01 55.6493 166.903 55.0178C166.795 54.3867 167.107 53.8071 167.601 53.7235C168.095 53.6399 168.582 54.0837 168.69 54.7151Z" stroke="#181818" stroke-width="0.644472" stroke-miterlimit="10"/>
<path d="M171.19 54.2515C171.298 54.8826 170.985 55.4622 170.491 55.5458C169.998 55.6294 169.51 55.1856 169.403 54.5542C169.295 53.9231 169.607 53.3435 170.101 53.2599C170.595 53.1763 171.082 53.6204 171.19 54.2515Z" stroke="#181818" stroke-width="0.644472" stroke-miterlimit="10"/>
<path d="M168.694 54.716C168.694 54.716 168.803 54.5386 169.378 54.5882" stroke="#181818" stroke-width="0.644472" stroke-miterlimit="10"/>
<path d="M171.194 54.4029L173.323 54.0642" stroke="#181818" stroke-width="0.644472" stroke-miterlimit="10"/>
<path d="M173.517 56.7552C174.983 57.3147 175.441 53.721 174.048 53.5619C172.992 53.4412 172.949 54.908 172.949 54.908C172.949 54.908 172.679 56.4359 173.517 56.7552Z" fill="#FFBE9D"/>
<g opacity="0.5">
<path d="M173.999 54.1035C173.999 54.1035 173.904 54.2005 173.817 54.361C173.73 54.5208 173.652 54.7396 173.638 54.9738C173.624 55.0899 173.627 55.2091 173.633 55.3223C173.637 55.4363 173.65 55.5432 173.658 55.6381C173.669 55.7337 173.677 55.8138 173.683 55.8695C173.688 55.9266 173.688 55.9612 173.688 55.9612C173.688 55.9612 173.667 55.9351 173.636 55.8868C173.609 55.8367 173.553 55.77 173.516 55.6776C173.475 55.5866 173.431 55.4769 173.408 55.3516C173.38 55.2278 173.372 55.0895 173.382 54.9509C173.396 54.8126 173.432 54.6743 173.491 54.5561C173.547 54.4362 173.628 54.3399 173.703 54.2697C173.862 54.13 173.999 54.1035 173.999 54.1035Z" fill="#DBDBDB"/>
<path d="M174.229 54.786C174.229 54.786 174.169 54.7924 174.087 54.8234C174.005 54.8523 173.903 54.9098 173.827 54.9874C173.748 55.0636 173.698 55.1575 173.673 55.2312C173.646 55.3039 173.637 55.3554 173.637 55.3554L173.395 55.2693C173.395 55.2693 173.423 55.2079 173.483 55.1268C173.54 55.0449 173.636 54.9469 173.75 54.8848C173.863 54.8202 173.987 54.7909 174.079 54.7846C174.17 54.7758 174.229 54.786 174.229 54.786Z" fill="#DBDBDB"/>
</g>
<path d="M187.602 81.7251C187.602 81.7251 187.602 81.7251 187.601 81.7286C186.957 82.4729 184.511 83.0155 183.335 81.9858C182.965 81.6577 182.548 80.7934 182.137 79.721C181.094 76.9789 180.106 72.8765 180.106 72.8765L185.58 70.092C185.58 70.092 186.284 73.2352 186.89 76.2222C186.89 76.2222 186.896 76.2525 186.907 76.3054C187.104 77.2621 187.288 78.2033 187.432 79.0108C187.438 79.0338 187.441 79.0525 187.443 79.075C187.587 80.0392 187.68 81.0446 187.602 81.7251Z" fill="#FFBE9D"/>
<path d="M178.044 69.0601C178.573 71.2483 180.234 75.3948 180.234 75.3948C181.397 75.5871 182.958 75.3737 184.251 74.9112C185.743 74.3774 186.809 73.2567 186.809 73.2567C186.809 73.2567 185.708 70.1738 184.719 67.9591C183.831 65.9709 183.298 65.2286 182.914 64.8346C182.336 64.2317 181.403 63.5399 180.741 63.2256L178.044 69.0601Z" fill="#46A7D7"/>
<path d="M184.961 70.4892L181.749 69.1095L179.219 62.6178C179.219 62.6178 179.683 62.7582 180.293 63.0037H180.296C180.308 63.0097 180.334 63.0182 180.378 63.0358C180.393 63.0418 180.41 63.0475 180.425 63.0563C180.971 63.3106 183.088 64.5528 184.553 69.0658C184.565 69.1039 184.576 69.1416 184.588 69.1797C184.744 69.7001 184.858 70.1181 184.92 70.3343C184.926 70.3548 184.931 70.3753 184.937 70.3985C184.947 70.4278 184.953 70.4599 184.961 70.4892Z" fill="#46A7D7"/>
<path d="M187.601 81.7256C187.601 81.7256 187.601 81.7256 187.601 81.7291C187.554 82.1281 187.443 82.4149 187.245 82.5165C187.214 82.5366 186.764 82.8029 186.733 82.8231C186.063 83.2305 184.85 83.9233 183.34 84.5696C179.679 86.1444 174.361 87.9707 171.493 88.8075C171.493 88.8075 171.21 88.001 170.769 87.1611C170.769 87.1611 173.362 85.962 175.911 84.0179C178.464 82.078 182.136 79.7215 182.136 79.7215L183.063 78.6356C183.063 78.6356 186.36 75.6152 186.889 76.223C186.889 76.223 186.895 76.2534 186.906 76.3063C186.985 76.6213 187.246 77.7802 187.431 79.0117C187.437 79.0346 187.44 79.0533 187.442 79.0759C187.587 80.0397 187.679 81.0451 187.601 81.7256Z" fill="#FFBE9D"/>
<path d="M171.143 86.9768C171.143 86.9768 170.498 87.3635 169.842 87.2259C169.478 87.1497 169.332 87.0019 169.063 86.9549C168.795 86.908 168.079 86.8202 167.725 86.647C167.371 86.4741 167.232 86.4547 167.245 86.8089C167.257 87.1631 167.956 87.4689 168.146 87.5674C168.335 87.6654 168.573 87.9794 168.599 88.0189C168.624 88.0584 167.434 88.6786 167.114 88.5527C167.114 88.5527 167.019 88.838 167.073 88.9971C167.127 89.1566 167.372 89.2123 167.391 89.2924C167.41 89.3725 167.334 89.5362 167.387 89.6632C167.441 89.7902 167.659 89.7909 167.747 89.9973C167.835 90.2036 167.738 90.2072 167.802 90.4223C167.867 90.6379 168.143 90.6763 168.196 90.7875C168.248 90.8986 168.221 91.0284 168.336 91.105C168.453 91.1815 169.523 90.8393 169.914 90.6728C170.305 90.506 171.349 89.0095 172.505 88.4994L171.143 86.9768Z" fill="#FFBE9D"/>
<path d="M176.62 93.657H168.294V92.8459H176.62C176.845 92.8459 177.027 93.0276 177.027 93.2516C177.027 93.4753 176.845 93.657 176.62 93.657Z" fill="#181818"/>
<path d="M172.125 93.657H151.278C151.029 93.657 150.809 93.4912 150.743 93.2521L146.476 77.9604C146.382 77.6221 146.637 77.287 146.99 77.287H167.15C167.62 77.287 168.032 77.5988 168.157 78.0493L172.409 93.2859C172.46 93.4725 172.319 93.657 172.125 93.657Z" fill="#181818"/>
<path d="M171.363 93.657H150.516C150.266 93.657 150.047 93.4912 149.98 93.2521L145.714 77.9604C145.619 77.6221 145.875 77.287 146.228 77.287H166.387C166.857 77.287 167.269 77.5988 167.395 78.0493L171.646 93.2859C171.698 93.4725 171.557 93.657 171.363 93.657Z" fill="#868686"/>
<path d="M88.7407 83.7767L91.1556 81.3118C91.1556 81.3118 91.2392 80.2126 91.3706 79.9808C91.5021 79.7491 91.8419 78.8904 92.0109 78.7969C92.1803 78.7034 92.5187 78.7969 92.5187 78.7969C92.5187 78.7969 92.8543 78.6848 93.0045 78.6848C93.1551 78.6848 93.4365 78.8216 93.4365 78.8216C93.4365 78.8216 93.7975 78.7973 93.9478 78.7973C94.0984 78.7973 94.1466 78.8393 94.1466 78.8393C94.1466 78.8393 94.7287 78.1725 95.0108 77.9482C95.2929 77.7234 95.7241 77.31 95.852 77.3114C95.9725 77.3128 96.0256 77.5238 95.9378 77.7485C95.8499 77.9732 95.4679 78.3355 95.4679 78.3355L94.3677 79.9957C94.3677 79.9957 94.5558 79.9209 94.6561 79.8584C94.7564 79.796 95.4275 79.1719 95.4679 79.1469C95.5087 79.1218 95.8095 78.9222 95.9849 79.1218C96.1603 79.3215 94.8329 80.9047 94.6196 81.1168C94.4063 81.3291 93.1863 81.944 93.1863 81.944C93.1863 81.944 91.8979 84.2512 91.7725 84.4011C91.6474 84.5507 88.7407 83.7767 88.7407 83.7767Z" fill="#FFBE9D"/>
<path d="M91.0116 72.3989C91.0116 72.3989 89.6626 80.1782 88.393 80.3588C88.393 80.3588 83.3241 80.5624 82.1952 74.4407C81.2158 69.1318 85.1437 67.9994 86.9809 68.4058C88.8178 68.8115 91.406 69.0757 91.0116 72.3989Z" fill="#FFBE9D"/>
<path d="M86.532 79.1145C86.532 79.1145 85.8216 80.0677 85.5728 82.3759C85.5728 82.3759 83.462 82.6764 81.5156 81.6784C81.5156 81.6784 82.5645 78.4224 82.6931 74.8876" fill="#FFBE9D"/>
<path d="M85.1042 67.1032C82.3343 67.7125 82.5558 69.4305 82.5558 69.4305C81.2589 69.7501 80.9804 70.2831 80.991 72.6661C81.0016 75.0494 81.868 77.9108 82.3457 78.1436C82.8233 78.3764 85.5312 78.3877 85.7573 78.3059C85.9833 78.224 86.9308 76.0379 86.7101 75.653C86.489 75.2685 86.7211 73.7558 87.3518 73.6987C87.9825 73.6412 87.8589 74.6148 87.8589 74.6148L88.3773 74.5016L88.7773 73.5244C92.4377 73.7414 93.3834 69.5885 93.3834 69.5885C92.5043 69.0177 87.8745 66.494 85.1042 67.1032Z" fill="#181818"/>
<path d="M54.3516 119.767L57.1523 120.17L56.2247 123.426L53.1915 122.664C53.1915 122.664 51.9573 120.999 53.8208 119.767C53.9105 119.707 54.2049 119.734 54.3516 119.767Z" fill="#FFBE9D"/>
<path d="M75.2588 111.404L71.1307 98.9598C71.1307 98.9598 69.8795 98.516 69.2385 98.9598C69.2385 98.9598 64.9382 101.262 65.3971 107.826C65.7429 112.775 66.7925 118.142 67.2177 120.295L56.204 119.889C56.204 119.889 54.8451 121.497 55.7243 123.59C55.7243 123.59 69.5631 127.296 71.5127 127.638C73.0969 127.916 74.8311 128.131 75.6684 127.417C77.1439 126.159 75.2588 111.404 75.2588 111.404Z" fill="#263238"/>
<path d="M67.4017 119.767L70.2024 120.17L69.2747 123.426L66.2415 122.664C66.2415 122.664 65.0074 120.999 66.8709 119.767C66.9605 119.707 67.255 119.734 67.4017 119.767Z" fill="#FFBE9D"/>
<path d="M66.3788 121.474C66.3161 122.115 66.8795 122.692 66.7764 122.852C66.6733 123.012 64.7907 126.156 64.7907 126.156C64.7907 126.156 66.2119 126.773 65.9827 127.663H62.3833C62.3833 127.663 61.4432 126.818 61.4662 125.608C61.4662 125.608 61.7107 124.216 62.3528 122.983C62.9949 121.751 64.454 118.968 64.454 118.968C64.454 118.968 64.8966 118.79 65.6538 118.991C66.5404 119.226 67.3951 119.767 67.3951 119.767C67.3951 119.767 66.5337 119.89 66.3788 121.474Z" fill="#46A7D7"/>
<path d="M95.2176 124.803C94.3289 121.502 85.9675 107.408 83.1388 103.603C77.3287 101.091 71.1366 98.9602 71.1366 98.9602C68.5757 99.5691 67.3143 104.707 68.7667 108.131C69.7631 110.481 76.0846 116.395 79.9558 119.876L69.2132 119.863C69.2132 119.863 67.9478 121.746 69.0945 123.535C69.0945 123.535 86.9611 127.58 88.528 127.808C90.0953 128.036 93.6118 127.808 93.6118 127.808C93.6118 127.808 95.9656 127.582 95.2176 124.803Z" fill="#263238"/>
<path d="M53.3412 121.474C53.2785 122.115 53.8419 122.692 53.7388 122.852C53.6357 123.012 51.7531 126.156 51.7531 126.156C51.7531 126.156 53.1743 126.773 52.9451 127.663H49.3457C49.3457 127.663 48.4056 126.818 48.4286 125.608C48.4286 125.608 48.6731 124.216 49.3152 122.983C49.9573 121.751 51.4165 118.968 51.4165 118.968C51.4165 118.968 51.859 118.79 52.6163 118.991C53.5025 119.226 54.3575 119.767 54.3575 119.767C54.3575 119.767 53.4961 119.89 53.3412 121.474Z" fill="#46A7D7"/>
<path d="M108.657 81.3813L102.895 91.4717L98.7688 87.3767L95.3533 92.4383L96.3451 92.9124L95.9882 93.2081C95.9882 93.2081 103.952 97.0691 104.906 96.2172C105.86 95.3656 110.306 82.5282 110.306 82.5282L108.657 81.3813Z" fill="#FFBE9D"/>
<path d="M99.5133 88.0171C99.5133 88.0171 98.4255 92.5855 96.2498 94.7515L90.6831 92.6419C90.6831 92.6419 88.0999 96.9669 85.5735 100.283C84.6026 101.564 84.2801 103.366 83.1392 103.603C83.0683 103.578 83.001 103.557 82.9301 103.539C79.8367 102.615 75.2728 103.596 71.5061 102.202C67.3461 100.66 68.154 99.7926 68.154 99.7926C68.154 99.7926 70.677 95.2666 72.1085 90.4724C72.7463 88.3522 73.1892 86.3873 73.4833 84.8527C74.0113 82.1364 76.1976 80.0127 78.9544 79.6423C78.9863 79.6387 79.0146 79.6317 79.0465 79.6282C82.2002 79.2295 90.4563 80.1997 92.0615 80.884C93.6666 81.5684 99.5133 88.0171 99.5133 88.0171Z" fill="#46A7D7"/>
<path d="M90.6846 92.6421C90.6846 92.6421 88.1014 96.9671 85.575 100.283C84.6041 101.564 84.2816 103.366 83.1406 103.603C83.6402 103.426 84.4694 100.809 84.7635 100.22C85.0612 99.6341 85.5324 99.0449 86.5529 96.9883C87.5699 94.9281 88.9504 91.9087 88.9504 91.9087L90.6846 92.6421Z" fill="#263238"/>
<path d="M79.9502 119.876C79.9502 119.876 80.0377 119.856 80.1922 119.837C80.3467 119.821 80.5682 119.789 80.8343 119.778C81.3669 119.75 82.0794 119.771 82.7846 119.868C83.1364 119.919 83.4872 119.981 83.8111 120.062C84.1357 120.138 84.4347 120.229 84.6856 120.32C84.9383 120.406 85.1409 120.501 85.2827 120.564C85.4244 120.629 85.5031 120.671 85.5031 120.671C85.5031 120.671 85.4134 120.66 85.2607 120.634C85.1098 120.602 84.8901 120.573 84.6307 120.529C84.1116 120.442 83.4238 120.332 82.7328 120.24C82.3884 120.187 82.0415 120.15 81.7169 120.104C81.3909 120.064 81.0869 120.026 80.8261 119.993C80.3006 119.923 79.9502 119.876 79.9502 119.876Z" fill="#263238"/>
<path d="M112.969 77.6671C112.876 77.6579 112.285 78.1299 112 78.3631L112.328 77.7366C112.328 77.7366 112.763 77.3189 112.919 77.0896C113.075 76.8603 112.993 76.631 112.87 76.6186C112.783 76.6098 112.263 77.0204 111.962 77.2649L112.029 77.139C112.029 77.139 112.463 76.7213 112.619 76.492C112.775 76.2627 112.693 76.0334 112.57 76.021C112.447 76.0087 111.447 76.8441 111.447 76.8441L110.96 77.4928L111.327 76.783C111.327 76.783 111.521 76.5477 111.649 76.2913C111.778 76.0348 111.685 75.9565 111.614 75.8708C111.542 75.785 110.869 76.2842 110.697 76.4835C110.525 76.6832 109.981 77.4918 109.939 77.6061L109.376 78.7642C109.34 78.4287 109.284 77.8544 109.244 77.4886C109.187 76.9612 108.707 76.8367 108.691 77.0931C108.674 77.3496 108.407 78.6111 108.467 79.2951C108.528 79.9792 108.643 80.4282 108.686 80.8131C108.729 81.198 108.328 81.967 108.328 81.967C108.328 81.967 109.932 82.9583 110.197 82.6616C110.462 82.365 111.026 81.706 111.299 81.2622C111.673 80.6526 111.926 79.8511 111.926 79.8511L112.427 78.7854C112.427 78.7854 112.862 78.3677 113.018 78.1384C113.174 77.9087 113.092 77.6791 112.969 77.6671Z" fill="#FFBE9D"/>
<path d="M204.985 45.5375H186.182C184.977 45.5375 184 46.5101 184 47.7098V52.1322C184 53.2389 184.832 54.1525 185.907 54.2873C186.064 54.307 186.182 54.4404 186.182 54.5984V57.0192C186.182 57.1592 186.362 57.2167 186.444 57.1028L188.359 54.4365C188.419 54.3536 188.515 54.3042 188.617 54.3042H204.985C206.19 54.3042 207.167 53.3316 207.167 52.1318V47.7095C207.167 46.5101 206.19 45.5375 204.985 45.5375Z" stroke="white" stroke-width="0.644472" stroke-miterlimit="10"/>
<path d="M189.071 49.9142C189.071 50.3093 188.749 50.6292 188.353 50.6292C187.956 50.6292 187.634 50.3089 187.634 49.9142C187.634 49.5191 187.956 49.1991 188.353 49.1991C188.749 49.1991 189.071 49.5191 189.071 49.9142Z" stroke="white" stroke-width="0.644472" stroke-miterlimit="10"/>
<path d="M192.696 49.9142C192.696 50.3093 192.374 50.6292 191.978 50.6292C191.581 50.6292 191.259 50.3089 191.259 49.9142C191.259 49.5191 191.581 49.1991 191.978 49.1991C192.374 49.1991 192.696 49.5191 192.696 49.9142Z" stroke="white" stroke-width="0.644472" stroke-miterlimit="10"/>
<path d="M196.296 49.9142C196.296 50.3093 195.974 50.6292 195.578 50.6292C195.181 50.6292 194.859 50.3089 194.859 49.9142C194.859 49.5191 195.181 49.1991 195.578 49.1991C195.974 49.1991 196.296 49.5191 196.296 49.9142Z" stroke="white" stroke-width="0.644472" stroke-miterlimit="10"/>
<path d="M199.921 49.9142C199.921 50.3093 199.599 50.6292 199.203 50.6292C198.806 50.6292 198.484 50.3089 198.484 49.9142C198.484 49.5191 198.806 49.1991 199.203 49.1991C199.599 49.1991 199.921 49.5191 199.921 49.9142Z" stroke="white" stroke-width="0.644472" stroke-miterlimit="10"/>
<path d="M203.534 49.9142C203.534 50.3093 203.212 50.6292 202.815 50.6292C202.418 50.6292 202.097 50.3089 202.097 49.9142C202.097 49.5191 202.418 49.1991 202.815 49.1991C203.211 49.1991 203.534 49.5191 203.534 49.9142Z" stroke="white" stroke-width="0.644472" stroke-miterlimit="10"/>
<path d="M169.979 35.3354H135.708C133.818 35.3354 132.286 33.81 132.286 31.9283C132.286 30.0466 133.818 28.5212 135.708 28.5212H169.979C171.869 28.5212 173.401 30.0466 173.401 31.9283C173.401 33.81 171.869 35.3354 169.979 35.3354Z" fill="white" stroke="#F17C04" stroke-width="0.644472" stroke-miterlimit="10"/>
<path d="M169.477 31.6939C169.477 32.6947 168.663 33.5058 167.657 33.5058C166.652 33.5058 165.837 32.6947 165.837 31.6939C165.837 30.6931 166.652 29.8821 167.657 29.8821C168.663 29.8821 169.477 30.6931 169.477 31.6939Z" stroke="#F17C04" stroke-width="0.644472" stroke-miterlimit="10"/>
<path d="M168.95 32.9746L169.956 33.9751" stroke="#F17C04" stroke-width="0.644472" stroke-miterlimit="10" stroke-linecap="round"/>
<path d="M118.124 128H109.503C107.995 128 106.772 126.783 106.772 125.281V116.698C106.772 115.196 107.995 113.979 109.503 113.979H118.124C119.633 113.979 120.856 115.196 120.856 116.698V125.281C120.856 126.783 119.633 128 118.124 128Z" fill="#F17C04"/>
<path d="M115.55 128H106.928C105.42 128 104.197 126.783 104.197 125.281V116.698C104.197 115.196 105.42 113.979 106.928 113.979H115.55C117.058 113.979 118.281 115.196 118.281 116.698V125.281C118.281 126.783 117.058 128 115.55 128Z" fill="#FFE4C7"/>
<path d="M109.571 118.343L113.614 120.667C113.863 120.81 113.863 121.169 113.614 121.312L109.571 123.636C109.321 123.78 109.009 123.6 109.009 123.313V118.666C109.01 118.379 109.321 118.2 109.571 118.343Z" fill="white"/>
<path d="M205.675 126.4H194.405C192.433 126.4 190.834 124.809 190.834 122.846V111.625C190.834 109.662 192.433 108.07 194.405 108.07H205.675C207.647 108.07 209.246 109.662 209.246 111.625V122.846C209.246 124.808 207.647 126.4 205.675 126.4Z" fill="#F17C04"/>
<path d="M203.913 128H192.642C190.67 128 189.072 126.409 189.072 124.446V113.225C189.072 111.262 190.67 109.67 192.642 109.67H203.913C205.885 109.67 207.483 111.262 207.483 113.225V124.446C207.483 126.408 205.885 128 203.913 128Z" fill="#FFE4C7"/>
<path d="M200.483 114.168C200.483 115.384 199.493 116.37 198.271 116.37C197.049 116.37 196.059 115.384 196.059 114.168C196.059 112.951 197.049 111.965 198.271 111.965C199.493 111.965 200.483 112.951 200.483 114.168Z" fill="white"/>
<path d="M202.882 121.624V124.874C202.882 125.168 202.643 125.406 202.348 125.406H194.194C193.898 125.406 193.659 125.168 193.659 124.874V121.624C193.659 119.088 195.724 117.033 198.271 117.033C200.818 117.033 202.882 119.088 202.882 121.624Z" fill="white"/>
<path d="M157.122 39.2609H149.883C149.583 39.2609 149.339 39.0185 149.339 38.7194C149.339 38.4202 149.583 38.1779 149.883 38.1779H157.122C157.422 38.1779 157.666 38.4202 157.666 38.7194C157.666 39.0182 157.422 39.2609 157.122 39.2609Z" fill="#DCF1FC"/>
<path d="M164.359 39.2609H159.121C158.82 39.2609 158.577 39.0185 158.577 38.7194C158.577 38.4202 158.82 38.1779 159.121 38.1779H164.359C164.66 38.1779 164.903 38.4202 164.903 38.7194C164.903 39.0182 164.66 39.2609 164.359 39.2609Z" fill="#DCF1FC"/>
<path d="M152.958 41.6421H149.883C149.583 41.6421 149.339 41.3997 149.339 41.1006C149.339 40.8014 149.583 40.5591 149.883 40.5591H152.958C153.259 40.5591 153.502 40.8014 153.502 41.1006C153.502 41.3994 153.258 41.6421 152.958 41.6421Z" fill="#DCF1FC"/>
<path d="M164.35 41.6421H154.77C154.47 41.6421 154.227 41.3997 154.227 41.1006C154.227 40.8014 154.47 40.5591 154.77 40.5591H164.35C164.65 40.5591 164.894 40.8014 164.894 41.1006C164.894 41.3994 164.65 41.6421 164.35 41.6421Z" fill="#DCF1FC"/>
<path d="M159.425 44.0233H149.883C149.583 44.0233 149.339 43.781 149.339 43.4818C149.339 43.1827 149.583 42.9403 149.883 42.9403H159.425C159.726 42.9403 159.969 43.1827 159.969 43.4818C159.969 43.7806 159.726 44.0233 159.425 44.0233Z" fill="#DCF1FC"/>
<path d="M164.371 44.0233H161.295C160.995 44.0233 160.751 43.781 160.751 43.4818C160.751 43.1827 160.995 42.9403 161.295 42.9403H164.371C164.672 42.9403 164.915 43.1827 164.915 43.4818C164.915 43.7806 164.672 44.0233 164.371 44.0233Z" fill="#DCF1FC"/>
<path d="M65.4636 94.5728H40.1938C39.4457 94.5728 38.8391 93.9688 38.8391 93.2241V80.5243C38.8391 79.7793 39.4457 79.1757 40.1938 79.1757H65.4636C66.2116 79.1757 66.8183 79.7796 66.8183 80.5243V93.2241C66.8186 93.9692 66.212 94.5728 65.4636 94.5728Z" fill="#DCF1FC"/>
<path d="M40.0266 81.2557H65.6278" stroke="white" stroke-width="0.644472" stroke-miterlimit="10" stroke-linecap="round"/>
<path d="M64.9497 80.5063C65.1212 80.5063 65.2602 80.3681 65.2602 80.1976C65.2602 80.0271 65.1212 79.8889 64.9497 79.8889C64.7782 79.8889 64.6392 80.0271 64.6392 80.1976C64.6392 80.3681 64.7782 80.5063 64.9497 80.5063Z" fill="white"/>
<path d="M63.3371 80.5063C63.5086 80.5063 63.6477 80.3681 63.6477 80.1976C63.6477 80.0271 63.5086 79.8889 63.3371 79.8889C63.1656 79.8889 63.0266 80.0271 63.0266 80.1976C63.0266 80.3681 63.1656 80.5063 63.3371 80.5063Z" fill="white"/>
<path d="M61.7121 80.5063C61.8836 80.5063 62.0227 80.3681 62.0227 80.1976C62.0227 80.0271 61.8836 79.8889 61.7121 79.8889C61.5406 79.8889 61.4016 80.0271 61.4016 80.1976C61.4016 80.3681 61.5406 80.5063 61.7121 80.5063Z" fill="white"/>
<path d="M44.8082 83.3286H40.4639C40.2276 83.3286 40.0359 83.1378 40.0359 82.9025C40.0359 82.6672 40.2276 82.4763 40.4639 82.4763H44.8082C45.0445 82.4763 45.2362 82.6672 45.2362 82.9025C45.2362 83.1378 45.0445 83.3286 44.8082 83.3286Z" fill="#FFC727"/>
<path d="M44.8082 85.2981H40.4639C40.2276 85.2981 40.0359 85.1073 40.0359 84.872C40.0359 84.6367 40.2276 84.4458 40.4639 84.4458H44.8082C45.0445 84.4458 45.2362 84.6367 45.2362 84.872C45.2362 85.1076 45.0445 85.2981 44.8082 85.2981Z" fill="#FFC727"/>
<path d="M44.8082 87.2681H40.4639C40.2276 87.2681 40.0359 87.0772 40.0359 86.8419C40.0359 86.6066 40.2276 86.4158 40.4639 86.4158H44.8082C45.0445 86.4158 45.2362 86.6066 45.2362 86.8419C45.2362 87.0772 45.0445 87.2681 44.8082 87.2681Z" fill="#FFC727"/>
<path d="M44.8082 89.2375H40.4639C40.2276 89.2375 40.0359 89.0467 40.0359 88.8114C40.0359 88.5761 40.2276 88.3853 40.4639 88.3853H44.8082C45.0445 88.3853 45.2362 88.5761 45.2362 88.8114C45.2362 89.0467 45.0445 89.2375 44.8082 89.2375Z" fill="#FFC727"/>
<path d="M44.8082 91.2072H40.4639C40.2276 91.2072 40.0359 91.0163 40.0359 90.781C40.0359 90.5457 40.2276 90.3549 40.4639 90.3549H44.8082C45.0445 90.3549 45.2362 90.5457 45.2362 90.781C45.2362 91.0167 45.0445 91.2072 44.8082 91.2072Z" fill="#FFC727"/>
<path d="M44.8082 93.1766H40.4639C40.2276 93.1766 40.0359 92.9858 40.0359 92.7505C40.0359 92.5152 40.2276 92.3243 40.4639 92.3243H44.8082C45.0445 92.3243 45.2362 92.5152 45.2362 92.7505C45.2362 92.9858 45.0445 93.1766 44.8082 93.1766Z" fill="#FFC727"/>
<path d="M65.2115 83.3285H46.4905C46.2542 83.3285 46.0625 83.1376 46.0625 82.9023C46.0625 82.667 46.2542 82.4762 46.4905 82.4762H65.2115C65.4478 82.4762 65.6395 82.667 65.6395 82.9023C65.6399 83.1376 65.4482 83.3285 65.2115 83.3285Z" fill="#F17C04"/>
<path d="M65.2115 85.2977H46.4905C46.2542 85.2977 46.0625 85.1069 46.0625 84.8716C46.0625 84.6363 46.2542 84.4454 46.4905 84.4454H65.2115C65.4478 84.4454 65.6395 84.6363 65.6395 84.8716C65.6399 85.1072 65.4482 85.2977 65.2115 85.2977Z" fill="#F17C04"/>
<path d="M65.2115 87.2681H46.4905C46.2542 87.2681 46.0625 87.0772 46.0625 86.8419C46.0625 86.6066 46.2542 86.4158 46.4905 86.4158H65.2115C65.4478 86.4158 65.6395 86.6066 65.6395 86.8419C65.6399 87.0772 65.4482 87.2681 65.2115 87.2681Z" fill="#F17C04"/>
<path d="M65.2115 89.2375H46.4905C46.2542 89.2375 46.0625 89.0467 46.0625 88.8114C46.0625 88.5761 46.2542 88.3853 46.4905 88.3853H65.2115C65.4478 88.3853 65.6395 88.5761 65.6395 88.8114C65.6399 89.0467 65.4482 89.2375 65.2115 89.2375Z" fill="#F17C04"/>
<path d="M65.2115 91.2072H46.4905C46.2542 91.2072 46.0625 91.0163 46.0625 90.781C46.0625 90.5457 46.2542 90.3549 46.4905 90.3549H65.2115C65.4478 90.3549 65.6395 90.5457 65.6395 90.781C65.6399 91.0167 65.4482 91.2072 65.2115 91.2072Z" fill="#F17C04"/>
<path d="M65.2115 93.1766H46.4905C46.2542 93.1766 46.0625 92.9858 46.0625 92.7505C46.0625 92.5152 46.2542 92.3243 46.4905 92.3243H65.2115C65.4478 92.3243 65.6395 92.5152 65.6395 92.7505C65.6399 92.9858 65.4482 93.1766 65.2115 93.1766Z" fill="#F17C04"/>
<path d="M63.539 55.7392H59.1104C58.8422 55.7392 58.625 55.5226 58.625 55.2559C58.625 54.9888 58.8426 54.7726 59.1104 54.7726H63.539C63.8072 54.7726 64.0245 54.9892 64.0245 55.2559C64.0245 55.5226 63.8072 55.7392 63.539 55.7392Z" fill="#DCF1FC"/>
<path d="M68.0002 57.8852H59.1104C58.8422 57.8852 58.625 57.6686 58.625 57.4019C58.625 57.1348 58.8426 56.9186 59.1104 56.9186H68.0002C68.2684 56.9186 68.4856 57.1352 68.4856 57.4019C68.4856 57.6689 68.2684 57.8852 68.0002 57.8852Z" fill="#DCF1FC"/>
<path d="M60.1604 60.0313H59.1104C58.8422 60.0313 58.625 59.815 58.625 59.548C58.625 59.2809 58.8426 59.0647 59.1104 59.0647H60.1604C60.4286 59.0647 60.6458 59.2809 60.6458 59.548C60.6458 59.8147 60.4286 60.0313 60.1604 60.0313Z" fill="#DCF1FC"/>
<path d="M68.0128 60.0313H61.8229C61.5546 60.0313 61.3374 59.815 61.3374 59.548C61.3374 59.2809 61.555 59.0647 61.8229 59.0647H68.0128C68.2811 59.0647 68.4983 59.2809 68.4983 59.548C68.4983 59.8147 68.2811 60.0313 68.0128 60.0313Z" fill="#DCF1FC"/>
<path d="M68.0073 55.7392H65.3228C65.0546 55.7392 64.8374 55.5226 64.8374 55.2559C64.8374 54.9888 65.055 54.7726 65.3228 54.7726H68.0073C68.2756 54.7726 68.4928 54.9892 68.4928 55.2559C68.4928 55.5226 68.2756 55.7392 68.0073 55.7392Z" fill="#DCF1FC"/>
<path d="M43.0336 121.681C42.4567 121.681 41.9167 121.838 41.4546 122.113C41.2693 120.467 39.8672 119.187 38.1642 119.187C36.3351 119.187 34.8522 120.663 34.8522 122.484C34.8522 122.606 34.8593 122.726 34.8724 122.845C34.7204 122.817 34.5641 122.801 34.4039 122.801C33.0071 122.801 31.875 123.929 31.875 125.319C31.875 126.71 33.0071 127.837 34.4039 127.837H43.0339C44.7415 127.837 46.1256 126.459 46.1256 124.759C46.1256 123.059 44.7411 121.681 43.0336 121.681Z" fill="white"/>
<path d="M0.800049 127.836H231.2" stroke="white" stroke-width="0.644472" stroke-miterlimit="10" stroke-linecap="round"/>
</svg>
