<svg width="16" height="16" viewBox="0 0 16 16" fill="none" xmlns="http://www.w3.org/2000/svg">
<path d="M7.9974 1.33304C6.58291 1.33304 5.22635 1.89494 4.22616 2.89514C3.22597 3.89533 2.66406 5.25188 2.66406 6.66637C2.66406 10.2664 7.36406 14.333 7.56406 14.5064C7.68482 14.6097 7.83849 14.6664 7.9974 14.6664C8.1563 14.6664 8.30997 14.6097 8.43073 14.5064C8.66406 14.333 13.3307 10.2664 13.3307 6.66637C13.3307 5.25188 12.7688 3.89533 11.7686 2.89514C10.7684 1.89494 9.41188 1.33304 7.9974 1.33304ZM7.9974 13.0997C6.5774 11.7664 3.9974 8.89304 3.9974 6.66637C3.9974 5.60551 4.41882 4.58809 5.16897 3.83794C5.91911 3.0878 6.93653 2.66637 7.9974 2.66637C9.05826 2.66637 10.0757 3.0878 10.8258 3.83794C11.576 4.58809 11.9974 5.60551 11.9974 6.66637C11.9974 8.89304 9.4174 11.773 7.9974 13.0997ZM7.9974 3.99971C7.46998 3.99971 6.95441 4.1561 6.51588 4.44912C6.07734 4.74214 5.73555 5.15861 5.53372 5.64588C5.33188 6.13315 5.27907 6.66933 5.38197 7.18661C5.48486 7.7039 5.73884 8.17905 6.11178 8.55199C6.48472 8.92493 6.95987 9.17891 7.47716 9.2818C7.99444 9.38469 8.53062 9.33188 9.01789 9.13005C9.50516 8.92822 9.92163 8.58642 10.2146 8.14789C10.5077 7.70936 10.6641 7.19379 10.6641 6.66637C10.6641 5.95913 10.3831 5.28085 9.88301 4.78075C9.38292 4.28066 8.70464 3.99971 7.9974 3.99971ZM7.9974 7.99971C7.73369 7.99971 7.4759 7.92151 7.25664 7.775C7.03737 7.62849 6.86647 7.42025 6.76556 7.17662C6.66464 6.93298 6.63824 6.66489 6.68968 6.40625C6.74113 6.14761 6.86812 5.91003 7.05459 5.72356C7.24106 5.53709 7.47863 5.4101 7.73728 5.35866C7.99592 5.30721 8.26401 5.33362 8.50764 5.43453C8.75128 5.53545 8.95951 5.70635 9.10602 5.92561C9.25253 6.14488 9.33073 6.40266 9.33073 6.66637C9.33073 7.01999 9.19025 7.35913 8.9402 7.60918C8.69016 7.85923 8.35102 7.99971 7.9974 7.99971Z" fill="white"/>
</svg>
