<svg width="32" height="32" viewBox="0 0 32 32" fill="none" xmlns="http://www.w3.org/2000/svg">
<path d="M28 14.6663C28 22.0663 22.88 28.9863 16 30.6663C9.12 28.9863 4 22.0663 4 14.6663V6.66634L16 1.33301L28 6.66634V14.6663ZM16 27.9997C21 26.6663 25.3333 20.7197 25.3333 14.9597V8.39967L16 4.23967L6.66667 8.39967V14.9597C6.66667 20.7197 11 26.6663 16 27.9997ZM19.7333 14.6663V12.6663C19.7333 10.7997 17.8667 9.33301 16 9.33301C14.1333 9.33301 12.2667 10.7997 12.2667 12.6663V14.6663C11.4667 14.6663 10.6667 15.4663 10.6667 16.2663V20.933C10.6667 21.8663 11.4667 22.6663 12.2667 22.6663H19.6C20.5333 22.6663 21.3333 21.8663 21.3333 21.0663V16.3997C21.3333 15.4663 20.5333 14.6663 19.7333 14.6663ZM18 14.6663H14V12.6663C14 11.5997 14.9333 10.933 16 10.933C17.0667 10.933 18 11.5997 18 12.6663V14.6663Z" fill="white"/>
</svg>
