<svg width="57" height="56" viewBox="0 0 57 56" fill="none" xmlns="http://www.w3.org/2000/svg">
<path d="M11.4234 31.5941L11.3138 31.066L10.7782 31.0019L5.96094 30.4254V25.566L10.7783 24.9884L11.3136 24.9243L11.4233 24.3965C11.8614 22.2899 12.6852 20.2853 13.8517 18.486L14.1421 18.0382L13.8141 17.6171L10.799 13.7459L14.1865 10.3155L17.9991 13.3528L18.4241 13.6914L18.8783 13.393C20.6329 12.24 22.6035 11.3933 24.7177 10.944L25.2443 10.832L25.3067 10.2972L25.8757 5.41699H30.6639L31.2338 10.2973L31.2963 10.8319L31.8227 10.9439C33.9353 11.3932 35.9087 12.2401 37.6597 13.3926L38.1139 13.6915L38.5392 13.3529L42.3523 10.3168L45.7405 13.75L42.7295 17.6172L42.402 18.0377L42.6915 18.4852C43.836 20.2548 44.6693 22.2539 45.1153 24.3966L45.2252 24.9242L45.7603 24.9884L50.5806 25.5664L50.5765 30.4255L45.7604 31.0019L45.225 31.066L45.1152 31.5939C44.6772 33.7015 43.8547 35.7076 42.6903 37.5096L42.4011 37.9571L42.7285 38.3775L45.7396 42.2433L42.3502 45.6756L38.5397 42.6367L38.1137 42.297L37.6589 42.5971C35.9084 43.7524 33.9354 44.5991 31.8234 45.0463L31.2964 45.1579L31.2338 45.6929L30.6631 50.5733L25.8763 50.5713L25.3067 45.693L25.2442 45.1572L24.7164 45.0461C23.7662 44.8459 22.8469 44.5557 21.9588 44.193L24.8253 41.3823C25.9256 41.6731 27.0768 41.8312 28.2718 41.8312C35.836 41.8312 41.9531 35.6271 41.9531 27.994C41.9531 20.3588 35.8358 14.158 28.2718 14.158C20.7039 14.158 14.5864 20.3586 14.5864 27.9941C14.5864 29.1521 14.7361 30.2674 15.001 31.3324L12.1753 34.1053C11.8605 33.2907 11.6027 32.4576 11.4234 31.5941ZM10.7792 13.766L10.7794 13.7658L10.7792 13.766Z" stroke="#F17C04" stroke-width="1.5"/>
<path d="M6.38772 44.8625L6.57129 44.6774L19.7944 31.7063L20.1162 31.3905L19.9884 30.9581C19.0902 27.9212 19.8921 24.4405 22.3708 22.0304C24.5275 19.9348 27.4343 19.1496 30.0991 19.6579L27.8629 21.8319L27.8622 21.8326C26.8308 22.838 26.7972 24.4936 27.787 25.5361L27.7873 25.5364L30.8652 28.7741C30.8653 28.7742 30.8654 28.7743 30.8655 28.7744C31.8621 29.8236 33.5123 29.8527 34.5462 28.8508L34.5475 28.8496L36.7687 26.6872C37.162 29.41 36.2687 32.3159 34.1106 34.4138L34.1104 34.4141C31.6122 36.8447 28.1046 37.5031 25.13 36.4357L24.6872 36.2769L24.3515 36.6063L11.5242 49.1894L11.491 49.1524L10.9315 49.6841C9.62403 50.9268 7.58357 50.8778 6.33612 49.568C5.08475 48.2488 5.11209 46.1488 6.38772 44.8625Z" stroke="#F17C04" stroke-width="1.5"/>
</svg>
