<svg width="32" height="32" viewBox="0 0 32 32" fill="none" xmlns="http://www.w3.org/2000/svg">
<path d="M18.9115 24H16.0002L10.0002 20.6934L2.67285 23.388L4.67419 27.3507L9.38885 25.382C13.8002 28.016 16.4849 29.3334 17.4435 29.3334C18.4022 29.3334 22.3655 27.5554 29.3335 24" stroke="white" stroke-linecap="round" stroke-linejoin="round"/>
<path fill-rule="evenodd" clip-rule="evenodd" d="M18.7632 18.4661C18.689 18.4661 18.6519 18.4661 18.6148 18.4277L12.4187 12.0111C12.3445 11.9343 12.3445 11.7806 12.4187 11.7037C12.53 11.5885 12.6413 11.5885 12.7526 11.7037L18.9116 18.0819C19.0229 18.1587 19.0229 18.3124 18.9116 18.4277C18.8745 18.4661 18.8374 18.4661 18.7632 18.4661ZM17.9841 11.2042L15.3498 8.47624L14.0883 8.13043C14.0141 8.09201 13.977 8.05359 13.9399 8.01517L12.3074 5.47927V5.44085C12.2332 5.364 12.2703 5.24874 12.3445 5.17189L12.8639 4.63397L13.3834 4.05763C13.4576 3.98079 13.606 3.98079 13.6802 4.05763L16.1661 5.74823C16.2032 5.78665 16.2403 5.82508 16.2403 5.90192L16.5742 7.16987L19.2456 9.9363C19.394 9.85945 19.6166 9.89788 19.7279 10.0516L21.1749 11.5501C21.7314 11.3195 22.3622 11.4348 22.7703 11.8959L22.9558 12.088C23.03 12.1264 23.03 12.2032 23.03 12.2801C23.03 12.3953 23.0671 12.549 23.1413 12.6259C23.2526 12.7027 23.3639 12.7796 23.4753 12.7412C23.5495 12.7412 23.6237 12.7796 23.6608 12.818L24.3286 13.4712C24.3657 13.548 24.4028 13.5865 24.3657 13.6633C24.3657 13.817 24.4028 13.9323 24.5141 14.0091C24.5883 14.1244 24.6996 14.1628 24.8481 14.1628C24.9223 14.1244 24.9594 14.1628 25.0336 14.2012L25.6643 14.8928C25.7385 14.9312 25.7385 15.0081 25.7385 15.0849C25.7385 15.2002 25.7756 15.3539 25.8498 15.4307C25.9611 15.5076 26.0724 15.5844 26.1837 15.546C26.2579 15.546 26.3322 15.5844 26.3693 15.6229L26.5548 15.815C27.1484 16.3913 27.1484 17.3903 26.5548 17.9666L25.7756 18.8119C25.4788 19.0809 25.1078 19.2346 24.7367 19.2346C24.3286 19.2346 23.9576 19.0809 23.6608 18.8119L23.4753 18.6198C23.4382 18.543 23.4011 18.5045 23.4382 18.4277C23.4382 18.274 23.4011 18.1587 23.2897 18.0819C23.2155 17.9666 23.1042 17.9282 22.9558 17.9282C22.8816 17.9666 22.8445 17.9282 22.7703 17.8898L22.1396 17.1982C22.1025 17.1598 22.0654 17.0829 22.0654 17.0061C22.1025 16.8908 22.0283 16.7755 21.9541 16.6603C21.8798 16.5834 21.7314 16.545 21.6201 16.545C21.5459 16.545 21.4717 16.545 21.4346 16.4681L20.7668 15.815C20.7297 15.7381 20.7297 15.6997 20.7297 15.6229C20.7297 15.4692 20.6926 15.3539 20.6184 15.277C20.5071 15.1618 20.3957 15.1234 20.2473 15.1234C20.2102 15.1618 20.136 15.1234 20.0618 15.0849L19.8763 14.8928C19.4682 14.4317 19.3569 13.817 19.5424 13.2791L18.0954 11.7422C17.947 11.5885 17.9099 11.3964 17.9841 11.2042ZM19.394 10.3589C19.394 10.3974 19.394 10.3974 19.394 10.3974C19.3569 10.4358 19.3569 10.4358 19.3198 10.4358L18.3922 11.3964V11.4348L19.765 12.8564C19.8021 12.818 19.8392 12.7412 19.8763 12.7027L20.6926 11.8959C20.7297 11.8574 20.7668 11.819 20.8039 11.7806L19.4311 10.3589H19.394ZM18.9116 10.2437L16.2403 7.47725C16.2032 7.43883 16.1661 7.4004 16.1661 7.36198L15.8321 6.09403L13.606 4.55713L13.1978 4.94135L12.7897 5.364L14.2738 7.70779L15.4982 8.01517C15.5353 8.05359 15.5724 8.05359 15.6095 8.09201L18.2809 10.8584L18.9116 10.2437ZM23.8834 18.3509L23.9947 18.4661C24.4028 18.8888 25.0336 18.8888 25.4417 18.4661L26.2579 17.6593C26.6661 17.2366 26.6661 16.545 26.2579 16.1223L26.1466 16.0071C25.924 16.0071 25.7014 15.9302 25.553 15.7381C25.3675 15.5844 25.2933 15.3539 25.2933 15.1234L24.7738 14.6239C24.5512 14.6239 24.3286 14.5086 24.1802 14.3549C24.0318 14.2012 23.9205 13.9707 23.9205 13.7401L23.4382 13.2022C23.2155 13.2022 22.9929 13.1254 22.8445 12.9333C22.659 12.7796 22.5848 12.549 22.5848 12.3185L22.4735 12.2032C22.0654 11.7806 21.3975 11.7806 20.9894 12.2032L20.2102 13.0485C19.8021 13.4712 19.8021 14.1244 20.2102 14.547L20.3215 14.6623C20.5442 14.6623 20.7668 14.7776 20.9152 14.9312C21.0636 15.0849 21.1749 15.3155 21.1749 15.546L21.6943 16.0839C21.9169 16.0839 22.1025 16.1608 22.2509 16.3529C22.4364 16.5066 22.5106 16.7371 22.5106 16.9676L23.03 17.4671C23.2526 17.4671 23.4753 17.5824 23.6237 17.7361C23.7721 17.8898 23.8834 18.1203 23.8834 18.3509ZM24.3286 17.544C24.2915 17.544 24.2173 17.5056 24.1802 17.4671L21.1749 14.3549C21.0636 14.2781 21.0636 14.1244 21.1749 14.0475C21.2491 13.9323 21.3975 13.9323 21.4717 14.0475L24.477 17.1598C24.5883 17.2366 24.5883 17.3903 24.477 17.4671C24.4399 17.5056 24.4028 17.544 24.3286 17.544ZM25.1449 16.7371C25.0707 16.7371 24.9965 16.6987 24.9594 16.6603L21.9541 13.548C21.8798 13.4328 21.8798 13.3175 21.9541 13.2022C22.0283 13.1254 22.1767 13.1254 22.288 13.2022L25.2933 16.3145C25.3675 16.4297 25.3675 16.545 25.2933 16.6603C25.2562 16.6987 25.182 16.7371 25.1449 16.7371ZM20.9152 23C20.2473 23 19.6166 22.731 19.1714 22.27C18.5777 21.6552 18.318 20.7715 18.4664 19.9262L11.0088 12.2032C10.1925 12.3953 9.33918 12.1264 8.74554 11.5116C8.2261 10.9737 7.96638 10.2437 8.00349 9.47523C8.04059 9.39838 8.07769 9.32154 8.1519 9.28311C8.2261 9.24469 8.33741 9.28311 8.41162 9.35996L9.26497 10.2437L10.6378 9.85945L11.0088 8.39939L10.1554 7.51567C10.1183 7.43883 10.0812 7.36198 10.1183 7.28514C10.1554 7.20829 10.2296 7.13145 10.3038 7.13145C11.0459 7.0546 11.7508 7.32356 12.2703 7.86148C12.8639 8.47624 13.1236 9.39838 12.9381 10.2437L20.3957 17.9666C21.212 17.7745 22.0654 18.0435 22.6219 18.6582C23.1042 19.1577 23.3639 19.7725 23.3639 20.4641C23.3639 21.1557 23.1042 21.7705 22.6219 22.27C22.1767 22.731 21.5459 23 20.9152 23ZM11.083 11.7422C11.1572 11.7422 11.1943 11.7422 11.2314 11.7806L18.8745 19.6957C18.9487 19.7725 18.9487 19.8493 18.9487 19.9262C18.7632 20.6562 18.9487 21.4247 19.4682 21.9626C19.8392 22.3468 20.3586 22.5389 20.9152 22.5389C21.4346 22.5389 21.9541 22.3468 22.3251 21.9626C22.6961 21.5399 22.9187 21.0404 22.9187 20.4641C22.9187 19.8878 22.6961 19.3883 22.3251 19.004C21.8056 18.4661 21.1007 18.2356 20.3957 18.4277C20.3215 18.4661 20.2473 18.4277 20.1731 18.3893L12.53 10.4742C12.4929 10.3974 12.4558 10.3205 12.4558 10.2437C12.6784 9.51365 12.4558 8.7452 11.9364 8.20728C11.6395 7.8999 11.3056 7.70779 10.8975 7.63094L11.4169 8.16886C11.4911 8.2457 11.5282 8.32255 11.4911 8.39939L11.0088 10.09C11.0088 10.1668 10.9346 10.2437 10.8604 10.2821L9.26497 10.7048C9.19077 10.7432 9.07946 10.7048 9.04236 10.6663L8.48582 10.09C8.56003 10.5126 8.74554 10.8969 9.04236 11.2042C9.5618 11.7037 10.3409 11.9343 11.0459 11.7422H11.083ZM20.5442 22.0779C20.4699 22.0779 20.4328 22.0779 20.3957 22.0394L19.394 21.002C19.3198 20.9252 19.3198 20.8483 19.3198 20.7715L19.6908 19.3883C19.7279 19.3114 19.765 19.2346 19.8392 19.2346L21.212 18.8504C21.2862 18.8119 21.3604 18.8504 21.4346 18.8888L22.3993 19.9262C22.4735 19.9646 22.4735 20.0799 22.4735 20.1567L22.1025 21.5399C22.0654 21.6168 22.0283 21.6936 21.9541 21.6936L20.5813 22.0779H20.5442ZM19.8021 20.7715L20.6184 21.6168L21.6943 21.3094L21.9912 20.1567L21.212 19.3114L20.0989 19.6188L19.8021 20.7715Z" fill="white"/>
</svg>
