<svg width="32" height="32" viewBox="0 0 32 32" fill="none" xmlns="http://www.w3.org/2000/svg">
<path fill-rule="evenodd" clip-rule="evenodd" d="M10.3337 9.99967C10.3337 9.25552 10.4802 8.51865 10.765 7.83113C11.0498 7.14362 11.4672 6.51893 11.9934 5.99274C12.5196 5.46654 13.1443 5.04913 13.8318 4.76436C14.5193 4.47958 15.2562 4.33301 16.0003 4.33301C16.7445 4.33301 17.4814 4.47958 18.1689 4.76436C18.8564 5.04913 19.4811 5.46654 20.0073 5.99274C20.5335 6.51893 20.9509 7.14362 21.2356 7.83113C21.5204 8.51865 21.667 9.25552 21.667 9.99967C21.667 11.5026 21.07 12.9439 20.0073 14.0066C18.9446 15.0693 17.5032 15.6663 16.0003 15.6663C14.4974 15.6663 13.0561 15.0693 11.9934 14.0066C10.9307 12.9439 10.3337 11.5026 10.3337 9.99967ZM16.0003 6.33301C15.0279 6.33301 14.0952 6.71932 13.4076 7.40695C12.72 8.09458 12.3337 9.02721 12.3337 9.99967C12.3337 10.9721 12.72 11.9048 13.4076 12.5924C14.0952 13.28 15.0279 13.6663 16.0003 13.6663C16.9728 13.6663 17.9054 13.28 18.5931 12.5924C19.2807 11.9048 19.667 10.9721 19.667 9.99967C19.667 9.02721 19.2807 8.09458 18.5931 7.40695C17.9054 6.71932 16.9728 6.33301 16.0003 6.33301ZM10.667 19.6663C9.87134 19.6663 9.10828 19.9824 8.54567 20.545C7.98306 21.1076 7.66699 21.8707 7.66699 22.6663V24.2503C7.66699 24.2743 7.68433 24.2957 7.70833 24.2997C13.2003 25.1957 18.8017 25.1957 24.2923 24.2997C24.304 24.2978 24.3146 24.2917 24.3221 24.2827C24.3297 24.2736 24.3338 24.2621 24.3337 24.2503V22.6663C24.3337 21.8707 24.0176 21.1076 23.455 20.545C22.8924 19.9824 22.1293 19.6663 21.3337 19.6663H20.8803C20.8446 19.6661 20.809 19.6715 20.775 19.6823L19.6217 20.0597C17.2686 20.8279 14.7321 20.8279 12.379 20.0597L11.2243 19.6823C11.1911 19.6717 11.1565 19.6663 11.1217 19.6663H10.667ZM5.66699 22.6663C5.66699 21.3403 6.19378 20.0685 7.13146 19.1308C8.06914 18.1931 9.34091 17.6663 10.667 17.6663H11.1203C11.367 17.6663 11.6123 17.7063 11.8457 17.781L13.0003 18.1583C14.9497 18.7947 17.0509 18.7947 19.0003 18.1583L20.155 17.781C20.3883 17.705 20.6337 17.6663 20.879 17.6663H21.3337C22.6597 17.6663 23.9315 18.1931 24.8692 19.1308C25.8069 20.0685 26.3337 21.3403 26.3337 22.6663V24.2503C26.3337 25.2557 25.6057 26.1117 24.6137 26.273C18.9092 27.2043 13.0915 27.2043 7.38699 26.273C6.90689 26.1948 6.47025 25.9484 6.15514 25.5779C5.84003 25.2073 5.667 24.7368 5.66699 24.2503V22.6663Z" fill="white"/>
</svg>
