<svg width="32" height="32" viewBox="0 0 32 32" fill="none" xmlns="http://www.w3.org/2000/svg">
<path d="M16.0988 20.7439C15.1137 21.0078 14.071 20.9595 13.1145 20.6057C12.1581 20.2519 11.335 19.61 10.7588 18.7686" stroke="white" stroke-linecap="round" stroke-linejoin="round"/>
<path d="M14.8235 18.648C16.2944 18.648 17.4868 17.4555 17.4868 15.9846C17.4868 14.5137 16.2944 13.3213 14.8235 13.3213C13.3526 13.3213 12.1602 14.5137 12.1602 15.9846C12.1602 17.4555 13.3526 18.648 14.8235 18.648Z" stroke="white" stroke-linecap="round" stroke-linejoin="round"/>
<path d="M19.2773 5.00313C20.7653 5.60675 22.1151 6.50639 23.2448 7.64746C24.3745 8.78853 25.2606 10.1472 25.8493 11.6411M3 15.1805C3.11921 13.4273 3.62681 11.7226 4.48603 10.1898C5.34524 8.65702 6.53458 7.33448 7.96791 6.31797C9.40124 5.30145 11.0427 4.61641 12.7734 4.31244C14.5041 4.00848 16.2807 4.0932 17.9747 4.56046M17.9793 27.4078C16.324 27.8651 14.5891 27.9572 12.8946 27.6777C11.2002 27.3982 9.5867 26.7538 8.16596 25.789C6.74522 24.8242 5.55114 23.5622 4.6664 22.0903C3.78166 20.6184 3.2274 18.9718 3.042 17.2645" stroke="white" stroke-linecap="round" stroke-linejoin="round"/>
<path d="M7.89711 9.45328C9.13938 8.13607 10.7315 7.20041 12.4867 6.75604C14.2419 6.31166 16.0875 6.37701 17.8069 6.9444C19.5263 7.5118 21.0483 8.55772 22.1943 9.95949C23.3403 11.3613 24.0628 13.0607 24.2771 14.8586M8.25444 22.8759C6.65663 21.353 5.6377 19.3221 5.37198 17.1308C5.10626 14.9395 5.61027 12.724 6.79777 10.8633M16.5904 25.3399C14.5762 25.7206 12.493 25.441 10.6504 24.5426" stroke="white" stroke-linecap="round" stroke-linejoin="round"/>
<path d="M23.341 27.8665C26.4665 27.8665 29.0003 25.3327 29.0003 22.2072C29.0003 19.0816 26.4665 16.5479 23.341 16.5479C20.2154 16.5479 17.6816 19.0816 17.6816 22.2072C17.6816 25.3327 20.2154 27.8665 23.341 27.8665Z" stroke="white" stroke-linecap="round" stroke-linejoin="round"/>
<path d="M23.3408 21.9462C23.9685 21.9462 24.4774 21.4373 24.4774 20.8095C24.4774 20.1818 23.9685 19.6729 23.3408 19.6729C22.713 19.6729 22.2041 20.1818 22.2041 20.8095C22.2041 21.4373 22.713 21.9462 23.3408 21.9462Z" stroke="white" stroke-linecap="round" stroke-linejoin="round"/>
<path d="M23.3521 22.8743C25.4521 22.8516 25.7134 24.2303 25.7134 24.2303C24.0968 24.727 22.6014 24.729 20.9688 24.2303C20.9688 24.2303 21.2528 22.897 23.3521 22.8743Z" stroke="white" stroke-linecap="round" stroke-linejoin="round"/>
</svg>
