<svg width="56" height="56" viewBox="0 0 56 56" fill="none" xmlns="http://www.w3.org/2000/svg">
<path d="M44.7356 6.99951H11.7016C11.0319 6.99951 10.5 7.53137 10.5 8.20111V13.6871H45.9274V8.20111C45.9372 7.53137 45.3955 6.99951 44.7356 6.99951ZM14.1245 11.274C13.6123 11.274 13.1888 10.8604 13.1888 10.3384C13.1888 9.81637 13.6025 9.4027 14.1245 9.4027C14.6366 9.4027 15.0602 9.81637 15.0602 10.3384C15.0602 10.8604 14.6465 11.274 14.1245 11.274ZM19.0491 11.274C18.5369 11.274 18.1134 10.8604 18.1134 10.3384C18.1134 9.81637 18.5271 9.4027 19.0491 9.4027C19.5612 9.4027 19.9847 9.81637 19.9847 10.3384C19.9847 10.8604 19.5711 11.274 19.0491 11.274ZM23.9638 11.274C23.4615 11.274 23.0281 10.8604 23.0281 10.3384C23.0281 9.81637 23.4516 9.4027 23.9638 9.4027C24.4759 9.4027 24.8995 9.81637 24.8995 10.3384C24.8995 10.8604 24.4858 11.274 23.9638 11.274ZM42.4014 11.1854H29.6566C29.1937 11.1854 28.8096 10.8111 28.8096 10.3384C28.8096 9.87546 29.1838 9.49135 29.6566 9.49135H42.4014C42.8643 9.49135 43.2484 9.86561 43.2484 10.3384C43.2386 10.8111 42.8643 11.1854 42.4014 11.1854ZM10.5 19.9708V48.0212C10.5 48.7008 11.022 49.2228 11.7016 49.2228H44.7258C45.3955 49.2228 45.9274 48.691 45.9274 48.0212V19.9708V14.6818H10.5V19.9708ZM12.9032 19.9708V17.2131H43.534V19.9708V46.6916H12.9032V19.9708Z" fill="#F17C04"/>
<path d="M28.0789 25.9687C27.8228 25.7422 27.4978 25.5649 27.1038 25.4369C26.7 25.3088 26.2174 25.2498 25.6659 25.2498C25.2817 25.2498 24.9272 25.2892 24.612 25.3581C24.2968 25.427 24.0014 25.5255 23.7354 25.6536C23.4695 25.7816 23.2331 25.9392 23.0263 26.1165C22.8195 26.2938 22.6323 26.4907 22.4649 26.7074C22.3073 26.9241 22.1596 27.1506 22.0414 27.387C21.9232 27.6234 21.8247 27.8795 21.7557 28.1257C21.677 28.3818 21.6277 28.6379 21.5883 28.8939C21.5489 29.15 21.5391 29.4061 21.5391 29.6622C21.5391 30.1152 21.5982 30.519 21.7163 30.8736C21.8345 31.2282 22.0217 31.5335 22.2876 31.7797C22.5437 32.026 22.8785 32.223 23.2824 32.351C23.696 32.479 24.1885 32.548 24.7696 32.548C25.0257 32.548 25.262 32.5381 25.4787 32.5086C25.6954 32.4889 25.8825 32.4593 26.0401 32.4199C26.1977 32.3904 26.3257 32.351 26.4242 32.3214C26.5129 32.2919 26.5424 32.2722 26.6114 32.223L26.6508 32.1442C26.6508 32.1442 26.6606 32.0654 26.6705 32.026C26.6705 31.9767 26.6705 31.9275 26.6705 31.8585C26.6705 31.7797 26.6705 31.7108 26.6114 31.6911L26.5818 31.504C26.5621 31.504 26.5227 31.5138 26.4341 31.5434C26.3356 31.5729 26.2174 31.6025 26.0697 31.632C25.9219 31.6616 25.7446 31.6911 25.5477 31.7206C25.3507 31.7502 25.134 31.76 24.8878 31.76C24.4249 31.76 24.0407 31.7108 23.7256 31.6123C23.4104 31.5138 23.1642 31.3661 22.977 31.1789C22.7899 30.9918 22.652 30.7554 22.5831 30.4797C22.5043 30.2137 22.4649 29.8986 22.4649 29.5637C22.4649 29.3765 22.4747 29.1796 22.4944 28.9826C22.5141 28.7856 22.5535 28.5788 22.6028 28.3818C22.652 28.1848 22.7111 27.9878 22.7899 27.7908C22.8687 27.5939 22.9672 27.4067 23.0854 27.2393C23.2036 27.062 23.3415 26.9044 23.499 26.7567C23.6566 26.6089 23.8438 26.4809 24.0407 26.3726C24.2377 26.2642 24.4741 26.1756 24.7203 26.1165C24.9764 26.0574 25.2522 26.0278 25.5575 26.0278C26.0106 26.0278 26.3947 26.0771 26.6902 26.1756C26.9856 26.2741 27.2319 26.412 27.3993 26.5892C27.5766 26.7567 27.7046 26.9635 27.7736 27.19C27.8425 27.4166 27.8819 27.6529 27.8819 27.909C27.8819 28.0469 27.8721 28.1848 27.8622 28.3424C27.8425 28.4901 27.8228 28.6379 27.7933 28.7856C27.7637 28.9333 27.7243 29.0712 27.6751 29.1993C27.6258 29.3372 27.5667 29.4553 27.4978 29.5538C27.4289 29.6622 27.3402 29.741 27.2516 29.8099C27.1531 29.869 27.0447 29.9084 26.9265 29.9084C26.7394 29.9084 26.6114 29.8493 26.5523 29.7213C26.4932 29.6031 26.4833 29.4258 26.5227 29.1894L26.9561 27.0718L26.8871 27.0423L26.769 27.0128C26.7197 27.0029 26.6508 27.0029 26.572 27.0029C26.3848 27.0029 26.2864 27.0226 26.1682 27.1309L26.0697 27.584L26.0106 27.5052C25.9219 27.3969 25.8431 27.3082 25.7643 27.2393C25.6856 27.1703 25.6068 27.1112 25.528 27.062C25.4492 27.0226 25.3704 26.9832 25.2817 26.9635C25.1931 26.9438 25.1045 26.934 24.9961 26.934C24.7696 26.934 24.5726 26.9734 24.4052 27.0522C24.2377 27.1309 24.0801 27.2393 23.9521 27.3772C23.8241 27.5151 23.7157 27.6628 23.6271 27.8302C23.5384 27.9977 23.4695 28.1848 23.4202 28.3621C23.3612 28.5492 23.3316 28.7265 23.3021 28.9038C23.2824 29.0811 23.2725 29.2387 23.2725 29.3864C23.2725 29.4947 23.2824 29.6031 23.2922 29.7114C23.3021 29.8198 23.3316 29.9183 23.3612 30.0167C23.3907 30.1054 23.4301 30.194 23.4892 30.2827C23.5384 30.3615 23.6074 30.4304 23.6862 30.4895C23.765 30.5486 23.8536 30.5978 23.962 30.6274C24.0703 30.6569 24.1885 30.6766 24.3362 30.6766C24.4446 30.6766 24.5529 30.6668 24.6612 30.6372C24.7696 30.6175 24.8779 30.5781 24.9863 30.519C25.0946 30.46 25.2128 30.391 25.3211 30.3122C25.4295 30.2334 25.5477 30.1251 25.6659 30.0069L25.7249 29.9478L25.7446 30.0266C25.7742 30.1349 25.8136 30.2236 25.8727 30.3024C25.9318 30.3812 26.0007 30.4501 26.0894 30.4994C26.178 30.5584 26.2864 30.5978 26.4045 30.6274C26.5227 30.6569 26.6606 30.6668 26.8084 30.6668C27.0546 30.6668 27.2811 30.6274 27.4682 30.5486C27.6652 30.4698 27.8327 30.3713 27.9903 30.2334C28.138 30.1054 28.266 29.9478 28.3744 29.7607C28.4827 29.5735 28.5714 29.3765 28.6403 29.1697C28.7092 28.9629 28.7585 28.7462 28.788 28.5197C28.8176 28.2931 28.8373 28.0666 28.8373 27.8401C28.8373 27.4461 28.7782 27.0915 28.66 26.7665C28.5221 26.4711 28.335 26.1953 28.0789 25.9687ZM25.5969 29.3273C25.4984 29.4258 25.4098 29.5144 25.331 29.5932C25.2522 29.672 25.1734 29.7311 25.1045 29.7705C25.0257 29.8198 24.9567 29.8493 24.8976 29.869C24.8287 29.8887 24.7597 29.8986 24.7006 29.8986C24.5234 29.8986 24.3953 29.8395 24.3165 29.7114C24.2476 29.5932 24.2082 29.4356 24.2082 29.2485C24.2082 29.1697 24.218 29.0712 24.2279 28.9629C24.2377 28.8545 24.2574 28.7462 24.287 28.628C24.3165 28.5197 24.3559 28.4015 24.3953 28.2931C24.4446 28.1848 24.5037 28.0863 24.5628 27.9977C24.6317 27.909 24.7105 27.8302 24.7991 27.781C24.8878 27.7219 24.9961 27.7022 25.1143 27.7022C25.2522 27.7022 25.3802 27.7514 25.4886 27.8401C25.5969 27.9287 25.6954 28.0666 25.8037 28.2242L25.5969 29.3273Z" fill="#F17C04"/>
<path d="M33.9714 35.1977C33.8827 35.1091 33.7645 35.0598 33.6464 35.0598C33.5282 35.0598 33.4198 35.0992 33.3115 35.1977L33.0259 35.4833L31.8341 34.2916C34.5525 30.933 34.3555 25.9888 31.2333 22.8666C27.8846 19.5277 22.4676 19.5277 19.1287 22.8666C15.78 26.2153 15.78 31.6225 19.1287 34.9712C22.2509 38.1032 27.1853 38.3002 30.5537 35.5818L31.7455 36.7736L31.4599 37.0592C31.3811 37.1577 31.3318 37.266 31.3318 37.3842C31.3318 37.5024 31.3811 37.6206 31.4697 37.7092L32.2281 38.4676L34.7298 35.9659L33.9714 35.1977ZM29.884 33.612C27.2838 36.2122 23.0684 36.2122 20.4781 33.612C17.8779 31.0118 17.8779 26.8062 20.4781 24.2061C23.0684 21.6059 27.2838 21.6059 29.884 24.2061C32.4842 26.8062 32.4842 31.0118 29.884 33.612ZM38.1179 39.3442L35.6162 41.8459L36.3746 42.6043C36.4632 42.6929 36.5814 42.7421 36.7094 42.7421C36.8375 42.7421 36.9557 42.6929 37.0443 42.6043L38.8763 40.7723C38.9649 40.6837 39.0141 40.5655 39.0141 40.4375C39.0141 40.3094 38.9649 40.1912 38.8763 40.1026L38.1179 39.3442Z" fill="#F17C04"/>
<path d="M35.1558 36.3691L32.6484 38.8761L35.1903 41.4183L37.6976 38.9113L35.1558 36.3691Z" fill="#F17C04"/>
</svg>
