<svg width="32" height="32" viewBox="0 0 32 32" fill="none" xmlns="http://www.w3.org/2000/svg">
<path d="M25.5632 3.99969H6.68663C6.30392 3.99969 6 4.30361 6 4.68632V7.82116H26.2442V4.68632C26.2498 4.30361 25.9403 3.99969 25.5632 3.99969ZM8.07114 6.44228C7.77847 6.44228 7.53647 6.2059 7.53647 5.90762C7.53647 5.60933 7.77285 5.37295 8.07114 5.37295C8.3638 5.37295 8.6058 5.60933 8.6058 5.90762C8.6058 6.2059 8.36942 6.44228 8.07114 6.44228ZM10.8852 6.44228C10.5925 6.44228 10.3505 6.2059 10.3505 5.90762C10.3505 5.60933 10.5869 5.37295 10.8852 5.37295C11.1778 5.37295 11.4198 5.60933 11.4198 5.90762C11.4198 6.2059 11.1835 6.44228 10.8852 6.44228ZM13.6936 6.44228C13.4066 6.44228 13.1589 6.2059 13.1589 5.90762C13.1589 5.60933 13.4009 5.37295 13.6936 5.37295C13.9863 5.37295 14.2283 5.60933 14.2283 5.90762C14.2283 6.2059 13.9919 6.44228 13.6936 6.44228ZM24.2294 6.39163H16.9466C16.6821 6.39163 16.4626 6.17776 16.4626 5.90762C16.4626 5.6431 16.6765 5.4236 16.9466 5.4236H24.2294C24.4939 5.4236 24.7134 5.63747 24.7134 5.90762C24.7078 6.17776 24.4939 6.39163 24.2294 6.39163ZM6 11.4119V27.4407C6 27.829 6.29829 28.1273 6.68663 28.1273H25.5576C25.9403 28.1273 26.2442 27.8234 26.2442 27.4407V11.4119V8.3896H6V11.4119ZM7.37325 11.4119V9.83602H24.8766V11.4119V26.6809H7.37325V11.4119Z" fill="#121212"/>
<path d="M16.0495 14.8393C15.9032 14.7098 15.7175 14.6085 15.4924 14.5353C15.2616 14.4622 14.9858 14.4284 14.6707 14.4284C14.4512 14.4284 14.2486 14.4509 14.0685 14.4903C13.8884 14.5297 13.7195 14.586 13.5676 14.6592C13.4156 14.7323 13.2805 14.8224 13.1623 14.9237C13.0442 15.025 12.9372 15.1375 12.8415 15.2614C12.7515 15.3852 12.6671 15.5146 12.5995 15.6497C12.532 15.7848 12.4757 15.9311 12.4363 16.0718C12.3913 16.2181 12.3632 16.3645 12.3406 16.5108C12.3181 16.6571 12.3125 16.8035 12.3125 16.9498C12.3125 17.2087 12.3463 17.4394 12.4138 17.642C12.4813 17.8447 12.5883 18.0191 12.7402 18.1598C12.8866 18.3005 13.0779 18.4131 13.3087 18.4863C13.5451 18.5594 13.8265 18.5988 14.1585 18.5988C14.3048 18.5988 14.4399 18.5932 14.5637 18.5763C14.6876 18.565 14.7945 18.5482 14.8845 18.5257C14.9746 18.5088 15.0477 18.4863 15.104 18.4694C15.1547 18.4525 15.1716 18.4412 15.211 18.4131L15.2335 18.3681C15.2335 18.3681 15.2391 18.323 15.2447 18.3005C15.2447 18.2724 15.2447 18.2442 15.2447 18.2048C15.2447 18.1598 15.2447 18.1204 15.211 18.1092L15.1941 18.0022C15.1828 18.0022 15.1603 18.0079 15.1097 18.0248C15.0534 18.0416 14.9858 18.0585 14.9014 18.0754C14.817 18.0923 14.7157 18.1092 14.6031 18.1261C14.4906 18.1429 14.3668 18.1486 14.226 18.1486C13.9615 18.1486 13.742 18.1204 13.5619 18.0641C13.3818 18.0079 13.2411 17.9234 13.1342 17.8165C13.0273 17.7096 12.9485 17.5745 12.9091 17.4169C12.8641 17.265 12.8415 17.0849 12.8415 16.8935C12.8415 16.7866 12.8472 16.674 12.8584 16.5615C12.8697 16.4489 12.8922 16.3307 12.9203 16.2181C12.9485 16.1056 12.9822 15.993 13.0273 15.8805C13.0723 15.7679 13.1286 15.661 13.1961 15.5653C13.2636 15.464 13.3424 15.3739 13.4325 15.2895C13.5225 15.2051 13.6295 15.1319 13.742 15.07C13.8546 15.0081 13.9897 14.9574 14.1304 14.9237C14.2767 14.8899 14.4343 14.873 14.6088 14.873C14.8677 14.873 15.0871 14.9012 15.256 14.9574C15.4248 15.0137 15.5655 15.0925 15.6612 15.1938C15.7625 15.2895 15.8357 15.4077 15.8751 15.5371C15.9145 15.6666 15.937 15.8017 15.937 15.948C15.937 16.0268 15.9314 16.1056 15.9257 16.1956C15.9145 16.28 15.9032 16.3645 15.8863 16.4489C15.8694 16.5333 15.8469 16.6121 15.8188 16.6853C15.7907 16.7641 15.7569 16.8316 15.7175 16.8879C15.6781 16.9498 15.6274 16.9948 15.5768 17.0342C15.5205 17.068 15.4586 17.0905 15.3911 17.0905C15.2841 17.0905 15.211 17.0567 15.1772 16.9836C15.1434 16.916 15.1378 16.8147 15.1603 16.6796L15.4079 15.4696L15.3685 15.4527L15.301 15.4358C15.2729 15.4302 15.2335 15.4302 15.1885 15.4302C15.0815 15.4302 15.0252 15.4415 14.9577 15.5034L14.9014 15.7623L14.8677 15.7172C14.817 15.6553 14.772 15.6047 14.7269 15.5653C14.6819 15.5259 14.6369 15.4921 14.5919 15.464C14.5468 15.4415 14.5018 15.4189 14.4512 15.4077C14.4005 15.3964 14.3499 15.3908 14.288 15.3908C14.1585 15.3908 14.0459 15.4133 13.9503 15.4583C13.8546 15.5034 13.7645 15.5653 13.6914 15.6441C13.6182 15.7229 13.5563 15.8073 13.5057 15.903C13.455 15.9986 13.4156 16.1056 13.3875 16.2069C13.3537 16.3138 13.3368 16.4151 13.3199 16.5164C13.3087 16.6177 13.303 16.7078 13.303 16.7922C13.303 16.8541 13.3087 16.916 13.3143 16.9779C13.3199 17.0398 13.3368 17.0961 13.3537 17.1524C13.3706 17.2031 13.3931 17.2537 13.4269 17.3044C13.455 17.3494 13.4944 17.3888 13.5394 17.4225C13.5844 17.4563 13.6351 17.4845 13.697 17.5013C13.7589 17.5182 13.8265 17.5295 13.9109 17.5295C13.9728 17.5295 14.0347 17.5239 14.0966 17.507C14.1585 17.4957 14.2204 17.4732 14.2823 17.4394C14.3442 17.4057 14.4118 17.3663 14.4737 17.3212C14.5356 17.2762 14.6031 17.2143 14.6707 17.1468L14.7044 17.113L14.7157 17.158C14.7326 17.2199 14.7551 17.2706 14.7889 17.3156C14.8226 17.3606 14.862 17.4 14.9127 17.4282C14.9633 17.4619 15.0252 17.4845 15.0928 17.5013C15.1603 17.5182 15.2391 17.5239 15.3235 17.5239C15.4642 17.5239 15.5937 17.5013 15.7006 17.4563C15.8132 17.4113 15.9088 17.355 15.9989 17.2762C16.0833 17.2031 16.1565 17.113 16.2184 17.0061C16.2803 16.8991 16.331 16.7866 16.3703 16.6684C16.4097 16.5502 16.4379 16.4264 16.4548 16.2969C16.4717 16.1675 16.4829 16.038 16.4829 15.9086C16.4829 15.6835 16.4491 15.4809 16.3816 15.2951C16.3028 15.1263 16.1959 14.9687 16.0495 14.8393ZM14.6313 16.7584C14.575 16.8147 14.5243 16.8654 14.4793 16.9104C14.4343 16.9554 14.3893 16.9892 14.3499 17.0117C14.3048 17.0398 14.2654 17.0567 14.2317 17.068C14.1923 17.0792 14.1529 17.0849 14.1191 17.0849C14.0178 17.0849 13.9446 17.0511 13.8996 16.9779C13.8602 16.9104 13.8377 16.8203 13.8377 16.7134C13.8377 16.6684 13.8433 16.6121 13.849 16.5502C13.8546 16.4883 13.8659 16.4264 13.8827 16.3588C13.8996 16.2969 13.9221 16.2294 13.9446 16.1675C13.9728 16.1056 14.0066 16.0493 14.0403 15.9986C14.0797 15.948 14.1247 15.903 14.1754 15.8748C14.226 15.8411 14.288 15.8298 14.3555 15.8298C14.4343 15.8298 14.5075 15.8579 14.5694 15.9086C14.6313 15.9592 14.6876 16.038 14.7495 16.1281L14.6313 16.7584Z" fill="#121212"/>
<path d="M19.4089 20.113C19.3582 20.0623 19.2907 20.0342 19.2231 20.0342C19.1556 20.0342 19.0937 20.0567 19.0318 20.113L18.8686 20.2762L18.1876 19.5952C19.7409 17.676 19.6284 14.8507 17.8443 13.0666C15.9307 11.1587 12.8353 11.1587 10.9273 13.0666C9.0138 14.9802 9.0138 18.07 10.9273 19.9835C12.7115 21.7733 15.5311 21.8858 17.4559 20.3325L18.1369 21.0135L17.9737 21.1767C17.9287 21.233 17.9005 21.2949 17.9005 21.3624C17.9005 21.43 17.9287 21.4975 17.9793 21.5481L18.4127 21.9815L19.8422 20.552L19.4089 20.113ZM17.0732 19.2069C15.5874 20.6927 13.1786 20.6927 11.6984 19.2069C10.2126 17.721 10.2126 15.3179 11.6984 13.832C13.1786 12.3462 15.5874 12.3462 17.0732 13.832C18.559 15.3179 18.559 17.721 17.0732 19.2069ZM21.7783 22.4824L20.3488 23.9119L20.7821 24.3453C20.8328 24.396 20.9003 24.4241 20.9735 24.4241C21.0466 24.4241 21.1142 24.396 21.1648 24.3453L22.2117 23.2985C22.2623 23.2478 22.2904 23.1803 22.2904 23.1071C22.2904 23.034 22.2623 22.9664 22.2117 22.9158L21.7783 22.4824Z" fill="#121212"/>
<path d="M20.089 20.7823L18.6562 22.2148L20.1087 23.6675L21.5415 22.2349L20.089 20.7823Z" fill="#121212"/>
</svg>
