<svg width="32" height="32" viewBox="0 0 32 32" fill="none" xmlns="http://www.w3.org/2000/svg">
<path d="M27.6032 27.3728H4.3968C4.1792 27.3728 4 27.1968 4 26.976V5.02082C4 4.80322 4.176 4.62402 4.3968 4.62402H27.6064C27.824 4.62402 28.0032 4.80002 28.0032 5.02082V26.976C28 27.1968 27.824 27.3728 27.6032 27.3728ZM4.7904 26.5824H27.2064V5.41762H4.7904V26.5824Z" fill="#121212"/>
<path d="M18.2564 8.14394H4.6468C4.4292 8.14394 4.25 7.96794 4.25 7.74714C4.25 7.52634 4.426 7.35034 4.6468 7.35034H18.2564C18.474 7.35034 18.6532 7.52634 18.6532 7.74714C18.6532 7.96794 18.474 8.14394 18.2564 8.14394ZM27.482 8.14394H24.6948C24.4772 8.14394 24.298 7.96794 24.298 7.74714C24.298 7.52634 24.474 7.35034 24.6948 7.35034H27.482C27.6996 7.35034 27.8788 7.52634 27.8788 7.74714C27.8788 7.96794 27.6996 8.14394 27.482 8.14394ZM22.4452 8.14394H20.506C20.2884 8.14394 20.1092 7.96794 20.1092 7.74714C20.1092 7.52634 20.2852 7.35034 20.506 7.35034H22.4452C22.6628 7.35034 22.842 7.52634 22.842 7.74714C22.842 7.96794 22.6628 8.14394 22.4452 8.14394ZM15.6868 18.0191H6.6148C6.3972 18.0191 6.218 17.8431 6.218 17.6223V10.2079C6.218 9.99034 6.394 9.81114 6.6148 9.81114H15.6868C15.9044 9.81114 16.0836 9.98714 16.0836 10.2079V17.6255C16.0836 17.8431 15.9076 18.0191 15.6868 18.0191ZM7.0084 17.2287H15.29V10.6015H7.0084V17.2287Z" fill="#121212"/>
<path d="M6.80135 17.8464C6.69255 17.8464 6.58375 17.7984 6.50695 17.7088C6.37575 17.5456 6.39815 17.3088 6.56135 17.1744L15.2493 10.0704C15.4125 9.93923 15.6493 9.96163 15.7837 10.1248C15.9149 10.288 15.8925 10.5248 15.7293 10.6592L7.04135 17.76C6.97095 17.8176 6.88775 17.8464 6.80135 17.8464Z" fill="#121212"/>
<path d="M15.2861 17.3792C15.2029 17.3792 15.1229 17.3536 15.0525 17.2992L6.56614 10.6624C6.40294 10.5344 6.37094 10.2944 6.50214 10.1312C6.63014 9.96477 6.87014 9.93597 7.03334 10.0672L15.5165 16.7008C15.6797 16.8288 15.7117 17.0688 15.5805 17.232C15.5101 17.328 15.3981 17.3792 15.2861 17.3792ZM25.3725 18.0192H17.3309C17.1133 18.0192 16.9341 17.8432 16.9341 17.6224V15.0944C16.9341 14.8768 17.1101 14.6976 17.3309 14.6976H25.3725C25.5901 14.6976 25.7693 14.8736 25.7693 15.0944V17.6224C25.7693 17.8432 25.5901 18.0192 25.3725 18.0192ZM17.7277 17.2288H24.9789V15.4944H17.7277V17.2288ZM25.3725 22.0224H6.60774C6.39014 22.0224 6.21094 21.8464 6.21094 21.6256V19.6928C6.21094 19.4752 6.38694 19.296 6.60774 19.296H25.3725C25.5901 19.296 25.7693 19.472 25.7693 19.6928V21.6256C25.7693 21.8432 25.5901 22.0224 25.3725 22.0224ZM7.00134 21.2288H24.9757V20.0864H7.00134V21.2288ZM25.3725 13.8624H17.3309C17.1133 13.8624 16.9341 13.6864 16.9341 13.4656C16.9341 13.2448 17.1101 13.0688 17.3309 13.0688H25.3725C25.5901 13.0688 25.7693 13.2448 25.7693 13.4656C25.7693 13.6864 25.5901 13.8624 25.3725 13.8624ZM14.6717 25.616H6.63334C6.41574 25.616 6.23654 25.44 6.23654 25.2192V23.3344C6.23654 23.1168 6.41254 22.9376 6.63334 22.9376H14.6749C14.8925 22.9376 15.0717 23.1136 15.0717 23.3344V25.2192C15.0685 25.4368 14.8925 25.616 14.6717 25.616ZM7.02694 24.8224H14.2781V23.728H7.02694V24.8224ZM25.3725 23.7312H16.8221C16.6045 23.7312 16.4253 23.5552 16.4253 23.3344C16.4253 23.1168 16.6013 22.9376 16.8221 22.9376H25.3725C25.5901 22.9376 25.7693 23.1136 25.7693 23.3344C25.7693 23.552 25.5901 23.7312 25.3725 23.7312ZM25.3725 25.5744H16.8221C16.6045 25.5744 16.4253 25.3984 16.4253 25.1776C16.4253 24.9568 16.6013 24.7808 16.8221 24.7808H25.3725C25.5901 24.7808 25.7693 24.9568 25.7693 25.1776C25.7693 25.3984 25.5901 25.5744 25.3725 25.5744Z" fill="#121212"/>
<path d="M25.3887 12.2335H17.3343C17.1167 12.2335 16.9375 12.0575 16.9375 11.8367C16.9375 11.6159 17.1135 11.4399 17.3343 11.4399H25.3887C25.6063 11.4399 25.7855 11.6159 25.7855 11.8367C25.7855 12.0575 25.6063 12.2335 25.3887 12.2335Z" fill="#121212"/>
<path d="M21.3727 10.6016H17.3343C17.1167 10.6016 16.9375 10.4256 16.9375 10.2048C16.9375 9.98398 17.1135 9.80798 17.3343 9.80798H21.3727C21.5903 9.80798 21.7695 9.98398 21.7695 10.2048C21.7695 10.4256 21.5903 10.6016 21.3727 10.6016Z" fill="#121212"/>
</svg>
