<?xml version="1.0" encoding="UTF-8"?>
<svg version="1.1" viewBox="0 0 2048 568" width="1280" height="1280" xmlns="http://www.w3.org/2000/svg">
<path transform="translate(22,75)" d="m0 0h164l5 5 10 11 9 11 9 10 9 11 11 12 9 11 10 11 9 11 9 10 9 11 9 10 9 11 9 10 9 11 10 11 7 8 2 3 3-1 11-14 11-13 8-10 18-22 11-14 11-13 9-11 13-16 11-14 6-8-95 1-10 10-7 8-9 9-7-6-12-14-11-12-9-11-11-12-7-8-5-7h269l-2 4-13 16-11 14-14 17-27 33-13 16-9 11-13 16-18 22-13 16-9 11-13 16-18 22-10 11-9 11-3 3h-2v-2h-2l-8-10-12-13-9-11-12-13-9-11-11-12-7-8-11-13-10-11-9-11-11-12-9-11-11-12-7-8-12-14-9-10-9-11-3-3-9-1h-51l4 6 13 15 8 10 12 14 8 10 14 17 11 13 9 11 11 13 8 10 12 14 9 11 11 13 9 11 11 13 11 14 9 10 11 14 12 14 9 11 11 13 9 11 11 13 9 11 11 13 11 14 9 10 18 22 11 13 1 3h-56l-12-14-11-14-8-9-8-10-28-34-8-10-28-34-11-14-13-15-8-10-7-9h-3l-11 14-9 11-13 16-14 17-9 11-13 16-14 17-11 14-11 13h94l8-7 8-8 7-8 4-4 4 2 9 10 6 7v2h2l9 11 10 11 7 8 12 14 3 5h-269l2-4 8-10 14-17 11-14 11-13 11-14 11-13 11-14 12-14 11-14 11-13 8-10 13-16 11-14 12-14 8-11-2-5-9-10-8-10-13-16-28-34-18-22-14-17-18-22-28-34-9-11-13-16z" fill="#FD8F33"/>
<path transform="translate(1905,187)" d="m0 0h23l10 2 12 5 11 7 11 11 9 14 6 15 4 21v37l-4 20-6 16-7 11-11 12-10 7-14 6-8 2-9 1h-11l-14-2-15-6-11-8-10-10-8-13-6-14-4-18-1-8v-29l3-19 5-15 7-14 9-11 9-8 14-8zm6 34-9 3-6 5-5 7-5 14-2 17v28l3 19 4 10 7 9 8 5 3 1h16l8-4 7-7 5-10 4-17 1-13v-16l-2-19-4-13-6-10-7-6-5-2-6-1z" fill="#FEFEFE"/>
<path transform="translate(1404,187)" d="m0 0h65l15 3 16 8 9 7 5 4 9 12 8 16 4 14 2 22-1 21-3 15-6 15-9 14-5 6-10 8-10 6-18 6-7 1h-64l-1-1v-176zm40 33v112h21l10-3 8-6 7-11 4-15 1-9v-24l-2-14-4-12-8-11-12-6-5-1z" fill="#FEFEFE"/>
<path transform="translate(1137,187)" d="m0 0h40l1 1 1 131 4 10 5 6 8 3h16l8-4 5-6 3-13 1-128h40l1 1v126l-2 14-4 12-6 10-8 9-10 7-13 5-9 2-9 1h-12l-15-2-13-5-11-7-8-8-8-13-4-13-2-18v-119z" fill="#FEFEFE"/>
<path transform="translate(668,187)" d="m0 0h25l14 3 14 7 9 7 6 8 6 12 3 14v5h-40l-3-9-5-8-4-3-6-2h-14l-9 4-5 6-1 3v8l4 6 6 5 12 6 21 8 16 8 9 7 5 4 6 8 5 10 3 14-1 16-3 10-7 11-9 8-12 6-10 3-16 2h-11l-16-2-16-6-10-6-10-9-7-11-4-10-2-12v-5l1-1h39l2 7 4 12 6 5 8 3 6 1h9l10-3 4-2 2-5 1-3v-9l-4-8-8-6-19-8-21-9-12-7-12-11-6-10-4-10-1-5v-12l2-9 6-12 8-9 12-8 13-5z" fill="#FEFEFE"/>
<path transform="translate(871,187)" d="m0 0h140v32l-1 1h-49v144l-1 1h-40v-145h-49l-1-1v-31z" fill="#FEFEFE"/>
<path transform="translate(395,320)" d="m0 0 4 1 24 28 13 15 12 14 13 15 24 28 9 10 9 11 9 10 9 11 10 11 6 7v3h-47l-11-12-9-11-11-12-7-8-12-14-10-11-9-11-11-12-7-8-24-28-8-9 2-4 12-12 9-11z" fill="#FD8F33"/>
<path transform="translate(1670,187)" d="m0 0h39v178h-39z" fill="#FEFEFE"/>
</svg>
