<?xml version="1.0" encoding="UTF-8"?>
<svg version="1.1" viewBox="0 0 2048 877" width="1280" height="1280" xmlns="http://www.w3.org/2000/svg">
<path transform="translate(138,198)" d="m0 0h136l56 1 11 12 9 11 11 12 9 11 11 12 7 8 12 14 13 15 12 14 10 11 9 11 9 10 9 11 13 14 9 11 9 10 12 15 5 5 2 1 2-4 9-11 14-17 18-22 14-17 9-11 13-16 9-11 14-17 9-11 11-13 8-10-112 1-5 5-5 4-7 8-14 15-6-4-9-11-9-10-9-11-12-13-7-8-14-15-7-8v-2h316l-2 5-7 7-8 10-11 13-8 10-13 16-14 17-18 22-11 13-11 14-11 13-9 11-11 13-10 13-11 13-26 32-9 11-12 14-9 11-8 9-9 11-5-2-10-11-9-11-15-16-9-11-13-14-9-11-10-11-7-8-9-10-7-8-9-10-9-11-10-11-9-11-7-7-7-8-12-14-26-30-11-12-5-2h-67l3 5 13 14 9 11 9 10 9 11 14 17 8 10 9 10 9 11 13 16 12 14 11 13 11 14 9 10 9 11 9 10 11 14 11 13 12 14 9 11 11 13 9 11 13 15 11 14 13 15 12 14 11 14 8 9 9 11 13 15 18 22 12 14 11 13 5 7v2l-65-1-7-7-8-10-14-17-9-11-12-14-9-11-8-10-11-13-9-11-14-17-9-11-11-13-9-11-13-16-12-14-9-11-4-4-4 1-8 11-11 13-9 11-13 16-9 11-11 13-11 14-11 13-9 11-13 16-8 10-9 9-1 2 19-1h92l5-3 17-17 9-11h4l7 7 9 11 7 7 9 11 9 10 7 8 9 10 14 16v1h-317l3-5 12-14 14-17 11-13 11-14 11-13 14-17 11-14 13-15 11-14 11-13 8-10 11-13 8-10 14-17 13-16 8-10 11-12-1-5-10-11-9-11-11-13-11-14-12-14-11-14-12-14-18-22-14-17-9-11-12-14-11-14-11-13-8-10-11-13-9-11-11-12-2-4z" fill="#FE7A00"/>
<path transform="translate(574,483)" d="m0 0 4 1 22 26 10 11 9 11 11 12 9 11 10 11 7 8 9 10 9 11 9 10 9 11 9 10 9 11 13 14 9 11 8 9 1 3-2 1-53-1-5-4-7-8-24-28-11-12-9-10-7-8-12-14-13-15-10-11-7-8-9-10-7-8-13-15-7-9 20-20z" fill="#FE7A00"/>
<path transform="translate(1455,369)" d="m0 0h39l21 2 13 5 11 8 8 9 7 12 5 16 1 7v22l-3 16-8 16-10 13-11 7-11 4-11 2-13 1h-37l-1-1zm35 26-3 1v86l3 2h10l10-3 9-6 4-7 3-11 1-7v-22l-2-13-5-10-9-8-9-2z" fill="#FEFEFE"/>
<path transform="translate(1853,369)" d="m0 0h10l12 2 12 5 10 8 6 7 6 10 4 10 3 19v24l-2 16-4 12-7 12-9 10-10 5-15 2h-23l-15-2-6-3-8-7-7-11-6-12-4-17v-35l4-15 4-10 8-11 8-8 10-6 11-4zm1 27-8 3-5 5-5 7-4 15v34l3 12 5 8 8 7 6 2h9l8-4 7-7 3-8 2-10 1-15v-13l-2-16-6-12-8-6-5-2z" fill="#FEFEFE"/>
<path transform="translate(1246,369)" d="m0 0h15l17 1v92l1 13 3 7 7 4 12 2 9-2 5-4 2-10 1-102h33v51l-1 52-2 11-6 12-9 10-6 3-21 2h-17l-15-1-8-3-8-7-7-10-4-11-1-7-1-79v-23z" fill="#FEFEFE"/>
<path transform="translate(879,369)" d="m0 0h17l16 4 10 6 8 8 6 10 4 12-1 3-7 2h-23l-8-13-6-4-3-1h-9l-10 5-4 5 1 7 5 6 16 8 17 7 11 6 10 9 7 11 3 11v8l-3 11-4 8-6 7-8 4-17 2h-25l-13-1-11-4-5-4-7-10-5-10-1-3v-10l1-1h28l3 5 6 12 6 3 6 1h8l8-3 5-4 1-2v-8l-4-7-14-7-17-7-15-8-9-8-7-11-3-9v-12l4-11 9-10 9-7 14-5z" fill="#FEFEFE"/>
<path transform="translate(1038,369)" d="m0 0h91l18 1v24l-1 1h-38v112l-2 2h-27l-3-1-1-112-38-1-1-1v-24z" fill="#FEFEFE"/>
<path transform="translate(1664,369)" d="m0 0h27l4 1v138l-1 1h-26l-4-2z" fill="#FEFEFE"/>
</svg>
