<?xml version="1.0" encoding="UTF-8"?>
<svg version="1.1" viewBox="0 0 2048 1058" width="1280" height="1280" xmlns="http://www.w3.org/2000/svg">
<path transform="translate(514,379)" d="m0 0h99l9 10 7 7 7 8 9 9 7 8 7 7 7 8 7 7 7 8 9 9 7 8 8 8v2l5-5 14-15 7-8 9-10 12-14 11-12 7-8 3-4-57 1-7 7-8 7h-3l-15-16-10-10-7-8-3-4h162l-6 8-14 15-7 8-9 10-7 8-9 10-7 8-12 14-12 13-7 8-9 10-7 8-11 12-4-2-7-7-7-8-12-12-7-8-11-11-7-8-13-13-7-8-12-12-7-8-11-11-36-1v2h2l7 8 22 24 7 8 11 12 7 8 12 13 7 8 12 13 7 8 11 12 18 20 11 12 7 8 11 12 7 8 12 13 9 10 2 4h-33l-9-9-7-8-9-10-7-8-27-30-9-11-7-7-7-8-3-4-4 2-13 14-9 11-14 15-7 8-9 10-7 8-2 3 57-1 7-7 8-7 4 2 9 9 7 8 9 9 7 8 1 2h-161l6-8 14-15 7-8 9-10 7-8 9-10 9-11 14-15 7-8 9-10 7-8v-4l-12-13-7-8-27-30-7-8-9-10-7-8-27-30z" fill="#FF7400"/>
<path transform="translate(1418,456)" d="m0 0h16l10 4 8 7 5 10 2 7v19l-4 12-6 8-9 6-5 2h-17l-9-4-8-7-6-12-1-4v-21l4-11 4-6 8-7zm3 14-5 4-3 6-1 5v17l3 9 4 5 2 1h11l5-5 3-6 1-6v-13l-2-9-4-6-4-2z" fill="#FEFEFE"/>
<path transform="translate(1202,456)" d="m0 0h32l10 4 8 6 6 10 2 7v18l-4 11-9 10-10 5-5 1h-30zm18 13v45h12l5-3 4-7 1-4v-16l-3-9-6-5-3-1z" fill="#FEFEFE"/>
<path transform="translate(1085,456)" d="m0 0h18l1 53 3 6 2 1h11l4-4 1-4 1-52h18v51l-2 9-6 9-12 6h-19l-10-5-5-5-4-8-1-4z" fill="#FEFEFE"/>
<path transform="translate(877,456)" d="m0 0h18l9 4 6 5 4 9v4h-18l-2-5-5-3h-7l-5 3v8l25 10 9 8 3 7v9l-4 8-6 5-7 3h-20l-10-4-8-7-3-7v-7h17l4 9 5 2h8l5-3v-7l-5-4-18-7-9-6-5-8v-11l5-8 10-6z" fill="#FEFEFE"/>
<path transform="translate(738,514)" d="m0 0 7 6 14 15 12 13 32 34 12 13 6 6v2h2v2h-29l-11-12-12-12-7-8-10-10-7-8-13-13-7-8-4-5z" fill="#FF7400"/>
<path transform="translate(969,456)" d="m0 0h61l1 2v10l-1 1-21 1-1 58h-17l-1-58-21-1z" fill="#FEFEFE"/>
<path transform="translate(1318,456)" d="m0 0h18v71l-1 1h-16l-1-1z" fill="#FEFEFE"/>
</svg>
